<svg xmlns="http://www.w3.org/2000/svg" width="214" height="1091" viewBox="0 0 214 1091"><g transform="translate(1917.955 1120.555) rotate(-180)"><g transform="translate(1703.955 577.593)"><path d="M560.435,813.672H524.1c5.869-43.513,7.258-87.236,0-131.211h36.331C551.435,724.873,553.011,768.861,560.435,813.672Z" transform="translate(-433.342 -407.961)" fill="#237537"/><path d="M560.435,681.608H524.1c5.869-43.513,7.258-87.236,0-131.211h36.331C551.435,592.809,553.011,636.8,560.435,681.608Z" transform="translate(-433.342 -413.147)" fill="#237537"/><path d="M560.435,549.544H524.1c5.869-43.513,7.258-87.236,0-131.211h36.331C551.435,460.745,553.011,504.733,560.435,549.544Z" transform="translate(-433.342 -418.333)" fill="#237537"/><path d="M560.435,945.736H524.1c5.869-43.514,7.258-87.236,0-131.211h36.331C551.435,856.937,553.011,900.925,560.435,945.736Z" transform="translate(-433.342 -402.774)" fill="#237537"/><path d="M523.677,816.732c-18.406,3.292-51.952,11.753-86.973,25.058l34.358-4.64a137.9,137.9,0,0,0,47.131-17.185Z" transform="translate(-436.704 -402.688)" fill="#237537"/><path d="M524.758,817.443c-15.343-10.687-45.047-28.424-79.218-43.78l27.577,21.014A137.9,137.9,0,0,0,518.6,815.851Z" transform="translate(-436.357 -404.379)" fill="#237537"/><path d="M559.367,678.005c10.688-15.343,28.425-45.046,43.78-79.218l-21.013,27.577a137.9,137.9,0,0,0-21.175,45.478Z" transform="translate(-431.989 -411.247)" fill="#237537"/><path d="M560,675.319c3.4-18.386,7.306-52.761,7.194-90.224l-7.763,33.79a137.933,137.933,0,0,0-.523,50.163Z" transform="translate(-432.069 -411.784)" fill="#237537"/><path d="M559.062,677.6c18.407-3.292,51.952-11.753,86.973-25.059l-34.359,4.641a137.906,137.906,0,0,0-47.13,17.185Z" transform="translate(-432.035 -409.136)" fill="#237537"/></g><g transform="translate(1703.955 29.555)"><path d="M560.435,813.672H524.1c5.869-43.513,7.258-87.236,0-131.211h36.331C551.435,724.873,553.011,768.861,560.435,813.672Z" transform="translate(-433.342 -407.961)" fill="#237537"/><path d="M560.435,681.608H524.1c5.869-43.513,7.258-87.236,0-131.211h36.331C551.435,592.809,553.011,636.8,560.435,681.608Z" transform="translate(-433.342 -413.147)" fill="#237537"/><path d="M560.435,549.544H524.1c5.869-43.513,7.258-87.236,0-131.211h36.331C551.435,460.745,553.011,504.733,560.435,549.544Z" transform="translate(-433.342 -418.333)" fill="#237537"/><path d="M560.435,945.736H524.1c5.869-43.514,7.258-87.236,0-131.211h36.331C551.435,856.937,553.011,900.925,560.435,945.736Z" transform="translate(-433.342 -402.774)" fill="#237537"/><path d="M523.677,816.732c-18.406,3.292-51.952,11.753-86.973,25.058l34.358-4.64a137.9,137.9,0,0,0,47.131-17.185Z" transform="translate(-436.704 -402.688)" fill="#237537"/><path d="M524.758,817.443c-15.343-10.687-45.047-28.424-79.218-43.78l27.577,21.014A137.9,137.9,0,0,0,518.6,815.851Z" transform="translate(-436.357 -404.379)" fill="#237537"/><path d="M559.367,678.005c10.688-15.343,28.425-45.046,43.78-79.218l-21.013,27.577a137.9,137.9,0,0,0-21.175,45.478Z" transform="translate(-431.989 -411.247)" fill="#237537"/><path d="M560,675.319c3.4-18.386,7.306-52.761,7.194-90.224l-7.763,33.79a137.933,137.933,0,0,0-.523,50.163Z" transform="translate(-432.069 -411.784)" fill="#237537"/><path d="M559.062,677.6c18.407-3.292,51.952-11.753,86.973-25.059l-34.359,4.641a137.906,137.906,0,0,0-47.13,17.185Z" transform="translate(-432.035 -409.136)" fill="#237537"/></g></g></svg>