<svg xmlns="http://www.w3.org/2000/svg" width="215" height="1095" viewBox="0 0 215 1095"><g transform="translate(215 1095.998) rotate(180)"><g transform="translate(0.07 0.998)"><path d="M36.476,0H0C5.892,43.687,7.287,87.584,0,131.735H36.476C27.44,89.154,29.023,44.99,36.476,0Z" transform="translate(91.164 137.798)" fill="#44894c"/><path d="M36.476,0H0C5.892,43.687,7.287,87.584,0,131.735H36.476C27.44,89.154,29.023,44.99,36.476,0Z" transform="translate(91.164 275.596)" fill="#44894c"/><path d="M36.476,0H0C5.892,43.687,7.287,87.584,0,131.734H36.476C27.44,89.154,29.023,44.99,36.476,0Z" transform="translate(91.164 413.394)" fill="#44894c"/><path d="M36.476,0H0C5.892,43.688,7.287,87.584,0,131.735H36.476C27.44,89.154,29.023,44.99,36.476,0Z" transform="translate(91.164)" fill="#44894c"/><path d="M87.32,25.158C68.84,21.852,35.161,13.358,0,0L34.5,4.659A138.451,138.451,0,0,1,81.814,21.913Z" transform="translate(0 104.274)" fill="#5eac68"/><path d="M79.534,0C64.13,10.729,34.308,28.537,0,43.955l27.687-21.1A138.444,138.444,0,0,1,73.347,1.6Z" transform="translate(9.22 130.416)" fill="#5eac68"/><path d="M0,0C10.731,15.4,28.539,45.226,43.955,79.534l-21.1-27.687A138.448,138.448,0,0,1,1.6,6.187Z" transform="translate(127.943 277.305)" fill="#5eac68"/><path d="M3.151,0c3.418,18.459,7.335,52.971,7.223,90.584L2.579,56.66A138.483,138.483,0,0,1,2.054,6.3Z" transform="translate(125.336 280.542)" fill="#5eac68"/><path d="M0,0C18.48,3.306,52.159,11.8,87.32,25.159l-34.5-4.66A138.457,138.457,0,0,1,5.506,3.245Z" transform="translate(127.61 275.596)" fill="#5eac68"/></g><g transform="translate(0 550.87)"><path d="M36.476,0H0C5.892,43.687,7.287,87.584,0,131.735H36.476C27.44,89.154,29.023,44.99,36.476,0Z" transform="translate(91.164 137.798)" fill="#44894c"/><path d="M36.476,0H0C5.892,43.687,7.287,87.584,0,131.735H36.476C27.44,89.154,29.023,44.99,36.476,0Z" transform="translate(91.164 275.596)" fill="#44894c"/><path d="M36.476,0H0C5.892,43.687,7.287,87.584,0,131.734H36.476C27.44,89.154,29.023,44.99,36.476,0Z" transform="translate(91.164 413.394)" fill="#44894c"/><path d="M36.476,0H0C5.892,43.688,7.287,87.584,0,131.735H36.476C27.44,89.154,29.023,44.99,36.476,0Z" transform="translate(91.164 0)" fill="#44894c"/><path d="M87.32,25.158C68.84,21.852,35.161,13.358,0,0L34.5,4.659A138.451,138.451,0,0,1,81.814,21.913Z" transform="translate(0 104.274)" fill="#5eac68"/><path d="M79.534,0C64.13,10.729,34.308,28.537,0,43.955l27.687-21.1A138.444,138.444,0,0,1,73.347,1.6Z" transform="translate(9.22 130.416)" fill="#5eac68"/><path d="M0,0C10.731,15.4,28.539,45.226,43.955,79.534l-21.1-27.687A138.448,138.448,0,0,1,1.6,6.187Z" transform="translate(127.943 277.305)" fill="#5eac68"/><path d="M3.151,0c3.418,18.459,7.335,52.971,7.223,90.584L2.579,56.66A138.483,138.483,0,0,1,2.054,6.3Z" transform="translate(125.336 280.542)" fill="#5eac68"/><path d="M0,0C18.48,3.306,52.159,11.8,87.32,25.159l-34.5-4.66A138.457,138.457,0,0,1,5.506,3.245Z" transform="translate(127.61 275.596)" fill="#5eac68"/></g></g></svg>