<svg xmlns="http://www.w3.org/2000/svg" xmlns:xlink="http://www.w3.org/1999/xlink" width="422" height="183" viewBox="0 0 422 183"><defs><linearGradient id="a" y1="0.244" x2="0.906" y2="0.776" gradientUnits="objectBoundingBox"><stop offset="0" stop-color="#c21b15"/><stop offset="1" stop-color="#882724"/></linearGradient></defs><g opacity="0.51"><g transform="translate(0 0)"><path d="M564.734,678.369q2.722,0,5.4-.212c14.677-1.158,28.144-7.1,41.1-18.154a117.792,117.792,0,0,0,21.713,9,97.838,97.838,0,0,0,23.269,4.065c15.156.722,29.183-2.549,40.563-9.456A56.509,56.509,0,0,0,718.048,640.7c4.947-9.742,7.318-21.041,7.052-33.6,8.122-10.7,12.528-22.841,12.756-35.2a54.753,54.753,0,0,0-23.036-45.577,55.9,55.9,0,0,0-16.592-8.058,60.689,60.689,0,0,0-19.7-2.38,72.993,72.993,0,0,0-19.972,3.743c-30.969-27.064-60.713-31.185-88.474-12.263a133.542,133.542,0,0,0-34.447-10.789,85.25,85.25,0,0,0-30.942.417,62.256,62.256,0,0,0-24.441,10.8A57.749,57.749,0,0,0,463.7,527a82.734,82.734,0,0,0-8.679,26.067,54.825,54.825,0,0,0,.035,17.014,40.335,40.335,0,0,0,6.9,16.848c12.736,17.833,27.4,22.279,37.458,22.868a43.964,43.964,0,0,0,5.012,0,21.649,21.649,0,0,0-6.15,9.34c-2.062,6.211-1.428,13.577,1.885,21.892a76.131,76.131,0,0,0,10.356,17.7c3,3.847,9.329,7.811,12.87,9.4a125.372,125.372,0,0,0,23.912,8.206A79.523,79.523,0,0,0,564.734,678.369Zm45.578-26.732-1.837,1.641c-23.735,21.212-48.337,23.779-82.265,8.584-3.285-1.472-8.366-4.924-10.249-7.342-7.515-9.653-14.389-23.45-11.143-33.225,1.911-5.756,7.341-9.915,16.137-12.361,13.186-3.665,16.782-.881,23.047,5.249,3.741,3.661,4.53,13.674,2.2,17.2-2.615,3.953-9.45,6.514-14.341,5.372-2.449-.572-4.039-1.842-4.474-3.576a3.089,3.089,0,0,1,.774-3.035c1.079-.944,2.793-.478,3.719-.115a3.437,3.437,0,1,0,2.521-6.394c-4.063-1.59-8-1.1-10.792,1.349a9.948,9.948,0,0,0-2.912,9.864,10.924,10.924,0,0,0,3.2,5.339,13.865,13.865,0,0,0,6.394,3.258c7.735,1.806,17.457-1.908,21.673-8.281,2.057-3.11,2.883-7.922,2.265-13.2-.621-5.311-2.585-9.932-5.39-12.676-3.409-3.336-6.866-6.451-11.674-7.924a21.735,21.735,0,0,0-6.439-.914h-.014a53.956,53.956,0,0,0,9.072-7.947,40.159,40.159,0,0,0,8.52-13.87,30.072,30.072,0,0,0,1.446-13.413,35.983,35.983,0,0,0-6.914-16.847A46.843,46.843,0,0,0,531.5,537.314a40.526,40.526,0,0,0-12.94-5.7,47.024,47.024,0,0,0-13.713-1.345c-9.44.452-17.8,3.648-22.932,8.768a17.657,17.657,0,0,0-5.407,11.678c-.239,4.637,1.357,9.5,4.744,14.442,6.741,9.839,13.7,11.019,18.355,10.277a17.281,17.281,0,0,0,9.411-5.046,19.31,19.31,0,0,0,4.891-7.9c1.237-4.263-.4-6.493-1.481-7.443a3.442,3.442,0,0,0-4.978,4.715,8.726,8.726,0,0,1-1.694,3.846,12.782,12.782,0,0,1-5.511,4.566,7.615,7.615,0,0,1-5.741.013c-2.568-1.007-5.11-3.328-7.557-6.9-3.257-4.756-5.928-11.633-.154-17.392,3.878-3.868,10.751-6.4,18.385-6.761,8.192-.392,16.371,1.744,22.442,5.86,6.285,4.262,14.056,12.852,15.275,23.037.9,7.507-1.871,14.861-8.229,21.858-9.1,10.009-22.458,15.776-34.853,15.049-12.267-.719-23.417-7.632-32.245-19.993-14.488-20.29.455-49.445,2.207-52.7,16.311-30.338,55.239-36.548,99.174-15.82l1.838.867,1.651-1.184c26.056-18.679,53.214-14.761,83.023,11.979L657,527.458l1.941-.7c29.993-10.754,52.175,1.271,62.932,16.111,13.119,18.1,11.955,42.03-2.964,60.975l-.777.986.044,1.253c.8,23.049-8.07,41.4-24.98,51.66-21.267,12.909-52.2,11.029-80.73-4.907Z" transform="translate(-315.865 -495.369)" fill="url(#a)"/><path d="M699.877,628.641a81.811,81.811,0,0,0,21.065-2.771,95.715,95.715,0,0,0,27.8-12.672,3.453,3.453,0,1,0-3.787-5.774c-32.532,21.338-68.745,18.593-102-7.721a131.224,131.224,0,0,0-13.523-13.5c-11.049-9.52-21.183-14.846-30.119-15.828a34.318,34.318,0,0,0-13.471,1,18.732,18.732,0,0,0-11.85,9.9c-3.038,6.4-4.426,12.041-4.124,16.767.3,4.656,2.3,8.377,5.634,10.477a12.093,12.093,0,0,0,5.927,1.811,12.836,12.836,0,0,1-4.107,1.444c-5.4.836-10.283-3.075-14.505-11.624-11.03-22.33.971-38.158,12.981-47.5a86.424,86.424,0,0,1,28.819-14.3,52.694,52.694,0,0,1,11.847-2.071c3.361-.117,4.819.444,5.117.682a3.453,3.453,0,0,0,5.2-4.543c-1.706-1.972-4.6-2.971-8.853-3.055a50.337,50.337,0,0,0-12.12,1.549,94.948,94.948,0,0,0-29.431,12.825,70.255,70.255,0,0,0-12.651,10.592,47.893,47.893,0,0,0-9.052,13.6,37.962,37.962,0,0,0-3.109,16.532,46.356,46.356,0,0,0,5.06,18.755c2.949,5.97,6.413,10.285,10.3,12.826a15.923,15.923,0,0,0,11.747,2.517c4.543-.783,9.256-3.556,13.272-7.806,3.324-3.518,5.676-7.521,5.991-10.2l1.4-11.849-7.509,9.271a15.069,15.069,0,0,1-7.116,5.059,6.808,6.808,0,0,1-5.522-.354c-1.807-1.138-2.315-3.387-2.422-5.074-.156-2.435.32-6.73,3.471-13.366,3.54-7.458,13-7.588,18.328-7,18.213,2,39.116,26.911,39.324,27.162l.227.273.279.222a119.143,119.143,0,0,0,26.51,16.188,89.739,89.739,0,0,0,27.786,7.239Q696.276,628.641,699.877,628.641Z" transform="translate(-551.534 -452.071)" fill="url(#a)"/><path d="M596.549,576.88a22.137,22.137,0,0,0,7.923-1.453A20.965,20.965,0,0,0,613.31,569a27.061,27.061,0,0,0,2.584-3.851c3.125-5.695,3.191-12.263.17-16.737-1.6-2.374-5.509-6.209-13.666-5.236a14,14,0,0,0-5.538,1.7,8.037,8.037,0,0,0-3.363,3.681c-2.223,5,1.614,10.664,2.058,11.293l5.639-3.986.009.013c-.868-1.252-1.818-3.576-1.394-4.518.2-.448,1.215-1.064,3.409-1.327,2.368-.283,5.526-.123,7.124,2.244,1.564,2.316,1.363,6.153-.5,9.548a20.1,20.1,0,0,1-1.92,2.857,14.568,14.568,0,0,1-13.368,5.168c-5.04-.643-8.478-2.4-10.51-5.372-1.931-2.824-2.714-6.976-2.326-12.34a18.218,18.218,0,0,1,1.6-5.28c.418-1.022.851-2.079,1.222-3.2,3.224-9.772,9.276-16.709,17.5-20.059,11.607-4.727,26.867-2.49,44.129,6.468a3.453,3.453,0,1,0,3.181-6.129c-9.545-4.953-18.7-8.033-27.2-9.154-8.408-1.108-16.05-.294-22.713,2.42-10.159,4.137-17.579,12.538-21.457,24.293-.295.9-.664,1.8-1.054,2.749a23.99,23.99,0,0,0-2.094,7.4c-.51,7.06.639,12.535,3.514,16.738,3.166,4.628,8.325,7.428,15.335,8.323A22.657,22.657,0,0,0,596.549,576.88Z" transform="translate(-505.874 -471.067)" fill="url(#a)"/><path d="M500,626.526a39.246,39.246,0,0,0,23.681-8.023,47,47,0,0,0,12.959-11.839,34.71,34.71,0,0,0,6-13.9,43.952,43.952,0,0,0,.108-14.886,80.292,80.292,0,0,0-4.023-15.28,12.349,12.349,0,0,0-.628-1.451l-.006-.013c-5.918-11.478-12.951-19.976-20.9-25.257a40.4,40.4,0,0,0-26.582-6.578,3.822,3.822,0,0,1-3.863-2.353c-3.188-7.917-10.074-19.464-14.169-23.76a3.453,3.453,0,1,0-5,4.764c3.175,3.331,9.688,13.941,12.762,21.575a10.714,10.714,0,0,0,10.882,6.652c16.876-1.507,30.2,7.69,40.732,28.115a5.5,5.5,0,0,1,.274.632c8.177,22.792,4.483,37.091-12.352,47.818l-.1.064-.1.071c-10.058,7.427-21.2,8.717-34.057,3.944a24.375,24.375,0,0,1-14.886-15.9c-2.157-7.375-1.895-13.942.8-20.078a4.305,4.305,0,0,1,.569-.931c6.1-7.633,12.7-9.073,20.755-4.532a14.869,14.869,0,0,1,7.529,9.45,9.293,9.293,0,0,1-2.719,9.076c-3.1,2.454-5.539,2.364-9.581-.314a3.453,3.453,0,1,0-3.814,5.756,17.128,17.128,0,0,0,8.192,3.189,13.529,13.529,0,0,0,9.7-3.387l.145-.118.131-.132c4.4-4.439,5.977-9.67,4.69-15.545a21.752,21.752,0,0,0-10.885-13.99c-11.073-6.241-21.288-4.084-29.541,6.238a11.326,11.326,0,0,0-1.494,2.46,33.2,33.2,0,0,0-2.8,12.33,39.9,39.9,0,0,0,1.7,12.467,31.1,31.1,0,0,0,7.138,12.483,31.565,31.565,0,0,0,11.972,7.948A48.187,48.187,0,0,0,500,626.526Z" transform="translate(-139.784 -486.585)" fill="url(#a)"/></g></g></svg>