<svg xmlns="http://www.w3.org/2000/svg" xmlns:xlink="http://www.w3.org/1999/xlink" width="127" height="861" viewBox="0 0 127 861"><defs><clipPath id="a"><rect width="127" height="861" fill="none"/></clipPath><linearGradient id="b" x1="0.104" y1="0.056" x2="0.916" y2="0.953" gradientUnits="objectBoundingBox"><stop offset="0" stop-color="#f7e227"/><stop offset="1" stop-color="#c29837"/></linearGradient></defs><g clip-path="url(#a)"><g transform="translate(0 0)"><g transform="translate(0 0)"><path d="M487.7,550.837q.822,0,1.631-.064a21.334,21.334,0,0,0,12.412-5.5A35.494,35.494,0,0,0,508.3,548a29.445,29.445,0,0,0,7.027,1.232,21.449,21.449,0,0,0,12.249-2.866A17.1,17.1,0,0,0,534,539.418a21.33,21.33,0,0,0,2.129-10.185,18.217,18.217,0,0,0,3.852-10.668,16.608,16.608,0,0,0-6.956-13.815,16.854,16.854,0,0,0-5.01-2.442,18.263,18.263,0,0,0-5.95-.721,21.968,21.968,0,0,0-6.031,1.134c-9.352-8.2-18.334-9.452-26.717-3.717a40.218,40.218,0,0,0-10.4-3.27,25.649,25.649,0,0,0-9.343.126,18.765,18.765,0,0,0-7.38,3.273,17.486,17.486,0,0,0-5,5.822,25.139,25.139,0,0,0-2.621,7.9,16.679,16.679,0,0,0,.011,5.157,12.25,12.25,0,0,0,2.083,5.107c3.846,5.405,8.274,6.753,11.311,6.931a13.217,13.217,0,0,0,1.513,0,6.563,6.563,0,0,0-1.857,2.831,9.685,9.685,0,0,0,.569,6.635,23.1,23.1,0,0,0,3.127,5.365,12,12,0,0,0,3.886,2.848,37.767,37.767,0,0,0,7.221,2.487A23.937,23.937,0,0,0,487.7,550.837Zm13.763-8.1-.555.5c-7.167,6.429-14.6,7.207-24.842,2.6a10.163,10.163,0,0,1-3.095-2.225c-2.269-2.926-4.345-7.108-3.365-10.071.577-1.745,2.217-3.005,4.873-3.747,3.982-1.111,5.068-.267,6.959,1.591a5.409,5.409,0,0,1,.664,5.213,4.544,4.544,0,0,1-4.331,1.628,1.634,1.634,0,0,1-1.351-1.084.938.938,0,0,1,.234-.92,1.139,1.139,0,0,1,1.123-.035,1.041,1.041,0,0,0,.761-1.938,3.08,3.08,0,0,0-3.259.409,3.023,3.023,0,0,0-.879,2.99,3.313,3.313,0,0,0,.965,1.618,4.18,4.18,0,0,0,1.931.987,6.581,6.581,0,0,0,6.544-2.51,6.177,6.177,0,0,0,.684-4A6.5,6.5,0,0,0,482.9,529.9a8.74,8.74,0,0,0-3.525-2.4,6.537,6.537,0,0,0-1.944-.277h0a16.308,16.308,0,0,0,2.74-2.409,12.182,12.182,0,0,0,2.573-4.2,9.148,9.148,0,0,0,.437-4.065,10.929,10.929,0,0,0-2.088-5.107,14.168,14.168,0,0,0-3.421-3.351,12.214,12.214,0,0,0-3.907-1.727,14.15,14.15,0,0,0-4.141-.408,10.549,10.549,0,0,0-6.925,2.658,5.361,5.361,0,0,0-1.633,3.54,7.146,7.146,0,0,0,1.433,4.377c2.036,2.982,4.138,3.34,5.543,3.115a5.213,5.213,0,0,0,2.842-1.53,5.857,5.857,0,0,0,1.477-2.395,2.035,2.035,0,0,0-.447-2.256,1.041,1.041,0,0,0-1.5,1.429,2.651,2.651,0,0,1-.512,1.166,3.863,3.863,0,0,1-1.664,1.384,2.291,2.291,0,0,1-1.734,0,5.38,5.38,0,0,1-2.282-2.091c-.984-1.441-1.79-3.526-.047-5.272a8.606,8.606,0,0,1,5.552-2.049A11.29,11.29,0,0,1,476.5,509.8a10.7,10.7,0,0,1,4.613,6.983,8.287,8.287,0,0,1-2.485,6.625,13.6,13.6,0,0,1-10.525,4.562c-3.7-.218-7.071-2.313-9.737-6.06-4.375-6.15.137-14.987.666-15.974,4.926-9.2,16.681-11.078,29.948-4.8l.555.263.5-.359c7.868-5.662,16.069-4.474,25.071,3.631l.463.417.586-.211c9.057-3.26,15.755.385,19,4.883,3.961,5.485,3.61,12.739-.9,18.482l-.235.3.013.38c.242,6.986-2.437,12.547-7.543,15.658-6.422,3.913-15.763,3.343-24.378-1.487Z" transform="translate(-412.608 -495.369)" fill="url(#b)"/><path d="M596.266,559.3a24.67,24.67,0,0,0,6.352-.836A28.864,28.864,0,0,0,611,554.638a1.041,1.041,0,1,0-1.142-1.741c-9.81,6.435-20.73,5.607-30.759-2.328a39.564,39.564,0,0,0-4.078-4.071c-3.332-2.871-6.388-4.477-9.082-4.773a10.348,10.348,0,0,0-4.062.3,5.649,5.649,0,0,0-3.573,2.985,10.586,10.586,0,0,0-1.243,5.056,3.871,3.871,0,0,0,1.7,3.159,3.646,3.646,0,0,0,1.787.546,3.874,3.874,0,0,1-1.239.435c-1.629.252-3.1-.927-4.374-3.505-3.326-6.734.293-11.507,3.914-14.325a26.06,26.06,0,0,1,8.69-4.312,15.89,15.89,0,0,1,3.573-.625,2.936,2.936,0,0,1,1.543.206,1.041,1.041,0,0,0,1.568-1.37,3.456,3.456,0,0,0-2.67-.921,15.181,15.181,0,0,0-3.655.467,28.63,28.63,0,0,0-8.875,3.867,21.188,21.188,0,0,0-3.815,3.194,14.443,14.443,0,0,0-2.73,4.1,11.448,11.448,0,0,0-.937,4.985,13.978,13.978,0,0,0,1.526,5.656,9.535,9.535,0,0,0,3.1,3.868,4.8,4.8,0,0,0,3.542.759,7.475,7.475,0,0,0,4-2.354,6.483,6.483,0,0,0,1.807-3.075l.421-3.573-2.264,2.8a4.543,4.543,0,0,1-2.146,1.525,2.053,2.053,0,0,1-1.665-.107,1.894,1.894,0,0,1-.73-1.53,8.449,8.449,0,0,1,1.047-4.031c1.068-2.249,3.921-2.288,5.527-2.111,5.492.6,11.8,8.115,11.858,8.191l.069.083.084.067a35.926,35.926,0,0,0,7.994,4.881A27.063,27.063,0,0,0,594.1,559.2Q595.18,559.3,596.266,559.3Z" transform="translate(-551.534 -505.766)" fill="url(#b)"/><path d="M581.3,533.17a6.676,6.676,0,0,0,2.389-.438,6.323,6.323,0,0,0,2.665-1.939,8.172,8.172,0,0,0,.779-1.161,4.926,4.926,0,0,0,.051-5.047,4.033,4.033,0,0,0-4.121-1.579,4.22,4.22,0,0,0-1.67.513,2.424,2.424,0,0,0-1.014,1.11c-.67,1.508.487,3.216.621,3.405l1.7-1.2,0,0c-.262-.378-.548-1.078-.42-1.362.061-.135.367-.321,1.028-.4a2.189,2.189,0,0,1,2.148.677,2.9,2.9,0,0,1-.151,2.879,6.065,6.065,0,0,1-.579.862,4.393,4.393,0,0,1-4.031,1.558,4.224,4.224,0,0,1-3.169-1.62,5.837,5.837,0,0,1-.7-3.721,5.493,5.493,0,0,1,.482-1.592c.126-.308.257-.627.368-.966a9.35,9.35,0,0,1,5.278-6.049c3.5-1.425,8.1-.751,13.307,1.95a1.041,1.041,0,0,0,.959-1.848,25.19,25.19,0,0,0-8.2-2.76,13.361,13.361,0,0,0-6.849.73,11.368,11.368,0,0,0-6.47,7.325c-.089.27-.2.541-.318.829a7.234,7.234,0,0,0-.631,2.231,7.7,7.7,0,0,0,1.06,5.047,6.245,6.245,0,0,0,4.624,2.51A6.834,6.834,0,0,0,581.3,533.17Z" transform="translate(-553.93 -501.16)" fill="url(#b)"/><path d="M473.735,539.632a11.834,11.834,0,0,0,7.141-2.419,14.171,14.171,0,0,0,3.908-3.57,10.467,10.467,0,0,0,1.809-4.191,13.252,13.252,0,0,0,.033-4.489,24.208,24.208,0,0,0-1.213-4.608,3.725,3.725,0,0,0-.189-.437l0,0a19.765,19.765,0,0,0-6.3-7.616,12.182,12.182,0,0,0-8.016-1.984,1.152,1.152,0,0,1-1.165-.709,29.21,29.21,0,0,0-4.273-7.165,1.041,1.041,0,1,0-1.507,1.437,27.527,27.527,0,0,1,3.848,6.506,3.231,3.231,0,0,0,3.281,2.006c5.089-.455,9.107,2.319,12.283,8.478a1.658,1.658,0,0,1,.083.191c2.466,6.873,1.352,11.185-3.725,14.419l-.03.019-.029.021c-3.033,2.24-6.392,2.629-10.27,1.189a7.35,7.35,0,0,1-4.489-4.793,8.552,8.552,0,0,1,.241-6.054,1.3,1.3,0,0,1,.171-.281c1.84-2.3,3.829-2.736,6.259-1.367a4.483,4.483,0,0,1,2.27,2.85,2.8,2.8,0,0,1-.82,2.737c-.934.74-1.67.713-2.889-.095a1.041,1.041,0,1,0-1.15,1.736,5.165,5.165,0,0,0,2.47.962,4.079,4.079,0,0,0,2.926-1.021l.044-.035.04-.04a4.854,4.854,0,0,0,1.414-4.688A6.56,6.56,0,0,0,472.6,522.4c-3.339-1.882-6.419-1.232-8.908,1.881a3.416,3.416,0,0,0-.45.742,10.012,10.012,0,0,0-.846,3.718,12.031,12.031,0,0,0,.512,3.759,9.378,9.378,0,0,0,2.152,3.764,9.519,9.519,0,0,0,3.61,2.4A14.531,14.531,0,0,0,473.735,539.632Z" transform="translate(-364.991 -497.433)" fill="url(#b)"/></g></g><g transform="translate(0 76)"><g transform="translate(0 0)"><path d="M487.7,550.837q.822,0,1.631-.064a21.334,21.334,0,0,0,12.412-5.5A35.494,35.494,0,0,0,508.3,548a29.445,29.445,0,0,0,7.027,1.232,21.449,21.449,0,0,0,12.249-2.866A17.1,17.1,0,0,0,534,539.418a21.33,21.33,0,0,0,2.129-10.185,18.217,18.217,0,0,0,3.852-10.668,16.608,16.608,0,0,0-6.956-13.815,16.854,16.854,0,0,0-5.01-2.442,18.263,18.263,0,0,0-5.95-.721,21.968,21.968,0,0,0-6.031,1.134c-9.352-8.2-18.334-9.452-26.717-3.717a40.218,40.218,0,0,0-10.4-3.27,25.649,25.649,0,0,0-9.343.126,18.765,18.765,0,0,0-7.38,3.273,17.486,17.486,0,0,0-5,5.822,25.139,25.139,0,0,0-2.621,7.9,16.679,16.679,0,0,0,.011,5.157,12.25,12.25,0,0,0,2.083,5.107c3.846,5.405,8.274,6.753,11.311,6.931a13.217,13.217,0,0,0,1.513,0,6.563,6.563,0,0,0-1.857,2.831,9.685,9.685,0,0,0,.569,6.635,23.1,23.1,0,0,0,3.127,5.365,12,12,0,0,0,3.886,2.848,37.767,37.767,0,0,0,7.221,2.487A23.937,23.937,0,0,0,487.7,550.837Zm13.763-8.1-.555.5c-7.167,6.429-14.6,7.207-24.842,2.6a10.163,10.163,0,0,1-3.095-2.225c-2.269-2.926-4.345-7.108-3.365-10.071.577-1.745,2.217-3.005,4.873-3.747,3.982-1.111,5.068-.267,6.959,1.591a5.409,5.409,0,0,1,.664,5.213,4.544,4.544,0,0,1-4.331,1.628,1.634,1.634,0,0,1-1.351-1.084.938.938,0,0,1,.234-.92,1.139,1.139,0,0,1,1.123-.035,1.041,1.041,0,0,0,.761-1.938,3.08,3.08,0,0,0-3.259.409,3.023,3.023,0,0,0-.879,2.99,3.313,3.313,0,0,0,.965,1.618,4.18,4.18,0,0,0,1.931.987,6.581,6.581,0,0,0,6.544-2.51,6.177,6.177,0,0,0,.684-4A6.5,6.5,0,0,0,482.9,529.9a8.74,8.74,0,0,0-3.525-2.4,6.537,6.537,0,0,0-1.944-.277h0a16.308,16.308,0,0,0,2.74-2.409,12.182,12.182,0,0,0,2.573-4.2,9.148,9.148,0,0,0,.437-4.065,10.929,10.929,0,0,0-2.088-5.107,14.168,14.168,0,0,0-3.421-3.351,12.214,12.214,0,0,0-3.907-1.727,14.15,14.15,0,0,0-4.141-.408,10.549,10.549,0,0,0-6.925,2.658,5.361,5.361,0,0,0-1.633,3.54,7.146,7.146,0,0,0,1.433,4.377c2.036,2.982,4.138,3.34,5.543,3.115a5.213,5.213,0,0,0,2.842-1.53,5.857,5.857,0,0,0,1.477-2.395,2.035,2.035,0,0,0-.447-2.256,1.041,1.041,0,0,0-1.5,1.429,2.651,2.651,0,0,1-.512,1.166,3.863,3.863,0,0,1-1.664,1.384,2.291,2.291,0,0,1-1.734,0,5.38,5.38,0,0,1-2.282-2.091c-.984-1.441-1.79-3.526-.047-5.272a8.606,8.606,0,0,1,5.552-2.049A11.29,11.29,0,0,1,476.5,509.8a10.7,10.7,0,0,1,4.613,6.983,8.287,8.287,0,0,1-2.485,6.625,13.6,13.6,0,0,1-10.525,4.562c-3.7-.218-7.071-2.313-9.737-6.06-4.375-6.15.137-14.987.666-15.974,4.926-9.2,16.681-11.078,29.948-4.8l.555.263.5-.359c7.868-5.662,16.069-4.474,25.071,3.631l.463.417.586-.211c9.057-3.26,15.755.385,19,4.883,3.961,5.485,3.61,12.739-.9,18.482l-.235.3.013.38c.242,6.986-2.437,12.547-7.543,15.658-6.422,3.913-15.763,3.343-24.378-1.487Z" transform="translate(-412.608 -495.369)" fill="url(#b)"/><path d="M596.266,559.3a24.67,24.67,0,0,0,6.352-.836A28.864,28.864,0,0,0,611,554.638a1.041,1.041,0,1,0-1.142-1.741c-9.81,6.435-20.73,5.607-30.759-2.328a39.564,39.564,0,0,0-4.078-4.071c-3.332-2.871-6.388-4.477-9.082-4.773a10.348,10.348,0,0,0-4.062.3,5.649,5.649,0,0,0-3.573,2.985,10.586,10.586,0,0,0-1.243,5.056,3.871,3.871,0,0,0,1.7,3.159,3.646,3.646,0,0,0,1.787.546,3.874,3.874,0,0,1-1.239.435c-1.629.252-3.1-.927-4.374-3.505-3.326-6.734.293-11.507,3.914-14.325a26.06,26.06,0,0,1,8.69-4.312,15.89,15.89,0,0,1,3.573-.625,2.936,2.936,0,0,1,1.543.206,1.041,1.041,0,0,0,1.568-1.37,3.456,3.456,0,0,0-2.67-.921,15.181,15.181,0,0,0-3.655.467,28.63,28.63,0,0,0-8.875,3.867,21.188,21.188,0,0,0-3.815,3.194,14.443,14.443,0,0,0-2.73,4.1,11.448,11.448,0,0,0-.937,4.985,13.978,13.978,0,0,0,1.526,5.656,9.535,9.535,0,0,0,3.1,3.868,4.8,4.8,0,0,0,3.542.759,7.475,7.475,0,0,0,4-2.354,6.483,6.483,0,0,0,1.807-3.075l.421-3.573-2.264,2.8a4.543,4.543,0,0,1-2.146,1.525,2.053,2.053,0,0,1-1.665-.107,1.894,1.894,0,0,1-.73-1.53,8.449,8.449,0,0,1,1.047-4.031c1.068-2.249,3.921-2.288,5.527-2.111,5.492.6,11.8,8.115,11.858,8.191l.069.083.084.067a35.926,35.926,0,0,0,7.994,4.881A27.063,27.063,0,0,0,594.1,559.2Q595.18,559.3,596.266,559.3Z" transform="translate(-551.534 -505.766)" fill="url(#b)"/><path d="M581.3,533.17a6.676,6.676,0,0,0,2.389-.438,6.323,6.323,0,0,0,2.665-1.939,8.172,8.172,0,0,0,.779-1.161,4.926,4.926,0,0,0,.051-5.047,4.033,4.033,0,0,0-4.121-1.579,4.22,4.22,0,0,0-1.67.513,2.424,2.424,0,0,0-1.014,1.11c-.67,1.508.487,3.216.621,3.405l1.7-1.2,0,0c-.262-.378-.548-1.078-.42-1.362.061-.135.367-.321,1.028-.4a2.189,2.189,0,0,1,2.148.677,2.9,2.9,0,0,1-.151,2.879,6.065,6.065,0,0,1-.579.862,4.393,4.393,0,0,1-4.031,1.558,4.224,4.224,0,0,1-3.169-1.62,5.837,5.837,0,0,1-.7-3.721,5.493,5.493,0,0,1,.482-1.592c.126-.308.257-.627.368-.966a9.35,9.35,0,0,1,5.278-6.049c3.5-1.425,8.1-.751,13.307,1.95a1.041,1.041,0,0,0,.959-1.848,25.19,25.19,0,0,0-8.2-2.76,13.361,13.361,0,0,0-6.849.73,11.368,11.368,0,0,0-6.47,7.325c-.089.27-.2.541-.318.829a7.234,7.234,0,0,0-.631,2.231,7.7,7.7,0,0,0,1.06,5.047,6.245,6.245,0,0,0,4.624,2.51A6.834,6.834,0,0,0,581.3,533.17Z" transform="translate(-553.93 -501.16)" fill="url(#b)"/><path d="M473.735,539.632a11.834,11.834,0,0,0,7.141-2.419,14.171,14.171,0,0,0,3.908-3.57,10.467,10.467,0,0,0,1.809-4.191,13.252,13.252,0,0,0,.033-4.489,24.208,24.208,0,0,0-1.213-4.608,3.725,3.725,0,0,0-.189-.437l0,0a19.765,19.765,0,0,0-6.3-7.616,12.182,12.182,0,0,0-8.016-1.984,1.152,1.152,0,0,1-1.165-.709,29.21,29.21,0,0,0-4.273-7.165,1.041,1.041,0,1,0-1.507,1.437,27.527,27.527,0,0,1,3.848,6.506,3.231,3.231,0,0,0,3.281,2.006c5.089-.455,9.107,2.319,12.283,8.478a1.658,1.658,0,0,1,.083.191c2.466,6.873,1.352,11.185-3.725,14.419l-.03.019-.029.021c-3.033,2.24-6.392,2.629-10.27,1.189a7.35,7.35,0,0,1-4.489-4.793,8.552,8.552,0,0,1,.241-6.054,1.3,1.3,0,0,1,.171-.281c1.84-2.3,3.829-2.736,6.259-1.367a4.483,4.483,0,0,1,2.27,2.85,2.8,2.8,0,0,1-.82,2.737c-.934.74-1.67.713-2.889-.095a1.041,1.041,0,1,0-1.15,1.736,5.165,5.165,0,0,0,2.47.962,4.079,4.079,0,0,0,2.926-1.021l.044-.035.04-.04a4.854,4.854,0,0,0,1.414-4.688A6.56,6.56,0,0,0,472.6,522.4c-3.339-1.882-6.419-1.232-8.908,1.881a3.416,3.416,0,0,0-.45.742,10.012,10.012,0,0,0-.846,3.718,12.031,12.031,0,0,0,.512,3.759,9.378,9.378,0,0,0,2.152,3.764,9.519,9.519,0,0,0,3.61,2.4A14.531,14.531,0,0,0,473.735,539.632Z" transform="translate(-364.991 -497.433)" fill="url(#b)"/></g></g><g transform="translate(0 152)"><g transform="translate(0 0)"><path d="M487.7,550.837q.822,0,1.631-.064a21.334,21.334,0,0,0,12.412-5.5A35.494,35.494,0,0,0,508.3,548a29.445,29.445,0,0,0,7.027,1.232,21.449,21.449,0,0,0,12.249-2.866A17.1,17.1,0,0,0,534,539.418a21.33,21.33,0,0,0,2.129-10.185,18.217,18.217,0,0,0,3.852-10.668,16.608,16.608,0,0,0-6.956-13.815,16.854,16.854,0,0,0-5.01-2.442,18.263,18.263,0,0,0-5.95-.721,21.968,21.968,0,0,0-6.031,1.134c-9.352-8.2-18.334-9.452-26.717-3.717a40.218,40.218,0,0,0-10.4-3.27,25.649,25.649,0,0,0-9.343.126,18.765,18.765,0,0,0-7.38,3.273,17.486,17.486,0,0,0-5,5.822,25.139,25.139,0,0,0-2.621,7.9,16.679,16.679,0,0,0,.011,5.157,12.25,12.25,0,0,0,2.083,5.107c3.846,5.405,8.274,6.753,11.311,6.931a13.217,13.217,0,0,0,1.513,0,6.563,6.563,0,0,0-1.857,2.831,9.685,9.685,0,0,0,.569,6.635,23.1,23.1,0,0,0,3.127,5.365,12,12,0,0,0,3.886,2.848,37.767,37.767,0,0,0,7.221,2.487A23.937,23.937,0,0,0,487.7,550.837Zm13.763-8.1-.555.5c-7.167,6.429-14.6,7.207-24.842,2.6a10.163,10.163,0,0,1-3.095-2.225c-2.269-2.926-4.345-7.108-3.365-10.071.577-1.745,2.217-3.005,4.873-3.747,3.982-1.111,5.068-.267,6.959,1.591a5.409,5.409,0,0,1,.664,5.213,4.544,4.544,0,0,1-4.331,1.628,1.634,1.634,0,0,1-1.351-1.084.938.938,0,0,1,.234-.92,1.139,1.139,0,0,1,1.123-.035,1.041,1.041,0,0,0,.761-1.938,3.08,3.08,0,0,0-3.259.409,3.023,3.023,0,0,0-.879,2.99,3.313,3.313,0,0,0,.965,1.618,4.18,4.18,0,0,0,1.931.987,6.581,6.581,0,0,0,6.544-2.51,6.177,6.177,0,0,0,.684-4A6.5,6.5,0,0,0,482.9,529.9a8.74,8.74,0,0,0-3.525-2.4,6.537,6.537,0,0,0-1.944-.277h0a16.308,16.308,0,0,0,2.74-2.409,12.182,12.182,0,0,0,2.573-4.2,9.148,9.148,0,0,0,.437-4.065,10.929,10.929,0,0,0-2.088-5.107,14.168,14.168,0,0,0-3.421-3.351,12.214,12.214,0,0,0-3.907-1.727,14.15,14.15,0,0,0-4.141-.408,10.549,10.549,0,0,0-6.925,2.658,5.361,5.361,0,0,0-1.633,3.54,7.146,7.146,0,0,0,1.433,4.377c2.036,2.982,4.138,3.34,5.543,3.115a5.213,5.213,0,0,0,2.842-1.53,5.857,5.857,0,0,0,1.477-2.395,2.035,2.035,0,0,0-.447-2.256,1.041,1.041,0,0,0-1.5,1.429,2.651,2.651,0,0,1-.512,1.166,3.863,3.863,0,0,1-1.664,1.384,2.291,2.291,0,0,1-1.734,0,5.38,5.38,0,0,1-2.282-2.091c-.984-1.441-1.79-3.526-.047-5.272a8.606,8.606,0,0,1,5.552-2.049A11.29,11.29,0,0,1,476.5,509.8a10.7,10.7,0,0,1,4.613,6.983,8.287,8.287,0,0,1-2.485,6.625,13.6,13.6,0,0,1-10.525,4.562c-3.7-.218-7.071-2.313-9.737-6.06-4.375-6.15.137-14.987.666-15.974,4.926-9.2,16.681-11.078,29.948-4.8l.555.263.5-.359c7.868-5.662,16.069-4.474,25.071,3.631l.463.417.586-.211c9.057-3.26,15.755.385,19,4.883,3.961,5.485,3.61,12.739-.9,18.482l-.235.3.013.38c.242,6.986-2.437,12.547-7.543,15.658-6.422,3.913-15.763,3.343-24.378-1.487Z" transform="translate(-412.608 -495.369)" fill="url(#b)"/><path d="M596.266,559.3a24.67,24.67,0,0,0,6.352-.836A28.864,28.864,0,0,0,611,554.638a1.041,1.041,0,1,0-1.142-1.741c-9.81,6.435-20.73,5.607-30.759-2.328a39.564,39.564,0,0,0-4.078-4.071c-3.332-2.871-6.388-4.477-9.082-4.773a10.348,10.348,0,0,0-4.062.3,5.649,5.649,0,0,0-3.573,2.985,10.586,10.586,0,0,0-1.243,5.056,3.871,3.871,0,0,0,1.7,3.159,3.646,3.646,0,0,0,1.787.546,3.874,3.874,0,0,1-1.239.435c-1.629.252-3.1-.927-4.374-3.505-3.326-6.734.293-11.507,3.914-14.325a26.06,26.06,0,0,1,8.69-4.312,15.89,15.89,0,0,1,3.573-.625,2.936,2.936,0,0,1,1.543.206,1.041,1.041,0,0,0,1.568-1.37,3.456,3.456,0,0,0-2.67-.921,15.181,15.181,0,0,0-3.655.467,28.63,28.63,0,0,0-8.875,3.867,21.188,21.188,0,0,0-3.815,3.194,14.443,14.443,0,0,0-2.73,4.1,11.448,11.448,0,0,0-.937,4.985,13.978,13.978,0,0,0,1.526,5.656,9.535,9.535,0,0,0,3.1,3.868,4.8,4.8,0,0,0,3.542.759,7.475,7.475,0,0,0,4-2.354,6.483,6.483,0,0,0,1.807-3.075l.421-3.573-2.264,2.8a4.543,4.543,0,0,1-2.146,1.525,2.053,2.053,0,0,1-1.665-.107,1.894,1.894,0,0,1-.73-1.53,8.449,8.449,0,0,1,1.047-4.031c1.068-2.249,3.921-2.288,5.527-2.111,5.492.6,11.8,8.115,11.858,8.191l.069.083.084.067a35.926,35.926,0,0,0,7.994,4.881A27.063,27.063,0,0,0,594.1,559.2Q595.18,559.3,596.266,559.3Z" transform="translate(-551.534 -505.766)" fill="url(#b)"/><path d="M581.3,533.17a6.676,6.676,0,0,0,2.389-.438,6.323,6.323,0,0,0,2.665-1.939,8.172,8.172,0,0,0,.779-1.161,4.926,4.926,0,0,0,.051-5.047,4.033,4.033,0,0,0-4.121-1.579,4.22,4.22,0,0,0-1.67.513,2.424,2.424,0,0,0-1.014,1.11c-.67,1.508.487,3.216.621,3.405l1.7-1.2,0,0c-.262-.378-.548-1.078-.42-1.362.061-.135.367-.321,1.028-.4a2.189,2.189,0,0,1,2.148.677,2.9,2.9,0,0,1-.151,2.879,6.065,6.065,0,0,1-.579.862,4.393,4.393,0,0,1-4.031,1.558,4.224,4.224,0,0,1-3.169-1.62,5.837,5.837,0,0,1-.7-3.721,5.493,5.493,0,0,1,.482-1.592c.126-.308.257-.627.368-.966a9.35,9.35,0,0,1,5.278-6.049c3.5-1.425,8.1-.751,13.307,1.95a1.041,1.041,0,0,0,.959-1.848,25.19,25.19,0,0,0-8.2-2.76,13.361,13.361,0,0,0-6.849.73,11.368,11.368,0,0,0-6.47,7.325c-.089.27-.2.541-.318.829a7.234,7.234,0,0,0-.631,2.231,7.7,7.7,0,0,0,1.06,5.047,6.245,6.245,0,0,0,4.624,2.51A6.834,6.834,0,0,0,581.3,533.17Z" transform="translate(-553.93 -501.16)" fill="url(#b)"/><path d="M473.735,539.632a11.834,11.834,0,0,0,7.141-2.419,14.171,14.171,0,0,0,3.908-3.57,10.467,10.467,0,0,0,1.809-4.191,13.252,13.252,0,0,0,.033-4.489,24.208,24.208,0,0,0-1.213-4.608,3.725,3.725,0,0,0-.189-.437l0,0a19.765,19.765,0,0,0-6.3-7.616,12.182,12.182,0,0,0-8.016-1.984,1.152,1.152,0,0,1-1.165-.709,29.21,29.21,0,0,0-4.273-7.165,1.041,1.041,0,1,0-1.507,1.437,27.527,27.527,0,0,1,3.848,6.506,3.231,3.231,0,0,0,3.281,2.006c5.089-.455,9.107,2.319,12.283,8.478a1.658,1.658,0,0,1,.083.191c2.466,6.873,1.352,11.185-3.725,14.419l-.03.019-.029.021c-3.033,2.24-6.392,2.629-10.27,1.189a7.35,7.35,0,0,1-4.489-4.793,8.552,8.552,0,0,1,.241-6.054,1.3,1.3,0,0,1,.171-.281c1.84-2.3,3.829-2.736,6.259-1.367a4.483,4.483,0,0,1,2.27,2.85,2.8,2.8,0,0,1-.82,2.737c-.934.74-1.67.713-2.889-.095a1.041,1.041,0,1,0-1.15,1.736,5.165,5.165,0,0,0,2.47.962,4.079,4.079,0,0,0,2.926-1.021l.044-.035.04-.04a4.854,4.854,0,0,0,1.414-4.688A6.56,6.56,0,0,0,472.6,522.4c-3.339-1.882-6.419-1.232-8.908,1.881a3.416,3.416,0,0,0-.45.742,10.012,10.012,0,0,0-.846,3.718,12.031,12.031,0,0,0,.512,3.759,9.378,9.378,0,0,0,2.152,3.764,9.519,9.519,0,0,0,3.61,2.4A14.531,14.531,0,0,0,473.735,539.632Z" transform="translate(-364.991 -497.433)" fill="url(#b)"/></g></g><g transform="translate(0 228)"><g transform="translate(0 0)"><path d="M487.7,550.837q.822,0,1.631-.064a21.334,21.334,0,0,0,12.412-5.5A35.494,35.494,0,0,0,508.3,548a29.445,29.445,0,0,0,7.027,1.232,21.449,21.449,0,0,0,12.249-2.866A17.1,17.1,0,0,0,534,539.418a21.33,21.33,0,0,0,2.129-10.185,18.217,18.217,0,0,0,3.852-10.668,16.608,16.608,0,0,0-6.956-13.815,16.854,16.854,0,0,0-5.01-2.442,18.263,18.263,0,0,0-5.95-.721,21.968,21.968,0,0,0-6.031,1.134c-9.352-8.2-18.334-9.452-26.717-3.717a40.218,40.218,0,0,0-10.4-3.27,25.649,25.649,0,0,0-9.343.126,18.765,18.765,0,0,0-7.38,3.273,17.486,17.486,0,0,0-5,5.822,25.139,25.139,0,0,0-2.621,7.9,16.679,16.679,0,0,0,.011,5.157,12.25,12.25,0,0,0,2.083,5.107c3.846,5.405,8.274,6.753,11.311,6.931a13.217,13.217,0,0,0,1.513,0,6.563,6.563,0,0,0-1.857,2.831,9.685,9.685,0,0,0,.569,6.635,23.1,23.1,0,0,0,3.127,5.365,12,12,0,0,0,3.886,2.848,37.767,37.767,0,0,0,7.221,2.487A23.937,23.937,0,0,0,487.7,550.837Zm13.763-8.1-.555.5c-7.167,6.429-14.6,7.207-24.842,2.6a10.163,10.163,0,0,1-3.095-2.225c-2.269-2.926-4.345-7.108-3.365-10.071.577-1.745,2.217-3.005,4.873-3.747,3.982-1.111,5.068-.267,6.959,1.591a5.409,5.409,0,0,1,.664,5.213,4.544,4.544,0,0,1-4.331,1.628,1.634,1.634,0,0,1-1.351-1.084.938.938,0,0,1,.234-.92,1.139,1.139,0,0,1,1.123-.035,1.041,1.041,0,0,0,.761-1.938,3.08,3.08,0,0,0-3.259.409,3.023,3.023,0,0,0-.879,2.99,3.313,3.313,0,0,0,.965,1.618,4.18,4.18,0,0,0,1.931.987,6.581,6.581,0,0,0,6.544-2.51,6.177,6.177,0,0,0,.684-4A6.5,6.5,0,0,0,482.9,529.9a8.74,8.74,0,0,0-3.525-2.4,6.537,6.537,0,0,0-1.944-.277h0a16.308,16.308,0,0,0,2.74-2.409,12.182,12.182,0,0,0,2.573-4.2,9.148,9.148,0,0,0,.437-4.065,10.929,10.929,0,0,0-2.088-5.107,14.168,14.168,0,0,0-3.421-3.351,12.214,12.214,0,0,0-3.907-1.727,14.15,14.15,0,0,0-4.141-.408,10.549,10.549,0,0,0-6.925,2.658,5.361,5.361,0,0,0-1.633,3.54,7.146,7.146,0,0,0,1.433,4.377c2.036,2.982,4.138,3.34,5.543,3.115a5.213,5.213,0,0,0,2.842-1.53,5.857,5.857,0,0,0,1.477-2.395,2.035,2.035,0,0,0-.447-2.256,1.041,1.041,0,0,0-1.5,1.429,2.651,2.651,0,0,1-.512,1.166,3.863,3.863,0,0,1-1.664,1.384,2.291,2.291,0,0,1-1.734,0,5.38,5.38,0,0,1-2.282-2.091c-.984-1.441-1.79-3.526-.047-5.272a8.606,8.606,0,0,1,5.552-2.049A11.29,11.29,0,0,1,476.5,509.8a10.7,10.7,0,0,1,4.613,6.983,8.287,8.287,0,0,1-2.485,6.625,13.6,13.6,0,0,1-10.525,4.562c-3.7-.218-7.071-2.313-9.737-6.06-4.375-6.15.137-14.987.666-15.974,4.926-9.2,16.681-11.078,29.948-4.8l.555.263.5-.359c7.868-5.662,16.069-4.474,25.071,3.631l.463.417.586-.211c9.057-3.26,15.755.385,19,4.883,3.961,5.485,3.61,12.739-.9,18.482l-.235.3.013.38c.242,6.986-2.437,12.547-7.543,15.658-6.422,3.913-15.763,3.343-24.378-1.487Z" transform="translate(-412.608 -495.369)" fill="url(#b)"/><path d="M596.266,559.3a24.67,24.67,0,0,0,6.352-.836A28.864,28.864,0,0,0,611,554.638a1.041,1.041,0,1,0-1.142-1.741c-9.81,6.435-20.73,5.607-30.759-2.328a39.564,39.564,0,0,0-4.078-4.071c-3.332-2.871-6.388-4.477-9.082-4.773a10.348,10.348,0,0,0-4.062.3,5.649,5.649,0,0,0-3.573,2.985,10.586,10.586,0,0,0-1.243,5.056,3.871,3.871,0,0,0,1.7,3.159,3.646,3.646,0,0,0,1.787.546,3.874,3.874,0,0,1-1.239.435c-1.629.252-3.1-.927-4.374-3.505-3.326-6.734.293-11.507,3.914-14.325a26.06,26.06,0,0,1,8.69-4.312,15.89,15.89,0,0,1,3.573-.625,2.936,2.936,0,0,1,1.543.206,1.041,1.041,0,0,0,1.568-1.37,3.456,3.456,0,0,0-2.67-.921,15.181,15.181,0,0,0-3.655.467,28.63,28.63,0,0,0-8.875,3.867,21.188,21.188,0,0,0-3.815,3.194,14.443,14.443,0,0,0-2.73,4.1,11.448,11.448,0,0,0-.937,4.985,13.978,13.978,0,0,0,1.526,5.656,9.535,9.535,0,0,0,3.1,3.868,4.8,4.8,0,0,0,3.542.759,7.475,7.475,0,0,0,4-2.354,6.483,6.483,0,0,0,1.807-3.075l.421-3.573-2.264,2.8a4.543,4.543,0,0,1-2.146,1.525,2.053,2.053,0,0,1-1.665-.107,1.894,1.894,0,0,1-.73-1.53,8.449,8.449,0,0,1,1.047-4.031c1.068-2.249,3.921-2.288,5.527-2.111,5.492.6,11.8,8.115,11.858,8.191l.069.083.084.067a35.926,35.926,0,0,0,7.994,4.881A27.063,27.063,0,0,0,594.1,559.2Q595.18,559.3,596.266,559.3Z" transform="translate(-551.534 -505.766)" fill="url(#b)"/><path d="M581.3,533.17a6.676,6.676,0,0,0,2.389-.438,6.323,6.323,0,0,0,2.665-1.939,8.172,8.172,0,0,0,.779-1.161,4.926,4.926,0,0,0,.051-5.047,4.033,4.033,0,0,0-4.121-1.579,4.22,4.22,0,0,0-1.67.513,2.424,2.424,0,0,0-1.014,1.11c-.67,1.508.487,3.216.621,3.405l1.7-1.2,0,0c-.262-.378-.548-1.078-.42-1.362.061-.135.367-.321,1.028-.4a2.189,2.189,0,0,1,2.148.677,2.9,2.9,0,0,1-.151,2.879,6.065,6.065,0,0,1-.579.862,4.393,4.393,0,0,1-4.031,1.558,4.224,4.224,0,0,1-3.169-1.62,5.837,5.837,0,0,1-.7-3.721,5.493,5.493,0,0,1,.482-1.592c.126-.308.257-.627.368-.966a9.35,9.35,0,0,1,5.278-6.049c3.5-1.425,8.1-.751,13.307,1.95a1.041,1.041,0,0,0,.959-1.848,25.19,25.19,0,0,0-8.2-2.76,13.361,13.361,0,0,0-6.849.73,11.368,11.368,0,0,0-6.47,7.325c-.089.27-.2.541-.318.829a7.234,7.234,0,0,0-.631,2.231,7.7,7.7,0,0,0,1.06,5.047,6.245,6.245,0,0,0,4.624,2.51A6.834,6.834,0,0,0,581.3,533.17Z" transform="translate(-553.93 -501.16)" fill="url(#b)"/><path d="M473.735,539.632a11.834,11.834,0,0,0,7.141-2.419,14.171,14.171,0,0,0,3.908-3.57,10.467,10.467,0,0,0,1.809-4.191,13.252,13.252,0,0,0,.033-4.489,24.208,24.208,0,0,0-1.213-4.608,3.725,3.725,0,0,0-.189-.437l0,0a19.765,19.765,0,0,0-6.3-7.616,12.182,12.182,0,0,0-8.016-1.984,1.152,1.152,0,0,1-1.165-.709,29.21,29.21,0,0,0-4.273-7.165,1.041,1.041,0,1,0-1.507,1.437,27.527,27.527,0,0,1,3.848,6.506,3.231,3.231,0,0,0,3.281,2.006c5.089-.455,9.107,2.319,12.283,8.478a1.658,1.658,0,0,1,.083.191c2.466,6.873,1.352,11.185-3.725,14.419l-.03.019-.029.021c-3.033,2.24-6.392,2.629-10.27,1.189a7.35,7.35,0,0,1-4.489-4.793,8.552,8.552,0,0,1,.241-6.054,1.3,1.3,0,0,1,.171-.281c1.84-2.3,3.829-2.736,6.259-1.367a4.483,4.483,0,0,1,2.27,2.85,2.8,2.8,0,0,1-.82,2.737c-.934.74-1.67.713-2.889-.095a1.041,1.041,0,1,0-1.15,1.736,5.165,5.165,0,0,0,2.47.962,4.079,4.079,0,0,0,2.926-1.021l.044-.035.04-.04a4.854,4.854,0,0,0,1.414-4.688A6.56,6.56,0,0,0,472.6,522.4c-3.339-1.882-6.419-1.232-8.908,1.881a3.416,3.416,0,0,0-.45.742,10.012,10.012,0,0,0-.846,3.718,12.031,12.031,0,0,0,.512,3.759,9.378,9.378,0,0,0,2.152,3.764,9.519,9.519,0,0,0,3.61,2.4A14.531,14.531,0,0,0,473.735,539.632Z" transform="translate(-364.991 -497.433)" fill="url(#b)"/></g></g><g transform="translate(0 304)"><g transform="translate(0 0)"><path d="M487.7,550.837q.822,0,1.631-.064a21.334,21.334,0,0,0,12.412-5.5A35.494,35.494,0,0,0,508.3,548a29.445,29.445,0,0,0,7.027,1.232,21.449,21.449,0,0,0,12.249-2.866A17.1,17.1,0,0,0,534,539.418a21.33,21.33,0,0,0,2.129-10.185,18.217,18.217,0,0,0,3.852-10.668,16.608,16.608,0,0,0-6.956-13.815,16.854,16.854,0,0,0-5.01-2.442,18.263,18.263,0,0,0-5.95-.721,21.968,21.968,0,0,0-6.031,1.134c-9.352-8.2-18.334-9.452-26.717-3.717a40.218,40.218,0,0,0-10.4-3.27,25.649,25.649,0,0,0-9.343.126,18.765,18.765,0,0,0-7.38,3.273,17.486,17.486,0,0,0-5,5.822,25.139,25.139,0,0,0-2.621,7.9,16.679,16.679,0,0,0,.011,5.157,12.25,12.25,0,0,0,2.083,5.107c3.846,5.405,8.274,6.753,11.311,6.931a13.217,13.217,0,0,0,1.513,0,6.563,6.563,0,0,0-1.857,2.831,9.685,9.685,0,0,0,.569,6.635,23.1,23.1,0,0,0,3.127,5.365,12,12,0,0,0,3.886,2.848,37.767,37.767,0,0,0,7.221,2.487A23.937,23.937,0,0,0,487.7,550.837Zm13.763-8.1-.555.5c-7.167,6.429-14.6,7.207-24.842,2.6a10.163,10.163,0,0,1-3.095-2.225c-2.269-2.926-4.345-7.108-3.365-10.071.577-1.745,2.217-3.005,4.873-3.747,3.982-1.111,5.068-.267,6.959,1.591a5.409,5.409,0,0,1,.664,5.213,4.544,4.544,0,0,1-4.331,1.628,1.634,1.634,0,0,1-1.351-1.084.938.938,0,0,1,.234-.92,1.139,1.139,0,0,1,1.123-.035,1.041,1.041,0,0,0,.761-1.938,3.08,3.08,0,0,0-3.259.409,3.023,3.023,0,0,0-.879,2.99,3.313,3.313,0,0,0,.965,1.618,4.18,4.18,0,0,0,1.931.987,6.581,6.581,0,0,0,6.544-2.51,6.177,6.177,0,0,0,.684-4A6.5,6.5,0,0,0,482.9,529.9a8.74,8.74,0,0,0-3.525-2.4,6.537,6.537,0,0,0-1.944-.277h0a16.308,16.308,0,0,0,2.74-2.409,12.182,12.182,0,0,0,2.573-4.2,9.148,9.148,0,0,0,.437-4.065,10.929,10.929,0,0,0-2.088-5.107,14.168,14.168,0,0,0-3.421-3.351,12.214,12.214,0,0,0-3.907-1.727,14.15,14.15,0,0,0-4.141-.408,10.549,10.549,0,0,0-6.925,2.658,5.361,5.361,0,0,0-1.633,3.54,7.146,7.146,0,0,0,1.433,4.377c2.036,2.982,4.138,3.34,5.543,3.115a5.213,5.213,0,0,0,2.842-1.53,5.857,5.857,0,0,0,1.477-2.395,2.035,2.035,0,0,0-.447-2.256,1.041,1.041,0,0,0-1.5,1.429,2.651,2.651,0,0,1-.512,1.166,3.863,3.863,0,0,1-1.664,1.384,2.291,2.291,0,0,1-1.734,0,5.38,5.38,0,0,1-2.282-2.091c-.984-1.441-1.79-3.526-.047-5.272a8.606,8.606,0,0,1,5.552-2.049A11.29,11.29,0,0,1,476.5,509.8a10.7,10.7,0,0,1,4.613,6.983,8.287,8.287,0,0,1-2.485,6.625,13.6,13.6,0,0,1-10.525,4.562c-3.7-.218-7.071-2.313-9.737-6.06-4.375-6.15.137-14.987.666-15.974,4.926-9.2,16.681-11.078,29.948-4.8l.555.263.5-.359c7.868-5.662,16.069-4.474,25.071,3.631l.463.417.586-.211c9.057-3.26,15.755.385,19,4.883,3.961,5.485,3.61,12.739-.9,18.482l-.235.3.013.38c.242,6.986-2.437,12.547-7.543,15.658-6.422,3.913-15.763,3.343-24.378-1.487Z" transform="translate(-412.608 -495.369)" fill="url(#b)"/><path d="M596.266,559.3a24.67,24.67,0,0,0,6.352-.836A28.864,28.864,0,0,0,611,554.638a1.041,1.041,0,1,0-1.142-1.741c-9.81,6.435-20.73,5.607-30.759-2.328a39.564,39.564,0,0,0-4.078-4.071c-3.332-2.871-6.388-4.477-9.082-4.773a10.348,10.348,0,0,0-4.062.3,5.649,5.649,0,0,0-3.573,2.985,10.586,10.586,0,0,0-1.243,5.056,3.871,3.871,0,0,0,1.7,3.159,3.646,3.646,0,0,0,1.787.546,3.874,3.874,0,0,1-1.239.435c-1.629.252-3.1-.927-4.374-3.505-3.326-6.734.293-11.507,3.914-14.325a26.06,26.06,0,0,1,8.69-4.312,15.89,15.89,0,0,1,3.573-.625,2.936,2.936,0,0,1,1.543.206,1.041,1.041,0,0,0,1.568-1.37,3.456,3.456,0,0,0-2.67-.921,15.181,15.181,0,0,0-3.655.467,28.63,28.63,0,0,0-8.875,3.867,21.188,21.188,0,0,0-3.815,3.194,14.443,14.443,0,0,0-2.73,4.1,11.448,11.448,0,0,0-.937,4.985,13.978,13.978,0,0,0,1.526,5.656,9.535,9.535,0,0,0,3.1,3.868,4.8,4.8,0,0,0,3.542.759,7.475,7.475,0,0,0,4-2.354,6.483,6.483,0,0,0,1.807-3.075l.421-3.573-2.264,2.8a4.543,4.543,0,0,1-2.146,1.525,2.053,2.053,0,0,1-1.665-.107,1.894,1.894,0,0,1-.73-1.53,8.449,8.449,0,0,1,1.047-4.031c1.068-2.249,3.921-2.288,5.527-2.111,5.492.6,11.8,8.115,11.858,8.191l.069.083.084.067a35.926,35.926,0,0,0,7.994,4.881A27.063,27.063,0,0,0,594.1,559.2Q595.18,559.3,596.266,559.3Z" transform="translate(-551.534 -505.766)" fill="url(#b)"/><path d="M581.3,533.17a6.676,6.676,0,0,0,2.389-.438,6.323,6.323,0,0,0,2.665-1.939,8.172,8.172,0,0,0,.779-1.161,4.926,4.926,0,0,0,.051-5.047,4.033,4.033,0,0,0-4.121-1.579,4.22,4.22,0,0,0-1.67.513,2.424,2.424,0,0,0-1.014,1.11c-.67,1.508.487,3.216.621,3.405l1.7-1.2,0,0c-.262-.378-.548-1.078-.42-1.362.061-.135.367-.321,1.028-.4a2.189,2.189,0,0,1,2.148.677,2.9,2.9,0,0,1-.151,2.879,6.065,6.065,0,0,1-.579.862,4.393,4.393,0,0,1-4.031,1.558,4.224,4.224,0,0,1-3.169-1.62,5.837,5.837,0,0,1-.7-3.721,5.493,5.493,0,0,1,.482-1.592c.126-.308.257-.627.368-.966a9.35,9.35,0,0,1,5.278-6.049c3.5-1.425,8.1-.751,13.307,1.95a1.041,1.041,0,0,0,.959-1.848,25.19,25.19,0,0,0-8.2-2.76,13.361,13.361,0,0,0-6.849.73,11.368,11.368,0,0,0-6.47,7.325c-.089.27-.2.541-.318.829a7.234,7.234,0,0,0-.631,2.231,7.7,7.7,0,0,0,1.06,5.047,6.245,6.245,0,0,0,4.624,2.51A6.834,6.834,0,0,0,581.3,533.17Z" transform="translate(-553.93 -501.16)" fill="url(#b)"/><path d="M473.735,539.632a11.834,11.834,0,0,0,7.141-2.419,14.171,14.171,0,0,0,3.908-3.57,10.467,10.467,0,0,0,1.809-4.191,13.252,13.252,0,0,0,.033-4.489,24.208,24.208,0,0,0-1.213-4.608,3.725,3.725,0,0,0-.189-.437l0,0a19.765,19.765,0,0,0-6.3-7.616,12.182,12.182,0,0,0-8.016-1.984,1.152,1.152,0,0,1-1.165-.709,29.21,29.21,0,0,0-4.273-7.165,1.041,1.041,0,1,0-1.507,1.437,27.527,27.527,0,0,1,3.848,6.506,3.231,3.231,0,0,0,3.281,2.006c5.089-.455,9.107,2.319,12.283,8.478a1.658,1.658,0,0,1,.083.191c2.466,6.873,1.352,11.185-3.725,14.419l-.03.019-.029.021c-3.033,2.24-6.392,2.629-10.27,1.189a7.35,7.35,0,0,1-4.489-4.793,8.552,8.552,0,0,1,.241-6.054,1.3,1.3,0,0,1,.171-.281c1.84-2.3,3.829-2.736,6.259-1.367a4.483,4.483,0,0,1,2.27,2.85,2.8,2.8,0,0,1-.82,2.737c-.934.74-1.67.713-2.889-.095a1.041,1.041,0,1,0-1.15,1.736,5.165,5.165,0,0,0,2.47.962,4.079,4.079,0,0,0,2.926-1.021l.044-.035.04-.04a4.854,4.854,0,0,0,1.414-4.688A6.56,6.56,0,0,0,472.6,522.4c-3.339-1.882-6.419-1.232-8.908,1.881a3.416,3.416,0,0,0-.45.742,10.012,10.012,0,0,0-.846,3.718,12.031,12.031,0,0,0,.512,3.759,9.378,9.378,0,0,0,2.152,3.764,9.519,9.519,0,0,0,3.61,2.4A14.531,14.531,0,0,0,473.735,539.632Z" transform="translate(-364.991 -497.433)" fill="url(#b)"/></g></g><g transform="translate(0 380)"><g transform="translate(0 0)"><path d="M487.7,550.837q.822,0,1.631-.064a21.334,21.334,0,0,0,12.412-5.5A35.494,35.494,0,0,0,508.3,548a29.445,29.445,0,0,0,7.027,1.232,21.449,21.449,0,0,0,12.249-2.866A17.1,17.1,0,0,0,534,539.418a21.33,21.33,0,0,0,2.129-10.185,18.217,18.217,0,0,0,3.852-10.668,16.608,16.608,0,0,0-6.956-13.815,16.854,16.854,0,0,0-5.01-2.442,18.263,18.263,0,0,0-5.95-.721,21.968,21.968,0,0,0-6.031,1.134c-9.352-8.2-18.334-9.452-26.717-3.717a40.218,40.218,0,0,0-10.4-3.27,25.649,25.649,0,0,0-9.343.126,18.765,18.765,0,0,0-7.38,3.273,17.486,17.486,0,0,0-5,5.822,25.139,25.139,0,0,0-2.621,7.9,16.679,16.679,0,0,0,.011,5.157,12.25,12.25,0,0,0,2.083,5.107c3.846,5.405,8.274,6.753,11.311,6.931a13.217,13.217,0,0,0,1.513,0,6.563,6.563,0,0,0-1.857,2.831,9.685,9.685,0,0,0,.569,6.635,23.1,23.1,0,0,0,3.127,5.365,12,12,0,0,0,3.886,2.848,37.767,37.767,0,0,0,7.221,2.487A23.937,23.937,0,0,0,487.7,550.837Zm13.763-8.1-.555.5c-7.167,6.429-14.6,7.207-24.842,2.6a10.163,10.163,0,0,1-3.095-2.225c-2.269-2.926-4.345-7.108-3.365-10.071.577-1.745,2.217-3.005,4.873-3.747,3.982-1.111,5.068-.267,6.959,1.591a5.409,5.409,0,0,1,.664,5.213,4.544,4.544,0,0,1-4.331,1.628,1.634,1.634,0,0,1-1.351-1.084.938.938,0,0,1,.234-.92,1.139,1.139,0,0,1,1.123-.035,1.041,1.041,0,0,0,.761-1.938,3.08,3.08,0,0,0-3.259.409,3.023,3.023,0,0,0-.879,2.99,3.313,3.313,0,0,0,.965,1.618,4.18,4.18,0,0,0,1.931.987,6.581,6.581,0,0,0,6.544-2.51,6.177,6.177,0,0,0,.684-4A6.5,6.5,0,0,0,482.9,529.9a8.74,8.74,0,0,0-3.525-2.4,6.537,6.537,0,0,0-1.944-.277h0a16.308,16.308,0,0,0,2.74-2.409,12.182,12.182,0,0,0,2.573-4.2,9.148,9.148,0,0,0,.437-4.065,10.929,10.929,0,0,0-2.088-5.107,14.168,14.168,0,0,0-3.421-3.351,12.214,12.214,0,0,0-3.907-1.727,14.15,14.15,0,0,0-4.141-.408,10.549,10.549,0,0,0-6.925,2.658,5.361,5.361,0,0,0-1.633,3.54,7.146,7.146,0,0,0,1.433,4.377c2.036,2.982,4.138,3.34,5.543,3.115a5.213,5.213,0,0,0,2.842-1.53,5.857,5.857,0,0,0,1.477-2.395,2.035,2.035,0,0,0-.447-2.256,1.041,1.041,0,0,0-1.5,1.429,2.651,2.651,0,0,1-.512,1.166,3.863,3.863,0,0,1-1.664,1.384,2.291,2.291,0,0,1-1.734,0,5.38,5.38,0,0,1-2.282-2.091c-.984-1.441-1.79-3.526-.047-5.272a8.606,8.606,0,0,1,5.552-2.049A11.29,11.29,0,0,1,476.5,509.8a10.7,10.7,0,0,1,4.613,6.983,8.287,8.287,0,0,1-2.485,6.625,13.6,13.6,0,0,1-10.525,4.562c-3.7-.218-7.071-2.313-9.737-6.06-4.375-6.15.137-14.987.666-15.974,4.926-9.2,16.681-11.078,29.948-4.8l.555.263.5-.359c7.868-5.662,16.069-4.474,25.071,3.631l.463.417.586-.211c9.057-3.26,15.755.385,19,4.883,3.961,5.485,3.61,12.739-.9,18.482l-.235.3.013.38c.242,6.986-2.437,12.547-7.543,15.658-6.422,3.913-15.763,3.343-24.378-1.487Z" transform="translate(-412.608 -495.369)" fill="url(#b)"/><path d="M596.266,559.3a24.67,24.67,0,0,0,6.352-.836A28.864,28.864,0,0,0,611,554.638a1.041,1.041,0,1,0-1.142-1.741c-9.81,6.435-20.73,5.607-30.759-2.328a39.564,39.564,0,0,0-4.078-4.071c-3.332-2.871-6.388-4.477-9.082-4.773a10.348,10.348,0,0,0-4.062.3,5.649,5.649,0,0,0-3.573,2.985,10.586,10.586,0,0,0-1.243,5.056,3.871,3.871,0,0,0,1.7,3.159,3.646,3.646,0,0,0,1.787.546,3.874,3.874,0,0,1-1.239.435c-1.629.252-3.1-.927-4.374-3.505-3.326-6.734.293-11.507,3.914-14.325a26.06,26.06,0,0,1,8.69-4.312,15.89,15.89,0,0,1,3.573-.625,2.936,2.936,0,0,1,1.543.206,1.041,1.041,0,0,0,1.568-1.37,3.456,3.456,0,0,0-2.67-.921,15.181,15.181,0,0,0-3.655.467,28.63,28.63,0,0,0-8.875,3.867,21.188,21.188,0,0,0-3.815,3.194,14.443,14.443,0,0,0-2.73,4.1,11.448,11.448,0,0,0-.937,4.985,13.978,13.978,0,0,0,1.526,5.656,9.535,9.535,0,0,0,3.1,3.868,4.8,4.8,0,0,0,3.542.759,7.475,7.475,0,0,0,4-2.354,6.483,6.483,0,0,0,1.807-3.075l.421-3.573-2.264,2.8a4.543,4.543,0,0,1-2.146,1.525,2.053,2.053,0,0,1-1.665-.107,1.894,1.894,0,0,1-.73-1.53,8.449,8.449,0,0,1,1.047-4.031c1.068-2.249,3.921-2.288,5.527-2.111,5.492.6,11.8,8.115,11.858,8.191l.069.083.084.067a35.926,35.926,0,0,0,7.994,4.881A27.063,27.063,0,0,0,594.1,559.2Q595.18,559.3,596.266,559.3Z" transform="translate(-551.534 -505.766)" fill="url(#b)"/><path d="M581.3,533.17a6.676,6.676,0,0,0,2.389-.438,6.323,6.323,0,0,0,2.665-1.939,8.172,8.172,0,0,0,.779-1.161,4.926,4.926,0,0,0,.051-5.047,4.033,4.033,0,0,0-4.121-1.579,4.22,4.22,0,0,0-1.67.513,2.424,2.424,0,0,0-1.014,1.11c-.67,1.508.487,3.216.621,3.405l1.7-1.2,0,0c-.262-.378-.548-1.078-.42-1.362.061-.135.367-.321,1.028-.4a2.189,2.189,0,0,1,2.148.677,2.9,2.9,0,0,1-.151,2.879,6.065,6.065,0,0,1-.579.862,4.393,4.393,0,0,1-4.031,1.558,4.224,4.224,0,0,1-3.169-1.62,5.837,5.837,0,0,1-.7-3.721,5.493,5.493,0,0,1,.482-1.592c.126-.308.257-.627.368-.966a9.35,9.35,0,0,1,5.278-6.049c3.5-1.425,8.1-.751,13.307,1.95a1.041,1.041,0,0,0,.959-1.848,25.19,25.19,0,0,0-8.2-2.76,13.361,13.361,0,0,0-6.849.73,11.368,11.368,0,0,0-6.47,7.325c-.089.27-.2.541-.318.829a7.234,7.234,0,0,0-.631,2.231,7.7,7.7,0,0,0,1.06,5.047,6.245,6.245,0,0,0,4.624,2.51A6.834,6.834,0,0,0,581.3,533.17Z" transform="translate(-553.93 -501.16)" fill="url(#b)"/><path d="M473.735,539.632a11.834,11.834,0,0,0,7.141-2.419,14.171,14.171,0,0,0,3.908-3.57,10.467,10.467,0,0,0,1.809-4.191,13.252,13.252,0,0,0,.033-4.489,24.208,24.208,0,0,0-1.213-4.608,3.725,3.725,0,0,0-.189-.437l0,0a19.765,19.765,0,0,0-6.3-7.616,12.182,12.182,0,0,0-8.016-1.984,1.152,1.152,0,0,1-1.165-.709,29.21,29.21,0,0,0-4.273-7.165,1.041,1.041,0,1,0-1.507,1.437,27.527,27.527,0,0,1,3.848,6.506,3.231,3.231,0,0,0,3.281,2.006c5.089-.455,9.107,2.319,12.283,8.478a1.658,1.658,0,0,1,.083.191c2.466,6.873,1.352,11.185-3.725,14.419l-.03.019-.029.021c-3.033,2.24-6.392,2.629-10.27,1.189a7.35,7.35,0,0,1-4.489-4.793,8.552,8.552,0,0,1,.241-6.054,1.3,1.3,0,0,1,.171-.281c1.84-2.3,3.829-2.736,6.259-1.367a4.483,4.483,0,0,1,2.27,2.85,2.8,2.8,0,0,1-.82,2.737c-.934.74-1.67.713-2.889-.095a1.041,1.041,0,1,0-1.15,1.736,5.165,5.165,0,0,0,2.47.962,4.079,4.079,0,0,0,2.926-1.021l.044-.035.04-.04a4.854,4.854,0,0,0,1.414-4.688A6.56,6.56,0,0,0,472.6,522.4c-3.339-1.882-6.419-1.232-8.908,1.881a3.416,3.416,0,0,0-.45.742,10.012,10.012,0,0,0-.846,3.718,12.031,12.031,0,0,0,.512,3.759,9.378,9.378,0,0,0,2.152,3.764,9.519,9.519,0,0,0,3.61,2.4A14.531,14.531,0,0,0,473.735,539.632Z" transform="translate(-364.991 -497.433)" fill="url(#b)"/></g></g><g transform="translate(0 456)"><g transform="translate(0 0)"><path d="M487.7,550.837q.822,0,1.631-.064a21.334,21.334,0,0,0,12.412-5.5A35.494,35.494,0,0,0,508.3,548a29.445,29.445,0,0,0,7.027,1.232,21.449,21.449,0,0,0,12.249-2.866A17.1,17.1,0,0,0,534,539.418a21.33,21.33,0,0,0,2.129-10.185,18.217,18.217,0,0,0,3.852-10.668,16.608,16.608,0,0,0-6.956-13.815,16.854,16.854,0,0,0-5.01-2.442,18.263,18.263,0,0,0-5.95-.721,21.968,21.968,0,0,0-6.031,1.134c-9.352-8.2-18.334-9.452-26.717-3.717a40.218,40.218,0,0,0-10.4-3.27,25.649,25.649,0,0,0-9.343.126,18.765,18.765,0,0,0-7.38,3.273,17.486,17.486,0,0,0-5,5.822,25.139,25.139,0,0,0-2.621,7.9,16.679,16.679,0,0,0,.011,5.157,12.25,12.25,0,0,0,2.083,5.107c3.846,5.405,8.274,6.753,11.311,6.931a13.217,13.217,0,0,0,1.513,0,6.563,6.563,0,0,0-1.857,2.831,9.685,9.685,0,0,0,.569,6.635,23.1,23.1,0,0,0,3.127,5.365,12,12,0,0,0,3.886,2.848,37.767,37.767,0,0,0,7.221,2.487A23.937,23.937,0,0,0,487.7,550.837Zm13.763-8.1-.555.5c-7.167,6.429-14.6,7.207-24.842,2.6a10.163,10.163,0,0,1-3.095-2.225c-2.269-2.926-4.345-7.108-3.365-10.071.577-1.745,2.217-3.005,4.873-3.747,3.982-1.111,5.068-.267,6.959,1.591a5.409,5.409,0,0,1,.664,5.213,4.544,4.544,0,0,1-4.331,1.628,1.634,1.634,0,0,1-1.351-1.084.938.938,0,0,1,.234-.92,1.139,1.139,0,0,1,1.123-.035,1.041,1.041,0,0,0,.761-1.938,3.08,3.08,0,0,0-3.259.409,3.023,3.023,0,0,0-.879,2.99,3.313,3.313,0,0,0,.965,1.618,4.18,4.18,0,0,0,1.931.987,6.581,6.581,0,0,0,6.544-2.51,6.177,6.177,0,0,0,.684-4A6.5,6.5,0,0,0,482.9,529.9a8.74,8.74,0,0,0-3.525-2.4,6.537,6.537,0,0,0-1.944-.277h0a16.308,16.308,0,0,0,2.74-2.409,12.182,12.182,0,0,0,2.573-4.2,9.148,9.148,0,0,0,.437-4.065,10.929,10.929,0,0,0-2.088-5.107,14.168,14.168,0,0,0-3.421-3.351,12.214,12.214,0,0,0-3.907-1.727,14.15,14.15,0,0,0-4.141-.408,10.549,10.549,0,0,0-6.925,2.658,5.361,5.361,0,0,0-1.633,3.54,7.146,7.146,0,0,0,1.433,4.377c2.036,2.982,4.138,3.34,5.543,3.115a5.213,5.213,0,0,0,2.842-1.53,5.857,5.857,0,0,0,1.477-2.395,2.035,2.035,0,0,0-.447-2.256,1.041,1.041,0,0,0-1.5,1.429,2.651,2.651,0,0,1-.512,1.166,3.863,3.863,0,0,1-1.664,1.384,2.291,2.291,0,0,1-1.734,0,5.38,5.38,0,0,1-2.282-2.091c-.984-1.441-1.79-3.526-.047-5.272a8.606,8.606,0,0,1,5.552-2.049A11.29,11.29,0,0,1,476.5,509.8a10.7,10.7,0,0,1,4.613,6.983,8.287,8.287,0,0,1-2.485,6.625,13.6,13.6,0,0,1-10.525,4.562c-3.7-.218-7.071-2.313-9.737-6.06-4.375-6.15.137-14.987.666-15.974,4.926-9.2,16.681-11.078,29.948-4.8l.555.263.5-.359c7.868-5.662,16.069-4.474,25.071,3.631l.463.417.586-.211c9.057-3.26,15.755.385,19,4.883,3.961,5.485,3.61,12.739-.9,18.482l-.235.3.013.38c.242,6.986-2.437,12.547-7.543,15.658-6.422,3.913-15.763,3.343-24.378-1.487Z" transform="translate(-412.608 -495.369)" fill="url(#b)"/><path d="M596.266,559.3a24.67,24.67,0,0,0,6.352-.836A28.864,28.864,0,0,0,611,554.638a1.041,1.041,0,1,0-1.142-1.741c-9.81,6.435-20.73,5.607-30.759-2.328a39.564,39.564,0,0,0-4.078-4.071c-3.332-2.871-6.388-4.477-9.082-4.773a10.348,10.348,0,0,0-4.062.3,5.649,5.649,0,0,0-3.573,2.985,10.586,10.586,0,0,0-1.243,5.056,3.871,3.871,0,0,0,1.7,3.159,3.646,3.646,0,0,0,1.787.546,3.874,3.874,0,0,1-1.239.435c-1.629.252-3.1-.927-4.374-3.505-3.326-6.734.293-11.507,3.914-14.325a26.06,26.06,0,0,1,8.69-4.312,15.89,15.89,0,0,1,3.573-.625,2.936,2.936,0,0,1,1.543.206,1.041,1.041,0,0,0,1.568-1.37,3.456,3.456,0,0,0-2.67-.921,15.181,15.181,0,0,0-3.655.467,28.63,28.63,0,0,0-8.875,3.867,21.188,21.188,0,0,0-3.815,3.194,14.443,14.443,0,0,0-2.73,4.1,11.448,11.448,0,0,0-.937,4.985,13.978,13.978,0,0,0,1.526,5.656,9.535,9.535,0,0,0,3.1,3.868,4.8,4.8,0,0,0,3.542.759,7.475,7.475,0,0,0,4-2.354,6.483,6.483,0,0,0,1.807-3.075l.421-3.573-2.264,2.8a4.543,4.543,0,0,1-2.146,1.525,2.053,2.053,0,0,1-1.665-.107,1.894,1.894,0,0,1-.73-1.53,8.449,8.449,0,0,1,1.047-4.031c1.068-2.249,3.921-2.288,5.527-2.111,5.492.6,11.8,8.115,11.858,8.191l.069.083.084.067a35.926,35.926,0,0,0,7.994,4.881A27.063,27.063,0,0,0,594.1,559.2Q595.18,559.3,596.266,559.3Z" transform="translate(-551.534 -505.766)" fill="url(#b)"/><path d="M581.3,533.17a6.676,6.676,0,0,0,2.389-.438,6.323,6.323,0,0,0,2.665-1.939,8.172,8.172,0,0,0,.779-1.161,4.926,4.926,0,0,0,.051-5.047,4.033,4.033,0,0,0-4.121-1.579,4.22,4.22,0,0,0-1.67.513,2.424,2.424,0,0,0-1.014,1.11c-.67,1.508.487,3.216.621,3.405l1.7-1.2,0,0c-.262-.378-.548-1.078-.42-1.362.061-.135.367-.321,1.028-.4a2.189,2.189,0,0,1,2.148.677,2.9,2.9,0,0,1-.151,2.879,6.065,6.065,0,0,1-.579.862,4.393,4.393,0,0,1-4.031,1.558,4.224,4.224,0,0,1-3.169-1.62,5.837,5.837,0,0,1-.7-3.721,5.493,5.493,0,0,1,.482-1.592c.126-.308.257-.627.368-.966a9.35,9.35,0,0,1,5.278-6.049c3.5-1.425,8.1-.751,13.307,1.95a1.041,1.041,0,0,0,.959-1.848,25.19,25.19,0,0,0-8.2-2.76,13.361,13.361,0,0,0-6.849.73,11.368,11.368,0,0,0-6.47,7.325c-.089.27-.2.541-.318.829a7.234,7.234,0,0,0-.631,2.231,7.7,7.7,0,0,0,1.06,5.047,6.245,6.245,0,0,0,4.624,2.51A6.834,6.834,0,0,0,581.3,533.17Z" transform="translate(-553.93 -501.16)" fill="url(#b)"/><path d="M473.735,539.632a11.834,11.834,0,0,0,7.141-2.419,14.171,14.171,0,0,0,3.908-3.57,10.467,10.467,0,0,0,1.809-4.191,13.252,13.252,0,0,0,.033-4.489,24.208,24.208,0,0,0-1.213-4.608,3.725,3.725,0,0,0-.189-.437l0,0a19.765,19.765,0,0,0-6.3-7.616,12.182,12.182,0,0,0-8.016-1.984,1.152,1.152,0,0,1-1.165-.709,29.21,29.21,0,0,0-4.273-7.165,1.041,1.041,0,1,0-1.507,1.437,27.527,27.527,0,0,1,3.848,6.506,3.231,3.231,0,0,0,3.281,2.006c5.089-.455,9.107,2.319,12.283,8.478a1.658,1.658,0,0,1,.083.191c2.466,6.873,1.352,11.185-3.725,14.419l-.03.019-.029.021c-3.033,2.24-6.392,2.629-10.27,1.189a7.35,7.35,0,0,1-4.489-4.793,8.552,8.552,0,0,1,.241-6.054,1.3,1.3,0,0,1,.171-.281c1.84-2.3,3.829-2.736,6.259-1.367a4.483,4.483,0,0,1,2.27,2.85,2.8,2.8,0,0,1-.82,2.737c-.934.74-1.67.713-2.889-.095a1.041,1.041,0,1,0-1.15,1.736,5.165,5.165,0,0,0,2.47.962,4.079,4.079,0,0,0,2.926-1.021l.044-.035.04-.04a4.854,4.854,0,0,0,1.414-4.688A6.56,6.56,0,0,0,472.6,522.4c-3.339-1.882-6.419-1.232-8.908,1.881a3.416,3.416,0,0,0-.45.742,10.012,10.012,0,0,0-.846,3.718,12.031,12.031,0,0,0,.512,3.759,9.378,9.378,0,0,0,2.152,3.764,9.519,9.519,0,0,0,3.61,2.4A14.531,14.531,0,0,0,473.735,539.632Z" transform="translate(-364.991 -497.433)" fill="url(#b)"/></g></g><g transform="translate(0 532)"><g transform="translate(0 0)"><path d="M487.7,550.837q.822,0,1.631-.064a21.334,21.334,0,0,0,12.412-5.5A35.494,35.494,0,0,0,508.3,548a29.445,29.445,0,0,0,7.027,1.232,21.449,21.449,0,0,0,12.249-2.866A17.1,17.1,0,0,0,534,539.418a21.33,21.33,0,0,0,2.129-10.185,18.217,18.217,0,0,0,3.852-10.668,16.608,16.608,0,0,0-6.956-13.815,16.854,16.854,0,0,0-5.01-2.442,18.263,18.263,0,0,0-5.95-.721,21.968,21.968,0,0,0-6.031,1.134c-9.352-8.2-18.334-9.452-26.717-3.717a40.218,40.218,0,0,0-10.4-3.27,25.649,25.649,0,0,0-9.343.126,18.765,18.765,0,0,0-7.38,3.273,17.486,17.486,0,0,0-5,5.822,25.139,25.139,0,0,0-2.621,7.9,16.679,16.679,0,0,0,.011,5.157,12.25,12.25,0,0,0,2.083,5.107c3.846,5.405,8.274,6.753,11.311,6.931a13.217,13.217,0,0,0,1.513,0,6.563,6.563,0,0,0-1.857,2.831,9.685,9.685,0,0,0,.569,6.635,23.1,23.1,0,0,0,3.127,5.365,12,12,0,0,0,3.886,2.848,37.767,37.767,0,0,0,7.221,2.487A23.937,23.937,0,0,0,487.7,550.837Zm13.763-8.1-.555.5c-7.167,6.429-14.6,7.207-24.842,2.6a10.163,10.163,0,0,1-3.095-2.225c-2.269-2.926-4.345-7.108-3.365-10.071.577-1.745,2.217-3.005,4.873-3.747,3.982-1.111,5.068-.267,6.959,1.591a5.409,5.409,0,0,1,.664,5.213,4.544,4.544,0,0,1-4.331,1.628,1.634,1.634,0,0,1-1.351-1.084.938.938,0,0,1,.234-.92,1.139,1.139,0,0,1,1.123-.035,1.041,1.041,0,0,0,.761-1.938,3.08,3.08,0,0,0-3.259.409,3.023,3.023,0,0,0-.879,2.99,3.313,3.313,0,0,0,.965,1.618,4.18,4.18,0,0,0,1.931.987,6.581,6.581,0,0,0,6.544-2.51,6.177,6.177,0,0,0,.684-4A6.5,6.5,0,0,0,482.9,529.9a8.74,8.74,0,0,0-3.525-2.4,6.537,6.537,0,0,0-1.944-.277h0a16.308,16.308,0,0,0,2.74-2.409,12.182,12.182,0,0,0,2.573-4.2,9.148,9.148,0,0,0,.437-4.065,10.929,10.929,0,0,0-2.088-5.107,14.168,14.168,0,0,0-3.421-3.351,12.214,12.214,0,0,0-3.907-1.727,14.15,14.15,0,0,0-4.141-.408,10.549,10.549,0,0,0-6.925,2.658,5.361,5.361,0,0,0-1.633,3.54,7.146,7.146,0,0,0,1.433,4.377c2.036,2.982,4.138,3.34,5.543,3.115a5.213,5.213,0,0,0,2.842-1.53,5.857,5.857,0,0,0,1.477-2.395,2.035,2.035,0,0,0-.447-2.256,1.041,1.041,0,0,0-1.5,1.429,2.651,2.651,0,0,1-.512,1.166,3.863,3.863,0,0,1-1.664,1.384,2.291,2.291,0,0,1-1.734,0,5.38,5.38,0,0,1-2.282-2.091c-.984-1.441-1.79-3.526-.047-5.272a8.606,8.606,0,0,1,5.552-2.049A11.29,11.29,0,0,1,476.5,509.8a10.7,10.7,0,0,1,4.613,6.983,8.287,8.287,0,0,1-2.485,6.625,13.6,13.6,0,0,1-10.525,4.562c-3.7-.218-7.071-2.313-9.737-6.06-4.375-6.15.137-14.987.666-15.974,4.926-9.2,16.681-11.078,29.948-4.8l.555.263.5-.359c7.868-5.662,16.069-4.474,25.071,3.631l.463.417.586-.211c9.057-3.26,15.755.385,19,4.883,3.961,5.485,3.61,12.739-.9,18.482l-.235.3.013.38c.242,6.986-2.437,12.547-7.543,15.658-6.422,3.913-15.763,3.343-24.378-1.487Z" transform="translate(-412.608 -495.369)" fill="url(#b)"/><path d="M596.266,559.3a24.67,24.67,0,0,0,6.352-.836A28.864,28.864,0,0,0,611,554.638a1.041,1.041,0,1,0-1.142-1.741c-9.81,6.435-20.73,5.607-30.759-2.328a39.564,39.564,0,0,0-4.078-4.071c-3.332-2.871-6.388-4.477-9.082-4.773a10.348,10.348,0,0,0-4.062.3,5.649,5.649,0,0,0-3.573,2.985,10.586,10.586,0,0,0-1.243,5.056,3.871,3.871,0,0,0,1.7,3.159,3.646,3.646,0,0,0,1.787.546,3.874,3.874,0,0,1-1.239.435c-1.629.252-3.1-.927-4.374-3.505-3.326-6.734.293-11.507,3.914-14.325a26.06,26.06,0,0,1,8.69-4.312,15.89,15.89,0,0,1,3.573-.625,2.936,2.936,0,0,1,1.543.206,1.041,1.041,0,0,0,1.568-1.37,3.456,3.456,0,0,0-2.67-.921,15.181,15.181,0,0,0-3.655.467,28.63,28.63,0,0,0-8.875,3.867,21.188,21.188,0,0,0-3.815,3.194,14.443,14.443,0,0,0-2.73,4.1,11.448,11.448,0,0,0-.937,4.985,13.978,13.978,0,0,0,1.526,5.656,9.535,9.535,0,0,0,3.1,3.868,4.8,4.8,0,0,0,3.542.759,7.475,7.475,0,0,0,4-2.354,6.483,6.483,0,0,0,1.807-3.075l.421-3.573-2.264,2.8a4.543,4.543,0,0,1-2.146,1.525,2.053,2.053,0,0,1-1.665-.107,1.894,1.894,0,0,1-.73-1.53,8.449,8.449,0,0,1,1.047-4.031c1.068-2.249,3.921-2.288,5.527-2.111,5.492.6,11.8,8.115,11.858,8.191l.069.083.084.067a35.926,35.926,0,0,0,7.994,4.881A27.063,27.063,0,0,0,594.1,559.2Q595.18,559.3,596.266,559.3Z" transform="translate(-551.534 -505.766)" fill="url(#b)"/><path d="M581.3,533.17a6.676,6.676,0,0,0,2.389-.438,6.323,6.323,0,0,0,2.665-1.939,8.172,8.172,0,0,0,.779-1.161,4.926,4.926,0,0,0,.051-5.047,4.033,4.033,0,0,0-4.121-1.579,4.22,4.22,0,0,0-1.67.513,2.424,2.424,0,0,0-1.014,1.11c-.67,1.508.487,3.216.621,3.405l1.7-1.2,0,0c-.262-.378-.548-1.078-.42-1.362.061-.135.367-.321,1.028-.4a2.189,2.189,0,0,1,2.148.677,2.9,2.9,0,0,1-.151,2.879,6.065,6.065,0,0,1-.579.862,4.393,4.393,0,0,1-4.031,1.558,4.224,4.224,0,0,1-3.169-1.62,5.837,5.837,0,0,1-.7-3.721,5.493,5.493,0,0,1,.482-1.592c.126-.308.257-.627.368-.966a9.35,9.35,0,0,1,5.278-6.049c3.5-1.425,8.1-.751,13.307,1.95a1.041,1.041,0,0,0,.959-1.848,25.19,25.19,0,0,0-8.2-2.76,13.361,13.361,0,0,0-6.849.73,11.368,11.368,0,0,0-6.47,7.325c-.089.27-.2.541-.318.829a7.234,7.234,0,0,0-.631,2.231,7.7,7.7,0,0,0,1.06,5.047,6.245,6.245,0,0,0,4.624,2.51A6.834,6.834,0,0,0,581.3,533.17Z" transform="translate(-553.93 -501.16)" fill="url(#b)"/><path d="M473.735,539.632a11.834,11.834,0,0,0,7.141-2.419,14.171,14.171,0,0,0,3.908-3.57,10.467,10.467,0,0,0,1.809-4.191,13.252,13.252,0,0,0,.033-4.489,24.208,24.208,0,0,0-1.213-4.608,3.725,3.725,0,0,0-.189-.437l0,0a19.765,19.765,0,0,0-6.3-7.616,12.182,12.182,0,0,0-8.016-1.984,1.152,1.152,0,0,1-1.165-.709,29.21,29.21,0,0,0-4.273-7.165,1.041,1.041,0,1,0-1.507,1.437,27.527,27.527,0,0,1,3.848,6.506,3.231,3.231,0,0,0,3.281,2.006c5.089-.455,9.107,2.319,12.283,8.478a1.658,1.658,0,0,1,.083.191c2.466,6.873,1.352,11.185-3.725,14.419l-.03.019-.029.021c-3.033,2.24-6.392,2.629-10.27,1.189a7.35,7.35,0,0,1-4.489-4.793,8.552,8.552,0,0,1,.241-6.054,1.3,1.3,0,0,1,.171-.281c1.84-2.3,3.829-2.736,6.259-1.367a4.483,4.483,0,0,1,2.27,2.85,2.8,2.8,0,0,1-.82,2.737c-.934.74-1.67.713-2.889-.095a1.041,1.041,0,1,0-1.15,1.736,5.165,5.165,0,0,0,2.47.962,4.079,4.079,0,0,0,2.926-1.021l.044-.035.04-.04a4.854,4.854,0,0,0,1.414-4.688A6.56,6.56,0,0,0,472.6,522.4c-3.339-1.882-6.419-1.232-8.908,1.881a3.416,3.416,0,0,0-.45.742,10.012,10.012,0,0,0-.846,3.718,12.031,12.031,0,0,0,.512,3.759,9.378,9.378,0,0,0,2.152,3.764,9.519,9.519,0,0,0,3.61,2.4A14.531,14.531,0,0,0,473.735,539.632Z" transform="translate(-364.991 -497.433)" fill="url(#b)"/></g></g><g transform="translate(0 608)"><g transform="translate(0 0)"><path d="M487.7,550.837q.822,0,1.631-.064a21.334,21.334,0,0,0,12.412-5.5A35.494,35.494,0,0,0,508.3,548a29.445,29.445,0,0,0,7.027,1.232,21.449,21.449,0,0,0,12.249-2.866A17.1,17.1,0,0,0,534,539.418a21.33,21.33,0,0,0,2.129-10.185,18.217,18.217,0,0,0,3.852-10.668,16.608,16.608,0,0,0-6.956-13.815,16.854,16.854,0,0,0-5.01-2.442,18.263,18.263,0,0,0-5.95-.721,21.968,21.968,0,0,0-6.031,1.134c-9.352-8.2-18.334-9.452-26.717-3.717a40.218,40.218,0,0,0-10.4-3.27,25.649,25.649,0,0,0-9.343.126,18.765,18.765,0,0,0-7.38,3.273,17.486,17.486,0,0,0-5,5.822,25.139,25.139,0,0,0-2.621,7.9,16.679,16.679,0,0,0,.011,5.157,12.25,12.25,0,0,0,2.083,5.107c3.846,5.405,8.274,6.753,11.311,6.931a13.217,13.217,0,0,0,1.513,0,6.563,6.563,0,0,0-1.857,2.831,9.685,9.685,0,0,0,.569,6.635,23.1,23.1,0,0,0,3.127,5.365,12,12,0,0,0,3.886,2.848,37.767,37.767,0,0,0,7.221,2.487A23.937,23.937,0,0,0,487.7,550.837Zm13.763-8.1-.555.5c-7.167,6.429-14.6,7.207-24.842,2.6a10.163,10.163,0,0,1-3.095-2.225c-2.269-2.926-4.345-7.108-3.365-10.071.577-1.745,2.217-3.005,4.873-3.747,3.982-1.111,5.068-.267,6.959,1.591a5.409,5.409,0,0,1,.664,5.213,4.544,4.544,0,0,1-4.331,1.628,1.634,1.634,0,0,1-1.351-1.084.938.938,0,0,1,.234-.92,1.139,1.139,0,0,1,1.123-.035,1.041,1.041,0,0,0,.761-1.938,3.08,3.08,0,0,0-3.259.409,3.023,3.023,0,0,0-.879,2.99,3.313,3.313,0,0,0,.965,1.618,4.18,4.18,0,0,0,1.931.987,6.581,6.581,0,0,0,6.544-2.51,6.177,6.177,0,0,0,.684-4A6.5,6.5,0,0,0,482.9,529.9a8.74,8.74,0,0,0-3.525-2.4,6.537,6.537,0,0,0-1.944-.277h0a16.308,16.308,0,0,0,2.74-2.409,12.182,12.182,0,0,0,2.573-4.2,9.148,9.148,0,0,0,.437-4.065,10.929,10.929,0,0,0-2.088-5.107,14.168,14.168,0,0,0-3.421-3.351,12.214,12.214,0,0,0-3.907-1.727,14.15,14.15,0,0,0-4.141-.408,10.549,10.549,0,0,0-6.925,2.658,5.361,5.361,0,0,0-1.633,3.54,7.146,7.146,0,0,0,1.433,4.377c2.036,2.982,4.138,3.34,5.543,3.115a5.213,5.213,0,0,0,2.842-1.53,5.857,5.857,0,0,0,1.477-2.395,2.035,2.035,0,0,0-.447-2.256,1.041,1.041,0,0,0-1.5,1.429,2.651,2.651,0,0,1-.512,1.166,3.863,3.863,0,0,1-1.664,1.384,2.291,2.291,0,0,1-1.734,0,5.38,5.38,0,0,1-2.282-2.091c-.984-1.441-1.79-3.526-.047-5.272a8.606,8.606,0,0,1,5.552-2.049A11.29,11.29,0,0,1,476.5,509.8a10.7,10.7,0,0,1,4.613,6.983,8.287,8.287,0,0,1-2.485,6.625,13.6,13.6,0,0,1-10.525,4.562c-3.7-.218-7.071-2.313-9.737-6.06-4.375-6.15.137-14.987.666-15.974,4.926-9.2,16.681-11.078,29.948-4.8l.555.263.5-.359c7.868-5.662,16.069-4.474,25.071,3.631l.463.417.586-.211c9.057-3.26,15.755.385,19,4.883,3.961,5.485,3.61,12.739-.9,18.482l-.235.3.013.38c.242,6.986-2.437,12.547-7.543,15.658-6.422,3.913-15.763,3.343-24.378-1.487Z" transform="translate(-412.608 -495.369)" fill="url(#b)"/><path d="M596.266,559.3a24.67,24.67,0,0,0,6.352-.836A28.864,28.864,0,0,0,611,554.638a1.041,1.041,0,1,0-1.142-1.741c-9.81,6.435-20.73,5.607-30.759-2.328a39.564,39.564,0,0,0-4.078-4.071c-3.332-2.871-6.388-4.477-9.082-4.773a10.348,10.348,0,0,0-4.062.3,5.649,5.649,0,0,0-3.573,2.985,10.586,10.586,0,0,0-1.243,5.056,3.871,3.871,0,0,0,1.7,3.159,3.646,3.646,0,0,0,1.787.546,3.874,3.874,0,0,1-1.239.435c-1.629.252-3.1-.927-4.374-3.505-3.326-6.734.293-11.507,3.914-14.325a26.06,26.06,0,0,1,8.69-4.312,15.89,15.89,0,0,1,3.573-.625,2.936,2.936,0,0,1,1.543.206,1.041,1.041,0,0,0,1.568-1.37,3.456,3.456,0,0,0-2.67-.921,15.181,15.181,0,0,0-3.655.467,28.63,28.63,0,0,0-8.875,3.867,21.188,21.188,0,0,0-3.815,3.194,14.443,14.443,0,0,0-2.73,4.1,11.448,11.448,0,0,0-.937,4.985,13.978,13.978,0,0,0,1.526,5.656,9.535,9.535,0,0,0,3.1,3.868,4.8,4.8,0,0,0,3.542.759,7.475,7.475,0,0,0,4-2.354,6.483,6.483,0,0,0,1.807-3.075l.421-3.573-2.264,2.8a4.543,4.543,0,0,1-2.146,1.525,2.053,2.053,0,0,1-1.665-.107,1.894,1.894,0,0,1-.73-1.53,8.449,8.449,0,0,1,1.047-4.031c1.068-2.249,3.921-2.288,5.527-2.111,5.492.6,11.8,8.115,11.858,8.191l.069.083.084.067a35.926,35.926,0,0,0,7.994,4.881A27.063,27.063,0,0,0,594.1,559.2Q595.18,559.3,596.266,559.3Z" transform="translate(-551.534 -505.766)" fill="url(#b)"/><path d="M581.3,533.17a6.676,6.676,0,0,0,2.389-.438,6.323,6.323,0,0,0,2.665-1.939,8.172,8.172,0,0,0,.779-1.161,4.926,4.926,0,0,0,.051-5.047,4.033,4.033,0,0,0-4.121-1.579,4.22,4.22,0,0,0-1.67.513,2.424,2.424,0,0,0-1.014,1.11c-.67,1.508.487,3.216.621,3.405l1.7-1.2,0,0c-.262-.378-.548-1.078-.42-1.362.061-.135.367-.321,1.028-.4a2.189,2.189,0,0,1,2.148.677,2.9,2.9,0,0,1-.151,2.879,6.065,6.065,0,0,1-.579.862,4.393,4.393,0,0,1-4.031,1.558,4.224,4.224,0,0,1-3.169-1.62,5.837,5.837,0,0,1-.7-3.721,5.493,5.493,0,0,1,.482-1.592c.126-.308.257-.627.368-.966a9.35,9.35,0,0,1,5.278-6.049c3.5-1.425,8.1-.751,13.307,1.95a1.041,1.041,0,0,0,.959-1.848,25.19,25.19,0,0,0-8.2-2.76,13.361,13.361,0,0,0-6.849.73,11.368,11.368,0,0,0-6.47,7.325c-.089.27-.2.541-.318.829a7.234,7.234,0,0,0-.631,2.231,7.7,7.7,0,0,0,1.06,5.047,6.245,6.245,0,0,0,4.624,2.51A6.834,6.834,0,0,0,581.3,533.17Z" transform="translate(-553.93 -501.16)" fill="url(#b)"/><path d="M473.735,539.632a11.834,11.834,0,0,0,7.141-2.419,14.171,14.171,0,0,0,3.908-3.57,10.467,10.467,0,0,0,1.809-4.191,13.252,13.252,0,0,0,.033-4.489,24.208,24.208,0,0,0-1.213-4.608,3.725,3.725,0,0,0-.189-.437l0,0a19.765,19.765,0,0,0-6.3-7.616,12.182,12.182,0,0,0-8.016-1.984,1.152,1.152,0,0,1-1.165-.709,29.21,29.21,0,0,0-4.273-7.165,1.041,1.041,0,1,0-1.507,1.437,27.527,27.527,0,0,1,3.848,6.506,3.231,3.231,0,0,0,3.281,2.006c5.089-.455,9.107,2.319,12.283,8.478a1.658,1.658,0,0,1,.083.191c2.466,6.873,1.352,11.185-3.725,14.419l-.03.019-.029.021c-3.033,2.24-6.392,2.629-10.27,1.189a7.35,7.35,0,0,1-4.489-4.793,8.552,8.552,0,0,1,.241-6.054,1.3,1.3,0,0,1,.171-.281c1.84-2.3,3.829-2.736,6.259-1.367a4.483,4.483,0,0,1,2.27,2.85,2.8,2.8,0,0,1-.82,2.737c-.934.74-1.67.713-2.889-.095a1.041,1.041,0,1,0-1.15,1.736,5.165,5.165,0,0,0,2.47.962,4.079,4.079,0,0,0,2.926-1.021l.044-.035.04-.04a4.854,4.854,0,0,0,1.414-4.688A6.56,6.56,0,0,0,472.6,522.4c-3.339-1.882-6.419-1.232-8.908,1.881a3.416,3.416,0,0,0-.45.742,10.012,10.012,0,0,0-.846,3.718,12.031,12.031,0,0,0,.512,3.759,9.378,9.378,0,0,0,2.152,3.764,9.519,9.519,0,0,0,3.61,2.4A14.531,14.531,0,0,0,473.735,539.632Z" transform="translate(-364.991 -497.433)" fill="url(#b)"/></g></g><g transform="translate(0 684)"><g transform="translate(0 0)"><path d="M487.7,550.837q.822,0,1.631-.064a21.334,21.334,0,0,0,12.412-5.5A35.494,35.494,0,0,0,508.3,548a29.445,29.445,0,0,0,7.027,1.232,21.449,21.449,0,0,0,12.249-2.866A17.1,17.1,0,0,0,534,539.418a21.33,21.33,0,0,0,2.129-10.185,18.217,18.217,0,0,0,3.852-10.668,16.608,16.608,0,0,0-6.956-13.815,16.854,16.854,0,0,0-5.01-2.442,18.263,18.263,0,0,0-5.95-.721,21.968,21.968,0,0,0-6.031,1.134c-9.352-8.2-18.334-9.452-26.717-3.717a40.218,40.218,0,0,0-10.4-3.27,25.649,25.649,0,0,0-9.343.126,18.765,18.765,0,0,0-7.38,3.273,17.486,17.486,0,0,0-5,5.822,25.139,25.139,0,0,0-2.621,7.9,16.679,16.679,0,0,0,.011,5.157,12.25,12.25,0,0,0,2.083,5.107c3.846,5.405,8.274,6.753,11.311,6.931a13.217,13.217,0,0,0,1.513,0,6.563,6.563,0,0,0-1.857,2.831,9.685,9.685,0,0,0,.569,6.635,23.1,23.1,0,0,0,3.127,5.365,12,12,0,0,0,3.886,2.848,37.767,37.767,0,0,0,7.221,2.487A23.937,23.937,0,0,0,487.7,550.837Zm13.763-8.1-.555.5c-7.167,6.429-14.6,7.207-24.842,2.6a10.163,10.163,0,0,1-3.095-2.225c-2.269-2.926-4.345-7.108-3.365-10.071.577-1.745,2.217-3.005,4.873-3.747,3.982-1.111,5.068-.267,6.959,1.591a5.409,5.409,0,0,1,.664,5.213,4.544,4.544,0,0,1-4.331,1.628,1.634,1.634,0,0,1-1.351-1.084.938.938,0,0,1,.234-.92,1.139,1.139,0,0,1,1.123-.035,1.041,1.041,0,0,0,.761-1.938,3.08,3.08,0,0,0-3.259.409,3.023,3.023,0,0,0-.879,2.99,3.313,3.313,0,0,0,.965,1.618,4.18,4.18,0,0,0,1.931.987,6.581,6.581,0,0,0,6.544-2.51,6.177,6.177,0,0,0,.684-4A6.5,6.5,0,0,0,482.9,529.9a8.74,8.74,0,0,0-3.525-2.4,6.537,6.537,0,0,0-1.944-.277h0a16.308,16.308,0,0,0,2.74-2.409,12.182,12.182,0,0,0,2.573-4.2,9.148,9.148,0,0,0,.437-4.065,10.929,10.929,0,0,0-2.088-5.107,14.168,14.168,0,0,0-3.421-3.351,12.214,12.214,0,0,0-3.907-1.727,14.15,14.15,0,0,0-4.141-.408,10.549,10.549,0,0,0-6.925,2.658,5.361,5.361,0,0,0-1.633,3.54,7.146,7.146,0,0,0,1.433,4.377c2.036,2.982,4.138,3.34,5.543,3.115a5.213,5.213,0,0,0,2.842-1.53,5.857,5.857,0,0,0,1.477-2.395,2.035,2.035,0,0,0-.447-2.256,1.041,1.041,0,0,0-1.5,1.429,2.651,2.651,0,0,1-.512,1.166,3.863,3.863,0,0,1-1.664,1.384,2.291,2.291,0,0,1-1.734,0,5.38,5.38,0,0,1-2.282-2.091c-.984-1.441-1.79-3.526-.047-5.272a8.606,8.606,0,0,1,5.552-2.049A11.29,11.29,0,0,1,476.5,509.8a10.7,10.7,0,0,1,4.613,6.983,8.287,8.287,0,0,1-2.485,6.625,13.6,13.6,0,0,1-10.525,4.562c-3.7-.218-7.071-2.313-9.737-6.06-4.375-6.15.137-14.987.666-15.974,4.926-9.2,16.681-11.078,29.948-4.8l.555.263.5-.359c7.868-5.662,16.069-4.474,25.071,3.631l.463.417.586-.211c9.057-3.26,15.755.385,19,4.883,3.961,5.485,3.61,12.739-.9,18.482l-.235.3.013.38c.242,6.986-2.437,12.547-7.543,15.658-6.422,3.913-15.763,3.343-24.378-1.487Z" transform="translate(-412.608 -495.369)" fill="url(#b)"/><path d="M596.266,559.3a24.67,24.67,0,0,0,6.352-.836A28.864,28.864,0,0,0,611,554.638a1.041,1.041,0,1,0-1.142-1.741c-9.81,6.435-20.73,5.607-30.759-2.328a39.564,39.564,0,0,0-4.078-4.071c-3.332-2.871-6.388-4.477-9.082-4.773a10.348,10.348,0,0,0-4.062.3,5.649,5.649,0,0,0-3.573,2.985,10.586,10.586,0,0,0-1.243,5.056,3.871,3.871,0,0,0,1.7,3.159,3.646,3.646,0,0,0,1.787.546,3.874,3.874,0,0,1-1.239.435c-1.629.252-3.1-.927-4.374-3.505-3.326-6.734.293-11.507,3.914-14.325a26.06,26.06,0,0,1,8.69-4.312,15.89,15.89,0,0,1,3.573-.625,2.936,2.936,0,0,1,1.543.206,1.041,1.041,0,0,0,1.568-1.37,3.456,3.456,0,0,0-2.67-.921,15.181,15.181,0,0,0-3.655.467,28.63,28.63,0,0,0-8.875,3.867,21.188,21.188,0,0,0-3.815,3.194,14.443,14.443,0,0,0-2.73,4.1,11.448,11.448,0,0,0-.937,4.985,13.978,13.978,0,0,0,1.526,5.656,9.535,9.535,0,0,0,3.1,3.868,4.8,4.8,0,0,0,3.542.759,7.475,7.475,0,0,0,4-2.354,6.483,6.483,0,0,0,1.807-3.075l.421-3.573-2.264,2.8a4.543,4.543,0,0,1-2.146,1.525,2.053,2.053,0,0,1-1.665-.107,1.894,1.894,0,0,1-.73-1.53,8.449,8.449,0,0,1,1.047-4.031c1.068-2.249,3.921-2.288,5.527-2.111,5.492.6,11.8,8.115,11.858,8.191l.069.083.084.067a35.926,35.926,0,0,0,7.994,4.881A27.063,27.063,0,0,0,594.1,559.2Q595.18,559.3,596.266,559.3Z" transform="translate(-551.534 -505.766)" fill="url(#b)"/><path d="M581.3,533.17a6.676,6.676,0,0,0,2.389-.438,6.323,6.323,0,0,0,2.665-1.939,8.172,8.172,0,0,0,.779-1.161,4.926,4.926,0,0,0,.051-5.047,4.033,4.033,0,0,0-4.121-1.579,4.22,4.22,0,0,0-1.67.513,2.424,2.424,0,0,0-1.014,1.11c-.67,1.508.487,3.216.621,3.405l1.7-1.2,0,0c-.262-.378-.548-1.078-.42-1.362.061-.135.367-.321,1.028-.4a2.189,2.189,0,0,1,2.148.677,2.9,2.9,0,0,1-.151,2.879,6.065,6.065,0,0,1-.579.862,4.393,4.393,0,0,1-4.031,1.558,4.224,4.224,0,0,1-3.169-1.62,5.837,5.837,0,0,1-.7-3.721,5.493,5.493,0,0,1,.482-1.592c.126-.308.257-.627.368-.966a9.35,9.35,0,0,1,5.278-6.049c3.5-1.425,8.1-.751,13.307,1.95a1.041,1.041,0,0,0,.959-1.848,25.19,25.19,0,0,0-8.2-2.76,13.361,13.361,0,0,0-6.849.73,11.368,11.368,0,0,0-6.47,7.325c-.089.27-.2.541-.318.829a7.234,7.234,0,0,0-.631,2.231,7.7,7.7,0,0,0,1.06,5.047,6.245,6.245,0,0,0,4.624,2.51A6.834,6.834,0,0,0,581.3,533.17Z" transform="translate(-553.93 -501.16)" fill="url(#b)"/><path d="M473.735,539.632a11.834,11.834,0,0,0,7.141-2.419,14.171,14.171,0,0,0,3.908-3.57,10.467,10.467,0,0,0,1.809-4.191,13.252,13.252,0,0,0,.033-4.489,24.208,24.208,0,0,0-1.213-4.608,3.725,3.725,0,0,0-.189-.437l0,0a19.765,19.765,0,0,0-6.3-7.616,12.182,12.182,0,0,0-8.016-1.984,1.152,1.152,0,0,1-1.165-.709,29.21,29.21,0,0,0-4.273-7.165,1.041,1.041,0,1,0-1.507,1.437,27.527,27.527,0,0,1,3.848,6.506,3.231,3.231,0,0,0,3.281,2.006c5.089-.455,9.107,2.319,12.283,8.478a1.658,1.658,0,0,1,.083.191c2.466,6.873,1.352,11.185-3.725,14.419l-.03.019-.029.021c-3.033,2.24-6.392,2.629-10.27,1.189a7.35,7.35,0,0,1-4.489-4.793,8.552,8.552,0,0,1,.241-6.054,1.3,1.3,0,0,1,.171-.281c1.84-2.3,3.829-2.736,6.259-1.367a4.483,4.483,0,0,1,2.27,2.85,2.8,2.8,0,0,1-.82,2.737c-.934.74-1.67.713-2.889-.095a1.041,1.041,0,1,0-1.15,1.736,5.165,5.165,0,0,0,2.47.962,4.079,4.079,0,0,0,2.926-1.021l.044-.035.04-.04a4.854,4.854,0,0,0,1.414-4.688A6.56,6.56,0,0,0,472.6,522.4c-3.339-1.882-6.419-1.232-8.908,1.881a3.416,3.416,0,0,0-.45.742,10.012,10.012,0,0,0-.846,3.718,12.031,12.031,0,0,0,.512,3.759,9.378,9.378,0,0,0,2.152,3.764,9.519,9.519,0,0,0,3.61,2.4A14.531,14.531,0,0,0,473.735,539.632Z" transform="translate(-364.991 -497.433)" fill="url(#b)"/></g></g><g transform="translate(0 760)"><g transform="translate(0 0)"><path d="M487.7,550.837q.822,0,1.631-.064a21.334,21.334,0,0,0,12.412-5.5A35.494,35.494,0,0,0,508.3,548a29.445,29.445,0,0,0,7.027,1.232,21.449,21.449,0,0,0,12.249-2.866A17.1,17.1,0,0,0,534,539.418a21.33,21.33,0,0,0,2.129-10.185,18.217,18.217,0,0,0,3.852-10.668,16.608,16.608,0,0,0-6.956-13.815,16.854,16.854,0,0,0-5.01-2.442,18.263,18.263,0,0,0-5.95-.721,21.968,21.968,0,0,0-6.031,1.134c-9.352-8.2-18.334-9.452-26.717-3.717a40.218,40.218,0,0,0-10.4-3.27,25.649,25.649,0,0,0-9.343.126,18.765,18.765,0,0,0-7.38,3.273,17.486,17.486,0,0,0-5,5.822,25.139,25.139,0,0,0-2.621,7.9,16.679,16.679,0,0,0,.011,5.157,12.25,12.25,0,0,0,2.083,5.107c3.846,5.405,8.274,6.753,11.311,6.931a13.217,13.217,0,0,0,1.513,0,6.563,6.563,0,0,0-1.857,2.831,9.685,9.685,0,0,0,.569,6.635,23.1,23.1,0,0,0,3.127,5.365,12,12,0,0,0,3.886,2.848,37.767,37.767,0,0,0,7.221,2.487A23.937,23.937,0,0,0,487.7,550.837Zm13.763-8.1-.555.5c-7.167,6.429-14.6,7.207-24.842,2.6a10.163,10.163,0,0,1-3.095-2.225c-2.269-2.926-4.345-7.108-3.365-10.071.577-1.745,2.217-3.005,4.873-3.747,3.982-1.111,5.068-.267,6.959,1.591a5.409,5.409,0,0,1,.664,5.213,4.544,4.544,0,0,1-4.331,1.628,1.634,1.634,0,0,1-1.351-1.084.938.938,0,0,1,.234-.92,1.139,1.139,0,0,1,1.123-.035,1.041,1.041,0,0,0,.761-1.938,3.08,3.08,0,0,0-3.259.409,3.023,3.023,0,0,0-.879,2.99,3.313,3.313,0,0,0,.965,1.618,4.18,4.18,0,0,0,1.931.987,6.581,6.581,0,0,0,6.544-2.51,6.177,6.177,0,0,0,.684-4A6.5,6.5,0,0,0,482.9,529.9a8.74,8.74,0,0,0-3.525-2.4,6.537,6.537,0,0,0-1.944-.277h0a16.308,16.308,0,0,0,2.74-2.409,12.182,12.182,0,0,0,2.573-4.2,9.148,9.148,0,0,0,.437-4.065,10.929,10.929,0,0,0-2.088-5.107,14.168,14.168,0,0,0-3.421-3.351,12.214,12.214,0,0,0-3.907-1.727,14.15,14.15,0,0,0-4.141-.408,10.549,10.549,0,0,0-6.925,2.658,5.361,5.361,0,0,0-1.633,3.54,7.146,7.146,0,0,0,1.433,4.377c2.036,2.982,4.138,3.34,5.543,3.115a5.213,5.213,0,0,0,2.842-1.53,5.857,5.857,0,0,0,1.477-2.395,2.035,2.035,0,0,0-.447-2.256,1.041,1.041,0,0,0-1.5,1.429,2.651,2.651,0,0,1-.512,1.166,3.863,3.863,0,0,1-1.664,1.384,2.291,2.291,0,0,1-1.734,0,5.38,5.38,0,0,1-2.282-2.091c-.984-1.441-1.79-3.526-.047-5.272a8.606,8.606,0,0,1,5.552-2.049A11.29,11.29,0,0,1,476.5,509.8a10.7,10.7,0,0,1,4.613,6.983,8.287,8.287,0,0,1-2.485,6.625,13.6,13.6,0,0,1-10.525,4.562c-3.7-.218-7.071-2.313-9.737-6.06-4.375-6.15.137-14.987.666-15.974,4.926-9.2,16.681-11.078,29.948-4.8l.555.263.5-.359c7.868-5.662,16.069-4.474,25.071,3.631l.463.417.586-.211c9.057-3.26,15.755.385,19,4.883,3.961,5.485,3.61,12.739-.9,18.482l-.235.3.013.38c.242,6.986-2.437,12.547-7.543,15.658-6.422,3.913-15.763,3.343-24.378-1.487Z" transform="translate(-412.608 -495.369)" fill="url(#b)"/><path d="M596.266,559.3a24.67,24.67,0,0,0,6.352-.836A28.864,28.864,0,0,0,611,554.638a1.041,1.041,0,1,0-1.142-1.741c-9.81,6.435-20.73,5.607-30.759-2.328a39.564,39.564,0,0,0-4.078-4.071c-3.332-2.871-6.388-4.477-9.082-4.773a10.348,10.348,0,0,0-4.062.3,5.649,5.649,0,0,0-3.573,2.985,10.586,10.586,0,0,0-1.243,5.056,3.871,3.871,0,0,0,1.7,3.159,3.646,3.646,0,0,0,1.787.546,3.874,3.874,0,0,1-1.239.435c-1.629.252-3.1-.927-4.374-3.505-3.326-6.734.293-11.507,3.914-14.325a26.06,26.06,0,0,1,8.69-4.312,15.89,15.89,0,0,1,3.573-.625,2.936,2.936,0,0,1,1.543.206,1.041,1.041,0,0,0,1.568-1.37,3.456,3.456,0,0,0-2.67-.921,15.181,15.181,0,0,0-3.655.467,28.63,28.63,0,0,0-8.875,3.867,21.188,21.188,0,0,0-3.815,3.194,14.443,14.443,0,0,0-2.73,4.1,11.448,11.448,0,0,0-.937,4.985,13.978,13.978,0,0,0,1.526,5.656,9.535,9.535,0,0,0,3.1,3.868,4.8,4.8,0,0,0,3.542.759,7.475,7.475,0,0,0,4-2.354,6.483,6.483,0,0,0,1.807-3.075l.421-3.573-2.264,2.8a4.543,4.543,0,0,1-2.146,1.525,2.053,2.053,0,0,1-1.665-.107,1.894,1.894,0,0,1-.73-1.53,8.449,8.449,0,0,1,1.047-4.031c1.068-2.249,3.921-2.288,5.527-2.111,5.492.6,11.8,8.115,11.858,8.191l.069.083.084.067a35.926,35.926,0,0,0,7.994,4.881A27.063,27.063,0,0,0,594.1,559.2Q595.18,559.3,596.266,559.3Z" transform="translate(-551.534 -505.766)" fill="url(#b)"/><path d="M581.3,533.17a6.676,6.676,0,0,0,2.389-.438,6.323,6.323,0,0,0,2.665-1.939,8.172,8.172,0,0,0,.779-1.161,4.926,4.926,0,0,0,.051-5.047,4.033,4.033,0,0,0-4.121-1.579,4.22,4.22,0,0,0-1.67.513,2.424,2.424,0,0,0-1.014,1.11c-.67,1.508.487,3.216.621,3.405l1.7-1.2,0,0c-.262-.378-.548-1.078-.42-1.362.061-.135.367-.321,1.028-.4a2.189,2.189,0,0,1,2.148.677,2.9,2.9,0,0,1-.151,2.879,6.065,6.065,0,0,1-.579.862,4.393,4.393,0,0,1-4.031,1.558,4.224,4.224,0,0,1-3.169-1.62,5.837,5.837,0,0,1-.7-3.721,5.493,5.493,0,0,1,.482-1.592c.126-.308.257-.627.368-.966a9.35,9.35,0,0,1,5.278-6.049c3.5-1.425,8.1-.751,13.307,1.95a1.041,1.041,0,0,0,.959-1.848,25.19,25.19,0,0,0-8.2-2.76,13.361,13.361,0,0,0-6.849.73,11.368,11.368,0,0,0-6.47,7.325c-.089.27-.2.541-.318.829a7.234,7.234,0,0,0-.631,2.231,7.7,7.7,0,0,0,1.06,5.047,6.245,6.245,0,0,0,4.624,2.51A6.834,6.834,0,0,0,581.3,533.17Z" transform="translate(-553.93 -501.16)" fill="url(#b)"/><path d="M473.735,539.632a11.834,11.834,0,0,0,7.141-2.419,14.171,14.171,0,0,0,3.908-3.57,10.467,10.467,0,0,0,1.809-4.191,13.252,13.252,0,0,0,.033-4.489,24.208,24.208,0,0,0-1.213-4.608,3.725,3.725,0,0,0-.189-.437l0,0a19.765,19.765,0,0,0-6.3-7.616,12.182,12.182,0,0,0-8.016-1.984,1.152,1.152,0,0,1-1.165-.709,29.21,29.21,0,0,0-4.273-7.165,1.041,1.041,0,1,0-1.507,1.437,27.527,27.527,0,0,1,3.848,6.506,3.231,3.231,0,0,0,3.281,2.006c5.089-.455,9.107,2.319,12.283,8.478a1.658,1.658,0,0,1,.083.191c2.466,6.873,1.352,11.185-3.725,14.419l-.03.019-.029.021c-3.033,2.24-6.392,2.629-10.27,1.189a7.35,7.35,0,0,1-4.489-4.793,8.552,8.552,0,0,1,.241-6.054,1.3,1.3,0,0,1,.171-.281c1.84-2.3,3.829-2.736,6.259-1.367a4.483,4.483,0,0,1,2.27,2.85,2.8,2.8,0,0,1-.82,2.737c-.934.74-1.67.713-2.889-.095a1.041,1.041,0,1,0-1.15,1.736,5.165,5.165,0,0,0,2.47.962,4.079,4.079,0,0,0,2.926-1.021l.044-.035.04-.04a4.854,4.854,0,0,0,1.414-4.688A6.56,6.56,0,0,0,472.6,522.4c-3.339-1.882-6.419-1.232-8.908,1.881a3.416,3.416,0,0,0-.45.742,10.012,10.012,0,0,0-.846,3.718,12.031,12.031,0,0,0,.512,3.759,9.378,9.378,0,0,0,2.152,3.764,9.519,9.519,0,0,0,3.61,2.4A14.531,14.531,0,0,0,473.735,539.632Z" transform="translate(-364.991 -497.433)" fill="url(#b)"/></g></g><g transform="translate(0 836)"><g transform="translate(0 0)"><path d="M487.7,550.837q.822,0,1.631-.064a21.334,21.334,0,0,0,12.412-5.5A35.494,35.494,0,0,0,508.3,548a29.445,29.445,0,0,0,7.027,1.232,21.449,21.449,0,0,0,12.249-2.866A17.1,17.1,0,0,0,534,539.418a21.33,21.33,0,0,0,2.129-10.185,18.217,18.217,0,0,0,3.852-10.668,16.608,16.608,0,0,0-6.956-13.815,16.854,16.854,0,0,0-5.01-2.442,18.263,18.263,0,0,0-5.95-.721,21.968,21.968,0,0,0-6.031,1.134c-9.352-8.2-18.334-9.452-26.717-3.717a40.218,40.218,0,0,0-10.4-3.27,25.649,25.649,0,0,0-9.343.126,18.765,18.765,0,0,0-7.38,3.273,17.486,17.486,0,0,0-5,5.822,25.139,25.139,0,0,0-2.621,7.9,16.679,16.679,0,0,0,.011,5.157,12.25,12.25,0,0,0,2.083,5.107c3.846,5.405,8.274,6.753,11.311,6.931a13.217,13.217,0,0,0,1.513,0,6.563,6.563,0,0,0-1.857,2.831,9.685,9.685,0,0,0,.569,6.635,23.1,23.1,0,0,0,3.127,5.365,12,12,0,0,0,3.886,2.848,37.767,37.767,0,0,0,7.221,2.487A23.937,23.937,0,0,0,487.7,550.837Zm13.763-8.1-.555.5c-7.167,6.429-14.6,7.207-24.842,2.6a10.163,10.163,0,0,1-3.095-2.225c-2.269-2.926-4.345-7.108-3.365-10.071.577-1.745,2.217-3.005,4.873-3.747,3.982-1.111,5.068-.267,6.959,1.591a5.409,5.409,0,0,1,.664,5.213,4.544,4.544,0,0,1-4.331,1.628,1.634,1.634,0,0,1-1.351-1.084.938.938,0,0,1,.234-.92,1.139,1.139,0,0,1,1.123-.035,1.041,1.041,0,0,0,.761-1.938,3.08,3.08,0,0,0-3.259.409,3.023,3.023,0,0,0-.879,2.99,3.313,3.313,0,0,0,.965,1.618,4.18,4.18,0,0,0,1.931.987,6.581,6.581,0,0,0,6.544-2.51,6.177,6.177,0,0,0,.684-4A6.5,6.5,0,0,0,482.9,529.9a8.74,8.74,0,0,0-3.525-2.4,6.537,6.537,0,0,0-1.944-.277h0a16.308,16.308,0,0,0,2.74-2.409,12.182,12.182,0,0,0,2.573-4.2,9.148,9.148,0,0,0,.437-4.065,10.929,10.929,0,0,0-2.088-5.107,14.168,14.168,0,0,0-3.421-3.351,12.214,12.214,0,0,0-3.907-1.727,14.15,14.15,0,0,0-4.141-.408,10.549,10.549,0,0,0-6.925,2.658,5.361,5.361,0,0,0-1.633,3.54,7.146,7.146,0,0,0,1.433,4.377c2.036,2.982,4.138,3.34,5.543,3.115a5.213,5.213,0,0,0,2.842-1.53,5.857,5.857,0,0,0,1.477-2.395,2.035,2.035,0,0,0-.447-2.256,1.041,1.041,0,0,0-1.5,1.429,2.651,2.651,0,0,1-.512,1.166,3.863,3.863,0,0,1-1.664,1.384,2.291,2.291,0,0,1-1.734,0,5.38,5.38,0,0,1-2.282-2.091c-.984-1.441-1.79-3.526-.047-5.272a8.606,8.606,0,0,1,5.552-2.049A11.29,11.29,0,0,1,476.5,509.8a10.7,10.7,0,0,1,4.613,6.983,8.287,8.287,0,0,1-2.485,6.625,13.6,13.6,0,0,1-10.525,4.562c-3.7-.218-7.071-2.313-9.737-6.06-4.375-6.15.137-14.987.666-15.974,4.926-9.2,16.681-11.078,29.948-4.8l.555.263.5-.359c7.868-5.662,16.069-4.474,25.071,3.631l.463.417.586-.211c9.057-3.26,15.755.385,19,4.883,3.961,5.485,3.61,12.739-.9,18.482l-.235.3.013.38c.242,6.986-2.437,12.547-7.543,15.658-6.422,3.913-15.763,3.343-24.378-1.487Z" transform="translate(-412.608 -495.369)" fill="url(#b)"/><path d="M596.266,559.3a24.67,24.67,0,0,0,6.352-.836A28.864,28.864,0,0,0,611,554.638a1.041,1.041,0,1,0-1.142-1.741c-9.81,6.435-20.73,5.607-30.759-2.328a39.564,39.564,0,0,0-4.078-4.071c-3.332-2.871-6.388-4.477-9.082-4.773a10.348,10.348,0,0,0-4.062.3,5.649,5.649,0,0,0-3.573,2.985,10.586,10.586,0,0,0-1.243,5.056,3.871,3.871,0,0,0,1.7,3.159,3.646,3.646,0,0,0,1.787.546,3.874,3.874,0,0,1-1.239.435c-1.629.252-3.1-.927-4.374-3.505-3.326-6.734.293-11.507,3.914-14.325a26.06,26.06,0,0,1,8.69-4.312,15.89,15.89,0,0,1,3.573-.625,2.936,2.936,0,0,1,1.543.206,1.041,1.041,0,0,0,1.568-1.37,3.456,3.456,0,0,0-2.67-.921,15.181,15.181,0,0,0-3.655.467,28.63,28.63,0,0,0-8.875,3.867,21.188,21.188,0,0,0-3.815,3.194,14.443,14.443,0,0,0-2.73,4.1,11.448,11.448,0,0,0-.937,4.985,13.978,13.978,0,0,0,1.526,5.656,9.535,9.535,0,0,0,3.1,3.868,4.8,4.8,0,0,0,3.542.759,7.475,7.475,0,0,0,4-2.354,6.483,6.483,0,0,0,1.807-3.075l.421-3.573-2.264,2.8a4.543,4.543,0,0,1-2.146,1.525,2.053,2.053,0,0,1-1.665-.107,1.894,1.894,0,0,1-.73-1.53,8.449,8.449,0,0,1,1.047-4.031c1.068-2.249,3.921-2.288,5.527-2.111,5.492.6,11.8,8.115,11.858,8.191l.069.083.084.067a35.926,35.926,0,0,0,7.994,4.881A27.063,27.063,0,0,0,594.1,559.2Q595.18,559.3,596.266,559.3Z" transform="translate(-551.534 -505.766)" fill="url(#b)"/><path d="M581.3,533.17a6.676,6.676,0,0,0,2.389-.438,6.323,6.323,0,0,0,2.665-1.939,8.172,8.172,0,0,0,.779-1.161,4.926,4.926,0,0,0,.051-5.047,4.033,4.033,0,0,0-4.121-1.579,4.22,4.22,0,0,0-1.67.513,2.424,2.424,0,0,0-1.014,1.11c-.67,1.508.487,3.216.621,3.405l1.7-1.2,0,0c-.262-.378-.548-1.078-.42-1.362.061-.135.367-.321,1.028-.4a2.189,2.189,0,0,1,2.148.677,2.9,2.9,0,0,1-.151,2.879,6.065,6.065,0,0,1-.579.862,4.393,4.393,0,0,1-4.031,1.558,4.224,4.224,0,0,1-3.169-1.62,5.837,5.837,0,0,1-.7-3.721,5.493,5.493,0,0,1,.482-1.592c.126-.308.257-.627.368-.966a9.35,9.35,0,0,1,5.278-6.049c3.5-1.425,8.1-.751,13.307,1.95a1.041,1.041,0,0,0,.959-1.848,25.19,25.19,0,0,0-8.2-2.76,13.361,13.361,0,0,0-6.849.73,11.368,11.368,0,0,0-6.47,7.325c-.089.27-.2.541-.318.829a7.234,7.234,0,0,0-.631,2.231,7.7,7.7,0,0,0,1.06,5.047,6.245,6.245,0,0,0,4.624,2.51A6.834,6.834,0,0,0,581.3,533.17Z" transform="translate(-553.93 -501.16)" fill="url(#b)"/><path d="M473.735,539.632a11.834,11.834,0,0,0,7.141-2.419,14.171,14.171,0,0,0,3.908-3.57,10.467,10.467,0,0,0,1.809-4.191,13.252,13.252,0,0,0,.033-4.489,24.208,24.208,0,0,0-1.213-4.608,3.725,3.725,0,0,0-.189-.437l0,0a19.765,19.765,0,0,0-6.3-7.616,12.182,12.182,0,0,0-8.016-1.984,1.152,1.152,0,0,1-1.165-.709,29.21,29.21,0,0,0-4.273-7.165,1.041,1.041,0,1,0-1.507,1.437,27.527,27.527,0,0,1,3.848,6.506,3.231,3.231,0,0,0,3.281,2.006c5.089-.455,9.107,2.319,12.283,8.478a1.658,1.658,0,0,1,.083.191c2.466,6.873,1.352,11.185-3.725,14.419l-.03.019-.029.021c-3.033,2.24-6.392,2.629-10.27,1.189a7.35,7.35,0,0,1-4.489-4.793,8.552,8.552,0,0,1,.241-6.054,1.3,1.3,0,0,1,.171-.281c1.84-2.3,3.829-2.736,6.259-1.367a4.483,4.483,0,0,1,2.27,2.85,2.8,2.8,0,0,1-.82,2.737c-.934.74-1.67.713-2.889-.095a1.041,1.041,0,1,0-1.15,1.736,5.165,5.165,0,0,0,2.47.962,4.079,4.079,0,0,0,2.926-1.021l.044-.035.04-.04a4.854,4.854,0,0,0,1.414-4.688A6.56,6.56,0,0,0,472.6,522.4c-3.339-1.882-6.419-1.232-8.908,1.881a3.416,3.416,0,0,0-.45.742,10.012,10.012,0,0,0-.846,3.718,12.031,12.031,0,0,0,.512,3.759,9.378,9.378,0,0,0,2.152,3.764,9.519,9.519,0,0,0,3.61,2.4A14.531,14.531,0,0,0,473.735,539.632Z" transform="translate(-364.991 -497.433)" fill="url(#b)"/></g></g></g></svg>