<svg xmlns="http://www.w3.org/2000/svg" xmlns:xlink="http://www.w3.org/1999/xlink" width="251" height="251" viewBox="0 0 251 251"><defs><linearGradient id="a" x2="0.592" y2="0.677" gradientUnits="objectBoundingBox"><stop offset="0" stop-color="#f7b927"/><stop offset="0.36" stop-color="#f7c627"/><stop offset="1" stop-color="#f7e227"/></linearGradient></defs><g transform="translate(0 251) rotate(-90)"><path d="M199.628,1007.444h-5.372V969.035H179.333V914.25h67.451V830.881H179.333V756.444h72.823v69.077h82.373V756.444h57.9v15.483h37.9v5.359h-37.9v23.224H351.243V771.927h35.814V761.8H339.9v69.077H252.156v88.728H184.705v44.066h9.551V927.946H224.1v41.089H199.628Zm0-43.769h19.1v-30.37h-19.1ZM184.705,825.521h62.078V761.8H184.705Zm171.91-30.37h30.442V777.286H356.615Z" transform="translate(-179.333 -756.444)" fill="url(#a)"/><path d="M238.682,904.418H179.333V844.87h87.828V756.444h58.851v59.448H281.5V770.784h30.77v23.9h-5.377V776.161H286.878v34.355h33.757V761.822h-48.1v88.426H184.711v48.794H233.3V864.587H200.046V883.9h19.219v5.377h-24.6V859.209h44.014Z" transform="translate(-179.333 -756.444)" fill="url(#a)"/><path d="M-1-1H45.005V45.005H-1ZM39.628,4.377H4.377V39.628H39.628Z" transform="translate(14.344 14.543)" fill="url(#a)"/><path d="M-1-1H24.691V20.21H-1ZM19.314,4.377H4.377V14.833H19.314Z" transform="translate(68.344 89.453)" fill="url(#a)"/><path d="M-1-1H24.691V20.21H-1ZM19.314,4.377H4.377V14.833H19.314Z" transform="translate(68.456 89.453)" fill="url(#a)"/><path d="M0,0H25.691V21.21H0ZM20.314,5.377H5.377V15.833H20.314Z" transform="translate(108.961 68.803) rotate(90)" fill="url(#a)"/></g></svg>