<svg xmlns="http://www.w3.org/2000/svg" xmlns:xlink="http://www.w3.org/1999/xlink" width="553.573" height="324.324" viewBox="0 0 553.573 324.324"><defs><clipPath id="a"><rect width="37.573" height="282.039" fill="none"/></clipPath><linearGradient id="b" x1="0.5" x2="0.5" y2="1" gradientUnits="objectBoundingBox"><stop offset="0" stop-color="#f7e227"/><stop offset="1" stop-color="#f7b927"/></linearGradient></defs><g transform="translate(-4.714 -35.5)"><g transform="translate(520.714 36)" clip-path="url(#a)"><g transform="translate(-176.148 -177.881)"><g transform="translate(177.148 178.881)"><g transform="translate(0 0)"><path d="M0-1H4.006V1H0Z" transform="translate(20.081 50.18) rotate(-90)" fill="url(#b)"/><path d="M0-1H4.006V1H0Z" transform="translate(19.926 4.006) rotate(-90)" fill="url(#b)"/><g transform="translate(15.964 0)"><path d="M-1-1H5.006V5.123H-1ZM3.006,1H1V3.123H3.006Z" transform="translate(0 50.18) rotate(-90)" fill="url(#b)"/><path d="M-1-1H5.006V5.123H-1ZM3.006,1H1V3.123H3.006Z" transform="translate(0 34.524) rotate(-90)" fill="url(#b)"/><path d="M-1-1H5.006V5.123H-1ZM3.006,1H1V3.123H3.006Z" transform="translate(0 19.682) rotate(-90)" fill="url(#b)"/><path d="M-1-1H5.006V5.123H-1ZM3.006,1H1V3.123H3.006Z" transform="translate(4.286 15.206) rotate(-90)" fill="url(#b)"/><path d="M-1-1H11.719V4.2H-1ZM9.719,1H1V2.2H9.719Z" transform="translate(12.005 30.46) rotate(-90)" fill="url(#b)"/><path d="M-1-1H5.006V5.123H-1ZM3.006,1H1V3.123H3.006Z" transform="translate(4.123 38.756) rotate(-90)" fill="url(#b)"/><path d="M-1-1H8.194V5.123H-1ZM6.194,1H1V3.123H6.194Z" transform="translate(0 46.174) rotate(-90)" fill="url(#b)"/><g transform="translate(8.408 30.46)"><path d="M-1-1H5.006V5.123H-1ZM3.006,1H1V3.123H3.006Z" transform="translate(7.194)" fill="url(#b)"/><path d="M-1-1H8.194V5.123H-1ZM6.194,1H1V3.123H6.194Z" fill="url(#b)"/></g><g transform="translate(8.408 15.618)"><path d="M-1-1H5.006V5.123H-1ZM3.006,1H1V3.123H3.006Z" transform="translate(7.194)" fill="url(#b)"/><path d="M-1-1H8.194V5.123H-1ZM6.194,1H1V3.123H6.194Z" fill="url(#b)"/></g><g transform="translate(0)"><path d="M-1-1H5.006V5.123H-1ZM3.006,1H1V3.123H3.006Z" transform="translate(4.123 0) rotate(90)" fill="url(#b)"/><path d="M-1-1H8.194V5.123H-1ZM6.194,1H1V3.123H6.194Z" transform="translate(4.123 4.006) rotate(90)" fill="url(#b)"/></g><path d="M-1-1H8.077V8.283H-1ZM6.077,1H1V6.283H6.077Z" transform="translate(8.408 4.35)" fill="url(#b)"/><path d="M-1-1H8.077V8.283H-1ZM6.077,1H1V6.283H6.077Z" transform="translate(8.408 38.602)" fill="url(#b)"/><path d="M-1-1H8.077V8.283H-1ZM6.077,1H1V6.283H6.077Z" transform="translate(11.947 42.243)" fill="url(#b)"/><path d="M-1-1H8.077V8.283H-1ZM6.077,1H1V6.283H6.077Z" transform="translate(11.947 0.708)" fill="url(#b)"/></g><g transform="translate(0 0)"><path d="M-1-1H8.077V8.283H-1ZM6.077,1H1V6.283H6.077Z" transform="translate(0.825 0.708)" fill="url(#b)"/><path d="M-1-1H8.077V8.283H-1ZM6.077,1H1V6.283H6.077Z" transform="translate(4.363 4.006)" fill="url(#b)"/><path d="M-1-1H8.077V8.283H-1ZM6.077,1H1V6.283H6.077Z" transform="translate(0.825 42.072)" fill="url(#b)"/><path d="M-1-1H8.077V8.283H-1ZM6.077,1H1V6.283H6.077Z" transform="translate(4.363 38.98)" fill="url(#b)"/><g transform="translate(0 30.46)"><path d="M-1-1H5.006V5.123H-1ZM3.006,1H1V3.123H3.006Z" fill="url(#b)"/><path d="M-1-1H8.194V5.123H-1ZM6.194,1H1V3.123H6.194Z" transform="translate(4.006)" fill="url(#b)"/></g><g transform="translate(15.752 38.98)"><path d="M-1-1H5.006V5.123H-1ZM3.006,1H1V3.123H3.006Z" transform="translate(0 11.2) rotate(-90)" fill="url(#b)"/><path d="M-1-1H8.194V5.123H-1ZM6.194,1H1V3.123H6.194Z" transform="translate(0 7.194) rotate(-90)" fill="url(#b)"/></g><path d="M-1-1H5.006V5.123H-1ZM3.006,1H1V3.123H3.006Z" transform="translate(11.406 38.942) rotate(-90)" fill="url(#b)"/><path d="M-1-1H5.006V5.123H-1ZM3.006,1H1V3.123H3.006Z" transform="translate(15.692 34.466) rotate(-90)" fill="url(#b)"/><path d="M-1-1H11.719V4.2H-1ZM9.719,1H1V2.2H9.719Z" transform="translate(4.535 30.46) rotate(-90)" fill="url(#b)"/><g transform="translate(0 15.618)"><path d="M-1-1H5.006V5.123H-1ZM3.006,1H1V3.123H3.006Z" fill="url(#b)"/><path d="M-1-1H8.194V5.123H-1ZM6.194,1H1V3.123H6.194Z" transform="translate(4.006)" fill="url(#b)"/></g><g transform="translate(15.649)"><path d="M-1-1H5.006V5.123H-1ZM3.006,1H1V3.123H3.006Z" transform="translate(4.123 0) rotate(90)" fill="url(#b)"/><path d="M-1-1H8.194V5.123H-1ZM6.194,1H1V3.123H6.194Z" transform="translate(4.123 4.006) rotate(90)" fill="url(#b)"/></g><path d="M-1-1H5.006V5.123H-1ZM3.006,1H1V3.123H3.006Z" transform="translate(11.2 15.295) rotate(-90)" fill="url(#b)"/><path d="M-1-1H5.006V5.123H-1ZM3.006,1H1V3.123H3.006Z" transform="translate(15.649 19.682) rotate(-90)" fill="url(#b)"/></g></g></g></g><g transform="translate(-176.148 -104.881)"><g transform="translate(177.148 178.881)"><g transform="translate(0 0)"><path d="M0-1H4.006V1H0Z" transform="translate(20.081 50.18) rotate(-90)" fill="url(#b)"/><path d="M0-1H4.006V1H0Z" transform="translate(19.926 4.006) rotate(-90)" fill="url(#b)"/><g transform="translate(15.964 0)"><path d="M-1-1H5.006V5.123H-1ZM3.006,1H1V3.123H3.006Z" transform="translate(0 50.18) rotate(-90)" fill="url(#b)"/><path d="M-1-1H5.006V5.123H-1ZM3.006,1H1V3.123H3.006Z" transform="translate(0 34.524) rotate(-90)" fill="url(#b)"/><path d="M-1-1H5.006V5.123H-1ZM3.006,1H1V3.123H3.006Z" transform="translate(0 19.682) rotate(-90)" fill="url(#b)"/><path d="M-1-1H5.006V5.123H-1ZM3.006,1H1V3.123H3.006Z" transform="translate(4.286 15.206) rotate(-90)" fill="url(#b)"/><path d="M-1-1H11.719V4.2H-1ZM9.719,1H1V2.2H9.719Z" transform="translate(12.005 30.46) rotate(-90)" fill="url(#b)"/><path d="M-1-1H5.006V5.123H-1ZM3.006,1H1V3.123H3.006Z" transform="translate(4.123 38.756) rotate(-90)" fill="url(#b)"/><path d="M-1-1H8.194V5.123H-1ZM6.194,1H1V3.123H6.194Z" transform="translate(0 46.174) rotate(-90)" fill="url(#b)"/><g transform="translate(8.408 30.46)"><path d="M-1-1H5.006V5.123H-1ZM3.006,1H1V3.123H3.006Z" transform="translate(7.194)" fill="url(#b)"/><path d="M-1-1H8.194V5.123H-1ZM6.194,1H1V3.123H6.194Z" fill="url(#b)"/></g><g transform="translate(8.408 15.618)"><path d="M-1-1H5.006V5.123H-1ZM3.006,1H1V3.123H3.006Z" transform="translate(7.194)" fill="url(#b)"/><path d="M-1-1H8.194V5.123H-1ZM6.194,1H1V3.123H6.194Z" fill="url(#b)"/></g><g transform="translate(0)"><path d="M-1-1H5.006V5.123H-1ZM3.006,1H1V3.123H3.006Z" transform="translate(4.123 0) rotate(90)" fill="url(#b)"/><path d="M-1-1H8.194V5.123H-1ZM6.194,1H1V3.123H6.194Z" transform="translate(4.123 4.006) rotate(90)" fill="url(#b)"/></g><path d="M-1-1H8.077V8.283H-1ZM6.077,1H1V6.283H6.077Z" transform="translate(8.408 4.35)" fill="url(#b)"/><path d="M-1-1H8.077V8.283H-1ZM6.077,1H1V6.283H6.077Z" transform="translate(8.408 38.602)" fill="url(#b)"/><path d="M-1-1H8.077V8.283H-1ZM6.077,1H1V6.283H6.077Z" transform="translate(11.947 42.243)" fill="url(#b)"/><path d="M-1-1H8.077V8.283H-1ZM6.077,1H1V6.283H6.077Z" transform="translate(11.947 0.708)" fill="url(#b)"/></g><g transform="translate(0 0)"><path d="M-1-1H8.077V8.283H-1ZM6.077,1H1V6.283H6.077Z" transform="translate(0.825 0.708)" fill="url(#b)"/><path d="M-1-1H8.077V8.283H-1ZM6.077,1H1V6.283H6.077Z" transform="translate(4.363 4.006)" fill="url(#b)"/><path d="M-1-1H8.077V8.283H-1ZM6.077,1H1V6.283H6.077Z" transform="translate(0.825 42.072)" fill="url(#b)"/><path d="M-1-1H8.077V8.283H-1ZM6.077,1H1V6.283H6.077Z" transform="translate(4.363 38.98)" fill="url(#b)"/><g transform="translate(0 30.46)"><path d="M-1-1H5.006V5.123H-1ZM3.006,1H1V3.123H3.006Z" fill="url(#b)"/><path d="M-1-1H8.194V5.123H-1ZM6.194,1H1V3.123H6.194Z" transform="translate(4.006)" fill="url(#b)"/></g><g transform="translate(15.752 38.98)"><path d="M-1-1H5.006V5.123H-1ZM3.006,1H1V3.123H3.006Z" transform="translate(0 11.2) rotate(-90)" fill="url(#b)"/><path d="M-1-1H8.194V5.123H-1ZM6.194,1H1V3.123H6.194Z" transform="translate(0 7.194) rotate(-90)" fill="url(#b)"/></g><path d="M-1-1H5.006V5.123H-1ZM3.006,1H1V3.123H3.006Z" transform="translate(11.406 38.942) rotate(-90)" fill="url(#b)"/><path d="M-1-1H5.006V5.123H-1ZM3.006,1H1V3.123H3.006Z" transform="translate(15.692 34.466) rotate(-90)" fill="url(#b)"/><path d="M-1-1H11.719V4.2H-1ZM9.719,1H1V2.2H9.719Z" transform="translate(4.535 30.46) rotate(-90)" fill="url(#b)"/><g transform="translate(0 15.618)"><path d="M-1-1H5.006V5.123H-1ZM3.006,1H1V3.123H3.006Z" fill="url(#b)"/><path d="M-1-1H8.194V5.123H-1ZM6.194,1H1V3.123H6.194Z" transform="translate(4.006)" fill="url(#b)"/></g><g transform="translate(15.649)"><path d="M-1-1H5.006V5.123H-1ZM3.006,1H1V3.123H3.006Z" transform="translate(4.123 0) rotate(90)" fill="url(#b)"/><path d="M-1-1H8.194V5.123H-1ZM6.194,1H1V3.123H6.194Z" transform="translate(4.123 4.006) rotate(90)" fill="url(#b)"/></g><path d="M-1-1H5.006V5.123H-1ZM3.006,1H1V3.123H3.006Z" transform="translate(11.2 15.295) rotate(-90)" fill="url(#b)"/><path d="M-1-1H5.006V5.123H-1ZM3.006,1H1V3.123H3.006Z" transform="translate(15.649 19.682) rotate(-90)" fill="url(#b)"/></g></g></g></g><g transform="translate(-176.148 -31.881)"><g transform="translate(177.148 178.881)"><g transform="translate(0 0)"><path d="M0-1H4.006V1H0Z" transform="translate(20.081 50.18) rotate(-90)" fill="url(#b)"/><path d="M0-1H4.006V1H0Z" transform="translate(19.926 4.006) rotate(-90)" fill="url(#b)"/><g transform="translate(15.964 0)"><path d="M-1-1H5.006V5.123H-1ZM3.006,1H1V3.123H3.006Z" transform="translate(0 50.18) rotate(-90)" fill="url(#b)"/><path d="M-1-1H5.006V5.123H-1ZM3.006,1H1V3.123H3.006Z" transform="translate(0 34.524) rotate(-90)" fill="url(#b)"/><path d="M-1-1H5.006V5.123H-1ZM3.006,1H1V3.123H3.006Z" transform="translate(0 19.682) rotate(-90)" fill="url(#b)"/><path d="M-1-1H5.006V5.123H-1ZM3.006,1H1V3.123H3.006Z" transform="translate(4.286 15.206) rotate(-90)" fill="url(#b)"/><path d="M-1-1H11.719V4.2H-1ZM9.719,1H1V2.2H9.719Z" transform="translate(12.005 30.46) rotate(-90)" fill="url(#b)"/><path d="M-1-1H5.006V5.123H-1ZM3.006,1H1V3.123H3.006Z" transform="translate(4.123 38.756) rotate(-90)" fill="url(#b)"/><path d="M-1-1H8.194V5.123H-1ZM6.194,1H1V3.123H6.194Z" transform="translate(0 46.174) rotate(-90)" fill="url(#b)"/><g transform="translate(8.408 30.46)"><path d="M-1-1H5.006V5.123H-1ZM3.006,1H1V3.123H3.006Z" transform="translate(7.194)" fill="url(#b)"/><path d="M-1-1H8.194V5.123H-1ZM6.194,1H1V3.123H6.194Z" fill="url(#b)"/></g><g transform="translate(8.408 15.618)"><path d="M-1-1H5.006V5.123H-1ZM3.006,1H1V3.123H3.006Z" transform="translate(7.194)" fill="url(#b)"/><path d="M-1-1H8.194V5.123H-1ZM6.194,1H1V3.123H6.194Z" fill="url(#b)"/></g><g transform="translate(0)"><path d="M-1-1H5.006V5.123H-1ZM3.006,1H1V3.123H3.006Z" transform="translate(4.123 0) rotate(90)" fill="url(#b)"/><path d="M-1-1H8.194V5.123H-1ZM6.194,1H1V3.123H6.194Z" transform="translate(4.123 4.006) rotate(90)" fill="url(#b)"/></g><path d="M-1-1H8.077V8.283H-1ZM6.077,1H1V6.283H6.077Z" transform="translate(8.408 4.35)" fill="url(#b)"/><path d="M-1-1H8.077V8.283H-1ZM6.077,1H1V6.283H6.077Z" transform="translate(8.408 38.602)" fill="url(#b)"/><path d="M-1-1H8.077V8.283H-1ZM6.077,1H1V6.283H6.077Z" transform="translate(11.947 42.243)" fill="url(#b)"/><path d="M-1-1H8.077V8.283H-1ZM6.077,1H1V6.283H6.077Z" transform="translate(11.947 0.708)" fill="url(#b)"/></g><g transform="translate(0 0)"><path d="M-1-1H8.077V8.283H-1ZM6.077,1H1V6.283H6.077Z" transform="translate(0.825 0.708)" fill="url(#b)"/><path d="M-1-1H8.077V8.283H-1ZM6.077,1H1V6.283H6.077Z" transform="translate(4.363 4.006)" fill="url(#b)"/><path d="M-1-1H8.077V8.283H-1ZM6.077,1H1V6.283H6.077Z" transform="translate(0.825 42.072)" fill="url(#b)"/><path d="M-1-1H8.077V8.283H-1ZM6.077,1H1V6.283H6.077Z" transform="translate(4.363 38.98)" fill="url(#b)"/><g transform="translate(0 30.46)"><path d="M-1-1H5.006V5.123H-1ZM3.006,1H1V3.123H3.006Z" fill="url(#b)"/><path d="M-1-1H8.194V5.123H-1ZM6.194,1H1V3.123H6.194Z" transform="translate(4.006)" fill="url(#b)"/></g><g transform="translate(15.752 38.98)"><path d="M-1-1H5.006V5.123H-1ZM3.006,1H1V3.123H3.006Z" transform="translate(0 11.2) rotate(-90)" fill="url(#b)"/><path d="M-1-1H8.194V5.123H-1ZM6.194,1H1V3.123H6.194Z" transform="translate(0 7.194) rotate(-90)" fill="url(#b)"/></g><path d="M-1-1H5.006V5.123H-1ZM3.006,1H1V3.123H3.006Z" transform="translate(11.406 38.942) rotate(-90)" fill="url(#b)"/><path d="M-1-1H5.006V5.123H-1ZM3.006,1H1V3.123H3.006Z" transform="translate(15.692 34.466) rotate(-90)" fill="url(#b)"/><path d="M-1-1H11.719V4.2H-1ZM9.719,1H1V2.2H9.719Z" transform="translate(4.535 30.46) rotate(-90)" fill="url(#b)"/><g transform="translate(0 15.618)"><path d="M-1-1H5.006V5.123H-1ZM3.006,1H1V3.123H3.006Z" fill="url(#b)"/><path d="M-1-1H8.194V5.123H-1ZM6.194,1H1V3.123H6.194Z" transform="translate(4.006)" fill="url(#b)"/></g><g transform="translate(15.649)"><path d="M-1-1H5.006V5.123H-1ZM3.006,1H1V3.123H3.006Z" transform="translate(4.123 0) rotate(90)" fill="url(#b)"/><path d="M-1-1H8.194V5.123H-1ZM6.194,1H1V3.123H6.194Z" transform="translate(4.123 4.006) rotate(90)" fill="url(#b)"/></g><path d="M-1-1H5.006V5.123H-1ZM3.006,1H1V3.123H3.006Z" transform="translate(11.2 15.295) rotate(-90)" fill="url(#b)"/><path d="M-1-1H5.006V5.123H-1ZM3.006,1H1V3.123H3.006Z" transform="translate(15.649 19.682) rotate(-90)" fill="url(#b)"/></g></g></g></g><g transform="translate(-176.148 41.119)"><g transform="translate(177.148 178.881)"><g transform="translate(0 0)"><path d="M0-1H4.006V1H0Z" transform="translate(20.081 50.18) rotate(-90)" fill="url(#b)"/><path d="M0-1H4.006V1H0Z" transform="translate(19.926 4.006) rotate(-90)" fill="url(#b)"/><g transform="translate(15.964 0)"><path d="M-1-1H5.006V5.123H-1ZM3.006,1H1V3.123H3.006Z" transform="translate(0 50.18) rotate(-90)" fill="url(#b)"/><path d="M-1-1H5.006V5.123H-1ZM3.006,1H1V3.123H3.006Z" transform="translate(0 34.524) rotate(-90)" fill="url(#b)"/><path d="M-1-1H5.006V5.123H-1ZM3.006,1H1V3.123H3.006Z" transform="translate(0 19.682) rotate(-90)" fill="url(#b)"/><path d="M-1-1H5.006V5.123H-1ZM3.006,1H1V3.123H3.006Z" transform="translate(4.286 15.206) rotate(-90)" fill="url(#b)"/><path d="M-1-1H11.719V4.2H-1ZM9.719,1H1V2.2H9.719Z" transform="translate(12.005 30.46) rotate(-90)" fill="url(#b)"/><path d="M-1-1H5.006V5.123H-1ZM3.006,1H1V3.123H3.006Z" transform="translate(4.123 38.756) rotate(-90)" fill="url(#b)"/><path d="M-1-1H8.194V5.123H-1ZM6.194,1H1V3.123H6.194Z" transform="translate(0 46.174) rotate(-90)" fill="url(#b)"/><g transform="translate(8.408 30.46)"><path d="M-1-1H5.006V5.123H-1ZM3.006,1H1V3.123H3.006Z" transform="translate(7.194)" fill="url(#b)"/><path d="M-1-1H8.194V5.123H-1ZM6.194,1H1V3.123H6.194Z" fill="url(#b)"/></g><g transform="translate(8.408 15.618)"><path d="M-1-1H5.006V5.123H-1ZM3.006,1H1V3.123H3.006Z" transform="translate(7.194)" fill="url(#b)"/><path d="M-1-1H8.194V5.123H-1ZM6.194,1H1V3.123H6.194Z" fill="url(#b)"/></g><g transform="translate(0)"><path d="M-1-1H5.006V5.123H-1ZM3.006,1H1V3.123H3.006Z" transform="translate(4.123 0) rotate(90)" fill="url(#b)"/><path d="M-1-1H8.194V5.123H-1ZM6.194,1H1V3.123H6.194Z" transform="translate(4.123 4.006) rotate(90)" fill="url(#b)"/></g><path d="M-1-1H8.077V8.283H-1ZM6.077,1H1V6.283H6.077Z" transform="translate(8.408 4.35)" fill="url(#b)"/><path d="M-1-1H8.077V8.283H-1ZM6.077,1H1V6.283H6.077Z" transform="translate(8.408 38.602)" fill="url(#b)"/><path d="M-1-1H8.077V8.283H-1ZM6.077,1H1V6.283H6.077Z" transform="translate(11.947 42.243)" fill="url(#b)"/><path d="M-1-1H8.077V8.283H-1ZM6.077,1H1V6.283H6.077Z" transform="translate(11.947 0.708)" fill="url(#b)"/></g><g transform="translate(0 0)"><path d="M-1-1H8.077V8.283H-1ZM6.077,1H1V6.283H6.077Z" transform="translate(0.825 0.708)" fill="url(#b)"/><path d="M-1-1H8.077V8.283H-1ZM6.077,1H1V6.283H6.077Z" transform="translate(4.363 4.006)" fill="url(#b)"/><path d="M-1-1H8.077V8.283H-1ZM6.077,1H1V6.283H6.077Z" transform="translate(0.825 42.072)" fill="url(#b)"/><path d="M-1-1H8.077V8.283H-1ZM6.077,1H1V6.283H6.077Z" transform="translate(4.363 38.98)" fill="url(#b)"/><g transform="translate(0 30.46)"><path d="M-1-1H5.006V5.123H-1ZM3.006,1H1V3.123H3.006Z" fill="url(#b)"/><path d="M-1-1H8.194V5.123H-1ZM6.194,1H1V3.123H6.194Z" transform="translate(4.006)" fill="url(#b)"/></g><g transform="translate(15.752 38.98)"><path d="M-1-1H5.006V5.123H-1ZM3.006,1H1V3.123H3.006Z" transform="translate(0 11.2) rotate(-90)" fill="url(#b)"/><path d="M-1-1H8.194V5.123H-1ZM6.194,1H1V3.123H6.194Z" transform="translate(0 7.194) rotate(-90)" fill="url(#b)"/></g><path d="M-1-1H5.006V5.123H-1ZM3.006,1H1V3.123H3.006Z" transform="translate(11.406 38.942) rotate(-90)" fill="url(#b)"/><path d="M-1-1H5.006V5.123H-1ZM3.006,1H1V3.123H3.006Z" transform="translate(15.692 34.466) rotate(-90)" fill="url(#b)"/><path d="M-1-1H11.719V4.2H-1ZM9.719,1H1V2.2H9.719Z" transform="translate(4.535 30.46) rotate(-90)" fill="url(#b)"/><g transform="translate(0 15.618)"><path d="M-1-1H5.006V5.123H-1ZM3.006,1H1V3.123H3.006Z" fill="url(#b)"/><path d="M-1-1H8.194V5.123H-1ZM6.194,1H1V3.123H6.194Z" transform="translate(4.006)" fill="url(#b)"/></g><g transform="translate(15.649)"><path d="M-1-1H5.006V5.123H-1ZM3.006,1H1V3.123H3.006Z" transform="translate(4.123 0) rotate(90)" fill="url(#b)"/><path d="M-1-1H8.194V5.123H-1ZM6.194,1H1V3.123H6.194Z" transform="translate(4.123 4.006) rotate(90)" fill="url(#b)"/></g><path d="M-1-1H5.006V5.123H-1ZM3.006,1H1V3.123H3.006Z" transform="translate(11.2 15.295) rotate(-90)" fill="url(#b)"/><path d="M-1-1H5.006V5.123H-1ZM3.006,1H1V3.123H3.006Z" transform="translate(15.649 19.682) rotate(-90)" fill="url(#b)"/></g></g></g></g></g><g transform="translate(4.714 35.5)" clip-path="url(#a)"><g transform="translate(-176.148 -177.881)"><g transform="translate(177.148 178.881)"><g transform="translate(0 0)"><path d="M0-1H4.006V1H0Z" transform="translate(20.081 50.18) rotate(-90)" fill="url(#b)"/><path d="M0-1H4.006V1H0Z" transform="translate(19.926 4.006) rotate(-90)" fill="url(#b)"/><g transform="translate(15.964 0)"><path d="M-1-1H5.006V5.123H-1ZM3.006,1H1V3.123H3.006Z" transform="translate(0 50.18) rotate(-90)" fill="url(#b)"/><path d="M-1-1H5.006V5.123H-1ZM3.006,1H1V3.123H3.006Z" transform="translate(0 34.524) rotate(-90)" fill="url(#b)"/><path d="M-1-1H5.006V5.123H-1ZM3.006,1H1V3.123H3.006Z" transform="translate(0 19.682) rotate(-90)" fill="url(#b)"/><path d="M-1-1H5.006V5.123H-1ZM3.006,1H1V3.123H3.006Z" transform="translate(4.286 15.206) rotate(-90)" fill="url(#b)"/><path d="M-1-1H11.719V4.2H-1ZM9.719,1H1V2.2H9.719Z" transform="translate(12.005 30.46) rotate(-90)" fill="url(#b)"/><path d="M-1-1H5.006V5.123H-1ZM3.006,1H1V3.123H3.006Z" transform="translate(4.123 38.756) rotate(-90)" fill="url(#b)"/><path d="M-1-1H8.194V5.123H-1ZM6.194,1H1V3.123H6.194Z" transform="translate(0 46.174) rotate(-90)" fill="url(#b)"/><g transform="translate(8.408 30.46)"><path d="M-1-1H5.006V5.123H-1ZM3.006,1H1V3.123H3.006Z" transform="translate(7.194)" fill="url(#b)"/><path d="M-1-1H8.194V5.123H-1ZM6.194,1H1V3.123H6.194Z" fill="url(#b)"/></g><g transform="translate(8.408 15.618)"><path d="M-1-1H5.006V5.123H-1ZM3.006,1H1V3.123H3.006Z" transform="translate(7.194)" fill="url(#b)"/><path d="M-1-1H8.194V5.123H-1ZM6.194,1H1V3.123H6.194Z" fill="url(#b)"/></g><g transform="translate(0)"><path d="M-1-1H5.006V5.123H-1ZM3.006,1H1V3.123H3.006Z" transform="translate(4.123 0) rotate(90)" fill="url(#b)"/><path d="M-1-1H8.194V5.123H-1ZM6.194,1H1V3.123H6.194Z" transform="translate(4.123 4.006) rotate(90)" fill="url(#b)"/></g><path d="M-1-1H8.077V8.283H-1ZM6.077,1H1V6.283H6.077Z" transform="translate(8.408 4.35)" fill="url(#b)"/><path d="M-1-1H8.077V8.283H-1ZM6.077,1H1V6.283H6.077Z" transform="translate(8.408 38.602)" fill="url(#b)"/><path d="M-1-1H8.077V8.283H-1ZM6.077,1H1V6.283H6.077Z" transform="translate(11.947 42.243)" fill="url(#b)"/><path d="M-1-1H8.077V8.283H-1ZM6.077,1H1V6.283H6.077Z" transform="translate(11.947 0.708)" fill="url(#b)"/></g><g transform="translate(0 0)"><path d="M-1-1H8.077V8.283H-1ZM6.077,1H1V6.283H6.077Z" transform="translate(0.825 0.708)" fill="url(#b)"/><path d="M-1-1H8.077V8.283H-1ZM6.077,1H1V6.283H6.077Z" transform="translate(4.363 4.006)" fill="url(#b)"/><path d="M-1-1H8.077V8.283H-1ZM6.077,1H1V6.283H6.077Z" transform="translate(0.825 42.072)" fill="url(#b)"/><path d="M-1-1H8.077V8.283H-1ZM6.077,1H1V6.283H6.077Z" transform="translate(4.363 38.98)" fill="url(#b)"/><g transform="translate(0 30.46)"><path d="M-1-1H5.006V5.123H-1ZM3.006,1H1V3.123H3.006Z" fill="url(#b)"/><path d="M-1-1H8.194V5.123H-1ZM6.194,1H1V3.123H6.194Z" transform="translate(4.006)" fill="url(#b)"/></g><g transform="translate(15.752 38.98)"><path d="M-1-1H5.006V5.123H-1ZM3.006,1H1V3.123H3.006Z" transform="translate(0 11.2) rotate(-90)" fill="url(#b)"/><path d="M-1-1H8.194V5.123H-1ZM6.194,1H1V3.123H6.194Z" transform="translate(0 7.194) rotate(-90)" fill="url(#b)"/></g><path d="M-1-1H5.006V5.123H-1ZM3.006,1H1V3.123H3.006Z" transform="translate(11.406 38.942) rotate(-90)" fill="url(#b)"/><path d="M-1-1H5.006V5.123H-1ZM3.006,1H1V3.123H3.006Z" transform="translate(15.692 34.466) rotate(-90)" fill="url(#b)"/><path d="M-1-1H11.719V4.2H-1ZM9.719,1H1V2.2H9.719Z" transform="translate(4.535 30.46) rotate(-90)" fill="url(#b)"/><g transform="translate(0 15.618)"><path d="M-1-1H5.006V5.123H-1ZM3.006,1H1V3.123H3.006Z" fill="url(#b)"/><path d="M-1-1H8.194V5.123H-1ZM6.194,1H1V3.123H6.194Z" transform="translate(4.006)" fill="url(#b)"/></g><g transform="translate(15.649)"><path d="M-1-1H5.006V5.123H-1ZM3.006,1H1V3.123H3.006Z" transform="translate(4.123 0) rotate(90)" fill="url(#b)"/><path d="M-1-1H8.194V5.123H-1ZM6.194,1H1V3.123H6.194Z" transform="translate(4.123 4.006) rotate(90)" fill="url(#b)"/></g><path d="M-1-1H5.006V5.123H-1ZM3.006,1H1V3.123H3.006Z" transform="translate(11.2 15.295) rotate(-90)" fill="url(#b)"/><path d="M-1-1H5.006V5.123H-1ZM3.006,1H1V3.123H3.006Z" transform="translate(15.649 19.682) rotate(-90)" fill="url(#b)"/></g></g></g></g><g transform="translate(-176.148 -104.881)"><g transform="translate(177.148 178.881)"><g transform="translate(0 0)"><path d="M0-1H4.006V1H0Z" transform="translate(20.081 50.18) rotate(-90)" fill="url(#b)"/><path d="M0-1H4.006V1H0Z" transform="translate(19.926 4.006) rotate(-90)" fill="url(#b)"/><g transform="translate(15.964 0)"><path d="M-1-1H5.006V5.123H-1ZM3.006,1H1V3.123H3.006Z" transform="translate(0 50.18) rotate(-90)" fill="url(#b)"/><path d="M-1-1H5.006V5.123H-1ZM3.006,1H1V3.123H3.006Z" transform="translate(0 34.524) rotate(-90)" fill="url(#b)"/><path d="M-1-1H5.006V5.123H-1ZM3.006,1H1V3.123H3.006Z" transform="translate(0 19.682) rotate(-90)" fill="url(#b)"/><path d="M-1-1H5.006V5.123H-1ZM3.006,1H1V3.123H3.006Z" transform="translate(4.286 15.206) rotate(-90)" fill="url(#b)"/><path d="M-1-1H11.719V4.2H-1ZM9.719,1H1V2.2H9.719Z" transform="translate(12.005 30.46) rotate(-90)" fill="url(#b)"/><path d="M-1-1H5.006V5.123H-1ZM3.006,1H1V3.123H3.006Z" transform="translate(4.123 38.756) rotate(-90)" fill="url(#b)"/><path d="M-1-1H8.194V5.123H-1ZM6.194,1H1V3.123H6.194Z" transform="translate(0 46.174) rotate(-90)" fill="url(#b)"/><g transform="translate(8.408 30.46)"><path d="M-1-1H5.006V5.123H-1ZM3.006,1H1V3.123H3.006Z" transform="translate(7.194)" fill="url(#b)"/><path d="M-1-1H8.194V5.123H-1ZM6.194,1H1V3.123H6.194Z" fill="url(#b)"/></g><g transform="translate(8.408 15.618)"><path d="M-1-1H5.006V5.123H-1ZM3.006,1H1V3.123H3.006Z" transform="translate(7.194)" fill="url(#b)"/><path d="M-1-1H8.194V5.123H-1ZM6.194,1H1V3.123H6.194Z" fill="url(#b)"/></g><g transform="translate(0)"><path d="M-1-1H5.006V5.123H-1ZM3.006,1H1V3.123H3.006Z" transform="translate(4.123 0) rotate(90)" fill="url(#b)"/><path d="M-1-1H8.194V5.123H-1ZM6.194,1H1V3.123H6.194Z" transform="translate(4.123 4.006) rotate(90)" fill="url(#b)"/></g><path d="M-1-1H8.077V8.283H-1ZM6.077,1H1V6.283H6.077Z" transform="translate(8.408 4.35)" fill="url(#b)"/><path d="M-1-1H8.077V8.283H-1ZM6.077,1H1V6.283H6.077Z" transform="translate(8.408 38.602)" fill="url(#b)"/><path d="M-1-1H8.077V8.283H-1ZM6.077,1H1V6.283H6.077Z" transform="translate(11.947 42.243)" fill="url(#b)"/><path d="M-1-1H8.077V8.283H-1ZM6.077,1H1V6.283H6.077Z" transform="translate(11.947 0.708)" fill="url(#b)"/></g><g transform="translate(0 0)"><path d="M-1-1H8.077V8.283H-1ZM6.077,1H1V6.283H6.077Z" transform="translate(0.825 0.708)" fill="url(#b)"/><path d="M-1-1H8.077V8.283H-1ZM6.077,1H1V6.283H6.077Z" transform="translate(4.363 4.006)" fill="url(#b)"/><path d="M-1-1H8.077V8.283H-1ZM6.077,1H1V6.283H6.077Z" transform="translate(0.825 42.072)" fill="url(#b)"/><path d="M-1-1H8.077V8.283H-1ZM6.077,1H1V6.283H6.077Z" transform="translate(4.363 38.98)" fill="url(#b)"/><g transform="translate(0 30.46)"><path d="M-1-1H5.006V5.123H-1ZM3.006,1H1V3.123H3.006Z" fill="url(#b)"/><path d="M-1-1H8.194V5.123H-1ZM6.194,1H1V3.123H6.194Z" transform="translate(4.006)" fill="url(#b)"/></g><g transform="translate(15.752 38.98)"><path d="M-1-1H5.006V5.123H-1ZM3.006,1H1V3.123H3.006Z" transform="translate(0 11.2) rotate(-90)" fill="url(#b)"/><path d="M-1-1H8.194V5.123H-1ZM6.194,1H1V3.123H6.194Z" transform="translate(0 7.194) rotate(-90)" fill="url(#b)"/></g><path d="M-1-1H5.006V5.123H-1ZM3.006,1H1V3.123H3.006Z" transform="translate(11.406 38.942) rotate(-90)" fill="url(#b)"/><path d="M-1-1H5.006V5.123H-1ZM3.006,1H1V3.123H3.006Z" transform="translate(15.692 34.466) rotate(-90)" fill="url(#b)"/><path d="M-1-1H11.719V4.2H-1ZM9.719,1H1V2.2H9.719Z" transform="translate(4.535 30.46) rotate(-90)" fill="url(#b)"/><g transform="translate(0 15.618)"><path d="M-1-1H5.006V5.123H-1ZM3.006,1H1V3.123H3.006Z" fill="url(#b)"/><path d="M-1-1H8.194V5.123H-1ZM6.194,1H1V3.123H6.194Z" transform="translate(4.006)" fill="url(#b)"/></g><g transform="translate(15.649)"><path d="M-1-1H5.006V5.123H-1ZM3.006,1H1V3.123H3.006Z" transform="translate(4.123 0) rotate(90)" fill="url(#b)"/><path d="M-1-1H8.194V5.123H-1ZM6.194,1H1V3.123H6.194Z" transform="translate(4.123 4.006) rotate(90)" fill="url(#b)"/></g><path d="M-1-1H5.006V5.123H-1ZM3.006,1H1V3.123H3.006Z" transform="translate(11.2 15.295) rotate(-90)" fill="url(#b)"/><path d="M-1-1H5.006V5.123H-1ZM3.006,1H1V3.123H3.006Z" transform="translate(15.649 19.682) rotate(-90)" fill="url(#b)"/></g></g></g></g><g transform="translate(-176.148 -31.881)"><g transform="translate(177.148 178.881)"><g transform="translate(0 0)"><path d="M0-1H4.006V1H0Z" transform="translate(20.081 50.18) rotate(-90)" fill="url(#b)"/><path d="M0-1H4.006V1H0Z" transform="translate(19.926 4.006) rotate(-90)" fill="url(#b)"/><g transform="translate(15.964 0)"><path d="M-1-1H5.006V5.123H-1ZM3.006,1H1V3.123H3.006Z" transform="translate(0 50.18) rotate(-90)" fill="url(#b)"/><path d="M-1-1H5.006V5.123H-1ZM3.006,1H1V3.123H3.006Z" transform="translate(0 34.524) rotate(-90)" fill="url(#b)"/><path d="M-1-1H5.006V5.123H-1ZM3.006,1H1V3.123H3.006Z" transform="translate(0 19.682) rotate(-90)" fill="url(#b)"/><path d="M-1-1H5.006V5.123H-1ZM3.006,1H1V3.123H3.006Z" transform="translate(4.286 15.206) rotate(-90)" fill="url(#b)"/><path d="M-1-1H11.719V4.2H-1ZM9.719,1H1V2.2H9.719Z" transform="translate(12.005 30.46) rotate(-90)" fill="url(#b)"/><path d="M-1-1H5.006V5.123H-1ZM3.006,1H1V3.123H3.006Z" transform="translate(4.123 38.756) rotate(-90)" fill="url(#b)"/><path d="M-1-1H8.194V5.123H-1ZM6.194,1H1V3.123H6.194Z" transform="translate(0 46.174) rotate(-90)" fill="url(#b)"/><g transform="translate(8.408 30.46)"><path d="M-1-1H5.006V5.123H-1ZM3.006,1H1V3.123H3.006Z" transform="translate(7.194)" fill="url(#b)"/><path d="M-1-1H8.194V5.123H-1ZM6.194,1H1V3.123H6.194Z" fill="url(#b)"/></g><g transform="translate(8.408 15.618)"><path d="M-1-1H5.006V5.123H-1ZM3.006,1H1V3.123H3.006Z" transform="translate(7.194)" fill="url(#b)"/><path d="M-1-1H8.194V5.123H-1ZM6.194,1H1V3.123H6.194Z" fill="url(#b)"/></g><g transform="translate(0)"><path d="M-1-1H5.006V5.123H-1ZM3.006,1H1V3.123H3.006Z" transform="translate(4.123 0) rotate(90)" fill="url(#b)"/><path d="M-1-1H8.194V5.123H-1ZM6.194,1H1V3.123H6.194Z" transform="translate(4.123 4.006) rotate(90)" fill="url(#b)"/></g><path d="M-1-1H8.077V8.283H-1ZM6.077,1H1V6.283H6.077Z" transform="translate(8.408 4.35)" fill="url(#b)"/><path d="M-1-1H8.077V8.283H-1ZM6.077,1H1V6.283H6.077Z" transform="translate(8.408 38.602)" fill="url(#b)"/><path d="M-1-1H8.077V8.283H-1ZM6.077,1H1V6.283H6.077Z" transform="translate(11.947 42.243)" fill="url(#b)"/><path d="M-1-1H8.077V8.283H-1ZM6.077,1H1V6.283H6.077Z" transform="translate(11.947 0.708)" fill="url(#b)"/></g><g transform="translate(0 0)"><path d="M-1-1H8.077V8.283H-1ZM6.077,1H1V6.283H6.077Z" transform="translate(0.825 0.708)" fill="url(#b)"/><path d="M-1-1H8.077V8.283H-1ZM6.077,1H1V6.283H6.077Z" transform="translate(4.363 4.006)" fill="url(#b)"/><path d="M-1-1H8.077V8.283H-1ZM6.077,1H1V6.283H6.077Z" transform="translate(0.825 42.072)" fill="url(#b)"/><path d="M-1-1H8.077V8.283H-1ZM6.077,1H1V6.283H6.077Z" transform="translate(4.363 38.98)" fill="url(#b)"/><g transform="translate(0 30.46)"><path d="M-1-1H5.006V5.123H-1ZM3.006,1H1V3.123H3.006Z" fill="url(#b)"/><path d="M-1-1H8.194V5.123H-1ZM6.194,1H1V3.123H6.194Z" transform="translate(4.006)" fill="url(#b)"/></g><g transform="translate(15.752 38.98)"><path d="M-1-1H5.006V5.123H-1ZM3.006,1H1V3.123H3.006Z" transform="translate(0 11.2) rotate(-90)" fill="url(#b)"/><path d="M-1-1H8.194V5.123H-1ZM6.194,1H1V3.123H6.194Z" transform="translate(0 7.194) rotate(-90)" fill="url(#b)"/></g><path d="M-1-1H5.006V5.123H-1ZM3.006,1H1V3.123H3.006Z" transform="translate(11.406 38.942) rotate(-90)" fill="url(#b)"/><path d="M-1-1H5.006V5.123H-1ZM3.006,1H1V3.123H3.006Z" transform="translate(15.692 34.466) rotate(-90)" fill="url(#b)"/><path d="M-1-1H11.719V4.2H-1ZM9.719,1H1V2.2H9.719Z" transform="translate(4.535 30.46) rotate(-90)" fill="url(#b)"/><g transform="translate(0 15.618)"><path d="M-1-1H5.006V5.123H-1ZM3.006,1H1V3.123H3.006Z" fill="url(#b)"/><path d="M-1-1H8.194V5.123H-1ZM6.194,1H1V3.123H6.194Z" transform="translate(4.006)" fill="url(#b)"/></g><g transform="translate(15.649)"><path d="M-1-1H5.006V5.123H-1ZM3.006,1H1V3.123H3.006Z" transform="translate(4.123 0) rotate(90)" fill="url(#b)"/><path d="M-1-1H8.194V5.123H-1ZM6.194,1H1V3.123H6.194Z" transform="translate(4.123 4.006) rotate(90)" fill="url(#b)"/></g><path d="M-1-1H5.006V5.123H-1ZM3.006,1H1V3.123H3.006Z" transform="translate(11.2 15.295) rotate(-90)" fill="url(#b)"/><path d="M-1-1H5.006V5.123H-1ZM3.006,1H1V3.123H3.006Z" transform="translate(15.649 19.682) rotate(-90)" fill="url(#b)"/></g></g></g></g><g transform="translate(-176.148 41.119)"><g transform="translate(177.148 178.881)"><g transform="translate(0 0)"><path d="M0-1H4.006V1H0Z" transform="translate(20.081 50.18) rotate(-90)" fill="url(#b)"/><path d="M0-1H4.006V1H0Z" transform="translate(19.926 4.006) rotate(-90)" fill="url(#b)"/><g transform="translate(15.964 0)"><path d="M-1-1H5.006V5.123H-1ZM3.006,1H1V3.123H3.006Z" transform="translate(0 50.18) rotate(-90)" fill="url(#b)"/><path d="M-1-1H5.006V5.123H-1ZM3.006,1H1V3.123H3.006Z" transform="translate(0 34.524) rotate(-90)" fill="url(#b)"/><path d="M-1-1H5.006V5.123H-1ZM3.006,1H1V3.123H3.006Z" transform="translate(0 19.682) rotate(-90)" fill="url(#b)"/><path d="M-1-1H5.006V5.123H-1ZM3.006,1H1V3.123H3.006Z" transform="translate(4.286 15.206) rotate(-90)" fill="url(#b)"/><path d="M-1-1H11.719V4.2H-1ZM9.719,1H1V2.2H9.719Z" transform="translate(12.005 30.46) rotate(-90)" fill="url(#b)"/><path d="M-1-1H5.006V5.123H-1ZM3.006,1H1V3.123H3.006Z" transform="translate(4.123 38.756) rotate(-90)" fill="url(#b)"/><path d="M-1-1H8.194V5.123H-1ZM6.194,1H1V3.123H6.194Z" transform="translate(0 46.174) rotate(-90)" fill="url(#b)"/><g transform="translate(8.408 30.46)"><path d="M-1-1H5.006V5.123H-1ZM3.006,1H1V3.123H3.006Z" transform="translate(7.194)" fill="url(#b)"/><path d="M-1-1H8.194V5.123H-1ZM6.194,1H1V3.123H6.194Z" fill="url(#b)"/></g><g transform="translate(8.408 15.618)"><path d="M-1-1H5.006V5.123H-1ZM3.006,1H1V3.123H3.006Z" transform="translate(7.194)" fill="url(#b)"/><path d="M-1-1H8.194V5.123H-1ZM6.194,1H1V3.123H6.194Z" fill="url(#b)"/></g><g transform="translate(0)"><path d="M-1-1H5.006V5.123H-1ZM3.006,1H1V3.123H3.006Z" transform="translate(4.123 0) rotate(90)" fill="url(#b)"/><path d="M-1-1H8.194V5.123H-1ZM6.194,1H1V3.123H6.194Z" transform="translate(4.123 4.006) rotate(90)" fill="url(#b)"/></g><path d="M-1-1H8.077V8.283H-1ZM6.077,1H1V6.283H6.077Z" transform="translate(8.408 4.35)" fill="url(#b)"/><path d="M-1-1H8.077V8.283H-1ZM6.077,1H1V6.283H6.077Z" transform="translate(8.408 38.602)" fill="url(#b)"/><path d="M-1-1H8.077V8.283H-1ZM6.077,1H1V6.283H6.077Z" transform="translate(11.947 42.243)" fill="url(#b)"/><path d="M-1-1H8.077V8.283H-1ZM6.077,1H1V6.283H6.077Z" transform="translate(11.947 0.708)" fill="url(#b)"/></g><g transform="translate(0 0)"><path d="M-1-1H8.077V8.283H-1ZM6.077,1H1V6.283H6.077Z" transform="translate(0.825 0.708)" fill="url(#b)"/><path d="M-1-1H8.077V8.283H-1ZM6.077,1H1V6.283H6.077Z" transform="translate(4.363 4.006)" fill="url(#b)"/><path d="M-1-1H8.077V8.283H-1ZM6.077,1H1V6.283H6.077Z" transform="translate(0.825 42.072)" fill="url(#b)"/><path d="M-1-1H8.077V8.283H-1ZM6.077,1H1V6.283H6.077Z" transform="translate(4.363 38.98)" fill="url(#b)"/><g transform="translate(0 30.46)"><path d="M-1-1H5.006V5.123H-1ZM3.006,1H1V3.123H3.006Z" fill="url(#b)"/><path d="M-1-1H8.194V5.123H-1ZM6.194,1H1V3.123H6.194Z" transform="translate(4.006)" fill="url(#b)"/></g><g transform="translate(15.752 38.98)"><path d="M-1-1H5.006V5.123H-1ZM3.006,1H1V3.123H3.006Z" transform="translate(0 11.2) rotate(-90)" fill="url(#b)"/><path d="M-1-1H8.194V5.123H-1ZM6.194,1H1V3.123H6.194Z" transform="translate(0 7.194) rotate(-90)" fill="url(#b)"/></g><path d="M-1-1H5.006V5.123H-1ZM3.006,1H1V3.123H3.006Z" transform="translate(11.406 38.942) rotate(-90)" fill="url(#b)"/><path d="M-1-1H5.006V5.123H-1ZM3.006,1H1V3.123H3.006Z" transform="translate(15.692 34.466) rotate(-90)" fill="url(#b)"/><path d="M-1-1H11.719V4.2H-1ZM9.719,1H1V2.2H9.719Z" transform="translate(4.535 30.46) rotate(-90)" fill="url(#b)"/><g transform="translate(0 15.618)"><path d="M-1-1H5.006V5.123H-1ZM3.006,1H1V3.123H3.006Z" fill="url(#b)"/><path d="M-1-1H8.194V5.123H-1ZM6.194,1H1V3.123H6.194Z" transform="translate(4.006)" fill="url(#b)"/></g><g transform="translate(15.649)"><path d="M-1-1H5.006V5.123H-1ZM3.006,1H1V3.123H3.006Z" transform="translate(4.123 0) rotate(90)" fill="url(#b)"/><path d="M-1-1H8.194V5.123H-1ZM6.194,1H1V3.123H6.194Z" transform="translate(4.123 4.006) rotate(90)" fill="url(#b)"/></g><path d="M-1-1H5.006V5.123H-1ZM3.006,1H1V3.123H3.006Z" transform="translate(11.2 15.295) rotate(-90)" fill="url(#b)"/><path d="M-1-1H5.006V5.123H-1ZM3.006,1H1V3.123H3.006Z" transform="translate(15.649 19.682) rotate(-90)" fill="url(#b)"/></g></g></g></g></g><g transform="translate(557.893 322.252) rotate(90)"><g transform="translate(0)"><path d="M0,0H4.006V2H0Z" transform="translate(20.081 51.18) rotate(-90)" fill="url(#b)"/><path d="M0,0H4.006V2H0Z" transform="translate(19.926 5.006) rotate(-90)" fill="url(#b)"/><g transform="translate(15.964 0)"><path d="M0,0H6.006V6.123H0ZM4.006,2H2V4.123H4.006Z" transform="translate(0 52.18) rotate(-90)" fill="url(#b)"/><path d="M0,0H6.006V6.123H0ZM4.006,2H2V4.123H4.006Z" transform="translate(0 36.524) rotate(-90)" fill="url(#b)"/><path d="M0,0H6.006V6.123H0ZM4.006,2H2V4.123H4.006Z" transform="translate(0 21.682) rotate(-90)" fill="url(#b)"/><path d="M0,0H6.006V6.123H0ZM4.006,2H2V4.123H4.006Z" transform="translate(4.286 17.206) rotate(-90)" fill="url(#b)"/><path d="M0,0H12.719V5.2H0ZM10.719,2H2V3.2h8.719Z" transform="translate(12.005 32.46) rotate(-90)" fill="url(#b)"/><path d="M0,0H6.006V6.123H0ZM4.006,2H2V4.123H4.006Z" transform="translate(4.123 40.756) rotate(-90)" fill="url(#b)"/><path d="M0,0H9.194V6.123H0ZM7.194,2H2V4.123H7.194Z" transform="translate(0 48.174) rotate(-90)" fill="url(#b)"/><g transform="translate(8.408 30.46)"><path d="M0,0H6.006V6.123H0ZM4.006,2H2V4.123H4.006Z" transform="translate(7.194)" fill="url(#b)"/><path d="M0,0H9.194V6.123H0ZM7.194,2H2V4.123H7.194Z" fill="url(#b)"/></g><g transform="translate(8.408 15.618)"><path d="M0,0H6.006V6.123H0ZM4.006,2H2V4.123H4.006Z" transform="translate(7.194)" fill="url(#b)"/><path d="M0,0H9.194V6.123H0ZM7.194,2H2V4.123H7.194Z" fill="url(#b)"/></g><path d="M0,0H6.006V6.123H0ZM4.006,2H2V4.123H4.006Z" transform="translate(6.123 0) rotate(90)" fill="url(#b)"/><path d="M0,0H9.194V6.123H0ZM7.194,2H2V4.123H7.194Z" transform="translate(6.123 4.006) rotate(90)" fill="url(#b)"/><path d="M0,0H9.077V9.283H0ZM7.077,2H2V7.283H7.077Z" transform="translate(8.408 4.35)" fill="url(#b)"/><path d="M0,0H9.077V9.283H0ZM7.077,2H2V7.283H7.077Z" transform="translate(8.408 38.602)" fill="url(#b)"/><path d="M0,0H9.077V9.283H0ZM7.077,2H2V7.283H7.077Z" transform="translate(11.947 42.243)" fill="url(#b)"/><path d="M0,0H9.077V9.283H0ZM7.077,2H2V7.283H7.077Z" transform="translate(11.947 0.708)" fill="url(#b)"/></g><path d="M0,0H9.077V9.283H0ZM7.077,2H2V7.283H7.077Z" transform="translate(0.825 0.708)" fill="url(#b)"/><path d="M0,0H9.077V9.283H0ZM7.077,2H2V7.283H7.077Z" transform="translate(4.363 4.006)" fill="url(#b)"/><path d="M0,0H9.077V9.283H0ZM7.077,2H2V7.283H7.077Z" transform="translate(0.825 42.072)" fill="url(#b)"/><path d="M0,0H9.077V9.283H0ZM7.077,2H2V7.283H7.077Z" transform="translate(4.363 38.98)" fill="url(#b)"/><g transform="translate(0 30.46)"><path d="M0,0H6.006V6.123H0ZM4.006,2H2V4.123H4.006Z" fill="url(#b)"/><path d="M0,0H9.194V6.123H0ZM7.194,2H2V4.123H7.194Z" transform="translate(4.006)" fill="url(#b)"/></g><g transform="translate(15.752 38.98)"><path d="M0,0H6.006V6.123H0ZM4.006,2H2V4.123H4.006Z" transform="translate(0 13.2) rotate(-90)" fill="url(#b)"/><path d="M0,0H9.194V6.123H0ZM7.194,2H2V4.123H7.194Z" transform="translate(0 9.194) rotate(-90)" fill="url(#b)"/></g><path d="M0,0H6.006V6.123H0ZM4.006,2H2V4.123H4.006Z" transform="translate(11.406 40.942) rotate(-90)" fill="url(#b)"/><path d="M0,0H6.006V6.123H0ZM4.006,2H2V4.123H4.006Z" transform="translate(15.692 36.466) rotate(-90)" fill="url(#b)"/><path d="M0,0H12.719V5.2H0ZM10.719,2H2V3.2h8.719Z" transform="translate(4.535 32.46) rotate(-90)" fill="url(#b)"/><g transform="translate(0 15.618)"><path d="M0,0H6.006V6.123H0ZM4.006,2H2V4.123H4.006Z" fill="url(#b)"/><path d="M0,0H9.194V6.123H0ZM7.194,2H2V4.123H7.194Z" transform="translate(4.006)" fill="url(#b)"/></g><g transform="translate(15.649)"><path d="M0,0H6.006V6.123H0ZM4.006,2H2V4.123H4.006Z" transform="translate(6.123 0) rotate(90)" fill="url(#b)"/><path d="M0,0H9.194V6.123H0ZM7.194,2H2V4.123H7.194Z" transform="translate(6.123 4.006) rotate(90)" fill="url(#b)"/></g><path d="M0,0H6.006V6.123H0ZM4.006,2H2V4.123H4.006Z" transform="translate(11.2 17.295) rotate(-90)" fill="url(#b)"/><path d="M0,0H6.006V6.123H0ZM4.006,2H2V4.123H4.006Z" transform="translate(15.649 21.682) rotate(-90)" fill="url(#b)"/></g></g><g transform="translate(494.893 322.252) rotate(90)"><g transform="translate(0 0)"><path d="M0,0H4.006V2H0Z" transform="translate(20.081 51.18) rotate(-90)" fill="url(#b)"/><path d="M0,0H4.006V2H0Z" transform="translate(19.926 5.006) rotate(-90)" fill="url(#b)"/><g transform="translate(15.964 0)"><path d="M0,0H6.006V6.123H0ZM4.006,2H2V4.123H4.006Z" transform="translate(0 52.18) rotate(-90)" fill="url(#b)"/><path d="M0,0H6.006V6.123H0ZM4.006,2H2V4.123H4.006Z" transform="translate(0 36.524) rotate(-90)" fill="url(#b)"/><path d="M0,0H6.006V6.123H0ZM4.006,2H2V4.123H4.006Z" transform="translate(0 21.682) rotate(-90)" fill="url(#b)"/><path d="M0,0H6.006V6.123H0ZM4.006,2H2V4.123H4.006Z" transform="translate(4.286 17.206) rotate(-90)" fill="url(#b)"/><path d="M0,0H12.719V5.2H0ZM10.719,2H2V3.2h8.719Z" transform="translate(12.005 32.46) rotate(-90)" fill="url(#b)"/><path d="M0,0H6.006V6.123H0ZM4.006,2H2V4.123H4.006Z" transform="translate(4.123 40.756) rotate(-90)" fill="url(#b)"/><path d="M0,0H9.194V6.123H0ZM7.194,2H2V4.123H7.194Z" transform="translate(0 48.174) rotate(-90)" fill="url(#b)"/><g transform="translate(8.408 30.46)"><path d="M0,0H6.006V6.123H0ZM4.006,2H2V4.123H4.006Z" transform="translate(7.194)" fill="url(#b)"/><path d="M0,0H9.194V6.123H0ZM7.194,2H2V4.123H7.194Z" fill="url(#b)"/></g><g transform="translate(8.408 15.618)"><path d="M0,0H6.006V6.123H0ZM4.006,2H2V4.123H4.006Z" transform="translate(7.194)" fill="url(#b)"/><path d="M0,0H9.194V6.123H0ZM7.194,2H2V4.123H7.194Z" fill="url(#b)"/></g><path d="M0,0H6.006V6.123H0ZM4.006,2H2V4.123H4.006Z" transform="translate(6.123 0) rotate(90)" fill="url(#b)"/><path d="M0,0H9.194V6.123H0ZM7.194,2H2V4.123H7.194Z" transform="translate(6.123 4.006) rotate(90)" fill="url(#b)"/><path d="M0,0H9.077V9.283H0ZM7.077,2H2V7.283H7.077Z" transform="translate(8.408 4.35)" fill="url(#b)"/><path d="M0,0H9.077V9.283H0ZM7.077,2H2V7.283H7.077Z" transform="translate(8.408 38.602)" fill="url(#b)"/><path d="M0,0H9.077V9.283H0ZM7.077,2H2V7.283H7.077Z" transform="translate(11.947 42.243)" fill="url(#b)"/><path d="M0,0H9.077V9.283H0ZM7.077,2H2V7.283H7.077Z" transform="translate(11.947 0.708)" fill="url(#b)"/></g><path d="M0,0H9.077V9.283H0ZM7.077,2H2V7.283H7.077Z" transform="translate(0.825 0.708)" fill="url(#b)"/><path d="M0,0H9.077V9.283H0ZM7.077,2H2V7.283H7.077Z" transform="translate(4.363 4.006)" fill="url(#b)"/><path d="M0,0H9.077V9.283H0ZM7.077,2H2V7.283H7.077Z" transform="translate(0.825 42.072)" fill="url(#b)"/><path d="M0,0H9.077V9.283H0ZM7.077,2H2V7.283H7.077Z" transform="translate(4.363 38.98)" fill="url(#b)"/><g transform="translate(0 30.46)"><path d="M0,0H6.006V6.123H0ZM4.006,2H2V4.123H4.006Z" fill="url(#b)"/><path d="M0,0H9.194V6.123H0ZM7.194,2H2V4.123H7.194Z" transform="translate(4.006)" fill="url(#b)"/></g><g transform="translate(15.752 38.98)"><path d="M0,0H6.006V6.123H0ZM4.006,2H2V4.123H4.006Z" transform="translate(0 13.2) rotate(-90)" fill="url(#b)"/><path d="M0,0H9.194V6.123H0ZM7.194,2H2V4.123H7.194Z" transform="translate(0 9.194) rotate(-90)" fill="url(#b)"/></g><path d="M0,0H6.006V6.123H0ZM4.006,2H2V4.123H4.006Z" transform="translate(11.406 40.942) rotate(-90)" fill="url(#b)"/><path d="M0,0H6.006V6.123H0ZM4.006,2H2V4.123H4.006Z" transform="translate(15.692 36.466) rotate(-90)" fill="url(#b)"/><path d="M0,0H12.719V5.2H0ZM10.719,2H2V3.2h8.719Z" transform="translate(4.535 32.46) rotate(-90)" fill="url(#b)"/><g transform="translate(0 15.618)"><path d="M0,0H6.006V6.123H0ZM4.006,2H2V4.123H4.006Z" fill="url(#b)"/><path d="M0,0H9.194V6.123H0ZM7.194,2H2V4.123H7.194Z" transform="translate(4.006)" fill="url(#b)"/></g><g transform="translate(15.649)"><path d="M0,0H6.006V6.123H0ZM4.006,2H2V4.123H4.006Z" transform="translate(6.123 0) rotate(90)" fill="url(#b)"/><path d="M0,0H9.194V6.123H0ZM7.194,2H2V4.123H7.194Z" transform="translate(6.123 4.006) rotate(90)" fill="url(#b)"/></g><path d="M0,0H6.006V6.123H0ZM4.006,2H2V4.123H4.006Z" transform="translate(11.2 17.295) rotate(-90)" fill="url(#b)"/><path d="M0,0H6.006V6.123H0ZM4.006,2H2V4.123H4.006Z" transform="translate(15.649 21.682) rotate(-90)" fill="url(#b)"/></g></g><g transform="translate(421.893 322.252) rotate(90)"><g transform="translate(0 0)"><path d="M0,0H4.006V2H0Z" transform="translate(20.081 51.18) rotate(-90)" fill="url(#b)"/><path d="M0,0H4.006V2H0Z" transform="translate(19.926 5.006) rotate(-90)" fill="url(#b)"/><g transform="translate(15.964 0)"><path d="M0,0H6.006V6.123H0ZM4.006,2H2V4.123H4.006Z" transform="translate(0 52.18) rotate(-90)" fill="url(#b)"/><path d="M0,0H6.006V6.123H0ZM4.006,2H2V4.123H4.006Z" transform="translate(0 36.524) rotate(-90)" fill="url(#b)"/><path d="M0,0H6.006V6.123H0ZM4.006,2H2V4.123H4.006Z" transform="translate(0 21.682) rotate(-90)" fill="url(#b)"/><path d="M0,0H6.006V6.123H0ZM4.006,2H2V4.123H4.006Z" transform="translate(4.286 17.206) rotate(-90)" fill="url(#b)"/><path d="M0,0H12.719V5.2H0ZM10.719,2H2V3.2h8.719Z" transform="translate(12.005 32.46) rotate(-90)" fill="url(#b)"/><path d="M0,0H6.006V6.123H0ZM4.006,2H2V4.123H4.006Z" transform="translate(4.123 40.756) rotate(-90)" fill="url(#b)"/><path d="M0,0H9.194V6.123H0ZM7.194,2H2V4.123H7.194Z" transform="translate(0 48.174) rotate(-90)" fill="url(#b)"/><g transform="translate(8.408 30.46)"><path d="M0,0H6.006V6.123H0ZM4.006,2H2V4.123H4.006Z" transform="translate(7.194)" fill="url(#b)"/><path d="M0,0H9.194V6.123H0ZM7.194,2H2V4.123H7.194Z" fill="url(#b)"/></g><g transform="translate(8.408 15.618)"><path d="M0,0H6.006V6.123H0ZM4.006,2H2V4.123H4.006Z" transform="translate(7.194)" fill="url(#b)"/><path d="M0,0H9.194V6.123H0ZM7.194,2H2V4.123H7.194Z" fill="url(#b)"/></g><path d="M0,0H6.006V6.123H0ZM4.006,2H2V4.123H4.006Z" transform="translate(6.123 0) rotate(90)" fill="url(#b)"/><path d="M0,0H9.194V6.123H0ZM7.194,2H2V4.123H7.194Z" transform="translate(6.123 4.006) rotate(90)" fill="url(#b)"/><path d="M0,0H9.077V9.283H0ZM7.077,2H2V7.283H7.077Z" transform="translate(8.408 4.35)" fill="url(#b)"/><path d="M0,0H9.077V9.283H0ZM7.077,2H2V7.283H7.077Z" transform="translate(8.408 38.602)" fill="url(#b)"/><path d="M0,0H9.077V9.283H0ZM7.077,2H2V7.283H7.077Z" transform="translate(11.947 42.243)" fill="url(#b)"/><path d="M0,0H9.077V9.283H0ZM7.077,2H2V7.283H7.077Z" transform="translate(11.947 0.708)" fill="url(#b)"/></g><path d="M0,0H9.077V9.283H0ZM7.077,2H2V7.283H7.077Z" transform="translate(0.825 0.708)" fill="url(#b)"/><path d="M0,0H9.077V9.283H0ZM7.077,2H2V7.283H7.077Z" transform="translate(4.363 4.006)" fill="url(#b)"/><path d="M0,0H9.077V9.283H0ZM7.077,2H2V7.283H7.077Z" transform="translate(0.825 42.072)" fill="url(#b)"/><path d="M0,0H9.077V9.283H0ZM7.077,2H2V7.283H7.077Z" transform="translate(4.363 38.98)" fill="url(#b)"/><g transform="translate(0 30.46)"><path d="M0,0H6.006V6.123H0ZM4.006,2H2V4.123H4.006Z" fill="url(#b)"/><path d="M0,0H9.194V6.123H0ZM7.194,2H2V4.123H7.194Z" transform="translate(4.006)" fill="url(#b)"/></g><g transform="translate(15.752 38.98)"><path d="M0,0H6.006V6.123H0ZM4.006,2H2V4.123H4.006Z" transform="translate(0 13.2) rotate(-90)" fill="url(#b)"/><path d="M0,0H9.194V6.123H0ZM7.194,2H2V4.123H7.194Z" transform="translate(0 9.194) rotate(-90)" fill="url(#b)"/></g><path d="M0,0H6.006V6.123H0ZM4.006,2H2V4.123H4.006Z" transform="translate(11.406 40.942) rotate(-90)" fill="url(#b)"/><path d="M0,0H6.006V6.123H0ZM4.006,2H2V4.123H4.006Z" transform="translate(15.692 36.466) rotate(-90)" fill="url(#b)"/><path d="M0,0H12.719V5.2H0ZM10.719,2H2V3.2h8.719Z" transform="translate(4.535 32.46) rotate(-90)" fill="url(#b)"/><g transform="translate(0 15.618)"><path d="M0,0H6.006V6.123H0ZM4.006,2H2V4.123H4.006Z" fill="url(#b)"/><path d="M0,0H9.194V6.123H0ZM7.194,2H2V4.123H7.194Z" transform="translate(4.006)" fill="url(#b)"/></g><g transform="translate(15.649)"><path d="M0,0H6.006V6.123H0ZM4.006,2H2V4.123H4.006Z" transform="translate(6.123 0) rotate(90)" fill="url(#b)"/><path d="M0,0H9.194V6.123H0ZM7.194,2H2V4.123H7.194Z" transform="translate(6.123 4.006) rotate(90)" fill="url(#b)"/></g><path d="M0,0H6.006V6.123H0ZM4.006,2H2V4.123H4.006Z" transform="translate(11.2 17.295) rotate(-90)" fill="url(#b)"/><path d="M0,0H6.006V6.123H0ZM4.006,2H2V4.123H4.006Z" transform="translate(15.649 21.682) rotate(-90)" fill="url(#b)"/></g></g><g transform="translate(348.893 322.252) rotate(90)"><g transform="translate(0 0)"><path d="M0,0H4.006V2H0Z" transform="translate(20.081 51.18) rotate(-90)" fill="url(#b)"/><path d="M0,0H4.006V2H0Z" transform="translate(19.926 5.006) rotate(-90)" fill="url(#b)"/><g transform="translate(15.964 0)"><path d="M0,0H6.006V6.123H0ZM4.006,2H2V4.123H4.006Z" transform="translate(0 52.18) rotate(-90)" fill="url(#b)"/><path d="M0,0H6.006V6.123H0ZM4.006,2H2V4.123H4.006Z" transform="translate(0 36.524) rotate(-90)" fill="url(#b)"/><path d="M0,0H6.006V6.123H0ZM4.006,2H2V4.123H4.006Z" transform="translate(0 21.682) rotate(-90)" fill="url(#b)"/><path d="M0,0H6.006V6.123H0ZM4.006,2H2V4.123H4.006Z" transform="translate(4.286 17.206) rotate(-90)" fill="url(#b)"/><path d="M0,0H12.719V5.2H0ZM10.719,2H2V3.2h8.719Z" transform="translate(12.005 32.46) rotate(-90)" fill="url(#b)"/><path d="M0,0H6.006V6.123H0ZM4.006,2H2V4.123H4.006Z" transform="translate(4.123 40.756) rotate(-90)" fill="url(#b)"/><path d="M0,0H9.194V6.123H0ZM7.194,2H2V4.123H7.194Z" transform="translate(0 48.174) rotate(-90)" fill="url(#b)"/><g transform="translate(8.408 30.46)"><path d="M0,0H6.006V6.123H0ZM4.006,2H2V4.123H4.006Z" transform="translate(7.194)" fill="url(#b)"/><path d="M0,0H9.194V6.123H0ZM7.194,2H2V4.123H7.194Z" fill="url(#b)"/></g><g transform="translate(8.408 15.618)"><path d="M0,0H6.006V6.123H0ZM4.006,2H2V4.123H4.006Z" transform="translate(7.194)" fill="url(#b)"/><path d="M0,0H9.194V6.123H0ZM7.194,2H2V4.123H7.194Z" fill="url(#b)"/></g><path d="M0,0H6.006V6.123H0ZM4.006,2H2V4.123H4.006Z" transform="translate(6.123 0) rotate(90)" fill="url(#b)"/><path d="M0,0H9.194V6.123H0ZM7.194,2H2V4.123H7.194Z" transform="translate(6.123 4.006) rotate(90)" fill="url(#b)"/><path d="M0,0H9.077V9.283H0ZM7.077,2H2V7.283H7.077Z" transform="translate(8.408 4.35)" fill="url(#b)"/><path d="M0,0H9.077V9.283H0ZM7.077,2H2V7.283H7.077Z" transform="translate(8.408 38.602)" fill="url(#b)"/><path d="M0,0H9.077V9.283H0ZM7.077,2H2V7.283H7.077Z" transform="translate(11.947 42.243)" fill="url(#b)"/><path d="M0,0H9.077V9.283H0ZM7.077,2H2V7.283H7.077Z" transform="translate(11.947 0.708)" fill="url(#b)"/></g><path d="M0,0H9.077V9.283H0ZM7.077,2H2V7.283H7.077Z" transform="translate(0.825 0.708)" fill="url(#b)"/><path d="M0,0H9.077V9.283H0ZM7.077,2H2V7.283H7.077Z" transform="translate(4.363 4.006)" fill="url(#b)"/><path d="M0,0H9.077V9.283H0ZM7.077,2H2V7.283H7.077Z" transform="translate(0.825 42.072)" fill="url(#b)"/><path d="M0,0H9.077V9.283H0ZM7.077,2H2V7.283H7.077Z" transform="translate(4.363 38.98)" fill="url(#b)"/><g transform="translate(0 30.46)"><path d="M0,0H6.006V6.123H0ZM4.006,2H2V4.123H4.006Z" fill="url(#b)"/><path d="M0,0H9.194V6.123H0ZM7.194,2H2V4.123H7.194Z" transform="translate(4.006)" fill="url(#b)"/></g><g transform="translate(15.752 38.98)"><path d="M0,0H6.006V6.123H0ZM4.006,2H2V4.123H4.006Z" transform="translate(0 13.2) rotate(-90)" fill="url(#b)"/><path d="M0,0H9.194V6.123H0ZM7.194,2H2V4.123H7.194Z" transform="translate(0 9.194) rotate(-90)" fill="url(#b)"/></g><path d="M0,0H6.006V6.123H0ZM4.006,2H2V4.123H4.006Z" transform="translate(11.406 40.942) rotate(-90)" fill="url(#b)"/><path d="M0,0H6.006V6.123H0ZM4.006,2H2V4.123H4.006Z" transform="translate(15.692 36.466) rotate(-90)" fill="url(#b)"/><path d="M0,0H12.719V5.2H0ZM10.719,2H2V3.2h8.719Z" transform="translate(4.535 32.46) rotate(-90)" fill="url(#b)"/><g transform="translate(0 15.618)"><path d="M0,0H6.006V6.123H0ZM4.006,2H2V4.123H4.006Z" fill="url(#b)"/><path d="M0,0H9.194V6.123H0ZM7.194,2H2V4.123H7.194Z" transform="translate(4.006)" fill="url(#b)"/></g><g transform="translate(15.649)"><path d="M0,0H6.006V6.123H0ZM4.006,2H2V4.123H4.006Z" transform="translate(6.123 0) rotate(90)" fill="url(#b)"/><path d="M0,0H9.194V6.123H0ZM7.194,2H2V4.123H7.194Z" transform="translate(6.123 4.006) rotate(90)" fill="url(#b)"/></g><path d="M0,0H6.006V6.123H0ZM4.006,2H2V4.123H4.006Z" transform="translate(11.2 17.295) rotate(-90)" fill="url(#b)"/><path d="M0,0H6.006V6.123H0ZM4.006,2H2V4.123H4.006Z" transform="translate(15.649 21.682) rotate(-90)" fill="url(#b)"/></g></g><g transform="translate(275.893 322.252) rotate(90)"><g transform="translate(0 0)"><path d="M0,0H4.006V2H0Z" transform="translate(20.081 51.18) rotate(-90)" fill="url(#b)"/><path d="M0,0H4.006V2H0Z" transform="translate(19.926 5.006) rotate(-90)" fill="url(#b)"/><g transform="translate(15.964 0)"><path d="M0,0H6.006V6.123H0ZM4.006,2H2V4.123H4.006Z" transform="translate(0 52.18) rotate(-90)" fill="url(#b)"/><path d="M0,0H6.006V6.123H0ZM4.006,2H2V4.123H4.006Z" transform="translate(0 36.524) rotate(-90)" fill="url(#b)"/><path d="M0,0H6.006V6.123H0ZM4.006,2H2V4.123H4.006Z" transform="translate(0 21.682) rotate(-90)" fill="url(#b)"/><path d="M0,0H6.006V6.123H0ZM4.006,2H2V4.123H4.006Z" transform="translate(4.286 17.206) rotate(-90)" fill="url(#b)"/><path d="M0,0H12.719V5.2H0ZM10.719,2H2V3.2h8.719Z" transform="translate(12.005 32.46) rotate(-90)" fill="url(#b)"/><path d="M0,0H6.006V6.123H0ZM4.006,2H2V4.123H4.006Z" transform="translate(4.123 40.756) rotate(-90)" fill="url(#b)"/><path d="M0,0H9.194V6.123H0ZM7.194,2H2V4.123H7.194Z" transform="translate(0 48.174) rotate(-90)" fill="url(#b)"/><g transform="translate(8.408 30.46)"><path d="M0,0H6.006V6.123H0ZM4.006,2H2V4.123H4.006Z" transform="translate(7.194)" fill="url(#b)"/><path d="M0,0H9.194V6.123H0ZM7.194,2H2V4.123H7.194Z" fill="url(#b)"/></g><g transform="translate(8.408 15.618)"><path d="M0,0H6.006V6.123H0ZM4.006,2H2V4.123H4.006Z" transform="translate(7.194)" fill="url(#b)"/><path d="M0,0H9.194V6.123H0ZM7.194,2H2V4.123H7.194Z" fill="url(#b)"/></g><path d="M0,0H6.006V6.123H0ZM4.006,2H2V4.123H4.006Z" transform="translate(6.123 0) rotate(90)" fill="url(#b)"/><path d="M0,0H9.194V6.123H0ZM7.194,2H2V4.123H7.194Z" transform="translate(6.123 4.006) rotate(90)" fill="url(#b)"/><path d="M0,0H9.077V9.283H0ZM7.077,2H2V7.283H7.077Z" transform="translate(8.408 4.35)" fill="url(#b)"/><path d="M0,0H9.077V9.283H0ZM7.077,2H2V7.283H7.077Z" transform="translate(8.408 38.602)" fill="url(#b)"/><path d="M0,0H9.077V9.283H0ZM7.077,2H2V7.283H7.077Z" transform="translate(11.947 42.243)" fill="url(#b)"/><path d="M0,0H9.077V9.283H0ZM7.077,2H2V7.283H7.077Z" transform="translate(11.947 0.708)" fill="url(#b)"/></g><path d="M0,0H9.077V9.283H0ZM7.077,2H2V7.283H7.077Z" transform="translate(0.825 0.708)" fill="url(#b)"/><path d="M0,0H9.077V9.283H0ZM7.077,2H2V7.283H7.077Z" transform="translate(4.363 4.006)" fill="url(#b)"/><path d="M0,0H9.077V9.283H0ZM7.077,2H2V7.283H7.077Z" transform="translate(0.825 42.072)" fill="url(#b)"/><path d="M0,0H9.077V9.283H0ZM7.077,2H2V7.283H7.077Z" transform="translate(4.363 38.98)" fill="url(#b)"/><g transform="translate(0 30.46)"><path d="M0,0H6.006V6.123H0ZM4.006,2H2V4.123H4.006Z" fill="url(#b)"/><path d="M0,0H9.194V6.123H0ZM7.194,2H2V4.123H7.194Z" transform="translate(4.006)" fill="url(#b)"/></g><g transform="translate(15.752 38.98)"><path d="M0,0H6.006V6.123H0ZM4.006,2H2V4.123H4.006Z" transform="translate(0 13.2) rotate(-90)" fill="url(#b)"/><path d="M0,0H9.194V6.123H0ZM7.194,2H2V4.123H7.194Z" transform="translate(0 9.194) rotate(-90)" fill="url(#b)"/></g><path d="M0,0H6.006V6.123H0ZM4.006,2H2V4.123H4.006Z" transform="translate(11.406 40.942) rotate(-90)" fill="url(#b)"/><path d="M0,0H6.006V6.123H0ZM4.006,2H2V4.123H4.006Z" transform="translate(15.692 36.466) rotate(-90)" fill="url(#b)"/><path d="M0,0H12.719V5.2H0ZM10.719,2H2V3.2h8.719Z" transform="translate(4.535 32.46) rotate(-90)" fill="url(#b)"/><g transform="translate(0 15.618)"><path d="M0,0H6.006V6.123H0ZM4.006,2H2V4.123H4.006Z" fill="url(#b)"/><path d="M0,0H9.194V6.123H0ZM7.194,2H2V4.123H7.194Z" transform="translate(4.006)" fill="url(#b)"/></g><g transform="translate(15.649)"><path d="M0,0H6.006V6.123H0ZM4.006,2H2V4.123H4.006Z" transform="translate(6.123 0) rotate(90)" fill="url(#b)"/><path d="M0,0H9.194V6.123H0ZM7.194,2H2V4.123H7.194Z" transform="translate(6.123 4.006) rotate(90)" fill="url(#b)"/></g><path d="M0,0H6.006V6.123H0ZM4.006,2H2V4.123H4.006Z" transform="translate(11.2 17.295) rotate(-90)" fill="url(#b)"/><path d="M0,0H6.006V6.123H0ZM4.006,2H2V4.123H4.006Z" transform="translate(15.649 21.682) rotate(-90)" fill="url(#b)"/></g></g><g transform="translate(202.893 322.252) rotate(90)"><g transform="translate(0 0)"><path d="M0,0H4.006V2H0Z" transform="translate(20.081 51.18) rotate(-90)" fill="url(#b)"/><path d="M0,0H4.006V2H0Z" transform="translate(19.926 5.006) rotate(-90)" fill="url(#b)"/><g transform="translate(15.964 0)"><path d="M0,0H6.006V6.123H0ZM4.006,2H2V4.123H4.006Z" transform="translate(0 52.18) rotate(-90)" fill="url(#b)"/><path d="M0,0H6.006V6.123H0ZM4.006,2H2V4.123H4.006Z" transform="translate(0 36.524) rotate(-90)" fill="url(#b)"/><path d="M0,0H6.006V6.123H0ZM4.006,2H2V4.123H4.006Z" transform="translate(0 21.682) rotate(-90)" fill="url(#b)"/><path d="M0,0H6.006V6.123H0ZM4.006,2H2V4.123H4.006Z" transform="translate(4.286 17.206) rotate(-90)" fill="url(#b)"/><path d="M0,0H12.719V5.2H0ZM10.719,2H2V3.2h8.719Z" transform="translate(12.005 32.46) rotate(-90)" fill="url(#b)"/><path d="M0,0H6.006V6.123H0ZM4.006,2H2V4.123H4.006Z" transform="translate(4.123 40.756) rotate(-90)" fill="url(#b)"/><path d="M0,0H9.194V6.123H0ZM7.194,2H2V4.123H7.194Z" transform="translate(0 48.174) rotate(-90)" fill="url(#b)"/><g transform="translate(8.408 30.46)"><path d="M0,0H6.006V6.123H0ZM4.006,2H2V4.123H4.006Z" transform="translate(7.194)" fill="url(#b)"/><path d="M0,0H9.194V6.123H0ZM7.194,2H2V4.123H7.194Z" fill="url(#b)"/></g><g transform="translate(8.408 15.618)"><path d="M0,0H6.006V6.123H0ZM4.006,2H2V4.123H4.006Z" transform="translate(7.194)" fill="url(#b)"/><path d="M0,0H9.194V6.123H0ZM7.194,2H2V4.123H7.194Z" fill="url(#b)"/></g><path d="M0,0H6.006V6.123H0ZM4.006,2H2V4.123H4.006Z" transform="translate(6.123 0) rotate(90)" fill="url(#b)"/><path d="M0,0H9.194V6.123H0ZM7.194,2H2V4.123H7.194Z" transform="translate(6.123 4.006) rotate(90)" fill="url(#b)"/><path d="M0,0H9.077V9.283H0ZM7.077,2H2V7.283H7.077Z" transform="translate(8.408 4.35)" fill="url(#b)"/><path d="M0,0H9.077V9.283H0ZM7.077,2H2V7.283H7.077Z" transform="translate(8.408 38.602)" fill="url(#b)"/><path d="M0,0H9.077V9.283H0ZM7.077,2H2V7.283H7.077Z" transform="translate(11.947 42.243)" fill="url(#b)"/><path d="M0,0H9.077V9.283H0ZM7.077,2H2V7.283H7.077Z" transform="translate(11.947 0.708)" fill="url(#b)"/></g><path d="M0,0H9.077V9.283H0ZM7.077,2H2V7.283H7.077Z" transform="translate(0.825 0.708)" fill="url(#b)"/><path d="M0,0H9.077V9.283H0ZM7.077,2H2V7.283H7.077Z" transform="translate(4.363 4.006)" fill="url(#b)"/><path d="M0,0H9.077V9.283H0ZM7.077,2H2V7.283H7.077Z" transform="translate(0.825 42.072)" fill="url(#b)"/><path d="M0,0H9.077V9.283H0ZM7.077,2H2V7.283H7.077Z" transform="translate(4.363 38.98)" fill="url(#b)"/><g transform="translate(0 30.46)"><path d="M0,0H6.006V6.123H0ZM4.006,2H2V4.123H4.006Z" fill="url(#b)"/><path d="M0,0H9.194V6.123H0ZM7.194,2H2V4.123H7.194Z" transform="translate(4.006)" fill="url(#b)"/></g><g transform="translate(15.752 38.98)"><path d="M0,0H6.006V6.123H0ZM4.006,2H2V4.123H4.006Z" transform="translate(0 13.2) rotate(-90)" fill="url(#b)"/><path d="M0,0H9.194V6.123H0ZM7.194,2H2V4.123H7.194Z" transform="translate(0 9.194) rotate(-90)" fill="url(#b)"/></g><path d="M0,0H6.006V6.123H0ZM4.006,2H2V4.123H4.006Z" transform="translate(11.406 40.942) rotate(-90)" fill="url(#b)"/><path d="M0,0H6.006V6.123H0ZM4.006,2H2V4.123H4.006Z" transform="translate(15.692 36.466) rotate(-90)" fill="url(#b)"/><path d="M0,0H12.719V5.2H0ZM10.719,2H2V3.2h8.719Z" transform="translate(4.535 32.46) rotate(-90)" fill="url(#b)"/><g transform="translate(0 15.618)"><path d="M0,0H6.006V6.123H0ZM4.006,2H2V4.123H4.006Z" fill="url(#b)"/><path d="M0,0H9.194V6.123H0ZM7.194,2H2V4.123H7.194Z" transform="translate(4.006)" fill="url(#b)"/></g><g transform="translate(15.649)"><path d="M0,0H6.006V6.123H0ZM4.006,2H2V4.123H4.006Z" transform="translate(6.123 0) rotate(90)" fill="url(#b)"/><path d="M0,0H9.194V6.123H0ZM7.194,2H2V4.123H7.194Z" transform="translate(6.123 4.006) rotate(90)" fill="url(#b)"/></g><path d="M0,0H6.006V6.123H0ZM4.006,2H2V4.123H4.006Z" transform="translate(11.2 17.295) rotate(-90)" fill="url(#b)"/><path d="M0,0H6.006V6.123H0ZM4.006,2H2V4.123H4.006Z" transform="translate(15.649 21.682) rotate(-90)" fill="url(#b)"/></g></g><g transform="translate(129.893 322.252) rotate(90)"><g transform="translate(0 0)"><path d="M0,0H4.006V2H0Z" transform="translate(20.081 51.18) rotate(-90)" fill="url(#b)"/><path d="M0,0H4.006V2H0Z" transform="translate(19.926 5.006) rotate(-90)" fill="url(#b)"/><g transform="translate(15.964 0)"><path d="M0,0H6.006V6.123H0ZM4.006,2H2V4.123H4.006Z" transform="translate(0 52.18) rotate(-90)" fill="url(#b)"/><path d="M0,0H6.006V6.123H0ZM4.006,2H2V4.123H4.006Z" transform="translate(0 36.524) rotate(-90)" fill="url(#b)"/><path d="M0,0H6.006V6.123H0ZM4.006,2H2V4.123H4.006Z" transform="translate(0 21.682) rotate(-90)" fill="url(#b)"/><path d="M0,0H6.006V6.123H0ZM4.006,2H2V4.123H4.006Z" transform="translate(4.286 17.206) rotate(-90)" fill="url(#b)"/><path d="M0,0H12.719V5.2H0ZM10.719,2H2V3.2h8.719Z" transform="translate(12.005 32.46) rotate(-90)" fill="url(#b)"/><path d="M0,0H6.006V6.123H0ZM4.006,2H2V4.123H4.006Z" transform="translate(4.123 40.756) rotate(-90)" fill="url(#b)"/><path d="M0,0H9.194V6.123H0ZM7.194,2H2V4.123H7.194Z" transform="translate(0 48.174) rotate(-90)" fill="url(#b)"/><g transform="translate(8.408 30.46)"><path d="M0,0H6.006V6.123H0ZM4.006,2H2V4.123H4.006Z" transform="translate(7.194)" fill="url(#b)"/><path d="M0,0H9.194V6.123H0ZM7.194,2H2V4.123H7.194Z" fill="url(#b)"/></g><g transform="translate(8.408 15.618)"><path d="M0,0H6.006V6.123H0ZM4.006,2H2V4.123H4.006Z" transform="translate(7.194)" fill="url(#b)"/><path d="M0,0H9.194V6.123H0ZM7.194,2H2V4.123H7.194Z" fill="url(#b)"/></g><path d="M0,0H6.006V6.123H0ZM4.006,2H2V4.123H4.006Z" transform="translate(6.123 0) rotate(90)" fill="url(#b)"/><path d="M0,0H9.194V6.123H0ZM7.194,2H2V4.123H7.194Z" transform="translate(6.123 4.006) rotate(90)" fill="url(#b)"/><path d="M0,0H9.077V9.283H0ZM7.077,2H2V7.283H7.077Z" transform="translate(8.408 4.35)" fill="url(#b)"/><path d="M0,0H9.077V9.283H0ZM7.077,2H2V7.283H7.077Z" transform="translate(8.408 38.602)" fill="url(#b)"/><path d="M0,0H9.077V9.283H0ZM7.077,2H2V7.283H7.077Z" transform="translate(11.947 42.243)" fill="url(#b)"/><path d="M0,0H9.077V9.283H0ZM7.077,2H2V7.283H7.077Z" transform="translate(11.947 0.708)" fill="url(#b)"/></g><path d="M0,0H9.077V9.283H0ZM7.077,2H2V7.283H7.077Z" transform="translate(0.825 0.708)" fill="url(#b)"/><path d="M0,0H9.077V9.283H0ZM7.077,2H2V7.283H7.077Z" transform="translate(4.363 4.006)" fill="url(#b)"/><path d="M0,0H9.077V9.283H0ZM7.077,2H2V7.283H7.077Z" transform="translate(0.825 42.072)" fill="url(#b)"/><path d="M0,0H9.077V9.283H0ZM7.077,2H2V7.283H7.077Z" transform="translate(4.363 38.98)" fill="url(#b)"/><g transform="translate(0 30.46)"><path d="M0,0H6.006V6.123H0ZM4.006,2H2V4.123H4.006Z" fill="url(#b)"/><path d="M0,0H9.194V6.123H0ZM7.194,2H2V4.123H7.194Z" transform="translate(4.006)" fill="url(#b)"/></g><g transform="translate(15.752 38.98)"><path d="M0,0H6.006V6.123H0ZM4.006,2H2V4.123H4.006Z" transform="translate(0 13.2) rotate(-90)" fill="url(#b)"/><path d="M0,0H9.194V6.123H0ZM7.194,2H2V4.123H7.194Z" transform="translate(0 9.194) rotate(-90)" fill="url(#b)"/></g><path d="M0,0H6.006V6.123H0ZM4.006,2H2V4.123H4.006Z" transform="translate(11.406 40.942) rotate(-90)" fill="url(#b)"/><path d="M0,0H6.006V6.123H0ZM4.006,2H2V4.123H4.006Z" transform="translate(15.692 36.466) rotate(-90)" fill="url(#b)"/><path d="M0,0H12.719V5.2H0ZM10.719,2H2V3.2h8.719Z" transform="translate(4.535 32.46) rotate(-90)" fill="url(#b)"/><g transform="translate(0 15.618)"><path d="M0,0H6.006V6.123H0ZM4.006,2H2V4.123H4.006Z" fill="url(#b)"/><path d="M0,0H9.194V6.123H0ZM7.194,2H2V4.123H7.194Z" transform="translate(4.006)" fill="url(#b)"/></g><g transform="translate(15.649)"><path d="M0,0H6.006V6.123H0ZM4.006,2H2V4.123H4.006Z" transform="translate(6.123 0) rotate(90)" fill="url(#b)"/><path d="M0,0H9.194V6.123H0ZM7.194,2H2V4.123H7.194Z" transform="translate(6.123 4.006) rotate(90)" fill="url(#b)"/></g><path d="M0,0H6.006V6.123H0ZM4.006,2H2V4.123H4.006Z" transform="translate(11.2 17.295) rotate(-90)" fill="url(#b)"/><path d="M0,0H6.006V6.123H0ZM4.006,2H2V4.123H4.006Z" transform="translate(15.649 21.682) rotate(-90)" fill="url(#b)"/></g></g><g transform="translate(56.893 322.252) rotate(90)"><g transform="translate(0 0)"><path d="M0,0H4.006V2H0Z" transform="translate(20.081 51.18) rotate(-90)" fill="url(#b)"/><path d="M0,0H4.006V2H0Z" transform="translate(19.926 5.006) rotate(-90)" fill="url(#b)"/><g transform="translate(15.964 0)"><path d="M0,0H6.006V6.123H0ZM4.006,2H2V4.123H4.006Z" transform="translate(0 52.18) rotate(-90)" fill="url(#b)"/><path d="M0,0H6.006V6.123H0ZM4.006,2H2V4.123H4.006Z" transform="translate(0 36.524) rotate(-90)" fill="url(#b)"/><path d="M0,0H6.006V6.123H0ZM4.006,2H2V4.123H4.006Z" transform="translate(0 21.682) rotate(-90)" fill="url(#b)"/><path d="M0,0H6.006V6.123H0ZM4.006,2H2V4.123H4.006Z" transform="translate(4.286 17.206) rotate(-90)" fill="url(#b)"/><path d="M0,0H12.719V5.2H0ZM10.719,2H2V3.2h8.719Z" transform="translate(12.005 32.46) rotate(-90)" fill="url(#b)"/><path d="M0,0H6.006V6.123H0ZM4.006,2H2V4.123H4.006Z" transform="translate(4.123 40.756) rotate(-90)" fill="url(#b)"/><path d="M0,0H9.194V6.123H0ZM7.194,2H2V4.123H7.194Z" transform="translate(0 48.174) rotate(-90)" fill="url(#b)"/><g transform="translate(8.408 30.46)"><path d="M0,0H6.006V6.123H0ZM4.006,2H2V4.123H4.006Z" transform="translate(7.194)" fill="url(#b)"/><path d="M0,0H9.194V6.123H0ZM7.194,2H2V4.123H7.194Z" fill="url(#b)"/></g><g transform="translate(8.408 15.618)"><path d="M0,0H6.006V6.123H0ZM4.006,2H2V4.123H4.006Z" transform="translate(7.194)" fill="url(#b)"/><path d="M0,0H9.194V6.123H0ZM7.194,2H2V4.123H7.194Z" fill="url(#b)"/></g><path d="M0,0H6.006V6.123H0ZM4.006,2H2V4.123H4.006Z" transform="translate(6.123 0) rotate(90)" fill="url(#b)"/><path d="M0,0H9.194V6.123H0ZM7.194,2H2V4.123H7.194Z" transform="translate(6.123 4.006) rotate(90)" fill="url(#b)"/><path d="M0,0H9.077V9.283H0ZM7.077,2H2V7.283H7.077Z" transform="translate(8.408 4.35)" fill="url(#b)"/><path d="M0,0H9.077V9.283H0ZM7.077,2H2V7.283H7.077Z" transform="translate(8.408 38.602)" fill="url(#b)"/><path d="M0,0H9.077V9.283H0ZM7.077,2H2V7.283H7.077Z" transform="translate(11.947 42.243)" fill="url(#b)"/><path d="M0,0H9.077V9.283H0ZM7.077,2H2V7.283H7.077Z" transform="translate(11.947 0.708)" fill="url(#b)"/></g><path d="M0,0H9.077V9.283H0ZM7.077,2H2V7.283H7.077Z" transform="translate(0.825 0.708)" fill="url(#b)"/><path d="M0,0H9.077V9.283H0ZM7.077,2H2V7.283H7.077Z" transform="translate(4.363 4.006)" fill="url(#b)"/><path d="M0,0H9.077V9.283H0ZM7.077,2H2V7.283H7.077Z" transform="translate(0.825 42.072)" fill="url(#b)"/><path d="M0,0H9.077V9.283H0ZM7.077,2H2V7.283H7.077Z" transform="translate(4.363 38.98)" fill="url(#b)"/><g transform="translate(0 30.46)"><path d="M0,0H6.006V6.123H0ZM4.006,2H2V4.123H4.006Z" fill="url(#b)"/><path d="M0,0H9.194V6.123H0ZM7.194,2H2V4.123H7.194Z" transform="translate(4.006)" fill="url(#b)"/></g><g transform="translate(15.752 38.98)"><path d="M0,0H6.006V6.123H0ZM4.006,2H2V4.123H4.006Z" transform="translate(0 13.2) rotate(-90)" fill="url(#b)"/><path d="M0,0H9.194V6.123H0ZM7.194,2H2V4.123H7.194Z" transform="translate(0 9.194) rotate(-90)" fill="url(#b)"/></g><path d="M0,0H6.006V6.123H0ZM4.006,2H2V4.123H4.006Z" transform="translate(11.406 40.942) rotate(-90)" fill="url(#b)"/><path d="M0,0H6.006V6.123H0ZM4.006,2H2V4.123H4.006Z" transform="translate(15.692 36.466) rotate(-90)" fill="url(#b)"/><path d="M0,0H12.719V5.2H0ZM10.719,2H2V3.2h8.719Z" transform="translate(4.535 32.46) rotate(-90)" fill="url(#b)"/><g transform="translate(0 15.618)"><path d="M0,0H6.006V6.123H0ZM4.006,2H2V4.123H4.006Z" fill="url(#b)"/><path d="M0,0H9.194V6.123H0ZM7.194,2H2V4.123H7.194Z" transform="translate(4.006)" fill="url(#b)"/></g><g transform="translate(15.649)"><path d="M0,0H6.006V6.123H0ZM4.006,2H2V4.123H4.006Z" transform="translate(6.123 0) rotate(90)" fill="url(#b)"/><path d="M0,0H9.194V6.123H0ZM7.194,2H2V4.123H7.194Z" transform="translate(6.123 4.006) rotate(90)" fill="url(#b)"/></g><path d="M0,0H6.006V6.123H0ZM4.006,2H2V4.123H4.006Z" transform="translate(11.2 17.295) rotate(-90)" fill="url(#b)"/><path d="M0,0H6.006V6.123H0ZM4.006,2H2V4.123H4.006Z" transform="translate(15.649 21.682) rotate(-90)" fill="url(#b)"/></g></g></g></svg>