<svg xmlns="http://www.w3.org/2000/svg" xmlns:xlink="http://www.w3.org/1999/xlink" width="503" height="188" viewBox="0 0 503 188"><defs><linearGradient id="a" x1="6.732" x2="4.29" y2="0.955" gradientUnits="objectBoundingBox"><stop offset="0" stop-color="#f7b927"/><stop offset="1" stop-color="#f6db25"/></linearGradient></defs><g transform="translate(526.063 -314.089) rotate(90)"><g transform="translate(314.089 526.063) rotate(-90)"><path d="M0,0H19.013V416.483H0ZM15.438,2.019H3.575V414.464H15.438Z" transform="translate(43.773 188) rotate(-90)" fill="url(#a)"/><path d="M0,0H19.013V416.483H0ZM15.438,2.019H3.575V414.464H15.438Z" transform="translate(43.436 19.013) rotate(-90)" fill="url(#a)"/><g transform="translate(423.858 0)"><path d="M0,0H19.013V19.463H0ZM15.438,3.575H3.575V15.888H15.438Z" transform="translate(0 188) rotate(-90)" fill="url(#a)"/><path d="M0,0H19.013V19.463H0ZM15.438,3.575H3.575V15.888H15.438Z" transform="translate(0 130.703) rotate(-90)" fill="url(#a)"/><path d="M0,0H19.013V19.463H0ZM15.438,3.575H3.575V15.888H15.438Z" transform="translate(0 76.386) rotate(-90)" fill="url(#a)"/><path d="M0,0H19.013V19.463H0ZM15.438,3.575H3.575V15.888H15.438Z" transform="translate(16.517 60.002) rotate(-90)" fill="url(#a)"/><path d="M0,0H44.883V15.888H0ZM41.309,3.575H3.575v8.738H41.309Z" transform="translate(46.267 116.479) rotate(-90)" fill="url(#a)"/><path d="M0,0H19.013V19.463H0ZM15.438,3.575H3.575V15.888H15.438Z" transform="translate(15.888 146.193) rotate(-90)" fill="url(#a)"/><path d="M0,0H31.3V19.463H0ZM27.724,3.575H3.575V15.888H27.724Z" transform="translate(0 172.562) rotate(-90)" fill="url(#a)"/><g transform="translate(32.405 111.462)"><path d="M0,0H19.013V19.463H0ZM15.438,3.575H3.575V15.888H15.438Z" transform="translate(27.724)" fill="url(#a)"/><path d="M0,0H31.3V19.463H0ZM27.724,3.575H3.575V15.888H27.724Z" fill="url(#a)"/></g><g transform="translate(32.405 57.152)"><path d="M0,0H19.013V19.463H0ZM15.438,3.575H3.575V15.888H15.438Z" transform="translate(27.724)" fill="url(#a)"/><path d="M0,0H31.3V19.463H0ZM27.724,3.575H3.575V15.888H27.724Z" fill="url(#a)"/></g><g transform="translate(0 0)"><path d="M0,0H19.013V19.463H0ZM15.438,3.575H3.575V15.888H15.438Z" transform="translate(19.463 0) rotate(90)" fill="url(#a)"/><path d="M0,0H31.3V19.463H0ZM27.724,3.575H3.575V15.888H27.724Z" transform="translate(19.463 15.438) rotate(90)" fill="url(#a)"/></g><path d="M0,0H30.849V31.643H0ZM27.274,3.575H3.575V28.069h23.7Z" transform="translate(32.405 16.762)" fill="url(#a)"/><path d="M0,0H30.849V31.643H0ZM27.274,3.575H3.575V28.069h23.7Z" transform="translate(32.405 139.807)" fill="url(#a)"/><path d="M0,0H30.849V31.643H0ZM27.274,3.575H3.575V28.069h23.7Z" transform="translate(46.042 153.841)" fill="url(#a)"/><path d="M0,0H30.849V31.643H0ZM27.274,3.575H3.575V28.069h23.7Z" transform="translate(46.042 2.728)" fill="url(#a)"/></g><g transform="translate(0 0)"><path d="M0,0H30.849V31.643H0ZM27.274,3.575H3.575V28.069h23.7Z" transform="translate(3.178 2.728)" fill="url(#a)"/><path d="M0,0H30.849V31.643H0ZM27.274,3.575H3.575V28.069h23.7Z" transform="translate(16.815 15.438)" fill="url(#a)"/><path d="M0,0H30.849V31.643H0ZM27.274,3.575H3.575V28.069h23.7Z" transform="translate(3.178 153.179)" fill="url(#a)"/><path d="M0,0H30.849V31.643H0ZM27.274,3.575H3.575V28.069h23.7Z" transform="translate(16.815 141.263)" fill="url(#a)"/><g transform="translate(0 111.462)"><path d="M0,0H19.013V19.463H0ZM15.438,3.575H3.575V15.888H15.438Z" fill="url(#a)"/><path d="M0,0H31.3V19.463H0ZM27.724,3.575H3.575V15.888H27.724Z" transform="translate(15.438)" fill="url(#a)"/></g><g transform="translate(60.705 141.263)"><path d="M0,0H19.013V19.463H0ZM15.438,3.575H3.575V15.888H15.438Z" transform="translate(0 46.737) rotate(-90)" fill="url(#a)"/><path d="M0,0H31.3V19.463H0ZM27.724,3.575H3.575V15.888H27.724Z" transform="translate(0 31.299) rotate(-90)" fill="url(#a)"/></g><path d="M0,0H19.013V19.463H0ZM15.438,3.575H3.575V15.888H15.438Z" transform="translate(43.957 146.873) rotate(-90)" fill="url(#a)"/><path d="M0,0H19.013V19.463H0ZM15.438,3.575H3.575V15.888H15.438Z" transform="translate(60.473 130.49) rotate(-90)" fill="url(#a)"/><path d="M0,0H44.883V15.888H0ZM41.309,3.575H3.575v8.738H41.309Z" transform="translate(17.477 116.479) rotate(-90)" fill="url(#a)"/><g transform="translate(0 57.152)"><path d="M0,0H19.013V19.463H0ZM15.438,3.575H3.575V15.888H15.438Z" fill="url(#a)"/><path d="M0,0H31.3V19.463H0ZM27.724,3.575H3.575V15.888H27.724Z" transform="translate(15.438)" fill="url(#a)"/></g><g transform="translate(60.308 0)"><path d="M0,0H19.013V19.463H0ZM15.438,3.575H3.575V15.888H15.438Z" transform="translate(19.463 0) rotate(90)" fill="url(#a)"/><path d="M0,0H31.3V19.463H0ZM27.724,3.575H3.575V15.888H27.724Z" transform="translate(19.463 15.438) rotate(90)" fill="url(#a)"/></g><path d="M0,0H19.013V19.463H0ZM15.438,3.575H3.575V15.888H15.438Z" transform="translate(43.162 60.33) rotate(-90)" fill="url(#a)"/><path d="M0,0H19.013V19.463H0ZM15.438,3.575H3.575V15.888H15.438Z" transform="translate(60.308 76.386) rotate(-90)" fill="url(#a)"/></g></g><path d="M0,51.521V73.206H23V124.35l324.489,0V73.206h23.354l-.092-21.685H347.491V0H23v51.52Z" transform="translate(346.31 458.87) rotate(-90)" fill="#c21b15"/></g></svg>