<svg xmlns="http://www.w3.org/2000/svg" width="259" height="304" viewBox="0 0 259 304"><g transform="translate(0)"><rect width="247.282" height="281.654" transform="translate(5.859 22.346)" fill="#aa713a"/><rect width="40.457" height="22.346" transform="translate(5.859 0)" fill="#aa713a"/><rect width="40.457" height="22.346" transform="translate(212.684 0)" fill="#aa713a"/><rect width="40.457" height="22.346" transform="translate(70.154 0)" fill="#aa713a"/><rect width="27.519" height="32.031" transform="translate(115.74 47.006)" fill="#774d2a"/><rect width="27.519" height="32.031" transform="translate(211.416 47.006)" fill="#774d2a"/><rect width="27.519" height="32.031" transform="translate(18.797 47.006)" fill="#774d2a"/><rect width="40.457" height="22.346" transform="translate(146.543 0)" fill="#aa713a"/><g transform="translate(10.664 102.65)"><rect width="67.506" height="33.496" transform="translate(0.099 163.058)" fill="#bd844c"/><rect width="67.506" height="33.496" transform="translate(36.062 122.294)" fill="#bd844c"/><rect width="58.841" height="33.496" transform="translate(108.026 122.294)" fill="#bd844c"/><rect width="58.841" height="33.496" transform="translate(173.045 122.294)" fill="#bd844c"/><rect width="30.436" height="33.496" transform="translate(0.099 122.294)" fill="#bd844c"/><rect width="67.506" height="33.496" transform="translate(33.852 40.765)" fill="#bd844c"/><rect width="58.841" height="33.496" transform="translate(108.026 40.765)" fill="#bd844c"/><rect width="58.841" height="33.496" transform="translate(173.045 40.765)" fill="#bd844c"/><rect width="28.053" height="33.496" transform="translate(0.099 40.765)" fill="#bd844c"/><rect width="67.506" height="33.496" transform="translate(75.826 163.328)" fill="#bd844c"/><rect width="67.506" height="33.496" transform="translate(150.422 163.328)" fill="#bd844c"/><rect width="12.095" height="33.496" transform="translate(225.474 163.328)" fill="#bd844c"/><rect width="67.407" height="33.496" transform="translate(0.099)" fill="#bd844c"/><rect width="67.506" height="33.496" transform="translate(75.99)" fill="#bd844c"/><rect width="67.506" height="33.496" transform="translate(150.588)" fill="#bd844c"/><rect width="12.293" height="33.496" transform="translate(225.64)" fill="#bd844c"/><rect width="67.506" height="33.496" transform="translate(0 81.529)" fill="#bd844c"/><rect width="67.506" height="33.496" transform="translate(75.99 81.529)" fill="#bd844c"/><rect width="67.506" height="33.496" transform="translate(150.588 81.529)" fill="#bd844c"/><rect width="12.293" height="33.496" transform="translate(225.64 81.529)" fill="#bd844c"/></g><rect width="259" height="12.878" transform="translate(0 83.977)" fill="#bd844c"/><rect width="259" height="12.878" transform="translate(0 30.069)" fill="#bd844c"/><g transform="translate(17.976 113.243)"><path d="M29,0h0A29,29,0,0,1,58,29V58a0,0,0,0,1,0,0H0a0,0,0,0,1,0,0V29A29,29,0,0,1,29,0Z" fill="#774d2a"/><path d="M25.5,0h0A25.5,25.5,0,0,1,51,25.5V51a0,0,0,0,1,0,0H0a0,0,0,0,1,0,0V25.5A25.5,25.5,0,0,1,25.5,0Z" transform="translate(4 4)" fill="#613e22"/></g><g transform="translate(100.565 113.243)"><path d="M29,0h0A29,29,0,0,1,58,29V58a0,0,0,0,1,0,0H0a0,0,0,0,1,0,0V29A29,29,0,0,1,29,0Z" fill="#774d2a"/><path d="M26,0h0A26,26,0,0,1,52,26V51a0,0,0,0,1,0,0H0a0,0,0,0,1,0,0V26A26,26,0,0,1,26,0Z" transform="translate(3 4)" fill="#613e22"/></g><g transform="translate(177.154 113.243)"><path d="M29,0h0A29,29,0,0,1,58,29V58a0,0,0,0,1,0,0H0a0,0,0,0,1,0,0V29A29,29,0,0,1,29,0Z" fill="#774d2a"/><path d="M25.5,0h0A25.5,25.5,0,0,1,51,25.5V51a0,0,0,0,1,0,0H0a0,0,0,0,1,0,0V25.5A25.5,25.5,0,0,1,25.5,0Z" transform="translate(4 4)" fill="#613e22"/></g></g></svg>