<svg xmlns="http://www.w3.org/2000/svg" width="259.821" height="304.518" viewBox="0 0 259.821 304.518"><g transform="translate(-459.748 -4957.399)"><g transform="translate(459.748 4957.399)"><rect width="248.103" height="282.172" transform="translate(5.859 22.346)" fill="#7a4e23"/><rect width="40.457" height="22.346" transform="translate(5.859 0)" fill="#7a4e23"/><rect width="40.457" height="22.346" transform="translate(213.506 0)" fill="#7a4e23"/><rect width="40.457" height="22.346" transform="translate(70.418 0)" fill="#7a4e23"/><rect width="27.519" height="32.031" transform="translate(116.151 47.096)" fill="#614024"/><rect width="27.519" height="32.031" transform="translate(212.237 47.096)" fill="#614024"/><rect width="27.519" height="32.031" transform="translate(18.797 47.096)" fill="#614024"/><rect width="40.457" height="22.346" transform="translate(147.094 0)" fill="#7a4e23"/><g transform="translate(10.664 103.168)"><rect width="67.506" height="33.496" transform="translate(0.099 163.058)" fill="#985f28"/><rect width="67.506" height="33.496" transform="translate(36.235 122.294)" fill="#985f28"/><rect width="58.841" height="33.496" transform="translate(108.521 122.294)" fill="#985f28"/><rect width="58.841" height="33.496" transform="translate(173.866 122.294)" fill="#985f28"/><rect width="30.436" height="33.496" transform="translate(0.099 122.294)" fill="#985f28"/><rect width="67.506" height="33.496" transform="translate(33.852 40.765)" fill="#985f28"/><rect width="58.841" height="33.496" transform="translate(108.521 40.765)" fill="#985f28"/><rect width="58.841" height="33.496" transform="translate(173.866 40.765)" fill="#985f28"/><rect width="28.053" height="33.496" transform="translate(0.099 40.765)" fill="#985f28"/><rect width="67.506" height="33.496" transform="translate(76.191 163.328)" fill="#985f28"/><rect width="67.506" height="33.496" transform="translate(151.243 163.328)" fill="#985f28"/><rect width="12.095" height="33.496" transform="translate(226.296 163.328)" fill="#985f28"/><rect width="67.407" height="33.496" transform="translate(0.099)" fill="#985f28"/><rect width="67.506" height="33.496" transform="translate(76.356)" fill="#985f28"/><rect width="67.506" height="33.496" transform="translate(151.409)" fill="#985f28"/><rect width="12.293" height="33.496" transform="translate(226.461)" fill="#985f28"/><rect width="67.506" height="33.496" transform="translate(0 81.529)" fill="#985f28"/><rect width="67.506" height="33.496" transform="translate(76.356 81.529)" fill="#985f28"/><rect width="67.506" height="33.496" transform="translate(151.409 81.529)" fill="#985f28"/><rect width="12.293" height="33.496" transform="translate(226.461 81.529)" fill="#985f28"/></g><rect width="259.821" height="12.878" transform="translate(0 84.127)" fill="#985f28"/><rect width="259.821" height="12.878" transform="translate(0 30.069)" fill="#985f28"/></g><g transform="translate(481.748 5076)"><path d="M29,0h0A29,29,0,0,1,58,29V58a0,0,0,0,1,0,0H0a0,0,0,0,1,0,0V29A29,29,0,0,1,29,0Z" transform="translate(0 0)" fill="#614024"/><path d="M25.5,0h0A25.5,25.5,0,0,1,51,25.5V51a0,0,0,0,1,0,0H0a0,0,0,0,1,0,0V25.5A25.5,25.5,0,0,1,25.5,0Z" transform="translate(4 4)" fill="#54361d"/></g><g transform="translate(644.95 5076)"><path d="M29,0h0A29,29,0,0,1,58,29V58a0,0,0,0,1,0,0H0a0,0,0,0,1,0,0V29A29,29,0,0,1,29,0Z" transform="translate(-0.203 0)" fill="#614024"/><path d="M25.5,0h0A25.5,25.5,0,0,1,51,25.5V51a0,0,0,0,1,0,0H0a0,0,0,0,1,0,0V25.5A25.5,25.5,0,0,1,25.5,0Z" transform="translate(3.797 4)" fill="#54361d"/></g><g transform="translate(560.536 5076)"><path d="M29,0h0A29,29,0,0,1,58,29V58a0,0,0,0,1,0,0H0a0,0,0,0,1,0,0V29A29,29,0,0,1,29,0Z" transform="translate(0.211 0)" fill="#614024"/><path d="M26,0h0A26,26,0,0,1,52,26V51a0,0,0,0,1,0,0H0a0,0,0,0,1,0,0V26A26,26,0,0,1,26,0Z" transform="translate(3.211 4)" fill="#54361d"/></g></g></svg>