<svg xmlns="http://www.w3.org/2000/svg" width="359.371" height="177.356" viewBox="0 0 359.371 177.356"><rect width="359.371" height="155.01" transform="translate(0 22.346)" fill="#7a4e23"/><rect width="40.457" height="22.346" transform="translate(10.327 0)" fill="#7a4e23"/><rect width="40.457" height="22.346" transform="translate(71.802 0)" fill="#7a4e23"/><rect width="40.457" height="22.346" transform="translate(131.188 0)" fill="#7a4e23"/><rect width="40.457" height="22.346" transform="translate(188.096 0)" fill="#7a4e23"/><rect width="40.457" height="22.346" transform="translate(245.105 0)" fill="#7a4e23"/><rect width="40.457" height="22.346" transform="translate(302.115 0)" fill="#7a4e23"/><g transform="translate(0 57.536)"><rect width="67.506" height="33.496" transform="translate(33.852 40.765)" fill="#985f28"/><rect width="58.841" height="33.496" transform="translate(108.521 40.765)" fill="#985f28"/><rect width="78.933" height="33.496" transform="translate(173.866 40.765)" fill="#985f28"/><rect width="28.053" height="33.496" transform="translate(0.099 40.765)" fill="#985f28"/><rect width="67.407" height="33.496" transform="translate(0.099 0)" fill="#985f28"/><rect width="67.506" height="33.496" transform="translate(76.356 0)" fill="#985f28"/><rect width="67.506" height="33.496" transform="translate(151.409 0)" fill="#985f28"/><rect width="67.506" height="33.496" transform="translate(0 81.529)" fill="#985f28"/><rect width="67.506" height="33.496" transform="translate(75.704 81.529)" fill="#985f28"/><rect width="67.506" height="33.496" transform="translate(151.409 81.529)" fill="#985f28"/><rect width="58.386" height="33.496" transform="translate(300.986 81.529)" fill="#985f28"/><rect width="67.506" height="33.496" transform="translate(260.07 40.765)" fill="#985f28"/><rect width="24.632" height="33.496" transform="translate(334.739 40.765)" fill="#985f28"/><rect width="67.407" height="33.496" transform="translate(226.317 0)" fill="#985f28"/><rect width="56.797" height="33.496" transform="translate(302.574 0)" fill="#985f28"/><rect width="67.506" height="33.496" transform="translate(226.218 81.529)" fill="#985f28"/></g><rect width="359.371" height="12.878" transform="translate(0 33.519)" fill="#985f28"/></svg>