<svg xmlns="http://www.w3.org/2000/svg" width="360" height="177" viewBox="0 0 360 177"><rect width="360" height="154.654" transform="translate(0 22.346)" fill="#aa713a"/><rect width="40.457" height="22.346" transform="translate(10.327 0)" fill="#aa713a"/><rect width="40.457" height="22.346" transform="translate(71.8 0)" fill="#aa713a"/><rect width="40.457" height="22.346" transform="translate(131.185 0)" fill="#aa713a"/><rect width="40.457" height="22.346" transform="translate(188.091 0)" fill="#aa713a"/><rect width="40.457" height="22.346" transform="translate(245.099 0)" fill="#aa713a"/><rect width="40.457" height="22.346" transform="translate(302.107 0)" fill="#aa713a"/><g transform="translate(0 57.18)"><rect width="67.506" height="33.496" transform="translate(33.852 40.765)" fill="#bd844c"/><rect width="58.841" height="33.496" transform="translate(108.518 40.765)" fill="#bd844c"/><rect width="78.933" height="33.496" transform="translate(173.861 40.765)" fill="#bd844c"/><rect width="28.053" height="33.496" transform="translate(0.099 40.765)" fill="#bd844c"/><rect width="67.407" height="33.496" transform="translate(0.099 0)" fill="#bd844c"/><rect width="67.506" height="33.496" transform="translate(76.354 0)" fill="#bd844c"/><rect width="67.506" height="33.496" transform="translate(151.405 0)" fill="#bd844c"/><rect width="67.506" height="33.496" transform="translate(0 81.529)" fill="#bd844c"/><rect width="67.506" height="33.496" transform="translate(75.702 81.529)" fill="#bd844c"/><rect width="67.506" height="33.496" transform="translate(151.405 81.529)" fill="#bd844c"/><rect width="58.386" height="33.496" transform="translate(300.978 81.529)" fill="#bd844c"/><rect width="67.506" height="33.496" transform="translate(260.062 40.765)" fill="#bd844c"/><rect width="24.632" height="33.496" transform="translate(334.731 40.765)" fill="#bd844c"/><rect width="67.407" height="33.496" transform="translate(226.311 0)" fill="#bd844c"/><rect width="57.434" height="33.496" transform="translate(302.566 0)" fill="#bd844c"/><rect width="67.506" height="33.496" transform="translate(226.211 81.529)" fill="#bd844c"/></g><rect width="359.363" height="12.878" transform="translate(0 33.447)" fill="#bd844c"/></svg>