<svg xmlns="http://www.w3.org/2000/svg" width="36" height="36" viewBox="0 0 36 36"><g transform="translate(1.5 1.5)"><path d="M11.25,3h16.5A8.25,8.25,0,0,1,36,11.25v16.5A8.25,8.25,0,0,1,27.75,36H11.25A8.25,8.25,0,0,1,3,27.75V11.25A8.25,8.25,0,0,1,11.25,3Z" transform="translate(-3 -3)" fill="none" stroke="#fff" stroke-linecap="round" stroke-linejoin="round" stroke-width="3"/><path d="M25.464,17.683a6.736,6.736,0,1,1-5.675-5.675,6.736,6.736,0,0,1,5.675,5.675Z" transform="translate(-2.23 -2.241)" fill="none" stroke="#fff" stroke-linecap="round" stroke-linejoin="round" stroke-width="3"/><path d="M26.25,9.75h0" transform="translate(-0.675 -2.325)" fill="none" stroke="#fff" stroke-linecap="round" stroke-linejoin="round" stroke-width="3"/></g></svg>