<svg xmlns="http://www.w3.org/2000/svg" width="38" height="31" viewBox="0 0 38 31"><path d="M34.094,11.107c.024.339.024.678.024,1.017,0,10.341-7.836,22.257-22.159,22.257A21.938,21.938,0,0,1,0,30.869a16.041,16.041,0,0,0,1.881.1,15.553,15.553,0,0,0,9.669-3.342A7.806,7.806,0,0,1,4.268,22.2a9.779,9.779,0,0,0,1.471.121,8.2,8.2,0,0,0,2.049-.266,7.815,7.815,0,0,1-6.245-7.677v-.1a7.817,7.817,0,0,0,3.52.993A7.857,7.857,0,0,1,2.652,4.81,22.105,22.105,0,0,0,18.711,13a8.868,8.868,0,0,1-.193-1.792A7.788,7.788,0,0,1,32,5.851a15.292,15.292,0,0,0,4.943-1.889,7.8,7.8,0,0,1-3.424,4.311A15.559,15.559,0,0,0,38,7.062a16.782,16.782,0,0,1-3.906,4.044Z" transform="translate(0 -3.381)" fill="#fff"/></svg>