<svg xmlns="http://www.w3.org/2000/svg" width="31" height="36" viewBox="0 0 31 36"><path d="M20.566,17.1a1.905,1.905,0,0,1-1.807,2,1.917,1.917,0,0,1-1.807-2,1.905,1.905,0,0,1,1.807-2A1.905,1.905,0,0,1,20.566,17.1Zm-8.273-2a1.905,1.905,0,0,0-1.807,2,1.917,1.917,0,0,0,1.807,2,1.905,1.905,0,0,0,1.807-2A1.894,1.894,0,0,0,12.294,15.1ZM31,3.708V36c-4.463-4.007-3.036-2.681-8.219-7.578l.939,3.33H3.631A3.67,3.67,0,0,1,0,28.044V3.708A3.67,3.67,0,0,1,3.631,0H27.369A3.67,3.67,0,0,1,31,3.708ZM25.951,20.772A24.4,24.4,0,0,0,23.4,10.278a8.667,8.667,0,0,0-4.978-1.89l-.248.288a11.737,11.737,0,0,1,4.411,2.286A14.838,14.838,0,0,0,9.353,10.44c-.655.306-1.045.522-1.045.522A11.894,11.894,0,0,1,12.967,8.6l-.177-.216a8.667,8.667,0,0,0-4.978,1.89A24.4,24.4,0,0,0,5.261,20.772a6.406,6.406,0,0,0,5.4,2.736s.655-.81,1.187-1.494a5.519,5.519,0,0,1-3.1-2.124c.261.185.69.426.726.45a12.73,12.73,0,0,0,11.054.63,10.077,10.077,0,0,0,2.037-1.062,5.6,5.6,0,0,1-3.206,2.142c.531.684,1.169,1.458,1.169,1.458A6.458,6.458,0,0,0,25.951,20.772Z" fill="#fff"/></svg>