<svg xmlns="http://www.w3.org/2000/svg" xmlns:xlink="http://www.w3.org/1999/xlink" width="162" height="1144" viewBox="0 0 162 1144"><defs><filter id="a" x="0" y="0" width="129.671" height="280.284" filterUnits="userSpaceOnUse"><feOffset dy="8" input="SourceAlpha"/><feGaussianBlur stdDeviation="12" result="b"/><feFlood flood-opacity="0.31"/><feComposite operator="in" in2="b"/><feComposite in="SourceGraphic"/></filter><filter id="c" x="0.001" y="427.538" width="129.671" height="280.284" filterUnits="userSpaceOnUse"><feOffset input="SourceAlpha"/><feGaussianBlur stdDeviation="12" result="d"/><feFlood flood-opacity="0.329"/><feComposite operator="in" in2="d"/><feComposite in="SourceGraphic"/></filter><filter id="e" x="0.001" y="645.626" width="129.671" height="280.284" filterUnits="userSpaceOnUse"><feOffset input="SourceAlpha"/><feGaussianBlur stdDeviation="12" result="f"/><feFlood flood-opacity="0.329"/><feComposite operator="in" in2="f"/><feComposite in="SourceGraphic"/></filter><filter id="g" x="0.001" y="863.716" width="129.671" height="280.284" filterUnits="userSpaceOnUse"><feOffset input="SourceAlpha"/><feGaussianBlur stdDeviation="12" result="h"/><feFlood flood-opacity="0.329"/><feComposite operator="in" in2="h"/><feComposite in="SourceGraphic"/></filter><filter id="i" x="0.001" y="209.448" width="129.671" height="280.284" filterUnits="userSpaceOnUse"><feOffset input="SourceAlpha"/><feGaussianBlur stdDeviation="12" result="j"/><feFlood flood-opacity="0.329"/><feComposite operator="in" in2="j"/><feComposite in="SourceGraphic"/></filter></defs><g transform="translate(1941.053 1137.555) rotate(180)"><g transform="matrix(-1, 0, 0, -1, 1941.05, 1137.55)" filter="url(#a)"><path d="M581.775,626.617H524.1c9.316-69.073,11.522-138.479,0-208.284h57.671C567.489,485.657,569.991,555.484,581.775,626.617Z" transform="translate(617.78 654.62) rotate(180)" fill="#53a350"/></g><g transform="translate(1779.053 29.555)"><g transform="matrix(-1, 0, 0, -1, 162, 1108)" filter="url(#c)"><path d="M581.775,890.745H524.1c9.316-69.073,11.522-138.479,0-208.284h57.671C567.489,749.785,569.991,819.612,581.775,890.745Z" transform="translate(617.78 1354.28) rotate(180)" fill="#56a851"/></g><g transform="matrix(-1, 0, 0, -1, 162, 1108)" filter="url(#e)"><path d="M581.775,758.681H524.1c9.316-69.073,11.522-138.479,0-208.284h57.671C567.489,617.721,569.991,687.547,581.775,758.681Z" transform="translate(617.78 1440.31) rotate(180)" fill="#56a851"/></g><g transform="matrix(-1, 0, 0, -1, 162, 1108)" filter="url(#g)"><path d="M581.775,626.617H524.1c9.316-69.073,11.522-138.479,0-208.284h57.671C567.489,485.657,569.991,555.484,581.775,626.617Z" transform="translate(617.78 1526.33) rotate(180)" fill="#56a851"/></g><g transform="matrix(-1, 0, 0, -1, 162, 1108)" filter="url(#i)"><path d="M581.775,1022.809H524.1c9.316-69.074,11.522-138.479,0-208.284h57.671C567.489,881.849,569.991,951.675,581.775,1022.809Z" transform="translate(617.78 1268.26) rotate(180)" fill="#529f4f"/></g><path d="M510.667,816.732c-15.653,2.8-44.181,9.995-73.963,21.31l29.219-3.946A117.279,117.279,0,0,0,506,819.481Z" transform="translate(-436.704 -158.055)" fill="#7cdb79"/><path d="M497.755,802.52c-10.113-7.044-29.692-18.735-52.215-28.857l18.177,13.851a90.888,90.888,0,0,0,29.976,13.956Z" transform="translate(-421.77 -145.417)" fill="#7cdb79"/></g></g></svg>