<svg xmlns="http://www.w3.org/2000/svg" width="165" height="165" viewBox="0 0 165 165"><g transform="translate(-268.644 -292.24)"><path d="M332.89,311.084c-13.344,4.935-25.773,15.72-31.348,24.951l46.154-.091-.076-43.7c-32.643,3.764-59.787,28.44-69.109,58.052h74.577v-9.048l-60.046.274c10.047-18.222,24.689-31.249,45.514-37.288v22.3l-12.978-.091,7.22-4.935Z" transform="translate(-6.302)" fill="#da3134"/><path d="M531.461,311.084c13.344,4.935,25.773,15.72,31.348,24.951l-46.154-.091.076-43.7c32.643,3.764,59.787,28.44,69.109,58.052H511.263v-9.048l60.046.274c-10.047-18.222-24.689-31.249-45.514-37.288v22.3l12.978-.091-7.22-4.935Z" transform="translate(-155.431)" fill="#da3134"/><path d="M332.89,629.473c-13.344-4.935-25.773-15.72-31.348-24.951l46.154.091-.076,43.7c-32.643-3.764-59.787-28.44-69.109-58.051h74.577v9.048l-60.046-.274c10.047,18.222,24.689,31.249,45.514,37.289v-22.3l-12.978.091,7.22,4.935Z" transform="translate(-6.302 -191.076)" fill="#da3134"/><path d="M531.461,627.449c13.344-4.935,25.773-15.72,31.348-24.951l-46.154.091.076,43.7c32.643-3.763,59.787-28.44,69.109-58.051H511.263v9.048l60.046-.274c-10.047,18.222-24.689,31.249-45.514,37.289V612l12.978.091-7.22,4.935Z" transform="translate(-155.431 -189.784)" fill="#da3134"/><path d="M431.239,356.141l-75.191-.731V292.24h-9.479v63.535H270.832a84.5,84.5,0,0,0,0,38.2H431.6C434.064,381,434.7,368.845,431.239,356.141ZM422.307,384.7H279.171a58.973,58.973,0,0,1,0-19.6H422.307A58.968,58.968,0,0,1,422.307,384.7Z" transform="translate(0)" fill="#da3134"/><rect width="135.536" height="10.602" transform="translate(283.267 369.857)" fill="#da3134"/><rect width="9.505" height="63.245" transform="translate(346.556 393.264)" fill="#da3134"/></g></svg>