<svg xmlns="http://www.w3.org/2000/svg" xmlns:xlink="http://www.w3.org/1999/xlink" width="417.285" height="370.742" viewBox="0 0 417.285 370.742"><defs><filter id="a" x="48.269" y="0" width="274.361" height="274.361" filterUnits="userSpaceOnUse"><feOffset dy="-8" input="SourceAlpha"/><feGaussianBlur stdDeviation="12" result="b"/><feFlood flood-opacity="0.188"/><feComposite operator="in" in2="b"/><feComposite in="SourceGraphic"/></filter><filter id="c" x="0" y="96.381" width="274.361" height="274.361" filterUnits="userSpaceOnUse"><feOffset dy="-8" input="SourceAlpha"/><feGaussianBlur stdDeviation="12" result="d"/><feFlood flood-opacity="0.161"/><feComposite operator="in" in2="d"/><feComposite in="SourceGraphic"/></filter><filter id="e" x="145.237" y="80.868" width="272.048" height="272.048" filterUnits="userSpaceOnUse"><feOffset dx="-8" dy="-8" input="SourceAlpha"/><feGaussianBlur stdDeviation="12" result="f"/><feFlood flood-opacity="0.161"/><feComposite operator="in" in2="f"/><feComposite in="SourceGraphic"/></filter></defs><g transform="translate(90.515 -797.658)"><g transform="translate(-11.138 928.157) rotate(-40)"><g transform="matrix(0.77, 0.64, -0.64, 0.77, 23.08, -150.99)" filter="url(#a)"><path d="M71.819,143.637a71.483,71.483,0,0,1-40.154-12.266,72.027,72.027,0,0,1-26.02-31.6,71.724,71.724,0,0,1,6.622-68.109,72.029,72.029,0,0,1,31.6-26.02,71.724,71.724,0,0,1,68.109,6.622,72.029,72.029,0,0,1,26.02,31.6,71.723,71.723,0,0,1-6.622,68.109,72.028,72.028,0,0,1-31.6,26.02A71.368,71.368,0,0,1,71.819,143.637ZM49.465,41.855V86.563H94.173V41.855Z" transform="translate(84.27 136.33) rotate(-40)" fill="#e9c285"/></g><path d="M71.819,143.637a71.483,71.483,0,0,1-40.154-12.266,72.027,72.027,0,0,1-26.02-31.6,71.724,71.724,0,0,1,6.622-68.109,72.029,72.029,0,0,1,31.6-26.02,71.724,71.724,0,0,1,68.109,6.622,72.029,72.029,0,0,1,26.02,31.6,71.723,71.723,0,0,1-6.622,68.109,72.028,72.028,0,0,1-31.6,26.02A71.368,71.368,0,0,1,71.819,143.637ZM49.465,49.465V94.173H94.173V49.465Z" transform="translate(0 0)" fill="#d4a864"/></g><g transform="translate(-59.407 1024.538) rotate(-40)"><g transform="matrix(0.77, 0.64, -0.64, 0.77, 122.01, -193.8)" filter="url(#c)"><path d="M71.819,143.637a71.483,71.483,0,0,1-40.154-12.266,72.027,72.027,0,0,1-26.02-31.6,71.724,71.724,0,0,1,6.622-68.109,72.029,72.029,0,0,1,31.6-26.02,71.724,71.724,0,0,1,68.109,6.622,72.029,72.029,0,0,1,26.02,31.6,71.723,71.723,0,0,1-6.622,68.109,72.028,72.028,0,0,1-31.6,26.02A71.368,71.368,0,0,1,71.819,143.637ZM49.465,41.855V86.563H94.173V41.855Z" transform="translate(36 232.71) rotate(-40)" fill="#e9c285"/></g><path d="M71.819,143.637a71.483,71.483,0,0,1-40.154-12.266,72.027,72.027,0,0,1-26.02-31.6,71.724,71.724,0,0,1,6.622-68.109,72.029,72.029,0,0,1,31.6-26.02,71.724,71.724,0,0,1,68.109,6.622,72.029,72.029,0,0,1,26.02,31.6,71.723,71.723,0,0,1-6.622,68.109,72.028,72.028,0,0,1-31.6,26.02A71.368,71.368,0,0,1,71.819,143.637ZM49.465,49.465V94.173H94.173V49.465Z" transform="translate(0 0)" fill="#d4a864"/></g><g transform="matrix(0.574, -0.819, 0.819, 0.574, 92.488, 1035.822)"><g transform="matrix(0.57, 0.82, -0.82, 0.57, 90.13, -286.51)" filter="url(#e)"><path d="M71.819,143.637a71.483,71.483,0,0,1-40.154-12.266,72.027,72.027,0,0,1-26.02-31.6,71.724,71.724,0,0,1,6.622-68.109,72.029,72.029,0,0,1,31.6-26.02,71.724,71.724,0,0,1,68.109,6.622,72.029,72.029,0,0,1,26.02,31.6,71.723,71.723,0,0,1-6.622,68.109,72.028,72.028,0,0,1-31.6,26.02A71.368,71.368,0,0,1,71.819,143.637ZM49.465,41.855V86.563H94.173V41.855Z" transform="matrix(0.57, -0.82, 0.82, 0.57, 189.24, 242.53)" fill="#e9c285"/></g><path d="M71.819,143.637a71.483,71.483,0,0,1-40.154-12.266,72.027,72.027,0,0,1-26.02-31.6,71.724,71.724,0,0,1,6.622-68.109,72.029,72.029,0,0,1,31.6-26.02,71.724,71.724,0,0,1,68.109,6.622,72.029,72.029,0,0,1,26.02,31.6,71.723,71.723,0,0,1-6.622,68.109,72.028,72.028,0,0,1-31.6,26.02A71.368,71.368,0,0,1,71.819,143.637ZM49.465,49.465V94.173H94.173V49.465Z" transform="translate(0 0)" fill="#d4a864"/></g></g></svg>