<?xml version="1.0" encoding="UTF-8"?><svg id="Camada_2" xmlns="http://www.w3.org/2000/svg" viewBox="0 0 541.37 541.37"><g id="start"><circle cx="270.68" cy="270.68" r="268.68" style="fill:none; stroke:#00808b; stroke-miterlimit:10; stroke-width:4px;"/><circle cx="270.68" cy="270.68" r="260.88" style="fill:#00808b;"/><circle cx="270.01" cy="270.69" r="171.74" style="fill:#e6a55f;"/><circle cx="270.01" cy="270.69" r="166.36" style="fill:#f1e0c3;"/><path d="M515.07,300.55c2.84-3.06,4.98-6.78,6.82-10.78v-13.22h-.95v-4.97h-.95v-2.05h-1.12v-1.97h-.98v-2.04h-1v-1.98h-1v-.99h-.99v-1h-1.02v-1.03h-1v-.99h-1.01v-1h-1v-1h-2v-1h-2.01v-1h-1.97v-1h-8.03v-.98h-15.03v.98h-8v1.02h-1.95v1h-2.02v1h-1.98v1h-1v1.01h-1v.99h-1v1.01h-1v1h-1v1h-1v2h-1.01v2h-.99v2h-1v1.99h-1.01v5h-.99v13.88c1.89,3.99,4.05,7.35,6.47,10.08h7.51v-1h.97v-1.98h2.03v-1.02h1v-8.97h1.03v1.02h.98v.97h1v1.02h2v.99h4.99v1.01h9v-1.04h4.99v-.96h2v-1.03h.99v-.99h1.03v-1h1v9h1v.99h2.01s.03,2,.03,2h.99v1.02h7.17" style="fill:#ffecd9;"/><path d="M80.65,300.55c2.84-3.06,4.98-6.78,6.82-10.78v-13.22h-.95v-4.97h-.95v-2.05h-1.12v-1.97h-.98v-2.04h-1v-1.98h-1v-.99h-.99v-1h-1.02v-1.03h-1v-.99h-1.01v-1h-1v-1h-2v-1h-2.01v-1h-1.97v-1h-8.03v-.98h-15.03v.98h-8v1.02h-1.95v1h-2.02v1h-1.98v1h-1v1.01h-1v.99h-1v1.01h-1v1h-1v1h-1v2h-1.01v2h-.99v2h-1v1.99h-1.01v5h-.99v13.88c1.89,3.99,4.05,7.35,6.47,10.08h7.51v-1h.97v-1.98h2.03v-1.02h1v-8.97h1.03v1.02h.98v.97h1v1.02h2v.99h4.99v1.01h9v-1.04h4.99v-.96h2v-1.03h.99v-.99h1.03v-1h1v9h1v.99h2.01s.03,2,.03,2h.99v1.02h7.17" style="fill:#ffecd9;"/><text transform="translate(103.38 181.07) rotate(-51.21)" style="fill:#ffecd9; font-family:Salden-Black, Salden; font-size:80.47px;"><tspan x="0" y="0">D</tspan></text><text transform="translate(141.54 136.38) rotate(-37.66)" style="fill:#ffecd9; font-family:Salden-Black, Salden; font-size:80.47px;"><tspan x="0" y="0">I</tspan></text><text transform="translate(165.82 115.62) rotate(-23.73)" style="fill:#ffecd9; font-family:Salden-Black, Salden; font-size:80.47px;"><tspan x="0" y="0">G</tspan></text><text transform="translate(221.94 93.04) rotate(-9.68)" style="fill:#ffecd9; font-family:Salden-Black, Salden; font-size:80.47px;"><tspan x="0" y="0">I</tspan></text><text transform="translate(253.01 86.63) rotate(3.08)" style="fill:#ffecd9; font-family:Salden-Black, Salden; font-size:80.47px;"><tspan x="0" y="0">P</tspan></text><text transform="translate(307.42 90.03) rotate(18.93)" style="fill:#ffecd9; font-family:Salden-Black, Salden; font-size:80.47px;"><tspan x="0" y="0">E</tspan></text><text transform="translate(355.53 105.9) rotate(35.97)" style="fill:#ffecd9; font-family:Salden-Black, Salden; font-size:80.47px;"><tspan x="0" y="0">K</tspan></text><text transform="translate(405.46 143.22) rotate(53.37)" style="fill:#ffecd9; font-family:Salden-Black, Salden; font-size:80.47px;"><tspan x="0" y="0">S</tspan></text><text transform="translate(128.95 465.09) rotate(29.83)" style="fill:#ffecd9; font-family:Salden-Black, Salden; font-size:80.47px;"><tspan x="0" y="0">A</tspan></text><text transform="translate(199.03 501.76) rotate(10.89)" style="fill:#ffecd9; font-family:Salden-Black, Salden; font-size:80.47px;"><tspan x="0" y="0">R</tspan></text><text transform="translate(274.01 515.59) rotate(-11.21)" style="fill:#ffecd9; font-family:Salden-Black, Salden; font-size:80.47px;"><tspan x="0" y="0">M</tspan></text><text transform="translate(373.38 490.22) rotate(-32.9)" style="fill:#ffecd9; font-family:Salden-Black, Salden; font-size:80.47px;"><tspan x="0" y="0">Y</tspan></text><g><path d="M188.84,216.15c-11.25,0-20.37-9.12-20.37-20.37,0-4.07,1.21-7.85,3.26-11.03-.64-.04-1.28-.1-1.93-.1-17.4,0-31.5,14.1-31.5,31.5s14.1,31.5,31.5,31.5,31.5-14.1,31.5-31.5c0-1.38-.12-2.73-.29-4.06-3.4,2.54-7.6,4.06-12.17,4.06Z" style="fill:#3e3c35;"/><path d="M390.61,216.15c-11.25,0-20.37-9.12-20.37-20.37,0-4.07,1.21-7.85,3.26-11.03-.64-.04-1.28-.1-1.93-.1-17.4,0-31.5,14.1-31.5,31.5s14.1,31.5,31.5,31.5,31.5-14.1,31.5-31.5c0-1.38-.12-2.73-.29-4.06-3.4,2.54-7.6,4.06-12.17,4.06Z" style="fill:#3e3c35;"/></g><g><g><path d="M367.9,299.5c6.2,10.77,6.98,17.03,.86,31.97-11.31,25.37-26.18,39.07-54.15,53.66-21.4,9.79-58.07,10.45-83.42,0-28.6-10.67-52.92-40.06-61.56-59.78-4.59-13.31,4.55-24.7,13.39-35.38l39.96-39.96c7.02-7.02,16.54-10.97,26.47-10.97h45.86c7.65,0,14.99,3.03,20.41,8.44l52.17,52.01Z" style="fill:#625d50;"/><path d="M177.98,339.31c43.11,56.59,132.72,65.24,178.08,7.07,6.23-7.67,11.44-16.21,16.12-25.14-3.04,9.6-7.4,18.85-12.94,27.44-42.44,66.11-144.42,57.39-181.26-9.38h0Z" style="fill:#3e3c35;"/></g><g><path d="M271.06,357.81h0c-9.47,0-17.15-7.68-17.15-17.15v-21.57c7.82-11.64,13.81-22.34,17.15-34.42,4.84,15.06,10.14,26.19,17.15,33.94v22.05c0,9.47-7.68,17.15-17.15,17.15Z" style="fill:#df287a;"/><line x1="271.06" y1="296.94" x2="271.06" y2="335.89" style="fill:none; stroke:#8a0d56; stroke-linecap:round; stroke-miterlimit:10; stroke-width:8px;"/></g><g><path d="M196.52,311.63c50.47,60.27,74.17-28.11,74.17-28.11" style="fill:none; stroke:#3e3c35; stroke-linecap:round; stroke-miterlimit:10; stroke-width:8px;"/><path d="M345.23,311.63c-50.47,60.27-74.17-28.11-74.17-28.11" style="fill:none; stroke:#3e3c35; stroke-linecap:round; stroke-miterlimit:10; stroke-width:8px;"/></g><path d="M278.65,284.96l22.52-41.53c3.27-6.04-1.1-13.38-7.97-13.38h-45.03c-6.87,0-11.24,7.34-7.97,13.38l22.52,41.53c3.43,6.33,12.51,6.33,15.94,0Z"/></g></g></svg>