<svg xmlns="http://www.w3.org/2000/svg" xmlns:xlink="http://www.w3.org/1999/xlink" width="1920" height="1080" viewBox="0 0 1920 1080"><defs><clipPath id="a"><rect width="1920" height="1080" fill="none"/></clipPath><linearGradient id="b" x2="0.592" y2="0.677" gradientUnits="objectBoundingBox"><stop offset="0" stop-color="#f7b927"/><stop offset="0.36" stop-color="#f7c627"/><stop offset="1" stop-color="#f7e227"/></linearGradient></defs><g opacity="0.3" clip-path="url(#a)"><g transform="translate(0 -32)"><g transform="translate(-511.666 -634)"><g transform="translate(1536.278 486.667) rotate(90)"><g transform="translate(179.333 756.444)"><path d="M199.647,1008.278H194.27V969.741H179.333V914.774h67.514V831.128H179.333V756.444h72.891v69.307h82.451V756.444H392.63v15.534H430.57v5.377H392.63v23.3H351.4V771.979h35.848V761.822h-47.2v69.307H252.225v89.023H184.711v44.213h9.56V928.516h29.874v41.225h-24.5Zm0-43.914h19.119V933.893H199.647ZM184.711,825.751h62.137V761.822H184.711ZM356.782,795.28h30.471V777.356H356.782Z" transform="translate(-179.333 -756.444)" fill="url(#b)"/><path d="M238.682,904.418H179.333V844.87h87.828V756.444h58.851v59.448H281.5V770.784h30.77v23.9h-5.377V776.161H286.878v34.355h33.757V761.822h-48.1v88.426H184.711v48.794H233.3V864.587H200.046V883.9h19.219v5.377h-24.6V859.209h44.014Z" transform="translate(-179.333 -756.444)" fill="url(#b)"/><path d="M-1-1H45.005V45.005H-1ZM39.628,4.377H4.377V39.628H39.628Z" transform="translate(14.344 14.543)" fill="url(#b)"/><path d="M-1-1H24.691V20.21H-1ZM19.314,4.377H4.377V14.833H19.314Z" transform="translate(68.415 89.774)" fill="url(#b)"/><path d="M-1-1H24.691V20.21H-1ZM19.314,4.377H4.377V14.833H19.314Z" transform="translate(68.527 89.774)" fill="url(#b)"/><path d="M0,0H25.691V21.21H0ZM20.314,5.377H5.377V15.833H20.314Z" transform="translate(109.051 69.058) rotate(90)" fill="url(#b)"/></g></g><g transform="translate(-244.778 1113.354) rotate(-90)"><g transform="translate(179.333 756.444)"><path d="M199.647,1008.278H194.27V969.741H179.333V914.774h67.514V831.128H179.333V756.444h72.891v69.307h82.451V756.444H392.63v15.534H430.57v5.377H392.63v23.3H351.4V771.979h35.848V761.822h-47.2v69.307H252.225v89.023H184.711v44.213h9.56V928.516h29.874v41.225h-24.5Zm0-43.914h19.119V933.893H199.647ZM184.711,825.751h62.137V761.822H184.711ZM356.782,795.28h30.471V777.356H356.782Z" transform="translate(-179.333 -756.444)" fill="url(#b)"/><path d="M238.682,904.418H179.333V844.87h87.828V756.444h58.851v59.448H281.5V770.784h30.77v23.9h-5.377V776.161H286.878v34.355h33.757V761.822h-48.1v88.426H184.711v48.794H233.3V864.587H200.046V883.9h19.219v5.377h-24.6V859.209h44.014Z" transform="translate(-179.333 -756.444)" fill="url(#b)"/><path d="M-1-1H45.005V45.005H-1ZM39.628,4.377H4.377V39.628H39.628Z" transform="translate(14.344 14.543)" fill="url(#b)"/><path d="M-1-1H24.691V20.21H-1ZM19.314,4.377H4.377V14.833H19.314Z" transform="translate(68.415 89.774)" fill="url(#b)"/><path d="M-1-1H24.691V20.21H-1ZM19.314,4.377H4.377V14.833H19.314Z" transform="translate(68.527 89.774)" fill="url(#b)"/><path d="M0,0H25.691V21.21H0ZM20.314,5.377H5.377V15.833H20.314Z" transform="translate(109.051 69.058) rotate(90)" fill="url(#b)"/></g></g></g></g><g transform="translate(289 -32)"><g transform="translate(-511.666 -634)"><g transform="translate(1536.278 486.667) rotate(90)"><g transform="translate(179.333 756.444)"><path d="M199.647,1008.278H194.27V969.741H179.333V914.774h67.514V831.128H179.333V756.444h72.891v69.307h82.451V756.444H392.63v15.534H430.57v5.377H392.63v23.3H351.4V771.979h35.848V761.822h-47.2v69.307H252.225v89.023H184.711v44.213h9.56V928.516h29.874v41.225h-24.5Zm0-43.914h19.119V933.893H199.647ZM184.711,825.751h62.137V761.822H184.711ZM356.782,795.28h30.471V777.356H356.782Z" transform="translate(-179.333 -756.444)" fill="url(#b)"/><path d="M238.682,904.418H179.333V844.87h87.828V756.444h58.851v59.448H281.5V770.784h30.77v23.9h-5.377V776.161H286.878v34.355h33.757V761.822h-48.1v88.426H184.711v48.794H233.3V864.587H200.046V883.9h19.219v5.377h-24.6V859.209h44.014Z" transform="translate(-179.333 -756.444)" fill="url(#b)"/><path d="M-1-1H45.005V45.005H-1ZM39.628,4.377H4.377V39.628H39.628Z" transform="translate(14.344 14.543)" fill="url(#b)"/><path d="M-1-1H24.691V20.21H-1ZM19.314,4.377H4.377V14.833H19.314Z" transform="translate(68.415 89.774)" fill="url(#b)"/><path d="M-1-1H24.691V20.21H-1ZM19.314,4.377H4.377V14.833H19.314Z" transform="translate(68.527 89.774)" fill="url(#b)"/><path d="M0,0H25.691V21.21H0ZM20.314,5.377H5.377V15.833H20.314Z" transform="translate(109.051 69.058) rotate(90)" fill="url(#b)"/></g></g><g transform="translate(-244.778 1113.354) rotate(-90)"><g transform="translate(179.333 756.444)"><path d="M199.647,1008.278H194.27V969.741H179.333V914.774h67.514V831.128H179.333V756.444h72.891v69.307h82.451V756.444H392.63v15.534H430.57v5.377H392.63v23.3H351.4V771.979h35.848V761.822h-47.2v69.307H252.225v89.023H184.711v44.213h9.56V928.516h29.874v41.225h-24.5Zm0-43.914h19.119V933.893H199.647ZM184.711,825.751h62.137V761.822H184.711ZM356.782,795.28h30.471V777.356H356.782Z" transform="translate(-179.333 -756.444)" fill="url(#b)"/><path d="M238.682,904.418H179.333V844.87h87.828V756.444h58.851v59.448H281.5V770.784h30.77v23.9h-5.377V776.161H286.878v34.355h33.757V761.822h-48.1v88.426H184.711v48.794H233.3V864.587H200.046V883.9h19.219v5.377h-24.6V859.209h44.014Z" transform="translate(-179.333 -756.444)" fill="url(#b)"/><path d="M-1-1H45.005V45.005H-1ZM39.628,4.377H4.377V39.628H39.628Z" transform="translate(14.344 14.543)" fill="url(#b)"/><path d="M-1-1H24.691V20.21H-1ZM19.314,4.377H4.377V14.833H19.314Z" transform="translate(68.415 89.774)" fill="url(#b)"/><path d="M-1-1H24.691V20.21H-1ZM19.314,4.377H4.377V14.833H19.314Z" transform="translate(68.527 89.774)" fill="url(#b)"/><path d="M0,0H25.691V21.21H0ZM20.314,5.377H5.377V15.833H20.314Z" transform="translate(109.051 69.058) rotate(90)" fill="url(#b)"/></g></g></g></g><g transform="translate(578 -32)"><g transform="translate(-511.666 -634)"><g transform="translate(1536.278 486.667) rotate(90)"><g transform="translate(179.333 756.444)"><path d="M199.647,1008.278H194.27V969.741H179.333V914.774h67.514V831.128H179.333V756.444h72.891v69.307h82.451V756.444H392.63v15.534H430.57v5.377H392.63v23.3H351.4V771.979h35.848V761.822h-47.2v69.307H252.225v89.023H184.711v44.213h9.56V928.516h29.874v41.225h-24.5Zm0-43.914h19.119V933.893H199.647ZM184.711,825.751h62.137V761.822H184.711ZM356.782,795.28h30.471V777.356H356.782Z" transform="translate(-179.333 -756.444)" fill="url(#b)"/><path d="M238.682,904.418H179.333V844.87h87.828V756.444h58.851v59.448H281.5V770.784h30.77v23.9h-5.377V776.161H286.878v34.355h33.757V761.822h-48.1v88.426H184.711v48.794H233.3V864.587H200.046V883.9h19.219v5.377h-24.6V859.209h44.014Z" transform="translate(-179.333 -756.444)" fill="url(#b)"/><path d="M-1-1H45.005V45.005H-1ZM39.628,4.377H4.377V39.628H39.628Z" transform="translate(14.344 14.543)" fill="url(#b)"/><path d="M-1-1H24.691V20.21H-1ZM19.314,4.377H4.377V14.833H19.314Z" transform="translate(68.415 89.774)" fill="url(#b)"/><path d="M-1-1H24.691V20.21H-1ZM19.314,4.377H4.377V14.833H19.314Z" transform="translate(68.527 89.774)" fill="url(#b)"/><path d="M0,0H25.691V21.21H0ZM20.314,5.377H5.377V15.833H20.314Z" transform="translate(109.051 69.058) rotate(90)" fill="url(#b)"/></g></g><g transform="translate(-244.778 1113.354) rotate(-90)"><g transform="translate(179.333 756.444)"><path d="M199.647,1008.278H194.27V969.741H179.333V914.774h67.514V831.128H179.333V756.444h72.891v69.307h82.451V756.444H392.63v15.534H430.57v5.377H392.63v23.3H351.4V771.979h35.848V761.822h-47.2v69.307H252.225v89.023H184.711v44.213h9.56V928.516h29.874v41.225h-24.5Zm0-43.914h19.119V933.893H199.647ZM184.711,825.751h62.137V761.822H184.711ZM356.782,795.28h30.471V777.356H356.782Z" transform="translate(-179.333 -756.444)" fill="url(#b)"/><path d="M238.682,904.418H179.333V844.87h87.828V756.444h58.851v59.448H281.5V770.784h30.77v23.9h-5.377V776.161H286.878v34.355h33.757V761.822h-48.1v88.426H184.711v48.794H233.3V864.587H200.046V883.9h19.219v5.377h-24.6V859.209h44.014Z" transform="translate(-179.333 -756.444)" fill="url(#b)"/><path d="M-1-1H45.005V45.005H-1ZM39.628,4.377H4.377V39.628H39.628Z" transform="translate(14.344 14.543)" fill="url(#b)"/><path d="M-1-1H24.691V20.21H-1ZM19.314,4.377H4.377V14.833H19.314Z" transform="translate(68.415 89.774)" fill="url(#b)"/><path d="M-1-1H24.691V20.21H-1ZM19.314,4.377H4.377V14.833H19.314Z" transform="translate(68.527 89.774)" fill="url(#b)"/><path d="M0,0H25.691V21.21H0ZM20.314,5.377H5.377V15.833H20.314Z" transform="translate(109.051 69.058) rotate(90)" fill="url(#b)"/></g></g></g></g><g transform="translate(867 -32)"><g transform="translate(-511.666 -634)"><g transform="translate(1536.278 486.667) rotate(90)"><g transform="translate(179.333 756.444)"><path d="M199.647,1008.278H194.27V969.741H179.333V914.774h67.514V831.128H179.333V756.444h72.891v69.307h82.451V756.444H392.63v15.534H430.57v5.377H392.63v23.3H351.4V771.979h35.848V761.822h-47.2v69.307H252.225v89.023H184.711v44.213h9.56V928.516h29.874v41.225h-24.5Zm0-43.914h19.119V933.893H199.647ZM184.711,825.751h62.137V761.822H184.711ZM356.782,795.28h30.471V777.356H356.782Z" transform="translate(-179.333 -756.444)" fill="url(#b)"/><path d="M238.682,904.418H179.333V844.87h87.828V756.444h58.851v59.448H281.5V770.784h30.77v23.9h-5.377V776.161H286.878v34.355h33.757V761.822h-48.1v88.426H184.711v48.794H233.3V864.587H200.046V883.9h19.219v5.377h-24.6V859.209h44.014Z" transform="translate(-179.333 -756.444)" fill="url(#b)"/><path d="M-1-1H45.005V45.005H-1ZM39.628,4.377H4.377V39.628H39.628Z" transform="translate(14.344 14.543)" fill="url(#b)"/><path d="M-1-1H24.691V20.21H-1ZM19.314,4.377H4.377V14.833H19.314Z" transform="translate(68.415 89.774)" fill="url(#b)"/><path d="M-1-1H24.691V20.21H-1ZM19.314,4.377H4.377V14.833H19.314Z" transform="translate(68.527 89.774)" fill="url(#b)"/><path d="M0,0H25.691V21.21H0ZM20.314,5.377H5.377V15.833H20.314Z" transform="translate(109.051 69.058) rotate(90)" fill="url(#b)"/></g></g><g transform="translate(-244.778 1113.354) rotate(-90)"><g transform="translate(179.333 756.444)"><path d="M199.647,1008.278H194.27V969.741H179.333V914.774h67.514V831.128H179.333V756.444h72.891v69.307h82.451V756.444H392.63v15.534H430.57v5.377H392.63v23.3H351.4V771.979h35.848V761.822h-47.2v69.307H252.225v89.023H184.711v44.213h9.56V928.516h29.874v41.225h-24.5Zm0-43.914h19.119V933.893H199.647ZM184.711,825.751h62.137V761.822H184.711ZM356.782,795.28h30.471V777.356H356.782Z" transform="translate(-179.333 -756.444)" fill="url(#b)"/><path d="M238.682,904.418H179.333V844.87h87.828V756.444h58.851v59.448H281.5V770.784h30.77v23.9h-5.377V776.161H286.878v34.355h33.757V761.822h-48.1v88.426H184.711v48.794H233.3V864.587H200.046V883.9h19.219v5.377h-24.6V859.209h44.014Z" transform="translate(-179.333 -756.444)" fill="url(#b)"/><path d="M-1-1H45.005V45.005H-1ZM39.628,4.377H4.377V39.628H39.628Z" transform="translate(14.344 14.543)" fill="url(#b)"/><path d="M-1-1H24.691V20.21H-1ZM19.314,4.377H4.377V14.833H19.314Z" transform="translate(68.415 89.774)" fill="url(#b)"/><path d="M-1-1H24.691V20.21H-1ZM19.314,4.377H4.377V14.833H19.314Z" transform="translate(68.527 89.774)" fill="url(#b)"/><path d="M0,0H25.691V21.21H0ZM20.314,5.377H5.377V15.833H20.314Z" transform="translate(109.051 69.058) rotate(90)" fill="url(#b)"/></g></g></g></g><g transform="translate(1156 -32)"><g transform="translate(-511.666 -634)"><g transform="translate(1536.278 486.667) rotate(90)"><g transform="translate(179.333 756.444)"><path d="M199.647,1008.278H194.27V969.741H179.333V914.774h67.514V831.128H179.333V756.444h72.891v69.307h82.451V756.444H392.63v15.534H430.57v5.377H392.63v23.3H351.4V771.979h35.848V761.822h-47.2v69.307H252.225v89.023H184.711v44.213h9.56V928.516h29.874v41.225h-24.5Zm0-43.914h19.119V933.893H199.647ZM184.711,825.751h62.137V761.822H184.711ZM356.782,795.28h30.471V777.356H356.782Z" transform="translate(-179.333 -756.444)" fill="url(#b)"/><path d="M238.682,904.418H179.333V844.87h87.828V756.444h58.851v59.448H281.5V770.784h30.77v23.9h-5.377V776.161H286.878v34.355h33.757V761.822h-48.1v88.426H184.711v48.794H233.3V864.587H200.046V883.9h19.219v5.377h-24.6V859.209h44.014Z" transform="translate(-179.333 -756.444)" fill="url(#b)"/><path d="M-1-1H45.005V45.005H-1ZM39.628,4.377H4.377V39.628H39.628Z" transform="translate(14.344 14.543)" fill="url(#b)"/><path d="M-1-1H24.691V20.21H-1ZM19.314,4.377H4.377V14.833H19.314Z" transform="translate(68.415 89.774)" fill="url(#b)"/><path d="M-1-1H24.691V20.21H-1ZM19.314,4.377H4.377V14.833H19.314Z" transform="translate(68.527 89.774)" fill="url(#b)"/><path d="M0,0H25.691V21.21H0ZM20.314,5.377H5.377V15.833H20.314Z" transform="translate(109.051 69.058) rotate(90)" fill="url(#b)"/></g></g><g transform="translate(-244.778 1113.354) rotate(-90)"><g transform="translate(179.333 756.444)"><path d="M199.647,1008.278H194.27V969.741H179.333V914.774h67.514V831.128H179.333V756.444h72.891v69.307h82.451V756.444H392.63v15.534H430.57v5.377H392.63v23.3H351.4V771.979h35.848V761.822h-47.2v69.307H252.225v89.023H184.711v44.213h9.56V928.516h29.874v41.225h-24.5Zm0-43.914h19.119V933.893H199.647ZM184.711,825.751h62.137V761.822H184.711ZM356.782,795.28h30.471V777.356H356.782Z" transform="translate(-179.333 -756.444)" fill="url(#b)"/><path d="M238.682,904.418H179.333V844.87h87.828V756.444h58.851v59.448H281.5V770.784h30.77v23.9h-5.377V776.161H286.878v34.355h33.757V761.822h-48.1v88.426H184.711v48.794H233.3V864.587H200.046V883.9h19.219v5.377h-24.6V859.209h44.014Z" transform="translate(-179.333 -756.444)" fill="url(#b)"/><path d="M-1-1H45.005V45.005H-1ZM39.628,4.377H4.377V39.628H39.628Z" transform="translate(14.344 14.543)" fill="url(#b)"/><path d="M-1-1H24.691V20.21H-1ZM19.314,4.377H4.377V14.833H19.314Z" transform="translate(68.415 89.774)" fill="url(#b)"/><path d="M-1-1H24.691V20.21H-1ZM19.314,4.377H4.377V14.833H19.314Z" transform="translate(68.527 89.774)" fill="url(#b)"/><path d="M0,0H25.691V21.21H0ZM20.314,5.377H5.377V15.833H20.314Z" transform="translate(109.051 69.058) rotate(90)" fill="url(#b)"/></g></g></g></g><g transform="translate(1445 -32)"><g transform="translate(-511.666 -634)"><g transform="translate(1536.278 486.667) rotate(90)"><g transform="translate(179.333 756.444)"><path d="M199.647,1008.278H194.27V969.741H179.333V914.774h67.514V831.128H179.333V756.444h72.891v69.307h82.451V756.444H392.63v15.534H430.57v5.377H392.63v23.3H351.4V771.979h35.848V761.822h-47.2v69.307H252.225v89.023H184.711v44.213h9.56V928.516h29.874v41.225h-24.5Zm0-43.914h19.119V933.893H199.647ZM184.711,825.751h62.137V761.822H184.711ZM356.782,795.28h30.471V777.356H356.782Z" transform="translate(-179.333 -756.444)" fill="url(#b)"/><path d="M238.682,904.418H179.333V844.87h87.828V756.444h58.851v59.448H281.5V770.784h30.77v23.9h-5.377V776.161H286.878v34.355h33.757V761.822h-48.1v88.426H184.711v48.794H233.3V864.587H200.046V883.9h19.219v5.377h-24.6V859.209h44.014Z" transform="translate(-179.333 -756.444)" fill="url(#b)"/><path d="M-1-1H45.005V45.005H-1ZM39.628,4.377H4.377V39.628H39.628Z" transform="translate(14.344 14.543)" fill="url(#b)"/><path d="M-1-1H24.691V20.21H-1ZM19.314,4.377H4.377V14.833H19.314Z" transform="translate(68.415 89.774)" fill="url(#b)"/><path d="M-1-1H24.691V20.21H-1ZM19.314,4.377H4.377V14.833H19.314Z" transform="translate(68.527 89.774)" fill="url(#b)"/><path d="M0,0H25.691V21.21H0ZM20.314,5.377H5.377V15.833H20.314Z" transform="translate(109.051 69.058) rotate(90)" fill="url(#b)"/></g></g><g transform="translate(-244.778 1113.354) rotate(-90)"><g transform="translate(179.333 756.444)"><path d="M199.647,1008.278H194.27V969.741H179.333V914.774h67.514V831.128H179.333V756.444h72.891v69.307h82.451V756.444H392.63v15.534H430.57v5.377H392.63v23.3H351.4V771.979h35.848V761.822h-47.2v69.307H252.225v89.023H184.711v44.213h9.56V928.516h29.874v41.225h-24.5Zm0-43.914h19.119V933.893H199.647ZM184.711,825.751h62.137V761.822H184.711ZM356.782,795.28h30.471V777.356H356.782Z" transform="translate(-179.333 -756.444)" fill="url(#b)"/><path d="M238.682,904.418H179.333V844.87h87.828V756.444h58.851v59.448H281.5V770.784h30.77v23.9h-5.377V776.161H286.878v34.355h33.757V761.822h-48.1v88.426H184.711v48.794H233.3V864.587H200.046V883.9h19.219v5.377h-24.6V859.209h44.014Z" transform="translate(-179.333 -756.444)" fill="url(#b)"/><path d="M-1-1H45.005V45.005H-1ZM39.628,4.377H4.377V39.628H39.628Z" transform="translate(14.344 14.543)" fill="url(#b)"/><path d="M-1-1H24.691V20.21H-1ZM19.314,4.377H4.377V14.833H19.314Z" transform="translate(68.415 89.774)" fill="url(#b)"/><path d="M-1-1H24.691V20.21H-1ZM19.314,4.377H4.377V14.833H19.314Z" transform="translate(68.527 89.774)" fill="url(#b)"/><path d="M0,0H25.691V21.21H0ZM20.314,5.377H5.377V15.833H20.314Z" transform="translate(109.051 69.058) rotate(90)" fill="url(#b)"/></g></g></g></g><g transform="translate(1734 -32)"><g transform="translate(-511.666 -634)"><g transform="translate(1536.278 486.667) rotate(90)"><g transform="translate(179.333 756.444)"><path d="M199.647,1008.278H194.27V969.741H179.333V914.774h67.514V831.128H179.333V756.444h72.891v69.307h82.451V756.444H392.63v15.534H430.57v5.377H392.63v23.3H351.4V771.979h35.848V761.822h-47.2v69.307H252.225v89.023H184.711v44.213h9.56V928.516h29.874v41.225h-24.5Zm0-43.914h19.119V933.893H199.647ZM184.711,825.751h62.137V761.822H184.711ZM356.782,795.28h30.471V777.356H356.782Z" transform="translate(-179.333 -756.444)" fill="url(#b)"/><path d="M238.682,904.418H179.333V844.87h87.828V756.444h58.851v59.448H281.5V770.784h30.77v23.9h-5.377V776.161H286.878v34.355h33.757V761.822h-48.1v88.426H184.711v48.794H233.3V864.587H200.046V883.9h19.219v5.377h-24.6V859.209h44.014Z" transform="translate(-179.333 -756.444)" fill="url(#b)"/><path d="M-1-1H45.005V45.005H-1ZM39.628,4.377H4.377V39.628H39.628Z" transform="translate(14.344 14.543)" fill="url(#b)"/><path d="M-1-1H24.691V20.21H-1ZM19.314,4.377H4.377V14.833H19.314Z" transform="translate(68.415 89.774)" fill="url(#b)"/><path d="M-1-1H24.691V20.21H-1ZM19.314,4.377H4.377V14.833H19.314Z" transform="translate(68.527 89.774)" fill="url(#b)"/><path d="M0,0H25.691V21.21H0ZM20.314,5.377H5.377V15.833H20.314Z" transform="translate(109.051 69.058) rotate(90)" fill="url(#b)"/></g></g><g transform="translate(-244.778 1113.354) rotate(-90)"><g transform="translate(179.333 756.444)"><path d="M199.647,1008.278H194.27V969.741H179.333V914.774h67.514V831.128H179.333V756.444h72.891v69.307h82.451V756.444H392.63v15.534H430.57v5.377H392.63v23.3H351.4V771.979h35.848V761.822h-47.2v69.307H252.225v89.023H184.711v44.213h9.56V928.516h29.874v41.225h-24.5Zm0-43.914h19.119V933.893H199.647ZM184.711,825.751h62.137V761.822H184.711ZM356.782,795.28h30.471V777.356H356.782Z" transform="translate(-179.333 -756.444)" fill="url(#b)"/><path d="M238.682,904.418H179.333V844.87h87.828V756.444h58.851v59.448H281.5V770.784h30.77v23.9h-5.377V776.161H286.878v34.355h33.757V761.822h-48.1v88.426H184.711v48.794H233.3V864.587H200.046V883.9h19.219v5.377h-24.6V859.209h44.014Z" transform="translate(-179.333 -756.444)" fill="url(#b)"/><path d="M-1-1H45.005V45.005H-1ZM39.628,4.377H4.377V39.628H39.628Z" transform="translate(14.344 14.543)" fill="url(#b)"/><path d="M-1-1H24.691V20.21H-1ZM19.314,4.377H4.377V14.833H19.314Z" transform="translate(68.415 89.774)" fill="url(#b)"/><path d="M-1-1H24.691V20.21H-1ZM19.314,4.377H4.377V14.833H19.314Z" transform="translate(68.527 89.774)" fill="url(#b)"/><path d="M0,0H25.691V21.21H0ZM20.314,5.377H5.377V15.833H20.314Z" transform="translate(109.051 69.058) rotate(90)" fill="url(#b)"/></g></g></g></g><g transform="translate(0 257)"><g transform="translate(-511.666 -634)"><g transform="translate(1536.278 486.667) rotate(90)"><g transform="translate(179.333 756.444)"><path d="M199.647,1008.278H194.27V969.741H179.333V914.774h67.514V831.128H179.333V756.444h72.891v69.307h82.451V756.444H392.63v15.534H430.57v5.377H392.63v23.3H351.4V771.979h35.848V761.822h-47.2v69.307H252.225v89.023H184.711v44.213h9.56V928.516h29.874v41.225h-24.5Zm0-43.914h19.119V933.893H199.647ZM184.711,825.751h62.137V761.822H184.711ZM356.782,795.28h30.471V777.356H356.782Z" transform="translate(-179.333 -756.444)" fill="url(#b)"/><path d="M238.682,904.418H179.333V844.87h87.828V756.444h58.851v59.448H281.5V770.784h30.77v23.9h-5.377V776.161H286.878v34.355h33.757V761.822h-48.1v88.426H184.711v48.794H233.3V864.587H200.046V883.9h19.219v5.377h-24.6V859.209h44.014Z" transform="translate(-179.333 -756.444)" fill="url(#b)"/><path d="M-1-1H45.005V45.005H-1ZM39.628,4.377H4.377V39.628H39.628Z" transform="translate(14.344 14.543)" fill="url(#b)"/><path d="M-1-1H24.691V20.21H-1ZM19.314,4.377H4.377V14.833H19.314Z" transform="translate(68.415 89.774)" fill="url(#b)"/><path d="M-1-1H24.691V20.21H-1ZM19.314,4.377H4.377V14.833H19.314Z" transform="translate(68.527 89.774)" fill="url(#b)"/><path d="M0,0H25.691V21.21H0ZM20.314,5.377H5.377V15.833H20.314Z" transform="translate(109.051 69.058) rotate(90)" fill="url(#b)"/></g></g><g transform="translate(-244.778 1113.354) rotate(-90)"><g transform="translate(179.333 756.444)"><path d="M199.647,1008.278H194.27V969.741H179.333V914.774h67.514V831.128H179.333V756.444h72.891v69.307h82.451V756.444H392.63v15.534H430.57v5.377H392.63v23.3H351.4V771.979h35.848V761.822h-47.2v69.307H252.225v89.023H184.711v44.213h9.56V928.516h29.874v41.225h-24.5Zm0-43.914h19.119V933.893H199.647ZM184.711,825.751h62.137V761.822H184.711ZM356.782,795.28h30.471V777.356H356.782Z" transform="translate(-179.333 -756.444)" fill="url(#b)"/><path d="M238.682,904.418H179.333V844.87h87.828V756.444h58.851v59.448H281.5V770.784h30.77v23.9h-5.377V776.161H286.878v34.355h33.757V761.822h-48.1v88.426H184.711v48.794H233.3V864.587H200.046V883.9h19.219v5.377h-24.6V859.209h44.014Z" transform="translate(-179.333 -756.444)" fill="url(#b)"/><path d="M-1-1H45.005V45.005H-1ZM39.628,4.377H4.377V39.628H39.628Z" transform="translate(14.344 14.543)" fill="url(#b)"/><path d="M-1-1H24.691V20.21H-1ZM19.314,4.377H4.377V14.833H19.314Z" transform="translate(68.415 89.774)" fill="url(#b)"/><path d="M-1-1H24.691V20.21H-1ZM19.314,4.377H4.377V14.833H19.314Z" transform="translate(68.527 89.774)" fill="url(#b)"/><path d="M0,0H25.691V21.21H0ZM20.314,5.377H5.377V15.833H20.314Z" transform="translate(109.051 69.058) rotate(90)" fill="url(#b)"/></g></g></g></g><g transform="translate(289 257)"><g transform="translate(-511.666 -634)"><g transform="translate(1536.278 486.667) rotate(90)"><g transform="translate(179.333 756.444)"><path d="M199.647,1008.278H194.27V969.741H179.333V914.774h67.514V831.128H179.333V756.444h72.891v69.307h82.451V756.444H392.63v15.534H430.57v5.377H392.63v23.3H351.4V771.979h35.848V761.822h-47.2v69.307H252.225v89.023H184.711v44.213h9.56V928.516h29.874v41.225h-24.5Zm0-43.914h19.119V933.893H199.647ZM184.711,825.751h62.137V761.822H184.711ZM356.782,795.28h30.471V777.356H356.782Z" transform="translate(-179.333 -756.444)" fill="url(#b)"/><path d="M238.682,904.418H179.333V844.87h87.828V756.444h58.851v59.448H281.5V770.784h30.77v23.9h-5.377V776.161H286.878v34.355h33.757V761.822h-48.1v88.426H184.711v48.794H233.3V864.587H200.046V883.9h19.219v5.377h-24.6V859.209h44.014Z" transform="translate(-179.333 -756.444)" fill="url(#b)"/><path d="M-1-1H45.005V45.005H-1ZM39.628,4.377H4.377V39.628H39.628Z" transform="translate(14.344 14.543)" fill="url(#b)"/><path d="M-1-1H24.691V20.21H-1ZM19.314,4.377H4.377V14.833H19.314Z" transform="translate(68.415 89.774)" fill="url(#b)"/><path d="M-1-1H24.691V20.21H-1ZM19.314,4.377H4.377V14.833H19.314Z" transform="translate(68.527 89.774)" fill="url(#b)"/><path d="M0,0H25.691V21.21H0ZM20.314,5.377H5.377V15.833H20.314Z" transform="translate(109.051 69.058) rotate(90)" fill="url(#b)"/></g></g><g transform="translate(-244.778 1113.354) rotate(-90)"><g transform="translate(179.333 756.444)"><path d="M199.647,1008.278H194.27V969.741H179.333V914.774h67.514V831.128H179.333V756.444h72.891v69.307h82.451V756.444H392.63v15.534H430.57v5.377H392.63v23.3H351.4V771.979h35.848V761.822h-47.2v69.307H252.225v89.023H184.711v44.213h9.56V928.516h29.874v41.225h-24.5Zm0-43.914h19.119V933.893H199.647ZM184.711,825.751h62.137V761.822H184.711ZM356.782,795.28h30.471V777.356H356.782Z" transform="translate(-179.333 -756.444)" fill="url(#b)"/><path d="M238.682,904.418H179.333V844.87h87.828V756.444h58.851v59.448H281.5V770.784h30.77v23.9h-5.377V776.161H286.878v34.355h33.757V761.822h-48.1v88.426H184.711v48.794H233.3V864.587H200.046V883.9h19.219v5.377h-24.6V859.209h44.014Z" transform="translate(-179.333 -756.444)" fill="url(#b)"/><path d="M-1-1H45.005V45.005H-1ZM39.628,4.377H4.377V39.628H39.628Z" transform="translate(14.344 14.543)" fill="url(#b)"/><path d="M-1-1H24.691V20.21H-1ZM19.314,4.377H4.377V14.833H19.314Z" transform="translate(68.415 89.774)" fill="url(#b)"/><path d="M-1-1H24.691V20.21H-1ZM19.314,4.377H4.377V14.833H19.314Z" transform="translate(68.527 89.774)" fill="url(#b)"/><path d="M0,0H25.691V21.21H0ZM20.314,5.377H5.377V15.833H20.314Z" transform="translate(109.051 69.058) rotate(90)" fill="url(#b)"/></g></g></g></g><g transform="translate(578 257)"><g transform="translate(-511.666 -634)"><g transform="translate(1536.278 486.667) rotate(90)"><g transform="translate(179.333 756.444)"><path d="M199.647,1008.278H194.27V969.741H179.333V914.774h67.514V831.128H179.333V756.444h72.891v69.307h82.451V756.444H392.63v15.534H430.57v5.377H392.63v23.3H351.4V771.979h35.848V761.822h-47.2v69.307H252.225v89.023H184.711v44.213h9.56V928.516h29.874v41.225h-24.5Zm0-43.914h19.119V933.893H199.647ZM184.711,825.751h62.137V761.822H184.711ZM356.782,795.28h30.471V777.356H356.782Z" transform="translate(-179.333 -756.444)" fill="url(#b)"/><path d="M238.682,904.418H179.333V844.87h87.828V756.444h58.851v59.448H281.5V770.784h30.77v23.9h-5.377V776.161H286.878v34.355h33.757V761.822h-48.1v88.426H184.711v48.794H233.3V864.587H200.046V883.9h19.219v5.377h-24.6V859.209h44.014Z" transform="translate(-179.333 -756.444)" fill="url(#b)"/><path d="M-1-1H45.005V45.005H-1ZM39.628,4.377H4.377V39.628H39.628Z" transform="translate(14.344 14.543)" fill="url(#b)"/><path d="M-1-1H24.691V20.21H-1ZM19.314,4.377H4.377V14.833H19.314Z" transform="translate(68.415 89.774)" fill="url(#b)"/><path d="M-1-1H24.691V20.21H-1ZM19.314,4.377H4.377V14.833H19.314Z" transform="translate(68.527 89.774)" fill="url(#b)"/><path d="M0,0H25.691V21.21H0ZM20.314,5.377H5.377V15.833H20.314Z" transform="translate(109.051 69.058) rotate(90)" fill="url(#b)"/></g></g><g transform="translate(-244.778 1113.354) rotate(-90)"><g transform="translate(179.333 756.444)"><path d="M199.647,1008.278H194.27V969.741H179.333V914.774h67.514V831.128H179.333V756.444h72.891v69.307h82.451V756.444H392.63v15.534H430.57v5.377H392.63v23.3H351.4V771.979h35.848V761.822h-47.2v69.307H252.225v89.023H184.711v44.213h9.56V928.516h29.874v41.225h-24.5Zm0-43.914h19.119V933.893H199.647ZM184.711,825.751h62.137V761.822H184.711ZM356.782,795.28h30.471V777.356H356.782Z" transform="translate(-179.333 -756.444)" fill="url(#b)"/><path d="M238.682,904.418H179.333V844.87h87.828V756.444h58.851v59.448H281.5V770.784h30.77v23.9h-5.377V776.161H286.878v34.355h33.757V761.822h-48.1v88.426H184.711v48.794H233.3V864.587H200.046V883.9h19.219v5.377h-24.6V859.209h44.014Z" transform="translate(-179.333 -756.444)" fill="url(#b)"/><path d="M-1-1H45.005V45.005H-1ZM39.628,4.377H4.377V39.628H39.628Z" transform="translate(14.344 14.543)" fill="url(#b)"/><path d="M-1-1H24.691V20.21H-1ZM19.314,4.377H4.377V14.833H19.314Z" transform="translate(68.415 89.774)" fill="url(#b)"/><path d="M-1-1H24.691V20.21H-1ZM19.314,4.377H4.377V14.833H19.314Z" transform="translate(68.527 89.774)" fill="url(#b)"/><path d="M0,0H25.691V21.21H0ZM20.314,5.377H5.377V15.833H20.314Z" transform="translate(109.051 69.058) rotate(90)" fill="url(#b)"/></g></g></g></g><g transform="translate(867 257)"><g transform="translate(-511.666 -634)"><g transform="translate(1536.278 486.667) rotate(90)"><g transform="translate(179.333 756.444)"><path d="M199.647,1008.278H194.27V969.741H179.333V914.774h67.514V831.128H179.333V756.444h72.891v69.307h82.451V756.444H392.63v15.534H430.57v5.377H392.63v23.3H351.4V771.979h35.848V761.822h-47.2v69.307H252.225v89.023H184.711v44.213h9.56V928.516h29.874v41.225h-24.5Zm0-43.914h19.119V933.893H199.647ZM184.711,825.751h62.137V761.822H184.711ZM356.782,795.28h30.471V777.356H356.782Z" transform="translate(-179.333 -756.444)" fill="url(#b)"/><path d="M238.682,904.418H179.333V844.87h87.828V756.444h58.851v59.448H281.5V770.784h30.77v23.9h-5.377V776.161H286.878v34.355h33.757V761.822h-48.1v88.426H184.711v48.794H233.3V864.587H200.046V883.9h19.219v5.377h-24.6V859.209h44.014Z" transform="translate(-179.333 -756.444)" fill="url(#b)"/><path d="M-1-1H45.005V45.005H-1ZM39.628,4.377H4.377V39.628H39.628Z" transform="translate(14.344 14.543)" fill="url(#b)"/><path d="M-1-1H24.691V20.21H-1ZM19.314,4.377H4.377V14.833H19.314Z" transform="translate(68.415 89.774)" fill="url(#b)"/><path d="M-1-1H24.691V20.21H-1ZM19.314,4.377H4.377V14.833H19.314Z" transform="translate(68.527 89.774)" fill="url(#b)"/><path d="M0,0H25.691V21.21H0ZM20.314,5.377H5.377V15.833H20.314Z" transform="translate(109.051 69.058) rotate(90)" fill="url(#b)"/></g></g><g transform="translate(-244.778 1113.354) rotate(-90)"><g transform="translate(179.333 756.444)"><path d="M199.647,1008.278H194.27V969.741H179.333V914.774h67.514V831.128H179.333V756.444h72.891v69.307h82.451V756.444H392.63v15.534H430.57v5.377H392.63v23.3H351.4V771.979h35.848V761.822h-47.2v69.307H252.225v89.023H184.711v44.213h9.56V928.516h29.874v41.225h-24.5Zm0-43.914h19.119V933.893H199.647ZM184.711,825.751h62.137V761.822H184.711ZM356.782,795.28h30.471V777.356H356.782Z" transform="translate(-179.333 -756.444)" fill="url(#b)"/><path d="M238.682,904.418H179.333V844.87h87.828V756.444h58.851v59.448H281.5V770.784h30.77v23.9h-5.377V776.161H286.878v34.355h33.757V761.822h-48.1v88.426H184.711v48.794H233.3V864.587H200.046V883.9h19.219v5.377h-24.6V859.209h44.014Z" transform="translate(-179.333 -756.444)" fill="url(#b)"/><path d="M-1-1H45.005V45.005H-1ZM39.628,4.377H4.377V39.628H39.628Z" transform="translate(14.344 14.543)" fill="url(#b)"/><path d="M-1-1H24.691V20.21H-1ZM19.314,4.377H4.377V14.833H19.314Z" transform="translate(68.415 89.774)" fill="url(#b)"/><path d="M-1-1H24.691V20.21H-1ZM19.314,4.377H4.377V14.833H19.314Z" transform="translate(68.527 89.774)" fill="url(#b)"/><path d="M0,0H25.691V21.21H0ZM20.314,5.377H5.377V15.833H20.314Z" transform="translate(109.051 69.058) rotate(90)" fill="url(#b)"/></g></g></g></g><g transform="translate(1156 257)"><g transform="translate(-511.666 -634)"><g transform="translate(1536.278 486.667) rotate(90)"><g transform="translate(179.333 756.444)"><path d="M199.647,1008.278H194.27V969.741H179.333V914.774h67.514V831.128H179.333V756.444h72.891v69.307h82.451V756.444H392.63v15.534H430.57v5.377H392.63v23.3H351.4V771.979h35.848V761.822h-47.2v69.307H252.225v89.023H184.711v44.213h9.56V928.516h29.874v41.225h-24.5Zm0-43.914h19.119V933.893H199.647ZM184.711,825.751h62.137V761.822H184.711ZM356.782,795.28h30.471V777.356H356.782Z" transform="translate(-179.333 -756.444)" fill="url(#b)"/><path d="M238.682,904.418H179.333V844.87h87.828V756.444h58.851v59.448H281.5V770.784h30.77v23.9h-5.377V776.161H286.878v34.355h33.757V761.822h-48.1v88.426H184.711v48.794H233.3V864.587H200.046V883.9h19.219v5.377h-24.6V859.209h44.014Z" transform="translate(-179.333 -756.444)" fill="url(#b)"/><path d="M-1-1H45.005V45.005H-1ZM39.628,4.377H4.377V39.628H39.628Z" transform="translate(14.344 14.543)" fill="url(#b)"/><path d="M-1-1H24.691V20.21H-1ZM19.314,4.377H4.377V14.833H19.314Z" transform="translate(68.415 89.774)" fill="url(#b)"/><path d="M-1-1H24.691V20.21H-1ZM19.314,4.377H4.377V14.833H19.314Z" transform="translate(68.527 89.774)" fill="url(#b)"/><path d="M0,0H25.691V21.21H0ZM20.314,5.377H5.377V15.833H20.314Z" transform="translate(109.051 69.058) rotate(90)" fill="url(#b)"/></g></g><g transform="translate(-244.778 1113.354) rotate(-90)"><g transform="translate(179.333 756.444)"><path d="M199.647,1008.278H194.27V969.741H179.333V914.774h67.514V831.128H179.333V756.444h72.891v69.307h82.451V756.444H392.63v15.534H430.57v5.377H392.63v23.3H351.4V771.979h35.848V761.822h-47.2v69.307H252.225v89.023H184.711v44.213h9.56V928.516h29.874v41.225h-24.5Zm0-43.914h19.119V933.893H199.647ZM184.711,825.751h62.137V761.822H184.711ZM356.782,795.28h30.471V777.356H356.782Z" transform="translate(-179.333 -756.444)" fill="url(#b)"/><path d="M238.682,904.418H179.333V844.87h87.828V756.444h58.851v59.448H281.5V770.784h30.77v23.9h-5.377V776.161H286.878v34.355h33.757V761.822h-48.1v88.426H184.711v48.794H233.3V864.587H200.046V883.9h19.219v5.377h-24.6V859.209h44.014Z" transform="translate(-179.333 -756.444)" fill="url(#b)"/><path d="M-1-1H45.005V45.005H-1ZM39.628,4.377H4.377V39.628H39.628Z" transform="translate(14.344 14.543)" fill="url(#b)"/><path d="M-1-1H24.691V20.21H-1ZM19.314,4.377H4.377V14.833H19.314Z" transform="translate(68.415 89.774)" fill="url(#b)"/><path d="M-1-1H24.691V20.21H-1ZM19.314,4.377H4.377V14.833H19.314Z" transform="translate(68.527 89.774)" fill="url(#b)"/><path d="M0,0H25.691V21.21H0ZM20.314,5.377H5.377V15.833H20.314Z" transform="translate(109.051 69.058) rotate(90)" fill="url(#b)"/></g></g></g></g><g transform="translate(1445 257)"><g transform="translate(-511.666 -634)"><g transform="translate(1536.278 486.667) rotate(90)"><g transform="translate(179.333 756.444)"><path d="M199.647,1008.278H194.27V969.741H179.333V914.774h67.514V831.128H179.333V756.444h72.891v69.307h82.451V756.444H392.63v15.534H430.57v5.377H392.63v23.3H351.4V771.979h35.848V761.822h-47.2v69.307H252.225v89.023H184.711v44.213h9.56V928.516h29.874v41.225h-24.5Zm0-43.914h19.119V933.893H199.647ZM184.711,825.751h62.137V761.822H184.711ZM356.782,795.28h30.471V777.356H356.782Z" transform="translate(-179.333 -756.444)" fill="url(#b)"/><path d="M238.682,904.418H179.333V844.87h87.828V756.444h58.851v59.448H281.5V770.784h30.77v23.9h-5.377V776.161H286.878v34.355h33.757V761.822h-48.1v88.426H184.711v48.794H233.3V864.587H200.046V883.9h19.219v5.377h-24.6V859.209h44.014Z" transform="translate(-179.333 -756.444)" fill="url(#b)"/><path d="M-1-1H45.005V45.005H-1ZM39.628,4.377H4.377V39.628H39.628Z" transform="translate(14.344 14.543)" fill="url(#b)"/><path d="M-1-1H24.691V20.21H-1ZM19.314,4.377H4.377V14.833H19.314Z" transform="translate(68.415 89.774)" fill="url(#b)"/><path d="M-1-1H24.691V20.21H-1ZM19.314,4.377H4.377V14.833H19.314Z" transform="translate(68.527 89.774)" fill="url(#b)"/><path d="M0,0H25.691V21.21H0ZM20.314,5.377H5.377V15.833H20.314Z" transform="translate(109.051 69.058) rotate(90)" fill="url(#b)"/></g></g><g transform="translate(-244.778 1113.354) rotate(-90)"><g transform="translate(179.333 756.444)"><path d="M199.647,1008.278H194.27V969.741H179.333V914.774h67.514V831.128H179.333V756.444h72.891v69.307h82.451V756.444H392.63v15.534H430.57v5.377H392.63v23.3H351.4V771.979h35.848V761.822h-47.2v69.307H252.225v89.023H184.711v44.213h9.56V928.516h29.874v41.225h-24.5Zm0-43.914h19.119V933.893H199.647ZM184.711,825.751h62.137V761.822H184.711ZM356.782,795.28h30.471V777.356H356.782Z" transform="translate(-179.333 -756.444)" fill="url(#b)"/><path d="M238.682,904.418H179.333V844.87h87.828V756.444h58.851v59.448H281.5V770.784h30.77v23.9h-5.377V776.161H286.878v34.355h33.757V761.822h-48.1v88.426H184.711v48.794H233.3V864.587H200.046V883.9h19.219v5.377h-24.6V859.209h44.014Z" transform="translate(-179.333 -756.444)" fill="url(#b)"/><path d="M-1-1H45.005V45.005H-1ZM39.628,4.377H4.377V39.628H39.628Z" transform="translate(14.344 14.543)" fill="url(#b)"/><path d="M-1-1H24.691V20.21H-1ZM19.314,4.377H4.377V14.833H19.314Z" transform="translate(68.415 89.774)" fill="url(#b)"/><path d="M-1-1H24.691V20.21H-1ZM19.314,4.377H4.377V14.833H19.314Z" transform="translate(68.527 89.774)" fill="url(#b)"/><path d="M0,0H25.691V21.21H0ZM20.314,5.377H5.377V15.833H20.314Z" transform="translate(109.051 69.058) rotate(90)" fill="url(#b)"/></g></g></g></g><g transform="translate(1734 257)"><g transform="translate(-511.666 -634)"><g transform="translate(1536.278 486.667) rotate(90)"><g transform="translate(179.333 756.444)"><path d="M199.647,1008.278H194.27V969.741H179.333V914.774h67.514V831.128H179.333V756.444h72.891v69.307h82.451V756.444H392.63v15.534H430.57v5.377H392.63v23.3H351.4V771.979h35.848V761.822h-47.2v69.307H252.225v89.023H184.711v44.213h9.56V928.516h29.874v41.225h-24.5Zm0-43.914h19.119V933.893H199.647ZM184.711,825.751h62.137V761.822H184.711ZM356.782,795.28h30.471V777.356H356.782Z" transform="translate(-179.333 -756.444)" fill="url(#b)"/><path d="M238.682,904.418H179.333V844.87h87.828V756.444h58.851v59.448H281.5V770.784h30.77v23.9h-5.377V776.161H286.878v34.355h33.757V761.822h-48.1v88.426H184.711v48.794H233.3V864.587H200.046V883.9h19.219v5.377h-24.6V859.209h44.014Z" transform="translate(-179.333 -756.444)" fill="url(#b)"/><path d="M-1-1H45.005V45.005H-1ZM39.628,4.377H4.377V39.628H39.628Z" transform="translate(14.344 14.543)" fill="url(#b)"/><path d="M-1-1H24.691V20.21H-1ZM19.314,4.377H4.377V14.833H19.314Z" transform="translate(68.415 89.774)" fill="url(#b)"/><path d="M-1-1H24.691V20.21H-1ZM19.314,4.377H4.377V14.833H19.314Z" transform="translate(68.527 89.774)" fill="url(#b)"/><path d="M0,0H25.691V21.21H0ZM20.314,5.377H5.377V15.833H20.314Z" transform="translate(109.051 69.058) rotate(90)" fill="url(#b)"/></g></g><g transform="translate(-244.778 1113.354) rotate(-90)"><g transform="translate(179.333 756.444)"><path d="M199.647,1008.278H194.27V969.741H179.333V914.774h67.514V831.128H179.333V756.444h72.891v69.307h82.451V756.444H392.63v15.534H430.57v5.377H392.63v23.3H351.4V771.979h35.848V761.822h-47.2v69.307H252.225v89.023H184.711v44.213h9.56V928.516h29.874v41.225h-24.5Zm0-43.914h19.119V933.893H199.647ZM184.711,825.751h62.137V761.822H184.711ZM356.782,795.28h30.471V777.356H356.782Z" transform="translate(-179.333 -756.444)" fill="url(#b)"/><path d="M238.682,904.418H179.333V844.87h87.828V756.444h58.851v59.448H281.5V770.784h30.77v23.9h-5.377V776.161H286.878v34.355h33.757V761.822h-48.1v88.426H184.711v48.794H233.3V864.587H200.046V883.9h19.219v5.377h-24.6V859.209h44.014Z" transform="translate(-179.333 -756.444)" fill="url(#b)"/><path d="M-1-1H45.005V45.005H-1ZM39.628,4.377H4.377V39.628H39.628Z" transform="translate(14.344 14.543)" fill="url(#b)"/><path d="M-1-1H24.691V20.21H-1ZM19.314,4.377H4.377V14.833H19.314Z" transform="translate(68.415 89.774)" fill="url(#b)"/><path d="M-1-1H24.691V20.21H-1ZM19.314,4.377H4.377V14.833H19.314Z" transform="translate(68.527 89.774)" fill="url(#b)"/><path d="M0,0H25.691V21.21H0ZM20.314,5.377H5.377V15.833H20.314Z" transform="translate(109.051 69.058) rotate(90)" fill="url(#b)"/></g></g></g></g><g transform="translate(0 546)"><g transform="translate(-511.666 -634)"><g transform="translate(1536.278 486.667) rotate(90)"><g transform="translate(179.333 756.444)"><path d="M199.647,1008.278H194.27V969.741H179.333V914.774h67.514V831.128H179.333V756.444h72.891v69.307h82.451V756.444H392.63v15.534H430.57v5.377H392.63v23.3H351.4V771.979h35.848V761.822h-47.2v69.307H252.225v89.023H184.711v44.213h9.56V928.516h29.874v41.225h-24.5Zm0-43.914h19.119V933.893H199.647ZM184.711,825.751h62.137V761.822H184.711ZM356.782,795.28h30.471V777.356H356.782Z" transform="translate(-179.333 -756.444)" fill="url(#b)"/><path d="M238.682,904.418H179.333V844.87h87.828V756.444h58.851v59.448H281.5V770.784h30.77v23.9h-5.377V776.161H286.878v34.355h33.757V761.822h-48.1v88.426H184.711v48.794H233.3V864.587H200.046V883.9h19.219v5.377h-24.6V859.209h44.014Z" transform="translate(-179.333 -756.444)" fill="url(#b)"/><path d="M-1-1H45.005V45.005H-1ZM39.628,4.377H4.377V39.628H39.628Z" transform="translate(14.344 14.543)" fill="url(#b)"/><path d="M-1-1H24.691V20.21H-1ZM19.314,4.377H4.377V14.833H19.314Z" transform="translate(68.415 89.774)" fill="url(#b)"/><path d="M-1-1H24.691V20.21H-1ZM19.314,4.377H4.377V14.833H19.314Z" transform="translate(68.527 89.774)" fill="url(#b)"/><path d="M0,0H25.691V21.21H0ZM20.314,5.377H5.377V15.833H20.314Z" transform="translate(109.051 69.058) rotate(90)" fill="url(#b)"/></g></g><g transform="translate(-244.778 1113.354) rotate(-90)"><g transform="translate(179.333 756.444)"><path d="M199.647,1008.278H194.27V969.741H179.333V914.774h67.514V831.128H179.333V756.444h72.891v69.307h82.451V756.444H392.63v15.534H430.57v5.377H392.63v23.3H351.4V771.979h35.848V761.822h-47.2v69.307H252.225v89.023H184.711v44.213h9.56V928.516h29.874v41.225h-24.5Zm0-43.914h19.119V933.893H199.647ZM184.711,825.751h62.137V761.822H184.711ZM356.782,795.28h30.471V777.356H356.782Z" transform="translate(-179.333 -756.444)" fill="url(#b)"/><path d="M238.682,904.418H179.333V844.87h87.828V756.444h58.851v59.448H281.5V770.784h30.77v23.9h-5.377V776.161H286.878v34.355h33.757V761.822h-48.1v88.426H184.711v48.794H233.3V864.587H200.046V883.9h19.219v5.377h-24.6V859.209h44.014Z" transform="translate(-179.333 -756.444)" fill="url(#b)"/><path d="M-1-1H45.005V45.005H-1ZM39.628,4.377H4.377V39.628H39.628Z" transform="translate(14.344 14.543)" fill="url(#b)"/><path d="M-1-1H24.691V20.21H-1ZM19.314,4.377H4.377V14.833H19.314Z" transform="translate(68.415 89.774)" fill="url(#b)"/><path d="M-1-1H24.691V20.21H-1ZM19.314,4.377H4.377V14.833H19.314Z" transform="translate(68.527 89.774)" fill="url(#b)"/><path d="M0,0H25.691V21.21H0ZM20.314,5.377H5.377V15.833H20.314Z" transform="translate(109.051 69.058) rotate(90)" fill="url(#b)"/></g></g></g></g><g transform="translate(289 546)"><g transform="translate(-511.666 -634)"><g transform="translate(1536.278 486.667) rotate(90)"><g transform="translate(179.333 756.444)"><path d="M199.647,1008.278H194.27V969.741H179.333V914.774h67.514V831.128H179.333V756.444h72.891v69.307h82.451V756.444H392.63v15.534H430.57v5.377H392.63v23.3H351.4V771.979h35.848V761.822h-47.2v69.307H252.225v89.023H184.711v44.213h9.56V928.516h29.874v41.225h-24.5Zm0-43.914h19.119V933.893H199.647ZM184.711,825.751h62.137V761.822H184.711ZM356.782,795.28h30.471V777.356H356.782Z" transform="translate(-179.333 -756.444)" fill="url(#b)"/><path d="M238.682,904.418H179.333V844.87h87.828V756.444h58.851v59.448H281.5V770.784h30.77v23.9h-5.377V776.161H286.878v34.355h33.757V761.822h-48.1v88.426H184.711v48.794H233.3V864.587H200.046V883.9h19.219v5.377h-24.6V859.209h44.014Z" transform="translate(-179.333 -756.444)" fill="url(#b)"/><path d="M-1-1H45.005V45.005H-1ZM39.628,4.377H4.377V39.628H39.628Z" transform="translate(14.344 14.543)" fill="url(#b)"/><path d="M-1-1H24.691V20.21H-1ZM19.314,4.377H4.377V14.833H19.314Z" transform="translate(68.415 89.774)" fill="url(#b)"/><path d="M-1-1H24.691V20.21H-1ZM19.314,4.377H4.377V14.833H19.314Z" transform="translate(68.527 89.774)" fill="url(#b)"/><path d="M0,0H25.691V21.21H0ZM20.314,5.377H5.377V15.833H20.314Z" transform="translate(109.051 69.058) rotate(90)" fill="url(#b)"/></g></g><g transform="translate(-244.778 1113.354) rotate(-90)"><g transform="translate(179.333 756.444)"><path d="M199.647,1008.278H194.27V969.741H179.333V914.774h67.514V831.128H179.333V756.444h72.891v69.307h82.451V756.444H392.63v15.534H430.57v5.377H392.63v23.3H351.4V771.979h35.848V761.822h-47.2v69.307H252.225v89.023H184.711v44.213h9.56V928.516h29.874v41.225h-24.5Zm0-43.914h19.119V933.893H199.647ZM184.711,825.751h62.137V761.822H184.711ZM356.782,795.28h30.471V777.356H356.782Z" transform="translate(-179.333 -756.444)" fill="url(#b)"/><path d="M238.682,904.418H179.333V844.87h87.828V756.444h58.851v59.448H281.5V770.784h30.77v23.9h-5.377V776.161H286.878v34.355h33.757V761.822h-48.1v88.426H184.711v48.794H233.3V864.587H200.046V883.9h19.219v5.377h-24.6V859.209h44.014Z" transform="translate(-179.333 -756.444)" fill="url(#b)"/><path d="M-1-1H45.005V45.005H-1ZM39.628,4.377H4.377V39.628H39.628Z" transform="translate(14.344 14.543)" fill="url(#b)"/><path d="M-1-1H24.691V20.21H-1ZM19.314,4.377H4.377V14.833H19.314Z" transform="translate(68.415 89.774)" fill="url(#b)"/><path d="M-1-1H24.691V20.21H-1ZM19.314,4.377H4.377V14.833H19.314Z" transform="translate(68.527 89.774)" fill="url(#b)"/><path d="M0,0H25.691V21.21H0ZM20.314,5.377H5.377V15.833H20.314Z" transform="translate(109.051 69.058) rotate(90)" fill="url(#b)"/></g></g></g></g><g transform="translate(578 546)"><g transform="translate(-511.666 -634)"><g transform="translate(1536.278 486.667) rotate(90)"><g transform="translate(179.333 756.444)"><path d="M199.647,1008.278H194.27V969.741H179.333V914.774h67.514V831.128H179.333V756.444h72.891v69.307h82.451V756.444H392.63v15.534H430.57v5.377H392.63v23.3H351.4V771.979h35.848V761.822h-47.2v69.307H252.225v89.023H184.711v44.213h9.56V928.516h29.874v41.225h-24.5Zm0-43.914h19.119V933.893H199.647ZM184.711,825.751h62.137V761.822H184.711ZM356.782,795.28h30.471V777.356H356.782Z" transform="translate(-179.333 -756.444)" fill="url(#b)"/><path d="M238.682,904.418H179.333V844.87h87.828V756.444h58.851v59.448H281.5V770.784h30.77v23.9h-5.377V776.161H286.878v34.355h33.757V761.822h-48.1v88.426H184.711v48.794H233.3V864.587H200.046V883.9h19.219v5.377h-24.6V859.209h44.014Z" transform="translate(-179.333 -756.444)" fill="url(#b)"/><path d="M-1-1H45.005V45.005H-1ZM39.628,4.377H4.377V39.628H39.628Z" transform="translate(14.344 14.543)" fill="url(#b)"/><path d="M-1-1H24.691V20.21H-1ZM19.314,4.377H4.377V14.833H19.314Z" transform="translate(68.415 89.774)" fill="url(#b)"/><path d="M-1-1H24.691V20.21H-1ZM19.314,4.377H4.377V14.833H19.314Z" transform="translate(68.527 89.774)" fill="url(#b)"/><path d="M0,0H25.691V21.21H0ZM20.314,5.377H5.377V15.833H20.314Z" transform="translate(109.051 69.058) rotate(90)" fill="url(#b)"/></g></g><g transform="translate(-244.778 1113.354) rotate(-90)"><g transform="translate(179.333 756.444)"><path d="M199.647,1008.278H194.27V969.741H179.333V914.774h67.514V831.128H179.333V756.444h72.891v69.307h82.451V756.444H392.63v15.534H430.57v5.377H392.63v23.3H351.4V771.979h35.848V761.822h-47.2v69.307H252.225v89.023H184.711v44.213h9.56V928.516h29.874v41.225h-24.5Zm0-43.914h19.119V933.893H199.647ZM184.711,825.751h62.137V761.822H184.711ZM356.782,795.28h30.471V777.356H356.782Z" transform="translate(-179.333 -756.444)" fill="url(#b)"/><path d="M238.682,904.418H179.333V844.87h87.828V756.444h58.851v59.448H281.5V770.784h30.77v23.9h-5.377V776.161H286.878v34.355h33.757V761.822h-48.1v88.426H184.711v48.794H233.3V864.587H200.046V883.9h19.219v5.377h-24.6V859.209h44.014Z" transform="translate(-179.333 -756.444)" fill="url(#b)"/><path d="M-1-1H45.005V45.005H-1ZM39.628,4.377H4.377V39.628H39.628Z" transform="translate(14.344 14.543)" fill="url(#b)"/><path d="M-1-1H24.691V20.21H-1ZM19.314,4.377H4.377V14.833H19.314Z" transform="translate(68.415 89.774)" fill="url(#b)"/><path d="M-1-1H24.691V20.21H-1ZM19.314,4.377H4.377V14.833H19.314Z" transform="translate(68.527 89.774)" fill="url(#b)"/><path d="M0,0H25.691V21.21H0ZM20.314,5.377H5.377V15.833H20.314Z" transform="translate(109.051 69.058) rotate(90)" fill="url(#b)"/></g></g></g></g><g transform="translate(867 546)"><g transform="translate(-511.666 -634)"><g transform="translate(1536.278 486.667) rotate(90)"><g transform="translate(179.333 756.444)"><path d="M199.647,1008.278H194.27V969.741H179.333V914.774h67.514V831.128H179.333V756.444h72.891v69.307h82.451V756.444H392.63v15.534H430.57v5.377H392.63v23.3H351.4V771.979h35.848V761.822h-47.2v69.307H252.225v89.023H184.711v44.213h9.56V928.516h29.874v41.225h-24.5Zm0-43.914h19.119V933.893H199.647ZM184.711,825.751h62.137V761.822H184.711ZM356.782,795.28h30.471V777.356H356.782Z" transform="translate(-179.333 -756.444)" fill="url(#b)"/><path d="M238.682,904.418H179.333V844.87h87.828V756.444h58.851v59.448H281.5V770.784h30.77v23.9h-5.377V776.161H286.878v34.355h33.757V761.822h-48.1v88.426H184.711v48.794H233.3V864.587H200.046V883.9h19.219v5.377h-24.6V859.209h44.014Z" transform="translate(-179.333 -756.444)" fill="url(#b)"/><path d="M-1-1H45.005V45.005H-1ZM39.628,4.377H4.377V39.628H39.628Z" transform="translate(14.344 14.543)" fill="url(#b)"/><path d="M-1-1H24.691V20.21H-1ZM19.314,4.377H4.377V14.833H19.314Z" transform="translate(68.415 89.774)" fill="url(#b)"/><path d="M-1-1H24.691V20.21H-1ZM19.314,4.377H4.377V14.833H19.314Z" transform="translate(68.527 89.774)" fill="url(#b)"/><path d="M0,0H25.691V21.21H0ZM20.314,5.377H5.377V15.833H20.314Z" transform="translate(109.051 69.058) rotate(90)" fill="url(#b)"/></g></g><g transform="translate(-244.778 1113.354) rotate(-90)"><g transform="translate(179.333 756.444)"><path d="M199.647,1008.278H194.27V969.741H179.333V914.774h67.514V831.128H179.333V756.444h72.891v69.307h82.451V756.444H392.63v15.534H430.57v5.377H392.63v23.3H351.4V771.979h35.848V761.822h-47.2v69.307H252.225v89.023H184.711v44.213h9.56V928.516h29.874v41.225h-24.5Zm0-43.914h19.119V933.893H199.647ZM184.711,825.751h62.137V761.822H184.711ZM356.782,795.28h30.471V777.356H356.782Z" transform="translate(-179.333 -756.444)" fill="url(#b)"/><path d="M238.682,904.418H179.333V844.87h87.828V756.444h58.851v59.448H281.5V770.784h30.77v23.9h-5.377V776.161H286.878v34.355h33.757V761.822h-48.1v88.426H184.711v48.794H233.3V864.587H200.046V883.9h19.219v5.377h-24.6V859.209h44.014Z" transform="translate(-179.333 -756.444)" fill="url(#b)"/><path d="M-1-1H45.005V45.005H-1ZM39.628,4.377H4.377V39.628H39.628Z" transform="translate(14.344 14.543)" fill="url(#b)"/><path d="M-1-1H24.691V20.21H-1ZM19.314,4.377H4.377V14.833H19.314Z" transform="translate(68.415 89.774)" fill="url(#b)"/><path d="M-1-1H24.691V20.21H-1ZM19.314,4.377H4.377V14.833H19.314Z" transform="translate(68.527 89.774)" fill="url(#b)"/><path d="M0,0H25.691V21.21H0ZM20.314,5.377H5.377V15.833H20.314Z" transform="translate(109.051 69.058) rotate(90)" fill="url(#b)"/></g></g></g></g><g transform="translate(1156 546)"><g transform="translate(-511.666 -634)"><g transform="translate(1536.278 486.667) rotate(90)"><g transform="translate(179.333 756.444)"><path d="M199.647,1008.278H194.27V969.741H179.333V914.774h67.514V831.128H179.333V756.444h72.891v69.307h82.451V756.444H392.63v15.534H430.57v5.377H392.63v23.3H351.4V771.979h35.848V761.822h-47.2v69.307H252.225v89.023H184.711v44.213h9.56V928.516h29.874v41.225h-24.5Zm0-43.914h19.119V933.893H199.647ZM184.711,825.751h62.137V761.822H184.711ZM356.782,795.28h30.471V777.356H356.782Z" transform="translate(-179.333 -756.444)" fill="url(#b)"/><path d="M238.682,904.418H179.333V844.87h87.828V756.444h58.851v59.448H281.5V770.784h30.77v23.9h-5.377V776.161H286.878v34.355h33.757V761.822h-48.1v88.426H184.711v48.794H233.3V864.587H200.046V883.9h19.219v5.377h-24.6V859.209h44.014Z" transform="translate(-179.333 -756.444)" fill="url(#b)"/><path d="M-1-1H45.005V45.005H-1ZM39.628,4.377H4.377V39.628H39.628Z" transform="translate(14.344 14.543)" fill="url(#b)"/><path d="M-1-1H24.691V20.21H-1ZM19.314,4.377H4.377V14.833H19.314Z" transform="translate(68.415 89.774)" fill="url(#b)"/><path d="M-1-1H24.691V20.21H-1ZM19.314,4.377H4.377V14.833H19.314Z" transform="translate(68.527 89.774)" fill="url(#b)"/><path d="M0,0H25.691V21.21H0ZM20.314,5.377H5.377V15.833H20.314Z" transform="translate(109.051 69.058) rotate(90)" fill="url(#b)"/></g></g><g transform="translate(-244.778 1113.354) rotate(-90)"><g transform="translate(179.333 756.444)"><path d="M199.647,1008.278H194.27V969.741H179.333V914.774h67.514V831.128H179.333V756.444h72.891v69.307h82.451V756.444H392.63v15.534H430.57v5.377H392.63v23.3H351.4V771.979h35.848V761.822h-47.2v69.307H252.225v89.023H184.711v44.213h9.56V928.516h29.874v41.225h-24.5Zm0-43.914h19.119V933.893H199.647ZM184.711,825.751h62.137V761.822H184.711ZM356.782,795.28h30.471V777.356H356.782Z" transform="translate(-179.333 -756.444)" fill="url(#b)"/><path d="M238.682,904.418H179.333V844.87h87.828V756.444h58.851v59.448H281.5V770.784h30.77v23.9h-5.377V776.161H286.878v34.355h33.757V761.822h-48.1v88.426H184.711v48.794H233.3V864.587H200.046V883.9h19.219v5.377h-24.6V859.209h44.014Z" transform="translate(-179.333 -756.444)" fill="url(#b)"/><path d="M-1-1H45.005V45.005H-1ZM39.628,4.377H4.377V39.628H39.628Z" transform="translate(14.344 14.543)" fill="url(#b)"/><path d="M-1-1H24.691V20.21H-1ZM19.314,4.377H4.377V14.833H19.314Z" transform="translate(68.415 89.774)" fill="url(#b)"/><path d="M-1-1H24.691V20.21H-1ZM19.314,4.377H4.377V14.833H19.314Z" transform="translate(68.527 89.774)" fill="url(#b)"/><path d="M0,0H25.691V21.21H0ZM20.314,5.377H5.377V15.833H20.314Z" transform="translate(109.051 69.058) rotate(90)" fill="url(#b)"/></g></g></g></g><g transform="translate(1445 546)"><g transform="translate(-511.666 -634)"><g transform="translate(1536.278 486.667) rotate(90)"><g transform="translate(179.333 756.444)"><path d="M199.647,1008.278H194.27V969.741H179.333V914.774h67.514V831.128H179.333V756.444h72.891v69.307h82.451V756.444H392.63v15.534H430.57v5.377H392.63v23.3H351.4V771.979h35.848V761.822h-47.2v69.307H252.225v89.023H184.711v44.213h9.56V928.516h29.874v41.225h-24.5Zm0-43.914h19.119V933.893H199.647ZM184.711,825.751h62.137V761.822H184.711ZM356.782,795.28h30.471V777.356H356.782Z" transform="translate(-179.333 -756.444)" fill="url(#b)"/><path d="M238.682,904.418H179.333V844.87h87.828V756.444h58.851v59.448H281.5V770.784h30.77v23.9h-5.377V776.161H286.878v34.355h33.757V761.822h-48.1v88.426H184.711v48.794H233.3V864.587H200.046V883.9h19.219v5.377h-24.6V859.209h44.014Z" transform="translate(-179.333 -756.444)" fill="url(#b)"/><path d="M-1-1H45.005V45.005H-1ZM39.628,4.377H4.377V39.628H39.628Z" transform="translate(14.344 14.543)" fill="url(#b)"/><path d="M-1-1H24.691V20.21H-1ZM19.314,4.377H4.377V14.833H19.314Z" transform="translate(68.415 89.774)" fill="url(#b)"/><path d="M-1-1H24.691V20.21H-1ZM19.314,4.377H4.377V14.833H19.314Z" transform="translate(68.527 89.774)" fill="url(#b)"/><path d="M0,0H25.691V21.21H0ZM20.314,5.377H5.377V15.833H20.314Z" transform="translate(109.051 69.058) rotate(90)" fill="url(#b)"/></g></g><g transform="translate(-244.778 1113.354) rotate(-90)"><g transform="translate(179.333 756.444)"><path d="M199.647,1008.278H194.27V969.741H179.333V914.774h67.514V831.128H179.333V756.444h72.891v69.307h82.451V756.444H392.63v15.534H430.57v5.377H392.63v23.3H351.4V771.979h35.848V761.822h-47.2v69.307H252.225v89.023H184.711v44.213h9.56V928.516h29.874v41.225h-24.5Zm0-43.914h19.119V933.893H199.647ZM184.711,825.751h62.137V761.822H184.711ZM356.782,795.28h30.471V777.356H356.782Z" transform="translate(-179.333 -756.444)" fill="url(#b)"/><path d="M238.682,904.418H179.333V844.87h87.828V756.444h58.851v59.448H281.5V770.784h30.77v23.9h-5.377V776.161H286.878v34.355h33.757V761.822h-48.1v88.426H184.711v48.794H233.3V864.587H200.046V883.9h19.219v5.377h-24.6V859.209h44.014Z" transform="translate(-179.333 -756.444)" fill="url(#b)"/><path d="M-1-1H45.005V45.005H-1ZM39.628,4.377H4.377V39.628H39.628Z" transform="translate(14.344 14.543)" fill="url(#b)"/><path d="M-1-1H24.691V20.21H-1ZM19.314,4.377H4.377V14.833H19.314Z" transform="translate(68.415 89.774)" fill="url(#b)"/><path d="M-1-1H24.691V20.21H-1ZM19.314,4.377H4.377V14.833H19.314Z" transform="translate(68.527 89.774)" fill="url(#b)"/><path d="M0,0H25.691V21.21H0ZM20.314,5.377H5.377V15.833H20.314Z" transform="translate(109.051 69.058) rotate(90)" fill="url(#b)"/></g></g></g></g><g transform="translate(1734 546)"><g transform="translate(-511.666 -634)"><g transform="translate(1536.278 486.667) rotate(90)"><g transform="translate(179.333 756.444)"><path d="M199.647,1008.278H194.27V969.741H179.333V914.774h67.514V831.128H179.333V756.444h72.891v69.307h82.451V756.444H392.63v15.534H430.57v5.377H392.63v23.3H351.4V771.979h35.848V761.822h-47.2v69.307H252.225v89.023H184.711v44.213h9.56V928.516h29.874v41.225h-24.5Zm0-43.914h19.119V933.893H199.647ZM184.711,825.751h62.137V761.822H184.711ZM356.782,795.28h30.471V777.356H356.782Z" transform="translate(-179.333 -756.444)" fill="url(#b)"/><path d="M238.682,904.418H179.333V844.87h87.828V756.444h58.851v59.448H281.5V770.784h30.77v23.9h-5.377V776.161H286.878v34.355h33.757V761.822h-48.1v88.426H184.711v48.794H233.3V864.587H200.046V883.9h19.219v5.377h-24.6V859.209h44.014Z" transform="translate(-179.333 -756.444)" fill="url(#b)"/><path d="M-1-1H45.005V45.005H-1ZM39.628,4.377H4.377V39.628H39.628Z" transform="translate(14.344 14.543)" fill="url(#b)"/><path d="M-1-1H24.691V20.21H-1ZM19.314,4.377H4.377V14.833H19.314Z" transform="translate(68.415 89.774)" fill="url(#b)"/><path d="M-1-1H24.691V20.21H-1ZM19.314,4.377H4.377V14.833H19.314Z" transform="translate(68.527 89.774)" fill="url(#b)"/><path d="M0,0H25.691V21.21H0ZM20.314,5.377H5.377V15.833H20.314Z" transform="translate(109.051 69.058) rotate(90)" fill="url(#b)"/></g></g><g transform="translate(-244.778 1113.354) rotate(-90)"><g transform="translate(179.333 756.444)"><path d="M199.647,1008.278H194.27V969.741H179.333V914.774h67.514V831.128H179.333V756.444h72.891v69.307h82.451V756.444H392.63v15.534H430.57v5.377H392.63v23.3H351.4V771.979h35.848V761.822h-47.2v69.307H252.225v89.023H184.711v44.213h9.56V928.516h29.874v41.225h-24.5Zm0-43.914h19.119V933.893H199.647ZM184.711,825.751h62.137V761.822H184.711ZM356.782,795.28h30.471V777.356H356.782Z" transform="translate(-179.333 -756.444)" fill="url(#b)"/><path d="M238.682,904.418H179.333V844.87h87.828V756.444h58.851v59.448H281.5V770.784h30.77v23.9h-5.377V776.161H286.878v34.355h33.757V761.822h-48.1v88.426H184.711v48.794H233.3V864.587H200.046V883.9h19.219v5.377h-24.6V859.209h44.014Z" transform="translate(-179.333 -756.444)" fill="url(#b)"/><path d="M-1-1H45.005V45.005H-1ZM39.628,4.377H4.377V39.628H39.628Z" transform="translate(14.344 14.543)" fill="url(#b)"/><path d="M-1-1H24.691V20.21H-1ZM19.314,4.377H4.377V14.833H19.314Z" transform="translate(68.415 89.774)" fill="url(#b)"/><path d="M-1-1H24.691V20.21H-1ZM19.314,4.377H4.377V14.833H19.314Z" transform="translate(68.527 89.774)" fill="url(#b)"/><path d="M0,0H25.691V21.21H0ZM20.314,5.377H5.377V15.833H20.314Z" transform="translate(109.051 69.058) rotate(90)" fill="url(#b)"/></g></g></g></g><g transform="translate(0 835)"><g transform="translate(-511.666 -634)"><g transform="translate(1536.278 486.667) rotate(90)"><g transform="translate(179.333 756.444)"><path d="M199.647,1008.278H194.27V969.741H179.333V914.774h67.514V831.128H179.333V756.444h72.891v69.307h82.451V756.444H392.63v15.534H430.57v5.377H392.63v23.3H351.4V771.979h35.848V761.822h-47.2v69.307H252.225v89.023H184.711v44.213h9.56V928.516h29.874v41.225h-24.5Zm0-43.914h19.119V933.893H199.647ZM184.711,825.751h62.137V761.822H184.711ZM356.782,795.28h30.471V777.356H356.782Z" transform="translate(-179.333 -756.444)" fill="url(#b)"/><path d="M238.682,904.418H179.333V844.87h87.828V756.444h58.851v59.448H281.5V770.784h30.77v23.9h-5.377V776.161H286.878v34.355h33.757V761.822h-48.1v88.426H184.711v48.794H233.3V864.587H200.046V883.9h19.219v5.377h-24.6V859.209h44.014Z" transform="translate(-179.333 -756.444)" fill="url(#b)"/><path d="M-1-1H45.005V45.005H-1ZM39.628,4.377H4.377V39.628H39.628Z" transform="translate(14.344 14.543)" fill="url(#b)"/><path d="M-1-1H24.691V20.21H-1ZM19.314,4.377H4.377V14.833H19.314Z" transform="translate(68.415 89.774)" fill="url(#b)"/><path d="M-1-1H24.691V20.21H-1ZM19.314,4.377H4.377V14.833H19.314Z" transform="translate(68.527 89.774)" fill="url(#b)"/><path d="M0,0H25.691V21.21H0ZM20.314,5.377H5.377V15.833H20.314Z" transform="translate(109.051 69.058) rotate(90)" fill="url(#b)"/></g></g><g transform="translate(-244.778 1113.354) rotate(-90)"><g transform="translate(179.333 756.444)"><path d="M199.647,1008.278H194.27V969.741H179.333V914.774h67.514V831.128H179.333V756.444h72.891v69.307h82.451V756.444H392.63v15.534H430.57v5.377H392.63v23.3H351.4V771.979h35.848V761.822h-47.2v69.307H252.225v89.023H184.711v44.213h9.56V928.516h29.874v41.225h-24.5Zm0-43.914h19.119V933.893H199.647ZM184.711,825.751h62.137V761.822H184.711ZM356.782,795.28h30.471V777.356H356.782Z" transform="translate(-179.333 -756.444)" fill="url(#b)"/><path d="M238.682,904.418H179.333V844.87h87.828V756.444h58.851v59.448H281.5V770.784h30.77v23.9h-5.377V776.161H286.878v34.355h33.757V761.822h-48.1v88.426H184.711v48.794H233.3V864.587H200.046V883.9h19.219v5.377h-24.6V859.209h44.014Z" transform="translate(-179.333 -756.444)" fill="url(#b)"/><path d="M-1-1H45.005V45.005H-1ZM39.628,4.377H4.377V39.628H39.628Z" transform="translate(14.344 14.543)" fill="url(#b)"/><path d="M-1-1H24.691V20.21H-1ZM19.314,4.377H4.377V14.833H19.314Z" transform="translate(68.415 89.774)" fill="url(#b)"/><path d="M-1-1H24.691V20.21H-1ZM19.314,4.377H4.377V14.833H19.314Z" transform="translate(68.527 89.774)" fill="url(#b)"/><path d="M0,0H25.691V21.21H0ZM20.314,5.377H5.377V15.833H20.314Z" transform="translate(109.051 69.058) rotate(90)" fill="url(#b)"/></g></g></g></g><g transform="translate(289 835)"><g transform="translate(-511.666 -634)"><g transform="translate(1536.278 486.667) rotate(90)"><g transform="translate(179.333 756.444)"><path d="M199.647,1008.278H194.27V969.741H179.333V914.774h67.514V831.128H179.333V756.444h72.891v69.307h82.451V756.444H392.63v15.534H430.57v5.377H392.63v23.3H351.4V771.979h35.848V761.822h-47.2v69.307H252.225v89.023H184.711v44.213h9.56V928.516h29.874v41.225h-24.5Zm0-43.914h19.119V933.893H199.647ZM184.711,825.751h62.137V761.822H184.711ZM356.782,795.28h30.471V777.356H356.782Z" transform="translate(-179.333 -756.444)" fill="url(#b)"/><path d="M238.682,904.418H179.333V844.87h87.828V756.444h58.851v59.448H281.5V770.784h30.77v23.9h-5.377V776.161H286.878v34.355h33.757V761.822h-48.1v88.426H184.711v48.794H233.3V864.587H200.046V883.9h19.219v5.377h-24.6V859.209h44.014Z" transform="translate(-179.333 -756.444)" fill="url(#b)"/><path d="M-1-1H45.005V45.005H-1ZM39.628,4.377H4.377V39.628H39.628Z" transform="translate(14.344 14.543)" fill="url(#b)"/><path d="M-1-1H24.691V20.21H-1ZM19.314,4.377H4.377V14.833H19.314Z" transform="translate(68.415 89.774)" fill="url(#b)"/><path d="M-1-1H24.691V20.21H-1ZM19.314,4.377H4.377V14.833H19.314Z" transform="translate(68.527 89.774)" fill="url(#b)"/><path d="M0,0H25.691V21.21H0ZM20.314,5.377H5.377V15.833H20.314Z" transform="translate(109.051 69.058) rotate(90)" fill="url(#b)"/></g></g><g transform="translate(-244.778 1113.354) rotate(-90)"><g transform="translate(179.333 756.444)"><path d="M199.647,1008.278H194.27V969.741H179.333V914.774h67.514V831.128H179.333V756.444h72.891v69.307h82.451V756.444H392.63v15.534H430.57v5.377H392.63v23.3H351.4V771.979h35.848V761.822h-47.2v69.307H252.225v89.023H184.711v44.213h9.56V928.516h29.874v41.225h-24.5Zm0-43.914h19.119V933.893H199.647ZM184.711,825.751h62.137V761.822H184.711ZM356.782,795.28h30.471V777.356H356.782Z" transform="translate(-179.333 -756.444)" fill="url(#b)"/><path d="M238.682,904.418H179.333V844.87h87.828V756.444h58.851v59.448H281.5V770.784h30.77v23.9h-5.377V776.161H286.878v34.355h33.757V761.822h-48.1v88.426H184.711v48.794H233.3V864.587H200.046V883.9h19.219v5.377h-24.6V859.209h44.014Z" transform="translate(-179.333 -756.444)" fill="url(#b)"/><path d="M-1-1H45.005V45.005H-1ZM39.628,4.377H4.377V39.628H39.628Z" transform="translate(14.344 14.543)" fill="url(#b)"/><path d="M-1-1H24.691V20.21H-1ZM19.314,4.377H4.377V14.833H19.314Z" transform="translate(68.415 89.774)" fill="url(#b)"/><path d="M-1-1H24.691V20.21H-1ZM19.314,4.377H4.377V14.833H19.314Z" transform="translate(68.527 89.774)" fill="url(#b)"/><path d="M0,0H25.691V21.21H0ZM20.314,5.377H5.377V15.833H20.314Z" transform="translate(109.051 69.058) rotate(90)" fill="url(#b)"/></g></g></g></g><g transform="translate(578 835)"><g transform="translate(-511.666 -634)"><g transform="translate(1536.278 486.667) rotate(90)"><g transform="translate(179.333 756.444)"><path d="M199.647,1008.278H194.27V969.741H179.333V914.774h67.514V831.128H179.333V756.444h72.891v69.307h82.451V756.444H392.63v15.534H430.57v5.377H392.63v23.3H351.4V771.979h35.848V761.822h-47.2v69.307H252.225v89.023H184.711v44.213h9.56V928.516h29.874v41.225h-24.5Zm0-43.914h19.119V933.893H199.647ZM184.711,825.751h62.137V761.822H184.711ZM356.782,795.28h30.471V777.356H356.782Z" transform="translate(-179.333 -756.444)" fill="url(#b)"/><path d="M238.682,904.418H179.333V844.87h87.828V756.444h58.851v59.448H281.5V770.784h30.77v23.9h-5.377V776.161H286.878v34.355h33.757V761.822h-48.1v88.426H184.711v48.794H233.3V864.587H200.046V883.9h19.219v5.377h-24.6V859.209h44.014Z" transform="translate(-179.333 -756.444)" fill="url(#b)"/><path d="M-1-1H45.005V45.005H-1ZM39.628,4.377H4.377V39.628H39.628Z" transform="translate(14.344 14.543)" fill="url(#b)"/><path d="M-1-1H24.691V20.21H-1ZM19.314,4.377H4.377V14.833H19.314Z" transform="translate(68.415 89.774)" fill="url(#b)"/><path d="M-1-1H24.691V20.21H-1ZM19.314,4.377H4.377V14.833H19.314Z" transform="translate(68.527 89.774)" fill="url(#b)"/><path d="M0,0H25.691V21.21H0ZM20.314,5.377H5.377V15.833H20.314Z" transform="translate(109.051 69.058) rotate(90)" fill="url(#b)"/></g></g><g transform="translate(-244.778 1113.354) rotate(-90)"><g transform="translate(179.333 756.444)"><path d="M199.647,1008.278H194.27V969.741H179.333V914.774h67.514V831.128H179.333V756.444h72.891v69.307h82.451V756.444H392.63v15.534H430.57v5.377H392.63v23.3H351.4V771.979h35.848V761.822h-47.2v69.307H252.225v89.023H184.711v44.213h9.56V928.516h29.874v41.225h-24.5Zm0-43.914h19.119V933.893H199.647ZM184.711,825.751h62.137V761.822H184.711ZM356.782,795.28h30.471V777.356H356.782Z" transform="translate(-179.333 -756.444)" fill="url(#b)"/><path d="M238.682,904.418H179.333V844.87h87.828V756.444h58.851v59.448H281.5V770.784h30.77v23.9h-5.377V776.161H286.878v34.355h33.757V761.822h-48.1v88.426H184.711v48.794H233.3V864.587H200.046V883.9h19.219v5.377h-24.6V859.209h44.014Z" transform="translate(-179.333 -756.444)" fill="url(#b)"/><path d="M-1-1H45.005V45.005H-1ZM39.628,4.377H4.377V39.628H39.628Z" transform="translate(14.344 14.543)" fill="url(#b)"/><path d="M-1-1H24.691V20.21H-1ZM19.314,4.377H4.377V14.833H19.314Z" transform="translate(68.415 89.774)" fill="url(#b)"/><path d="M-1-1H24.691V20.21H-1ZM19.314,4.377H4.377V14.833H19.314Z" transform="translate(68.527 89.774)" fill="url(#b)"/><path d="M0,0H25.691V21.21H0ZM20.314,5.377H5.377V15.833H20.314Z" transform="translate(109.051 69.058) rotate(90)" fill="url(#b)"/></g></g></g></g><g transform="translate(867 835)"><g transform="translate(-511.666 -634)"><g transform="translate(1536.278 486.667) rotate(90)"><g transform="translate(179.333 756.444)"><path d="M199.647,1008.278H194.27V969.741H179.333V914.774h67.514V831.128H179.333V756.444h72.891v69.307h82.451V756.444H392.63v15.534H430.57v5.377H392.63v23.3H351.4V771.979h35.848V761.822h-47.2v69.307H252.225v89.023H184.711v44.213h9.56V928.516h29.874v41.225h-24.5Zm0-43.914h19.119V933.893H199.647ZM184.711,825.751h62.137V761.822H184.711ZM356.782,795.28h30.471V777.356H356.782Z" transform="translate(-179.333 -756.444)" fill="url(#b)"/><path d="M238.682,904.418H179.333V844.87h87.828V756.444h58.851v59.448H281.5V770.784h30.77v23.9h-5.377V776.161H286.878v34.355h33.757V761.822h-48.1v88.426H184.711v48.794H233.3V864.587H200.046V883.9h19.219v5.377h-24.6V859.209h44.014Z" transform="translate(-179.333 -756.444)" fill="url(#b)"/><path d="M-1-1H45.005V45.005H-1ZM39.628,4.377H4.377V39.628H39.628Z" transform="translate(14.344 14.543)" fill="url(#b)"/><path d="M-1-1H24.691V20.21H-1ZM19.314,4.377H4.377V14.833H19.314Z" transform="translate(68.415 89.774)" fill="url(#b)"/><path d="M-1-1H24.691V20.21H-1ZM19.314,4.377H4.377V14.833H19.314Z" transform="translate(68.527 89.774)" fill="url(#b)"/><path d="M0,0H25.691V21.21H0ZM20.314,5.377H5.377V15.833H20.314Z" transform="translate(109.051 69.058) rotate(90)" fill="url(#b)"/></g></g><g transform="translate(-244.778 1113.354) rotate(-90)"><g transform="translate(179.333 756.444)"><path d="M199.647,1008.278H194.27V969.741H179.333V914.774h67.514V831.128H179.333V756.444h72.891v69.307h82.451V756.444H392.63v15.534H430.57v5.377H392.63v23.3H351.4V771.979h35.848V761.822h-47.2v69.307H252.225v89.023H184.711v44.213h9.56V928.516h29.874v41.225h-24.5Zm0-43.914h19.119V933.893H199.647ZM184.711,825.751h62.137V761.822H184.711ZM356.782,795.28h30.471V777.356H356.782Z" transform="translate(-179.333 -756.444)" fill="url(#b)"/><path d="M238.682,904.418H179.333V844.87h87.828V756.444h58.851v59.448H281.5V770.784h30.77v23.9h-5.377V776.161H286.878v34.355h33.757V761.822h-48.1v88.426H184.711v48.794H233.3V864.587H200.046V883.9h19.219v5.377h-24.6V859.209h44.014Z" transform="translate(-179.333 -756.444)" fill="url(#b)"/><path d="M-1-1H45.005V45.005H-1ZM39.628,4.377H4.377V39.628H39.628Z" transform="translate(14.344 14.543)" fill="url(#b)"/><path d="M-1-1H24.691V20.21H-1ZM19.314,4.377H4.377V14.833H19.314Z" transform="translate(68.415 89.774)" fill="url(#b)"/><path d="M-1-1H24.691V20.21H-1ZM19.314,4.377H4.377V14.833H19.314Z" transform="translate(68.527 89.774)" fill="url(#b)"/><path d="M0,0H25.691V21.21H0ZM20.314,5.377H5.377V15.833H20.314Z" transform="translate(109.051 69.058) rotate(90)" fill="url(#b)"/></g></g></g></g><g transform="translate(1156 835)"><g transform="translate(-511.666 -634)"><g transform="translate(1536.278 486.667) rotate(90)"><g transform="translate(179.333 756.444)"><path d="M199.647,1008.278H194.27V969.741H179.333V914.774h67.514V831.128H179.333V756.444h72.891v69.307h82.451V756.444H392.63v15.534H430.57v5.377H392.63v23.3H351.4V771.979h35.848V761.822h-47.2v69.307H252.225v89.023H184.711v44.213h9.56V928.516h29.874v41.225h-24.5Zm0-43.914h19.119V933.893H199.647ZM184.711,825.751h62.137V761.822H184.711ZM356.782,795.28h30.471V777.356H356.782Z" transform="translate(-179.333 -756.444)" fill="url(#b)"/><path d="M238.682,904.418H179.333V844.87h87.828V756.444h58.851v59.448H281.5V770.784h30.77v23.9h-5.377V776.161H286.878v34.355h33.757V761.822h-48.1v88.426H184.711v48.794H233.3V864.587H200.046V883.9h19.219v5.377h-24.6V859.209h44.014Z" transform="translate(-179.333 -756.444)" fill="url(#b)"/><path d="M-1-1H45.005V45.005H-1ZM39.628,4.377H4.377V39.628H39.628Z" transform="translate(14.344 14.543)" fill="url(#b)"/><path d="M-1-1H24.691V20.21H-1ZM19.314,4.377H4.377V14.833H19.314Z" transform="translate(68.415 89.774)" fill="url(#b)"/><path d="M-1-1H24.691V20.21H-1ZM19.314,4.377H4.377V14.833H19.314Z" transform="translate(68.527 89.774)" fill="url(#b)"/><path d="M0,0H25.691V21.21H0ZM20.314,5.377H5.377V15.833H20.314Z" transform="translate(109.051 69.058) rotate(90)" fill="url(#b)"/></g></g><g transform="translate(-244.778 1113.354) rotate(-90)"><g transform="translate(179.333 756.444)"><path d="M199.647,1008.278H194.27V969.741H179.333V914.774h67.514V831.128H179.333V756.444h72.891v69.307h82.451V756.444H392.63v15.534H430.57v5.377H392.63v23.3H351.4V771.979h35.848V761.822h-47.2v69.307H252.225v89.023H184.711v44.213h9.56V928.516h29.874v41.225h-24.5Zm0-43.914h19.119V933.893H199.647ZM184.711,825.751h62.137V761.822H184.711ZM356.782,795.28h30.471V777.356H356.782Z" transform="translate(-179.333 -756.444)" fill="url(#b)"/><path d="M238.682,904.418H179.333V844.87h87.828V756.444h58.851v59.448H281.5V770.784h30.77v23.9h-5.377V776.161H286.878v34.355h33.757V761.822h-48.1v88.426H184.711v48.794H233.3V864.587H200.046V883.9h19.219v5.377h-24.6V859.209h44.014Z" transform="translate(-179.333 -756.444)" fill="url(#b)"/><path d="M-1-1H45.005V45.005H-1ZM39.628,4.377H4.377V39.628H39.628Z" transform="translate(14.344 14.543)" fill="url(#b)"/><path d="M-1-1H24.691V20.21H-1ZM19.314,4.377H4.377V14.833H19.314Z" transform="translate(68.415 89.774)" fill="url(#b)"/><path d="M-1-1H24.691V20.21H-1ZM19.314,4.377H4.377V14.833H19.314Z" transform="translate(68.527 89.774)" fill="url(#b)"/><path d="M0,0H25.691V21.21H0ZM20.314,5.377H5.377V15.833H20.314Z" transform="translate(109.051 69.058) rotate(90)" fill="url(#b)"/></g></g></g></g><g transform="translate(1445 835)"><g transform="translate(-511.666 -634)"><g transform="translate(1536.278 486.667) rotate(90)"><g transform="translate(179.333 756.444)"><path d="M199.647,1008.278H194.27V969.741H179.333V914.774h67.514V831.128H179.333V756.444h72.891v69.307h82.451V756.444H392.63v15.534H430.57v5.377H392.63v23.3H351.4V771.979h35.848V761.822h-47.2v69.307H252.225v89.023H184.711v44.213h9.56V928.516h29.874v41.225h-24.5Zm0-43.914h19.119V933.893H199.647ZM184.711,825.751h62.137V761.822H184.711ZM356.782,795.28h30.471V777.356H356.782Z" transform="translate(-179.333 -756.444)" fill="url(#b)"/><path d="M238.682,904.418H179.333V844.87h87.828V756.444h58.851v59.448H281.5V770.784h30.77v23.9h-5.377V776.161H286.878v34.355h33.757V761.822h-48.1v88.426H184.711v48.794H233.3V864.587H200.046V883.9h19.219v5.377h-24.6V859.209h44.014Z" transform="translate(-179.333 -756.444)" fill="url(#b)"/><path d="M-1-1H45.005V45.005H-1ZM39.628,4.377H4.377V39.628H39.628Z" transform="translate(14.344 14.543)" fill="url(#b)"/><path d="M-1-1H24.691V20.21H-1ZM19.314,4.377H4.377V14.833H19.314Z" transform="translate(68.415 89.774)" fill="url(#b)"/><path d="M-1-1H24.691V20.21H-1ZM19.314,4.377H4.377V14.833H19.314Z" transform="translate(68.527 89.774)" fill="url(#b)"/><path d="M0,0H25.691V21.21H0ZM20.314,5.377H5.377V15.833H20.314Z" transform="translate(109.051 69.058) rotate(90)" fill="url(#b)"/></g></g><g transform="translate(-244.778 1113.354) rotate(-90)"><g transform="translate(179.333 756.444)"><path d="M199.647,1008.278H194.27V969.741H179.333V914.774h67.514V831.128H179.333V756.444h72.891v69.307h82.451V756.444H392.63v15.534H430.57v5.377H392.63v23.3H351.4V771.979h35.848V761.822h-47.2v69.307H252.225v89.023H184.711v44.213h9.56V928.516h29.874v41.225h-24.5Zm0-43.914h19.119V933.893H199.647ZM184.711,825.751h62.137V761.822H184.711ZM356.782,795.28h30.471V777.356H356.782Z" transform="translate(-179.333 -756.444)" fill="url(#b)"/><path d="M238.682,904.418H179.333V844.87h87.828V756.444h58.851v59.448H281.5V770.784h30.77v23.9h-5.377V776.161H286.878v34.355h33.757V761.822h-48.1v88.426H184.711v48.794H233.3V864.587H200.046V883.9h19.219v5.377h-24.6V859.209h44.014Z" transform="translate(-179.333 -756.444)" fill="url(#b)"/><path d="M-1-1H45.005V45.005H-1ZM39.628,4.377H4.377V39.628H39.628Z" transform="translate(14.344 14.543)" fill="url(#b)"/><path d="M-1-1H24.691V20.21H-1ZM19.314,4.377H4.377V14.833H19.314Z" transform="translate(68.415 89.774)" fill="url(#b)"/><path d="M-1-1H24.691V20.21H-1ZM19.314,4.377H4.377V14.833H19.314Z" transform="translate(68.527 89.774)" fill="url(#b)"/><path d="M0,0H25.691V21.21H0ZM20.314,5.377H5.377V15.833H20.314Z" transform="translate(109.051 69.058) rotate(90)" fill="url(#b)"/></g></g></g></g><g transform="translate(1734 835)"><g transform="translate(-511.666 -634)"><g transform="translate(1536.278 486.667) rotate(90)"><g transform="translate(179.333 756.444)"><path d="M199.647,1008.278H194.27V969.741H179.333V914.774h67.514V831.128H179.333V756.444h72.891v69.307h82.451V756.444H392.63v15.534H430.57v5.377H392.63v23.3H351.4V771.979h35.848V761.822h-47.2v69.307H252.225v89.023H184.711v44.213h9.56V928.516h29.874v41.225h-24.5Zm0-43.914h19.119V933.893H199.647ZM184.711,825.751h62.137V761.822H184.711ZM356.782,795.28h30.471V777.356H356.782Z" transform="translate(-179.333 -756.444)" fill="url(#b)"/><path d="M238.682,904.418H179.333V844.87h87.828V756.444h58.851v59.448H281.5V770.784h30.77v23.9h-5.377V776.161H286.878v34.355h33.757V761.822h-48.1v88.426H184.711v48.794H233.3V864.587H200.046V883.9h19.219v5.377h-24.6V859.209h44.014Z" transform="translate(-179.333 -756.444)" fill="url(#b)"/><path d="M-1-1H45.005V45.005H-1ZM39.628,4.377H4.377V39.628H39.628Z" transform="translate(14.344 14.543)" fill="url(#b)"/><path d="M-1-1H24.691V20.21H-1ZM19.314,4.377H4.377V14.833H19.314Z" transform="translate(68.415 89.774)" fill="url(#b)"/><path d="M-1-1H24.691V20.21H-1ZM19.314,4.377H4.377V14.833H19.314Z" transform="translate(68.527 89.774)" fill="url(#b)"/><path d="M0,0H25.691V21.21H0ZM20.314,5.377H5.377V15.833H20.314Z" transform="translate(109.051 69.058) rotate(90)" fill="url(#b)"/></g></g><g transform="translate(-244.778 1113.354) rotate(-90)"><g transform="translate(179.333 756.444)"><path d="M199.647,1008.278H194.27V969.741H179.333V914.774h67.514V831.128H179.333V756.444h72.891v69.307h82.451V756.444H392.63v15.534H430.57v5.377H392.63v23.3H351.4V771.979h35.848V761.822h-47.2v69.307H252.225v89.023H184.711v44.213h9.56V928.516h29.874v41.225h-24.5Zm0-43.914h19.119V933.893H199.647ZM184.711,825.751h62.137V761.822H184.711ZM356.782,795.28h30.471V777.356H356.782Z" transform="translate(-179.333 -756.444)" fill="url(#b)"/><path d="M238.682,904.418H179.333V844.87h87.828V756.444h58.851v59.448H281.5V770.784h30.77v23.9h-5.377V776.161H286.878v34.355h33.757V761.822h-48.1v88.426H184.711v48.794H233.3V864.587H200.046V883.9h19.219v5.377h-24.6V859.209h44.014Z" transform="translate(-179.333 -756.444)" fill="url(#b)"/><path d="M-1-1H45.005V45.005H-1ZM39.628,4.377H4.377V39.628H39.628Z" transform="translate(14.344 14.543)" fill="url(#b)"/><path d="M-1-1H24.691V20.21H-1ZM19.314,4.377H4.377V14.833H19.314Z" transform="translate(68.415 89.774)" fill="url(#b)"/><path d="M-1-1H24.691V20.21H-1ZM19.314,4.377H4.377V14.833H19.314Z" transform="translate(68.527 89.774)" fill="url(#b)"/><path d="M0,0H25.691V21.21H0ZM20.314,5.377H5.377V15.833H20.314Z" transform="translate(109.051 69.058) rotate(90)" fill="url(#b)"/></g></g></g></g></g></svg>