<svg xmlns="http://www.w3.org/2000/svg" xmlns:xlink="http://www.w3.org/1999/xlink" width="988" height="218" viewBox="0 0 988 218"><defs><linearGradient id="a" x1="6.732" x2="4.29" y2="0.955" gradientUnits="objectBoundingBox"><stop offset="0" stop-color="#f7b927"/><stop offset="1" stop-color="#f6db25"/></linearGradient></defs><g transform="translate(1010.748 -313.746) rotate(90)"><g transform="translate(313.746 1010.748) rotate(-90)"><path d="M0,0H21.111V818.166H0ZM17.142,3.967H3.969V814.2H17.142Z" transform="translate(85.928 218) rotate(-90)" fill="url(#a)"/><path d="M0,0H21.111V818.166H0ZM17.142,3.967H3.969V814.2H17.142Z" transform="translate(85.266 21.111) rotate(-90)" fill="url(#a)"/><g transform="translate(900.124 0)"><path d="M0,0H21.111V21.611H0ZM17.142,3.969H3.969V17.641H17.142Z" transform="translate(0 218) rotate(-90)" fill="url(#a)"/><path d="M0,0H21.111V21.611H0ZM17.142,3.969H3.969V17.641H17.142Z" transform="translate(0 151.243) rotate(-90)" fill="url(#a)"/><path d="M0,0H21.111V21.611H0ZM17.142,3.969H3.969V17.641H17.142Z" transform="translate(0 87.957) rotate(-90)" fill="url(#a)"/><path d="M0,0H21.111V21.611H0ZM17.142,3.969H3.969V17.641H17.142Z" transform="translate(18.34 68.868) rotate(-90)" fill="url(#a)"/><path d="M0,0H49.837V17.641H0ZM45.867,3.969H3.969v9.7h41.9Z" transform="translate(51.373 133.962) rotate(-90)" fill="url(#a)"/><path d="M0,0H21.111V21.611H0ZM17.142,3.969H3.969V17.641H17.142Z" transform="translate(17.641 169.29) rotate(-90)" fill="url(#a)"/><path d="M0,0H34.753V21.611H0ZM30.784,3.969H3.969V17.641H30.784Z" transform="translate(0 200.858) rotate(-90)" fill="url(#a)"/><g transform="translate(35.981 129.881)"><path d="M0,0H21.111V21.611H0ZM17.142,3.969H3.969V17.641H17.142Z" transform="translate(30.783)" fill="url(#a)"/><path d="M0,0H34.753V21.611H0ZM30.784,3.969H3.969V17.641H30.784Z" fill="url(#a)"/></g><g transform="translate(35.981 66.596)"><path d="M0,0H21.111V21.611H0ZM17.142,3.969H3.969V17.641H17.142Z" transform="translate(30.783)" fill="url(#a)"/><path d="M0,0H34.753V21.611H0ZM30.784,3.969H3.969V17.641H30.784Z" fill="url(#a)"/></g><g transform="translate(0 0)"><path d="M0,0H21.111V21.611H0ZM17.142,3.969H3.969V17.641H17.142Z" transform="translate(21.611) rotate(90)" fill="url(#a)"/><path d="M0,0H34.753V21.611H0ZM30.784,3.969H3.969V17.641H30.784Z" transform="translate(21.611 17.142) rotate(90)" fill="url(#a)"/></g><path d="M0,0H34.253V35.136H0ZM30.284,3.969H3.969v27.2H30.284Z" transform="translate(35.981 18.612)" fill="url(#a)"/><path d="M0,0H34.253V35.136H0ZM30.284,3.969H3.969v27.2H30.284Z" transform="translate(35.981 164.488)" fill="url(#a)"/><path d="M0,0H34.253V35.136H0ZM30.284,3.969H3.969v27.2H30.284Z" transform="translate(51.123 180.071)" fill="url(#a)"/><path d="M0,0H34.253V35.136H0ZM30.284,3.969H3.969v27.2H30.284Z" transform="translate(51.123 3.029)" fill="url(#a)"/></g><g transform="translate(0 0)"><path d="M0,0H34.253V35.136H0ZM30.284,3.969H3.969v27.2H30.284Z" transform="translate(3.528 3.029)" fill="url(#a)"/><path d="M0,0H34.253V35.136H0ZM30.284,3.969H3.969v27.2H30.284Z" transform="translate(18.67 17.142)" fill="url(#a)"/><path d="M0,0H34.253V35.136H0ZM30.284,3.969H3.969v27.2H30.284Z" transform="translate(3.528 179.336)" fill="url(#a)"/><path d="M0,0H34.253V35.136H0ZM30.284,3.969H3.969v27.2H30.284Z" transform="translate(18.67 166.105)" fill="url(#a)"/><g transform="translate(0 129.881)"><path d="M0,0H21.111V21.611H0ZM17.142,3.969H3.969V17.641H17.142Z" fill="url(#a)"/><path d="M0,0H34.753V21.611H0ZM30.784,3.969H3.969V17.641H30.784Z" transform="translate(17.142)" fill="url(#a)"/></g><g transform="translate(67.404 166.105)"><path d="M0,0H21.111V21.611H0ZM17.142,3.969H3.969V17.641H17.142Z" transform="translate(0 51.895) rotate(-90)" fill="url(#a)"/><path d="M0,0H34.753V21.611H0ZM30.784,3.969H3.969V17.641H30.784Z" transform="translate(0 34.753) rotate(-90)" fill="url(#a)"/></g><path d="M0,0H21.111V21.611H0ZM17.142,3.969H3.969V17.641H17.142Z" transform="translate(48.808 170.082) rotate(-90)" fill="url(#a)"/><path d="M0,0H21.111V21.611H0ZM17.142,3.969H3.969V17.641H17.142Z" transform="translate(67.147 150.994) rotate(-90)" fill="url(#a)"/><path d="M0,0H49.837V17.641H0ZM45.867,3.969H3.969v9.7h41.9Z" transform="translate(19.405 133.962) rotate(-90)" fill="url(#a)"/><g transform="translate(0 66.596)"><path d="M0,0H21.111V21.611H0ZM17.142,3.969H3.969V17.641H17.142Z" fill="url(#a)"/><path d="M0,0H34.753V21.611H0ZM30.784,3.969H3.969V17.641H30.784Z" transform="translate(17.142)" fill="url(#a)"/></g><g transform="translate(66.963 0)"><path d="M0,0H21.111V21.611H0ZM17.142,3.969H3.969V17.641H17.142Z" transform="translate(21.611) rotate(90)" fill="url(#a)"/><path d="M0,0H34.753V21.611H0ZM30.784,3.969H3.969V17.641H30.784Z" transform="translate(21.611 17.142) rotate(90)" fill="url(#a)"/></g><path d="M0,0H21.111V21.611H0ZM17.142,3.969H3.969V17.641H17.142Z" transform="translate(47.926 69.25) rotate(-90)" fill="url(#a)"/><path d="M0,0H21.111V21.611H0ZM17.142,3.969H3.969V17.641H17.142Z" transform="translate(66.963 87.957) rotate(-90)" fill="url(#a)"/></g></g><path d="M0,61.733V87.716H55.266V149l779.624,0V87.716H891l-.222-25.983H834.89V0H55.266V61.733Z" transform="translate(348.746 962.748) rotate(-90)" fill="#c21b15"/></g></svg>