<svg xmlns="http://www.w3.org/2000/svg" xmlns:xlink="http://www.w3.org/1999/xlink" width="802" height="363" viewBox="0 0 802 363"><defs><linearGradient id="a" x1="0.25" y1="0.067" x2="0.75" y2="0.933" gradientUnits="objectBoundingBox"><stop offset="0" stop-color="#fff583"/><stop offset="1" stop-color="#dc8516"/></linearGradient><linearGradient id="b" x1="0.239" y1="0.081" x2="0.747" y2="0.891" xlink:href="#a"/><linearGradient id="c" x1="0.273" y1="0.103" x2="0.732" y2="0.948" xlink:href="#a"/><linearGradient id="d" x1="0.286" y1="0.066" x2="0.764" y2="0.906" xlink:href="#a"/><linearGradient id="e" x1="0.192" y1="0.056" x2="0.767" y2="1.032" xlink:href="#a"/><linearGradient id="f" x1="0.291" y1="0.059" x2="0.778" y2="0.978" xlink:href="#a"/><linearGradient id="j" x1="0.286" y1="0.066" x2="0.764" y2="0.906" xlink:href="#a"/><linearGradient id="k" x1="0.191" y1="0.056" x2="0.767" y2="1.032" xlink:href="#a"/><linearGradient id="l" x1="0.291" y1="0.059" x2="0.778" y2="0.978" xlink:href="#a"/><linearGradient id="o" x1="0.274" y1="0.103" x2="0.732" y2="0.948" xlink:href="#a"/><linearGradient id="t" x1="0.239" y1="0.081" x2="0.747" y2="0.891" xlink:href="#a"/><linearGradient id="u" x1="0.273" y1="0.103" x2="0.732" y2="0.948" xlink:href="#a"/><linearGradient id="v" x1="0.286" y1="0.066" x2="0.764" y2="0.906" xlink:href="#a"/><linearGradient id="w" x1="0.191" y1="0.056" x2="0.767" y2="1.032" xlink:href="#a"/><linearGradient id="x" x1="0.291" y1="0.059" x2="0.778" y2="0.978" xlink:href="#a"/><linearGradient id="ad" x1="0.291" y1="0.059" x2="0.778" y2="0.978" xlink:href="#a"/><linearGradient id="af" x1="0.239" y1="0.081" x2="0.747" y2="0.891" xlink:href="#a"/><linearGradient id="ay" x1="0.274" y1="0.103" x2="0.732" y2="0.948" xlink:href="#a"/><linearGradient id="az" x1="0.286" y1="0.066" x2="0.764" y2="0.906" xlink:href="#a"/><linearGradient id="bj" x1="0.239" y1="0.081" x2="0.747" y2="0.891" xlink:href="#a"/><linearGradient id="bs" x1="0.192" y1="0.056" x2="0.767" y2="1.032" xlink:href="#a"/><linearGradient id="bu" x1="0.25" y1="0.067" x2="0.75" y2="0.933" xlink:href="#a"/><linearGradient id="bx" x1="0.286" y1="0.066" x2="0.764" y2="0.906" xlink:href="#a"/><linearGradient id="cc" x1="0.274" y1="0.103" x2="0.732" y2="0.948" xlink:href="#a"/><linearGradient id="cf" x1="0.291" y1="0.059" x2="0.778" y2="0.978" xlink:href="#a"/></defs><g transform="translate(-376.584 -417.564)"><path d="M376.584,536.338s44.248,10.347,117.948,16.127c70.788,5.552,102.7,57.787,122.561,85.246,0,0,62.546,98.628,123.71,75.648,40.757-15.316,96.262,44.724,116.8,47.614h19.211l-23.244-12.48-50.14-33.7c-4.113-7.2,18.807-15.334,43.031-25.248l-57.245,5.376c-15.026.142-12.111-5.479-1.922-13.439l16.89-16.956a19.552,19.552,0,0,0,5.381-10.285l1.548-8.47s-27.66,37.633-70.692,57.6S626.7,624.656,626.7,624.656s-23.052-28.8,14.217-23.04c33.895,5.241,166.791,9.367,190.561,10.07a58.248,58.248,0,0,0,7.272-.311c29.318-2.789,47.585,10.223,58.866,32.456a54.376,54.376,0,0,0,11.47,15.619c16.377,15.057,38.4,20.331,77.992-4.842C1016.851,621.2,1042.9,627.1,1057,630.418a233.607,233.607,0,0,0,63.584,5.918,30.011,30.011,0,0,0,12.8-3.634l42.339-23.019c-35.646,15.344-74.763,22.363-123.292,6.806a43.046,43.046,0,0,0-11.649-2.156c-31.755-1.073-41.753,9.056-52.064,21.319-23.527,27.983-64.976,37.651-73.532,9.061-5.884-19.662-18.423-32.018-33.052-39.841a83.914,83.914,0,0,0-41.462-9.479l-56.447,1.231c18.69-17.107,22.775-38.192,28.719-60.669,5.389-23.286,28.7-34.359,62.72-43.775l26.9-13.056-46.538,8.953c-.456.08-8.563,2.587-9,2.735-33.2,11.13-44.066,39.26-52.035,72.792-14.585,28.856-92.634,25.414-164.82,24.958-48.9-12.042-79.587-27.978-98.355-46.463-8.838-11.135,12.679-26.878,53.21-35.325l24.012-3.841c-62.5-10.207-85.956,41.349-181.51,26.943-17.1-6.91-8.727-22.838,20.915-34.623,48.892-14.6,111.254-17.566,178.494-16.309a61.662,61.662,0,0,1,15.957,2.382c24.709,7.146,48.034,11.21,69.265,10.609a16.94,16.94,0,0,0,13.415-7.4l3.719-5.407H695.085c-4.4-1.244-2.671-4.251.5-7.143a28.106,28.106,0,0,1,17.456-7.117c37.813-7.633,129.641-9.406,215.258-11.85-63.272-3.948-128.638-3.385-201.225-.863a215.166,215.166,0,0,0-25.646,2.88c-24.761,7.309-47.043,9.722-72.038,11.806l-96.244.179c-5.6.01-11.278-4.442-11.953-9.994a10.7,10.7,0,0,1,.394-4.533,11.486,11.486,0,0,1,9.844-7.67l57.235-6.4c-13.612-8.447-31.366-13.1-66.185-2.136A41.365,41.365,0,0,0,510.9,442.16c-26.693,19.061-54.2,33.62-83.6,37.731-18.065,1.514-35.065.7-50.713-3.071Z" transform="translate(0 19.59)" fill="#100403"/><g transform="translate(823.478 442.818)"><circle cx="4.937" cy="4.937" r="4.937" transform="translate(22.175 23.205)" fill="url(#a)"/><path d="M561.649,440.808a2.63,2.63,0,0,0-2.983-.034c-3.089,2.083-9.26,7.423-4.754,14.6,7.467,11.89,17-2.036,16.551-7.366a2.466,2.466,0,0,0-1.092-1.761Z" transform="translate(-543.476 -406.54)" fill="url(#b)"/><path d="M561.086,447.532a2.624,2.624,0,0,0-.563,2.928c1.5,3.411,5.652,10.435,13.513,7.281,13.033-5.229,1.03-17.093-4.3-17.6a2.471,2.471,0,0,0-1.93.76Z" transform="translate(-530.756 -406.848)" fill="url(#c)"/><path d="M565.419,448.25a2.622,2.622,0,0,0,2.342,1.844c3.717.233,11.866-.236,12.668-8.671,1.331-13.978-14.719-8.751-17.609-4.251a2.464,2.464,0,0,0-.21,2.062Z" transform="translate(-527.284 -419.232)" fill="url(#d)"/><path d="M569.363,444.729a2.627,2.627,0,0,0,2.459-1.686c1.328-3.481,3.307-11.4-4.505-14.675-12.948-5.434-12.74,11.443-9.3,15.542a2.463,2.463,0,0,0,1.906.814Z" transform="translate(-537.583 -427.301)" fill="url(#e)"/><path d="M567.715,438.543a2.627,2.627,0,0,0-.985-2.814c-3.011-2.194-10.134-6.178-15.345.5-8.635,11.073,7.709,15.293,12.564,13.049a2.47,2.47,0,0,0,1.286-1.624Z" transform="translate(-548.91 -418.959)" fill="url(#f)"/></g><g transform="translate(912.468 650.562)"><circle cx="5.033" cy="5.033" r="5.033" transform="translate(22.605 23.658)" fill="url(#a)"/><path d="M596.211,521.233a2.675,2.675,0,0,0-3.04-.034c-3.149,2.124-9.441,7.568-4.848,14.883,7.615,12.12,17.334-2.078,16.872-7.511a2.51,2.51,0,0,0-1.11-1.795Z" transform="translate(-577.686 -486.297)" fill="url(#b)"/><path d="M595.639,528.087a2.674,2.674,0,0,0-.576,2.985c1.528,3.478,5.761,10.64,13.778,7.423,13.285-5.33,1.048-17.427-4.381-17.941a2.51,2.51,0,0,0-1.966.773Z" transform="translate(-564.719 -486.61)" fill="url(#c)"/><path d="M600.054,528.819a2.673,2.673,0,0,0,2.389,1.881c3.79.236,12.095-.241,12.914-8.839,1.357-14.25-15.007-8.922-17.954-4.334a2.524,2.524,0,0,0-.213,2.1Z" transform="translate(-561.179 -499.235)" fill="url(#j)"/><path d="M604.075,525.232a2.675,2.675,0,0,0,2.505-1.719c1.356-3.548,3.372-11.62-4.591-14.963C588.79,503.011,589,520.218,592.5,524.4a2.513,2.513,0,0,0,1.943.83Z" transform="translate(-571.678 -507.462)" fill="url(#k)"/><path d="M602.393,518.925a2.671,2.671,0,0,0-1-2.869c-3.068-2.239-10.331-6.3-15.64.511-8.8,11.288,7.856,15.591,12.808,13.306a2.515,2.515,0,0,0,1.31-1.657Z" transform="translate(-583.225 -498.958)" fill="url(#l)"/></g><g transform="translate(772.621 700.735)"><circle cx="5.033" cy="5.033" r="5.033" transform="translate(22.605 23.657)" fill="url(#a)"/><path d="M542.285,540.6a2.675,2.675,0,0,0-3.04-.034c-3.149,2.122-9.441,7.566-4.848,14.88,7.615,12.12,17.334-2.078,16.872-7.509a2.52,2.52,0,0,0-1.11-1.8Z" transform="translate(-523.76 -505.662)" fill="url(#b)"/><path d="M541.713,547.452a2.674,2.674,0,0,0-.576,2.985c1.528,3.478,5.763,10.64,13.778,7.423,13.285-5.33,1.048-17.427-4.381-17.941a2.532,2.532,0,0,0-1.966.773Z" transform="translate(-510.793 -505.976)" fill="url(#o)"/><path d="M546.128,548.184a2.672,2.672,0,0,0,2.389,1.88c3.789.239,12.1-.241,12.914-8.839,1.357-14.25-15.007-8.922-17.951-4.334a2.515,2.515,0,0,0-.215,2.1Z" transform="translate(-507.253 -518.601)" fill="url(#j)"/><path d="M550.149,544.6a2.675,2.675,0,0,0,2.505-1.719c1.357-3.548,3.372-11.62-4.591-14.961-13.2-5.54-12.987,11.667-9.485,15.845a2.514,2.514,0,0,0,1.943.83Z" transform="translate(-517.752 -526.827)" fill="url(#e)"/><path d="M548.467,538.289a2.673,2.673,0,0,0-1-2.869c-3.068-2.238-10.328-6.3-15.64.514-8.8,11.288,7.857,15.588,12.808,13.3a2.515,2.515,0,0,0,1.31-1.657Z" transform="translate(-529.299 -518.324)" fill="url(#l)"/></g><g transform="translate(593.517 601.822)"><circle cx="4.181" cy="4.181" r="4.181" transform="translate(18.778 19.651)" fill="url(#a)"/><path d="M471.022,500.093a2.227,2.227,0,0,0-2.526-.029c-2.615,1.764-7.841,6.287-4.026,12.362,6.323,10.069,14.4-1.725,14.014-6.238a2.082,2.082,0,0,0-.923-1.491Z" transform="translate(-455.633 -471.074)" fill="url(#t)"/><path d="M470.545,505.787a2.223,2.223,0,0,0-.477,2.48c1.268,2.887,4.785,8.837,11.446,6.165,11.034-4.428.869-14.476-3.639-14.9a2.081,2.081,0,0,0-1.634.641Z" transform="translate(-444.862 -471.334)" fill="url(#u)"/><path d="M474.214,506.4a2.225,2.225,0,0,0,1.984,1.564c3.149.195,10.048-.2,10.728-7.345,1.126-11.835-12.465-7.41-14.911-3.6a2.089,2.089,0,0,0-.179,1.746Z" transform="translate(-441.922 -481.822)" fill="url(#v)"/><path d="M477.554,503.416a2.223,2.223,0,0,0,2.083-1.429c1.126-2.947,2.8-9.651-3.815-12.429-10.964-4.6-10.787,9.693-7.877,13.163a2.089,2.089,0,0,0,1.613.69Z" transform="translate(-450.643 -488.655)" fill="url(#w)"/><path d="M476.158,498.175a2.221,2.221,0,0,0-.833-2.384c-2.55-1.857-8.583-5.229-12.995.428-7.312,9.376,6.528,12.948,10.64,11.049a2.087,2.087,0,0,0,1.089-1.375Z" transform="translate(-460.235 -481.59)" fill="url(#x)"/></g><g transform="translate(763.434 590.673)"><circle cx="4.181" cy="4.181" r="4.181" transform="translate(18.777 19.65)" fill="url(#a)"/><path d="M536.542,495.791a2.218,2.218,0,0,0-2.524-.026c-2.617,1.761-7.844,6.285-4.026,12.359,6.323,10.069,14.4-1.725,14.014-6.238a2.09,2.09,0,0,0-.923-1.491Z" transform="translate(-521.155 -466.774)" fill="url(#b)"/><path d="M536.067,501.485a2.22,2.22,0,0,0-.477,2.48c1.268,2.889,4.785,8.837,11.444,6.165,11.036-4.427.871-14.476-3.639-14.9a2.085,2.085,0,0,0-1.631.641Z" transform="translate(-510.383 -467.034)" fill="url(#u)"/><path d="M539.734,502.1a2.226,2.226,0,0,0,1.984,1.561c3.149.2,10.048-.2,10.728-7.343,1.126-11.838-12.463-7.413-14.911-3.6a2.1,2.1,0,0,0-.179,1.746Z" transform="translate(-507.443 -477.521)" fill="url(#v)"/><path d="M543.076,499.113a2.222,2.222,0,0,0,2.08-1.429c1.126-2.947,2.8-9.651-3.813-12.427-10.966-4.6-10.787,9.69-7.88,13.161a2.081,2.081,0,0,0,1.613.69Z" transform="translate(-516.165 -484.354)" fill="url(#e)"/><path d="M541.679,493.875a2.225,2.225,0,0,0-.835-2.384c-2.55-1.86-8.58-5.232-12.992.425-7.312,9.376,6.526,12.948,10.639,11.049a2.078,2.078,0,0,0,1.087-1.375Z" transform="translate(-525.756 -477.29)" fill="url(#ad)"/></g><g transform="translate(652.068 681.298)"><circle cx="7.462" cy="7.462" r="7.462" transform="translate(33.513 35.073)" fill="url(#a)"/><path d="M502.063,539.749a3.964,3.964,0,0,0-4.505-.049c-4.669,3.146-14,11.218-7.185,22.06,11.285,17.972,25.7-3.079,25.011-11.133a3.728,3.728,0,0,0-1.647-2.664Z" transform="translate(-474.601 -487.956)" fill="url(#af)"/><path d="M501.216,549.912a3.966,3.966,0,0,0-.853,4.425c2.267,5.154,8.544,15.773,20.428,11.005,19.694-7.9,1.554-25.836-6.495-26.6a3.74,3.74,0,0,0-2.915,1.146Z" transform="translate(-455.378 -488.421)" fill="url(#c)"/><path d="M507.762,551a3.965,3.965,0,0,0,3.541,2.788c5.621.35,17.933-.358,19.147-13.106,2.01-21.126-22.247-13.228-26.615-6.425a3.721,3.721,0,0,0-.316,3.115Z" transform="translate(-450.13 -507.138)" fill="url(#v)"/><path d="M513.723,545.677a3.964,3.964,0,0,0,3.717-2.55c2.007-5.26,5-17.228-6.809-22.182-19.57-8.209-19.253,17.3-14.061,23.494a3.735,3.735,0,0,0,2.879,1.232Z" transform="translate(-465.695 -519.334)" fill="url(#k)"/><path d="M511.232,536.327a3.967,3.967,0,0,0-1.489-4.254c-4.549-3.317-15.316-9.338-23.188.76-13.052,16.735,11.649,23.113,18.989,19.723a3.72,3.72,0,0,0,1.943-2.456Z" transform="translate(-482.813 -506.726)" fill="url(#l)"/></g><g transform="translate(403.018 521.331)"><circle cx="7.462" cy="7.462" r="7.462" transform="translate(33.514 35.073)" fill="url(#a)"/><path d="M406.026,478.019a3.969,3.969,0,0,0-4.505-.052c-4.669,3.149-14,11.22-7.185,22.062,11.285,17.972,25.7-3.079,25.012-11.132a3.723,3.723,0,0,0-1.647-2.664Z" transform="translate(-378.563 -426.225)" fill="url(#af)"/><path d="M405.179,488.18a3.97,3.97,0,0,0-.853,4.427c2.267,5.154,8.544,15.773,20.428,11,19.694-7.9,1.554-25.834-6.495-26.6a3.722,3.722,0,0,0-2.915,1.146Z" transform="translate(-359.339 -426.69)" fill="url(#c)"/><path d="M411.725,489.267a3.966,3.966,0,0,0,3.541,2.788c5.621.35,17.933-.36,19.147-13.106,2.01-21.126-22.247-13.228-26.614-6.427a3.727,3.727,0,0,0-.317,3.118Z" transform="translate(-354.091 -445.407)" fill="url(#j)"/><path d="M417.686,483.947A3.967,3.967,0,0,0,421.4,481.4c2.007-5.258,5-17.225-6.809-22.179-19.57-8.212-19.253,17.3-14.061,23.492a3.718,3.718,0,0,0,2.879,1.232Z" transform="translate(-369.657 -457.603)" fill="url(#k)"/><path d="M415.2,474.6a3.972,3.972,0,0,0-1.489-4.256c-4.549-3.315-15.316-9.335-23.191.763-13.049,16.735,11.651,23.11,18.991,19.723a3.727,3.727,0,0,0,1.943-2.456Z" transform="translate(-386.776 -444.995)" fill="url(#f)"/></g><g transform="translate(432.958 472.242)"><circle cx="4.234" cy="4.234" r="4.234" transform="translate(19.016 19.901)" fill="url(#a)"/><path d="M409.243,450.245a2.25,2.25,0,0,0-2.557-.028c-2.651,1.784-7.942,6.365-4.077,12.517,6.4,10.2,14.582-1.746,14.193-6.318a2.111,2.111,0,0,0-.936-1.51Z" transform="translate(-393.659 -420.855)" fill="url(#af)"/><path d="M408.761,456.01a2.253,2.253,0,0,0-.485,2.511c1.286,2.926,4.848,8.951,11.591,6.246,11.176-4.485.882-14.66-3.686-15.093a2.124,2.124,0,0,0-1.655.651Z" transform="translate(-382.75 -421.119)" fill="url(#c)"/><path d="M412.476,456.627a2.249,2.249,0,0,0,2.008,1.582c3.19.2,10.178-.2,10.865-7.436,1.141-11.988-12.624-7.506-15.1-3.647a2.112,2.112,0,0,0-.182,1.769Z" transform="translate(-379.773 -431.74)" fill="url(#j)"/><path d="M415.859,453.608a2.244,2.244,0,0,0,2.106-1.447c1.141-2.983,2.838-9.773-3.862-12.585-11.1-4.661-10.925,9.815-7.978,13.329a2.121,2.121,0,0,0,1.634.7Z" transform="translate(-388.605 -438.66)" fill="url(#k)"/><path d="M414.445,448.3a2.255,2.255,0,0,0-.846-2.415c-2.581-1.88-8.689-5.3-13.158.433-7.405,9.493,6.611,13.114,10.774,11.189a2.1,2.1,0,0,0,1.1-1.393Z" transform="translate(-398.318 -431.506)" fill="url(#l)"/></g><g transform="translate(523.065 508.144)"><circle cx="4.949" cy="4.949" r="4.949" transform="translate(22.229 23.263)" fill="url(#a)"/><path d="M445.839,466.053a2.633,2.633,0,0,0-2.991-.031c-3.1,2.085-9.283,7.439-4.765,14.631,7.486,11.921,17.043-2.041,16.589-7.384a2.472,2.472,0,0,0-1.092-1.766Z" transform="translate(-427.621 -431.7)" fill="url(#b)"/><path d="M445.275,472.794a2.629,2.629,0,0,0-.565,2.936c1.5,3.419,5.665,10.461,13.547,7.3,13.065-5.242,1.03-17.137-4.306-17.643a2.471,2.471,0,0,0-1.935.762Z" transform="translate(-414.87 -432.009)" fill="url(#ay)"/><path d="M449.618,473.513a2.624,2.624,0,0,0,2.347,1.849c3.727.234,11.895-.236,12.7-8.692,1.333-14.014-14.756-8.775-17.653-4.261a2.47,2.47,0,0,0-.21,2.065Z" transform="translate(-411.39 -444.423)" fill="url(#az)"/><path d="M453.572,469.985a2.629,2.629,0,0,0,2.464-1.691c1.333-3.489,3.315-11.425-4.516-14.712-12.979-5.447-12.772,11.472-9.327,15.583a2.483,2.483,0,0,0,1.909.817Z" transform="translate(-421.714 -452.513)" fill="url(#k)"/><path d="M451.919,463.783a2.628,2.628,0,0,0-.988-2.822c-3.016-2.2-10.157-6.191-15.381.506-8.655,11.1,7.727,15.329,12.6,13.083a2.475,2.475,0,0,0,1.289-1.629Z" transform="translate(-433.068 -444.15)" fill="url(#f)"/></g><g transform="translate(698.806 471.968)"><circle cx="4.949" cy="4.949" r="4.949" transform="translate(22.228 23.263)" fill="url(#a)"/><path d="M513.6,452.081a2.629,2.629,0,0,0-2.988-.034c-3.1,2.088-9.283,7.442-4.767,14.634,7.488,11.918,17.046-2.044,16.592-7.387a2.48,2.48,0,0,0-1.095-1.766Z" transform="translate(-495.389 -417.726)" fill="url(#af)"/><path d="M513.041,458.822a2.63,2.63,0,0,0-.565,2.933c1.5,3.419,5.667,10.463,13.55,7.3,13.062-5.239,1.03-17.134-4.308-17.64a2.467,2.467,0,0,0-1.932.76Z" transform="translate(-482.638 -418.035)" fill="url(#o)"/><path d="M517.383,459.541a2.634,2.634,0,0,0,2.35,1.849c3.727.233,11.895-.239,12.7-8.694,1.333-14.011-14.756-8.772-17.653-4.262a2.476,2.476,0,0,0-.21,2.067Z" transform="translate(-479.157 -430.449)" fill="url(#j)"/><path d="M521.337,456.013a2.629,2.629,0,0,0,2.464-1.694c1.333-3.489,3.317-11.425-4.516-14.712-12.979-5.444-12.769,11.475-9.325,15.583a2.471,2.471,0,0,0,1.909.817Z" transform="translate(-489.481 -438.539)" fill="url(#w)"/><path d="M519.686,449.811a2.634,2.634,0,0,0-.988-2.822c-3.016-2.2-10.157-6.194-15.381.5-8.655,11.1,7.727,15.332,12.6,13.083a2.475,2.475,0,0,0,1.289-1.629Z" transform="translate(-500.835 -430.176)" fill="url(#l)"/></g><g transform="translate(551.305 417.564)"><circle cx="6.47" cy="6.47" r="6.47" transform="translate(29.06 30.413)" fill="url(#a)"/><path d="M460.653,435.268a3.437,3.437,0,0,0-3.909-.044c-4.049,2.729-12.136,9.727-6.23,19.129,9.786,15.583,22.283-2.669,21.689-9.654a3.229,3.229,0,0,0-1.429-2.308Z" transform="translate(-436.837 -390.355)" fill="url(#bj)"/><path d="M459.916,444.078a3.442,3.442,0,0,0-.739,3.839c1.964,4.469,7.408,13.677,17.713,9.542,17.08-6.85,1.346-22.4-5.631-23.064a3.237,3.237,0,0,0-2.526.993Z" transform="translate(-420.167 -390.758)" fill="url(#u)"/><path d="M465.592,445.021a3.437,3.437,0,0,0,3.071,2.417c4.871.3,15.549-.311,16.6-11.366,1.743-18.317-19.292-11.469-23.079-5.571a3.243,3.243,0,0,0-.275,2.7Z" transform="translate(-415.616 -406.989)" fill="url(#v)"/><path d="M470.762,440.407a3.436,3.436,0,0,0,3.221-2.21c1.743-4.562,4.337-14.94-5.9-19.235-16.968-7.12-16.7,15-12.193,20.371a3.233,3.233,0,0,0,2.5,1.068Z" transform="translate(-429.115 -417.564)" fill="url(#k)"/><path d="M468.6,432.3a3.437,3.437,0,0,0-1.289-3.688c-3.945-2.877-13.282-8.1-20.109.659-11.317,14.512,10.1,20.042,16.465,17.1a3.23,3.23,0,0,0,1.686-2.129Z" transform="translate(-443.958 -406.632)" fill="url(#l)"/></g><g transform="translate(858.712 459.939)"><circle cx="7.014" cy="7.014" r="7.014" transform="translate(31.502 32.968)" fill="url(#a)"/><path d="M580.594,453.092a3.73,3.73,0,0,0-4.238-.047C571.97,456,563.2,463.589,569.6,473.783c10.611,16.893,24.158-2.895,23.515-10.466a3.507,3.507,0,0,0-1.551-2.5Z" transform="translate(-554.778 -404.407)" fill="url(#b)"/><path d="M579.8,462.644a3.727,3.727,0,0,0-.8,4.16c2.127,4.845,8.028,14.826,19.2,10.344,18.514-7.426,1.46-24.285-6.1-25a3.507,3.507,0,0,0-2.741,1.076Z" transform="translate(-536.706 -404.843)" fill="url(#u)"/><path d="M585.95,463.664a3.726,3.726,0,0,0,3.328,2.622c5.283.329,16.857-.337,18-12.32,1.888-19.858-20.913-12.434-25.019-6.041a3.508,3.508,0,0,0-.3,2.928Z" transform="translate(-531.775 -422.438)" fill="url(#j)"/><path d="M591.554,458.665a3.734,3.734,0,0,0,3.494-2.4c1.888-4.944,4.7-16.193-6.4-20.849-18.395-7.719-18.1,16.258-13.218,22.083a3.511,3.511,0,0,0,2.708,1.157Z" transform="translate(-546.407 -433.901)" fill="url(#bs)"/><path d="M589.21,449.875a3.732,3.732,0,0,0-1.4-4c-4.277-3.118-14.4-8.777-21.8.716-12.269,15.731,10.951,21.725,17.85,18.54a3.509,3.509,0,0,0,1.826-2.308Z" transform="translate(-562.497 -422.051)" fill="url(#l)"/></g><g transform="translate(1151.097 619.414)"><circle cx="2.55" cy="2.55" r="2.55" transform="translate(11.453 11.984)" fill="url(#bu)"/><path d="M681.82,502.416a1.355,1.355,0,0,0-1.541-.018c-1.6,1.076-4.783,3.834-2.456,7.54,3.857,6.139,8.782-1.053,8.549-3.805a1.272,1.272,0,0,0-.563-.91Z" transform="translate(-672.434 -484.718)" fill="url(#b)"/><path d="M681.53,505.888a1.357,1.357,0,0,0-.293,1.512c.776,1.761,2.921,5.39,6.98,3.761,6.731-2.7.532-8.829-2.218-9.088a1.265,1.265,0,0,0-1,.392Z" transform="translate(-665.864 -484.877)" fill="url(#o)"/><path d="M683.765,506.258a1.36,1.36,0,0,0,1.211.954c1.919.119,6.129-.125,6.542-4.479.687-7.218-7.6-4.521-9.094-2.2a1.288,1.288,0,0,0-.109,1.066Z" transform="translate(-664.071 -491.273)" fill="url(#bx)"/><path d="M685.8,504.441a1.358,1.358,0,0,0,1.271-.872c.685-1.8,1.707-5.888-2.327-7.579-6.687-2.806-6.58,5.908-4.806,8.028a1.273,1.273,0,0,0,.986.42Z" transform="translate(-669.39 -495.439)" fill="url(#bs)"/><path d="M684.953,501.246a1.362,1.362,0,0,0-.508-1.455c-1.556-1.131-5.234-3.19-7.927.262-4.459,5.717,3.982,7.9,6.49,6.739a1.27,1.27,0,0,0,.664-.838Z" transform="translate(-675.24 -491.132)" fill="url(#f)"/></g><g transform="translate(1006.723 631.928)"><circle cx="2.788" cy="2.788" r="2.788" transform="translate(12.524 13.106)" fill="url(#bu)"/><path d="M626.763,507.9a1.48,1.48,0,0,0-1.683-.021c-1.746,1.178-5.232,4.194-2.685,8.246,4.218,6.715,9.6-1.152,9.345-4.16a1.394,1.394,0,0,0-.615-1Z" transform="translate(-616.5 -488.543)" fill="url(#t)"/><path d="M626.447,511.695a1.476,1.476,0,0,0-.319,1.652c.846,1.927,3.19,5.9,7.633,4.114,7.358-2.954.578-9.654-2.428-9.939a1.393,1.393,0,0,0-1.089.428Z" transform="translate(-609.316 -488.716)" fill="url(#cc)"/><path d="M628.893,512.1a1.479,1.479,0,0,0,1.323,1.043c2.1.132,6.7-.135,7.154-4.9.752-7.9-8.313-4.944-9.944-2.4a1.4,1.4,0,0,0-.119,1.165Z" transform="translate(-607.355 -495.711)" fill="url(#bx)"/><path d="M631.121,510.112a1.48,1.48,0,0,0,1.388-.954c.752-1.964,1.87-6.435-2.544-8.287-7.312-3.068-7.2,6.464-5.252,8.78a1.388,1.388,0,0,0,1.074.459Z" transform="translate(-613.172 -500.268)" fill="url(#e)"/><path d="M630.19,506.618a1.482,1.482,0,0,0-.558-1.59c-1.7-1.24-5.722-3.489-8.666.285-4.876,6.254,4.355,8.637,7.1,7.371a1.392,1.392,0,0,0,.726-.918Z" transform="translate(-619.569 -495.557)" fill="url(#cf)"/></g></g></svg>