<svg xmlns="http://www.w3.org/2000/svg" xmlns:xlink="http://www.w3.org/1999/xlink" width="840.882" height="645.869" viewBox="0 0 840.882 645.869"><defs><radialGradient id="a" cx="0.5" cy="0.5" r="0.484" gradientTransform="translate(-0.035) scale(1.069 1)" gradientUnits="objectBoundingBox"><stop offset="0" stop-color="#ff8b75"/><stop offset="0.285" stop-color="#cc2d55"/><stop offset="1" stop-color="#ffdce5"/></radialGradient><radialGradient id="b" cx="0.5" cy="0.5" r="0.484" xlink:href="#a"/><radialGradient id="c" cx="0.5" cy="0.5" r="0.484" xlink:href="#a"/><radialGradient id="d" cx="0.503" cy="0.496" r="0.483" gradientTransform="matrix(1.078, -0.048, 0.052, 0.999, -0.065, 0.025)" xlink:href="#a"/><radialGradient id="e" cx="0.5" cy="0.5" r="0.484" xlink:href="#a"/><radialGradient id="f" cx="0.5" cy="0.5" r="0.484" xlink:href="#a"/><radialGradient id="g" cx="0.5" cy="0.5" r="0.484" xlink:href="#a"/><radialGradient id="h" cx="0.5" cy="0.5" r="0.484" xlink:href="#a"/><radialGradient id="i" cx="0.5" cy="0.5" r="0.484" xlink:href="#a"/><radialGradient id="j" cx="0.5" cy="0.5" r="0.484" xlink:href="#a"/><radialGradient id="k" cx="0.5" cy="0.5" r="0.484" xlink:href="#a"/><radialGradient id="l" cx="0.5" cy="0.5" r="0.484" xlink:href="#a"/><radialGradient id="m" cx="0.5" cy="0.5" r="0.484" xlink:href="#a"/><radialGradient id="n" cx="0.5" cy="0.5" r="0.484" xlink:href="#a"/><radialGradient id="o" cx="0.5" cy="0.5" r="0.484" xlink:href="#a"/><radialGradient id="p" cx="0.5" cy="0.5" r="0.484" xlink:href="#a"/><radialGradient id="q" cx="0.5" cy="0.5" r="0.484" xlink:href="#a"/><radialGradient id="r" cx="0.5" cy="0.5" r="0.484" xlink:href="#a"/><radialGradient id="s" cx="0.5" cy="0.5" r="0.484" xlink:href="#a"/><radialGradient id="t" cx="0.5" cy="0.5" r="0.484" xlink:href="#a"/><radialGradient id="u" cx="0.5" cy="0.5" r="0.484" xlink:href="#a"/><radialGradient id="v" cx="0.5" cy="0.5" r="0.484" xlink:href="#a"/><radialGradient id="w" cx="0.5" cy="0.5" r="0.484" xlink:href="#a"/><radialGradient id="x" cx="0.5" cy="0.5" r="0.484" xlink:href="#a"/><radialGradient id="y" cx="0.5" cy="0.5" r="0.484" xlink:href="#a"/><radialGradient id="z" cx="0.5" cy="0.5" r="0.484" xlink:href="#a"/><radialGradient id="aa" cx="0.5" cy="0.5" r="0.484" xlink:href="#a"/><radialGradient id="ab" cx="0.5" cy="0.5" r="0.484" xlink:href="#a"/><radialGradient id="ac" cx="0.5" cy="0.5" r="0.484" xlink:href="#a"/><radialGradient id="ad" cx="0.5" cy="0.5" r="0.484" xlink:href="#a"/><radialGradient id="ae" cx="0.5" cy="0.5" r="0.484" xlink:href="#a"/><radialGradient id="af" cx="0.5" cy="0.5" r="0.484" xlink:href="#a"/><radialGradient id="ah" cx="0.5" cy="0.5" r="0.484" xlink:href="#a"/><radialGradient id="ai" cx="0.5" cy="0.5" r="0.484" xlink:href="#a"/><radialGradient id="aj" cx="0.5" cy="0.5" r="0.484" xlink:href="#a"/><radialGradient id="al" cx="0.5" cy="0.5" r="0.484" xlink:href="#a"/><radialGradient id="am" cx="0.5" cy="0.5" r="0.484" xlink:href="#a"/><radialGradient id="an" cx="0.5" cy="0.5" r="0.484" xlink:href="#a"/><radialGradient id="ao" cx="0.5" cy="0.5" r="0.484" xlink:href="#a"/><radialGradient id="ap" cx="0.5" cy="0.5" r="0.484" xlink:href="#a"/></defs><g opacity="0.4"><path d="M94.6,379.5c85.476,22.371,157.678,53.134,207.364,89.357a4.438,4.438,0,0,1,.991,1.067c8.967,12.71,62-5.069,112.065,10.331a4.34,4.34,0,0,0,.851.17c46,4.37,88.767,7.107,114.743,1.338a4.376,4.376,0,0,1,1.143-.088c14.708.617,20.316-27.933,26.041-62.551a23.272,23.272,0,0,1,1.68-5.293c7.809-16.064,19.56-23.728,40.253-22.351l11,.268-1.354.9a4.444,4.444,0,0,1-2.345.739c-11.1.307-20.375,1.61-28.052,3.788a4.461,4.461,0,0,0-1.343.634,35.9,35.9,0,0,0-15.608,25.735l-4.536,37.089c-.017.139-.041.28-.069.418-2.545,12.112-6.826,18.405-10.675,21.335a.075.075,0,0,0,.055.133c53.959-2.77,88.289,3.7,117.358,17.767a4.077,4.077,0,0,0,.572.225c19.526,5.947,36.812,14.953,53.322,17.4a4.416,4.416,0,0,0,4.6-2.4c17.1-34.385,56.4-63.615,54.835-85.214.616,1.581,1.146,3.44-1.422,14.372-2.527,11-15.829,24.076-25.419,36.944a4.412,4.412,0,0,0,.08,5.382c3.744,4.715,5.676,10.577,6.993,16.92a4.42,4.42,0,0,0,5.594,3.389,17.568,17.568,0,0,0,3.264-1.518l-.173.127a4.468,4.468,0,0,0-.321,6.883,20.009,20.009,0,0,1,3.355,4.439l-.893,1.073c-4.7-8.631-11.1-6.029-13.059-12.521-3.359-11.114-4.83-23.548-10.627-14.127-.067.109-.139.215-.216.318-1.683,2.208-22.047,29.279-9.627,30.3a4.7,4.7,0,0,1,.89.146l49.656,13.911a4.553,4.553,0,0,1,.69.255c19.19,8.992,41.228,20.33,51.188,21.453a4.294,4.294,0,0,1,.7.134c7.8,2.224,17.88,6.252,16.47,12.246-.716-6.262-13.495-9.2-20.057-9.723-22.647-1.008-37.657-15.972-60.672-21.786-.1-.024-.2-.054-.292-.088-33.389-11.865-69.275-9.386-92.5-21.531-9.751-5.1-48.925-20.226-80.675-21.466-45.794-1.789-82,5.711-119.494,5.545-29.5-.13-60.463-5.545-90.806-7.485-10.326-.66-23.523.089-34.793.447-13.576.1-24.146,1.083-18.6,6.8l52.3,46.682c.658.588,1.366,2.05,2.239,2.171,16.88-2.258,29.166-2.131,35.066,3.712q.2.027.391.073c32.034,1.073,58.591,4.265,72.075,16.591,26.969,16.714,58.178,22.425,91.514,22.619a4.452,4.452,0,0,0,4.908-2.1c19.505-33.5,44.764-14.977,52.073-62.49,2.225-14.461,3.731-20.98,8.408-28.622,6.937-11.334,20.771-18.679,26.945-17.459-20.66,4.361-30.753,23.7-29.985,43.934.244,6.45-3.881,16.422-5.725,23.076-3.124,11.268-18.773,22.666-37.326,32.092a4.355,4.355,0,0,0-1.109.791,20.549,20.549,0,0,0-3.662,4.921c-3.414,6.427-3.009,7.37,4.241,7.343,17.576-.068,29.083-1.754,43.581-2.572,29.6-1.667,57.537-3.612,73.3-3a3.5,3.5,0,0,1,1.483.4,61.879,61.879,0,0,0,49.406,2.817c20.828-7.813,39.1-15.415,67.461-5.295-24.3-5.5-49.492-1.647-75.59,11.757a4.518,4.518,0,0,1-1.294.437,69.133,69.133,0,0,1-32.261-2.025,62.665,62.665,0,0,0-17.781-2.909c-59.522-.5-102.416,14.97-155.088,4.865a3.945,3.945,0,0,0-.533-.065c-49.675-2.63-75.393-35.441-106.557-33.008-.157.012-.313.058-.469.06-28.334.4-51.8-11.477-72.84.1-1.107.61-3.771-2.652-4.853-3.3-12.171-12.9-28.841-31.626-43.8-39.694s-69.078-51.274-78.061-56.544c-13.969-8.2-72.979-31.538-110.133-41.3a4.374,4.374,0,0,0-.929-.421l-52-16.742a4.435,4.435,0,0,1-3.075-4.221V383.793A4.44,4.44,0,0,1,94.6,379.5Z" transform="translate(-89.041 -149.97)" fill="#3b242c"/><path d="M89.041,496.267c54.309,12.495,101.009,37.79,143.951,69.406,12.593,8.772,26.385,26.923,36.045,47.316a339.122,339.122,0,0,0,46.957,74.326c17.844,21.734,8.854,46.018,35.6,38.639l17.71-6.082,44.006-10.2c61.633-15.378,112.149-31.986,128.081-52.414,11.173-14.132,22.539,19.857,45.078,48.836,11.109,14.283,26.3,35.553,27.548,49.908-.128,20.175,2.739,35.509,8,46.957,7.268,11.482,15.387,15.637,23.747,17.71-9.453-2.857-17.274-9.68-22.942-21.734-6.305-21.466-.805-33.273-4.428-50.043l-12.745-26.7c-3.242-8.7,3.424-8.44,12.611-5.9,25.223,6.575,42.261-3.488,58.63,7.782,16.9,13.013,10.733,26.161,24.015,47.091,5.435,5.147,12.209,9.66,20.661,11.269-10.583-5.559-19.921-12.425-24.417-21.734l-7.111-24.685a101.857,101.857,0,0,0-14.624-18.381c-6.584-4.7-27.772-2.683-46.421-4.427-10.687-3.533-19.108-6.241-25.946-6.026-12.17,4.695-24.1-33.82-47.172-63.068,11.058-10.711,20.607-25.439,27.906-46.152C593.62,572.914,613.035,545.769,635.3,518c14.824-18.932,27.69-38,35.152-57.422,18.2,15.8,39.579,21.749,65.471,13.685,32.475-12.6,63.406-14.234,91.767,2.415,22.674,11.269,21.2,32.6,47.672,32.914,16.348-1.521,28.81.383,35.956,6.977-3.189-5.764-9.37-9.481-19.677-10.376-27.057,1.073-30.992.1-40.159-15.831-2.93-5.089-9.423-12.243-14.669-16.278,4.377-6.016,19.864-3.357,35.33-.716,13.708-.38,21.441-9.96,26.9-14.567s27.124,1.151,27.124,1.151-19.674-8.119-28.174-2.46c-7.374,4.911-10.69,12.245-25.848,12.477-16.175-5.583-29.384-6.4-39-1.431-1.127,2.394-4.553,1.006-8.944-1.968-35.258-17.823-59.708-9.669-84.791-3.04-26.664,6.674-47.841,3.034-61.536-14.668-8.6-8.735,19.856-29.338,28.263-61.895l2.326-28.442C722.36,349.609,735.876,344.69,748.8,346c38.192-1.611,46.6-40.964,80.23-42.933-5.594-.811-11.663-1.036-22,4.025-24.865,3.488-26.117,33-54.739,32.2l-38.37,5.635c-8.018,3.79-8.379-2.719-4.83-14.49,4.656-13.609,6.881-26.871,4.292-39.444-4.791-19.321-5.276-39.086-1.609-51.787s1.073-41.322,1.073-41.322c2.236,37.029-13.327,58.137-4.294,93.645,1.007,14.341-1.45,28.256-6.439,41.859-4.562,41.054-1.341,52.86-15.831,75.668,0,0-32.533,41.35-33.809,54.2-1.432,14.4-57.227,76.1-61.984,81.57-25.848,41.949-41.144,86.013-66.545,98.476-34.867,20.555-77.354,34.672-124.235,45.078-64.4,14.311-56.885-13.952-106.793-95.524-27.3-66.533-98.4-114.772-203.878-148.652Z" transform="translate(-89.041 -187.616)" fill="#3b242c"/><path d="M435.269,464.384c0-12.707,15.622-19.319,23.344-7.31,17.442-1.276,19.051,14.555,12.075,22.337,5.635,10.2-2.951,21.93-15.831,18.246-9.66,8.05-22,1.879-21.734-8.586C425.072,481.021,424.8,469.752,435.269,464.384Z" transform="translate(-18.878 -135.155)" fill="url(#a)"/><path d="M460.158,553.627c0-12.707,15.622-19.319,23.344-7.311,17.442-1.275,19.051,14.556,12.075,22.337,5.635,10.2-2.951,21.931-15.831,18.247-9.66,8.049-22,1.878-21.734-8.587C449.961,570.264,449.693,558.993,460.158,553.627Z" transform="translate(-13.714 -116.641)" fill="url(#b)"/><path d="M354.273,521.557c0-10.123,12.445-15.391,18.6-5.825,13.894-1.016,15.178,11.6,9.62,17.8,4.488,8.123-2.352,17.471-12.612,14.535-7.7,6.413-17.529,1.5-17.315-6.84C346.149,534.81,345.935,525.832,354.273,521.557Z" transform="translate(-35.343 -122.719)" fill="url(#c)"/><path d="M326.912,510.782c-.71-14.773,17.083-23.333,26.732-9.8,20.206-2.457,22.961,15.858,15.285,25.294,7.12,11.54-2.206,25.661-17.386,22.1-10.78,9.9-25.475,3.412-25.747-8.769C315.988,530.693,315.047,517.606,326.912,510.782Z" transform="translate(-41.493 -126.14)" fill="url(#d)"/><path d="M423.669,530.166c0-10.705,13.161-16.277,19.667-6.159,14.695-1.075,16.051,12.263,10.173,18.82,4.748,8.59-2.486,18.477-13.338,15.372-8.138,6.782-18.537,1.583-18.311-7.234C415.078,544.182,414.852,534.688,423.669,530.166Z" transform="translate(-21.022 -121.063)" fill="url(#e)"/><path d="M511.707,473.874c0-10.705,13.161-16.277,19.668-6.159,14.694-1.075,16.05,12.263,10.173,18.82,4.747,8.59-2.487,18.477-13.339,15.372-8.138,6.782-18.537,1.583-18.311-7.234C503.117,487.89,502.89,478.4,511.707,473.874Z" transform="translate(-2.757 -132.741)" fill="url(#f)"/><path d="M546.956,504.113c0-7.454,9.165-11.333,13.694-4.288,10.232-.749,11.176,8.538,7.083,13.1,3.306,5.981-1.731,12.864-9.287,10.7-5.667,4.722-12.908,1.1-12.75-5.036C540.974,513.873,540.817,507.263,546.956,504.113Z" transform="translate(4.982 -125.744)" fill="url(#g)"/><path d="M575.338,364.679c0-10.707,13.161-16.277,19.667-6.159,14.695-1.075,16.051,12.263,10.173,18.818,4.748,8.591-2.486,18.477-13.338,15.373-8.138,6.781-18.537,1.582-18.311-7.235C566.747,378.695,566.521,369.2,575.338,364.679Z" transform="translate(10.444 -155.395)" fill="url(#h)"/><path d="M538.985,426.465c0-10.705,13.161-16.277,19.667-6.159,14.695-1.075,16.051,12.263,10.174,18.82,4.747,8.591-2.487,18.477-13.339,15.372-8.138,6.782-18.537,1.583-18.311-7.234C530.394,440.481,530.168,430.987,538.985,426.465Z" transform="translate(2.902 -142.577)" fill="url(#i)"/><path d="M615.426,472.014c0-8.368,10.287-12.723,15.373-4.814,11.487-.84,12.547,9.586,7.952,14.711,3.711,6.716-1.944,14.444-10.426,12.017-6.361,5.3-14.491,1.238-14.313-5.655C608.71,482.97,608.534,475.549,615.426,472.014Z" transform="translate(19.067 -132.607)" fill="url(#j)"/><path d="M542.913,710.072c0-6.388,7.852-9.71,11.734-3.674,8.766-.641,9.575,7.316,6.069,11.227,2.833,5.124-1.484,11.023-7.957,9.171-4.855,4.046-11.059.944-10.924-4.315C537.788,718.434,537.653,712.769,542.913,710.072Z" transform="translate(4.284 -82.778)" fill="url(#k)"/><path d="M609.192,679.241c0-3.825,4.7-5.816,7.028-2.2,5.25-.384,5.735,4.382,3.635,6.726,1.7,3.069-.889,6.6-4.766,5.493-2.908,2.424-6.624.565-6.543-2.585C606.122,684.25,606.041,680.856,609.192,679.241Z" transform="translate(18.37 -88.604)" fill="url(#l)"/><path d="M719.7,531.491c0-3.826,4.7-5.816,7.029-2.2,5.25-.384,5.735,4.382,3.635,6.724,1.7,3.069-.889,6.6-4.766,5.493-2.907,2.423-6.624.566-6.543-2.584C716.635,536.5,716.554,533.107,719.7,531.491Z" transform="translate(41.297 -119.257)" fill="url(#m)"/><path d="M707.68,524.263c0-5.426,6.671-8.249,9.968-3.122,7.448-.545,8.136,6.216,5.157,9.539,2.405,4.354-1.261,9.364-6.761,7.79-4.125,3.438-9.4.8-9.281-3.666C703.326,531.366,703.211,526.555,707.68,524.263Z" transform="translate(38.593 -121.113)" fill="url(#n)"/><path d="M696.135,545.819c0-5.426,6.67-8.249,9.968-3.121,7.448-.544,8.136,6.215,5.156,9.538,2.406,4.354-1.259,9.365-6.759,7.792-4.125,3.438-9.4.8-9.281-3.667C691.781,552.924,691.667,548.111,696.135,545.819Z" transform="translate(36.198 -116.641)" fill="url(#o)"/><path d="M683.69,545.819c0-5.426,6.671-8.249,9.969-3.121,7.448-.544,8.135,6.215,5.156,9.538,2.406,4.354-1.261,9.365-6.761,7.792-4.125,3.438-9.4.8-9.281-3.667C679.336,552.924,679.222,548.111,683.69,545.819Z" transform="translate(33.616 -116.641)" fill="url(#p)"/><path d="M513.967,552.17c0-7.175,8.821-10.908,13.181-4.128,9.848-.72,10.757,8.219,6.819,12.613,3.182,5.757-1.667,12.382-8.939,10.3-5.455,4.545-12.424,1.06-12.273-4.848C508.21,561.563,508.058,555.2,513.967,552.17Z" transform="translate(-1.825 -115.712)" fill="url(#q)"/><path d="M609.313,552.17c0-7.175,8.82-10.908,13.181-4.128,9.848-.72,10.757,8.219,6.819,12.613,3.182,5.757-1.668,12.382-8.939,10.3-5.454,4.545-12.424,1.06-12.273-4.848C603.555,561.563,603.4,555.2,609.313,552.17Z" transform="translate(17.956 -115.712)" fill="url(#r)"/><path d="M602.168,416.672c0-7.176,8.82-10.909,13.181-4.128,9.848-.721,10.757,8.218,6.819,12.612,3.182,5.757-1.668,12.383-8.94,10.3-5.454,4.545-12.424,1.06-12.271-4.849C596.411,426.065,596.259,419.7,602.168,416.672Z" transform="translate(16.473 -143.823)" fill="url(#s)"/><path d="M697.723,427.184c0-7.175,8.822-10.908,13.182-4.127,9.848-.721,10.756,8.218,6.817,12.612,3.182,5.757-1.666,12.383-8.939,10.3-5.454,4.546-12.424,1.061-12.271-4.848C691.966,436.578,691.815,430.215,697.723,427.184Z" transform="translate(36.298 -141.642)" fill="url(#t)"/><path d="M741.882,417.54c0-5.667,6.966-8.614,10.409-3.26,7.777-.569,8.5,6.491,5.384,9.962,2.513,4.546-1.316,9.779-7.059,8.136-4.308,3.59-9.812.838-9.692-3.829C737.334,424.959,737.215,419.933,741.882,417.54Z" transform="translate(45.657 -143.307)" fill="url(#u)"/><path d="M712.52,550.268c0-2.713,3.336-4.125,4.985-1.561,3.724-.273,4.068,3.108,2.578,4.769,1.2,2.177-.63,4.682-3.38,3.9-2.062,1.718-4.7.4-4.64-1.833C710.343,553.819,710.286,551.414,712.52,550.268Z" transform="translate(39.953 -115.114)" fill="url(#v)"/><path d="M459.461,475.635c0-7.65,9.4-11.631,14.054-4.4,10.5-.768,11.469,8.763,7.269,13.446,3.392,6.139-1.777,13.2-9.53,10.984-5.815,4.847-13.246,1.131-13.085-5.169C453.322,485.649,453.161,478.865,459.461,475.635Z" transform="translate(-13.196 -131.696)" fill="url(#w)"/><path d="M648.285,493.728c0-2.889,3.551-4.393,5.307-1.663,3.965-.29,4.332,3.31,2.746,5.079,1.281,2.318-.671,4.987-3.6,4.149-2.2,1.83-5,.427-4.942-1.952C645.967,497.51,645.9,494.948,648.285,493.728Z" transform="translate(26.603 -126.883)" fill="url(#x)"/><path d="M648.59,481.933a2.524,2.524,0,0,1,4.692-1.47c3.505-.257,3.829,2.926,2.427,4.489a2.563,2.563,0,0,1-3.183,3.667c-1.942,1.618-4.422.378-4.369-1.725C646.539,485.276,646.486,483.011,648.59,481.933Z" transform="translate(26.71 -129.256)" fill="url(#y)"/><path d="M632.4,464.582c0-3.893,4.786-5.919,7.153-2.24,5.343-.39,5.837,4.46,3.7,6.844,1.727,3.125-.9,6.72-4.85,5.591-2.96,2.467-6.741.576-6.659-2.631C629.275,469.68,629.193,466.227,632.4,464.582Z" transform="translate(23.176 -133.153)" fill="url(#z)"/><path d="M576.445,463.177a2.552,2.552,0,0,1,4.744-1.486c3.544-.258,3.871,2.958,2.453,4.54a2.59,2.59,0,0,1-3.217,3.707c-1.963,1.636-4.471.382-4.417-1.745C574.373,466.557,574.319,464.267,576.445,463.177Z" transform="translate(11.739 -133.153)" fill="url(#aa)"/><path d="M765.39,458.92a2.552,2.552,0,0,1,4.744-1.485c3.544-.26,3.871,2.958,2.454,4.539a2.591,2.591,0,0,1-3.217,3.708c-1.963,1.635-4.471.382-4.417-1.745C763.318,462.3,763.263,460.011,765.39,458.92Z" transform="translate(50.938 -134.036)" fill="url(#ab)"/><path d="M777.966,412.248c0-3.05,3.75-4.638,5.6-1.754,4.188-.307,4.574,3.494,2.9,5.362,1.352,2.448-.709,5.265-3.8,4.381-2.32,1.932-5.283.45-5.219-2.062C775.519,416.242,775.455,413.536,777.966,412.248Z" transform="translate(53.486 -143.823)" fill="url(#ac)"/><path d="M655.066,422.656c0-3.893,4.786-5.919,7.152-2.24,5.344-.39,5.837,4.46,3.7,6.844,1.727,3.125-.9,6.72-4.85,5.591-2.959,2.467-6.741.576-6.659-2.631C651.941,427.754,651.859,424.3,655.066,422.656Z" transform="translate(27.878 -141.851)" fill="url(#ad)"/><path d="M471.842,406.2c0-8.578,10.544-13.041,15.756-4.935,11.772-.861,12.858,9.824,8.149,15.076,3.8,6.883-1.991,14.8-10.685,12.315-6.52,5.434-14.851,1.268-14.67-5.795C464.959,417.427,464.778,409.82,471.842,406.2Z" transform="translate(-10.749 -146.308)" fill="url(#ae)"/><path d="M516.751,385.52c0-5.162,6.344-7.847,9.481-2.969,7.084-.518,7.738,5.912,4.9,9.072,2.288,4.142-1.2,8.908-6.431,7.411-3.923,3.269-8.936.762-8.827-3.488C512.609,392.277,512.5,387.7,516.751,385.52Z" transform="translate(-0.984 -149.838)" fill="url(#af)"/><path d="M601.186,194.916c0-5.161,6.345-7.846,9.481-2.969,7.084-.518,7.737,5.912,4.9,9.073,2.288,4.14-1.2,8.906-6.431,7.41-3.923,3.27-8.936.763-8.827-3.487C597.044,201.673,596.935,197.1,601.186,194.916Z" transform="translate(16.534 -189.381)" fill="url(#af)"/><path d="M595.412,232.9c0-8.333,10.244-12.669,15.308-4.795,11.437-.836,12.492,9.545,7.917,14.648,3.695,6.686-1.936,14.38-10.38,11.965-6.334,5.278-14.428,1.232-14.252-5.63C588.726,243.808,588.55,236.418,595.412,232.9Z" transform="translate(14.92 -182.207)" fill="url(#ah)"/><path d="M577.5,269.047c0-8.333,10.244-12.669,15.308-4.794,11.437-.837,12.492,9.544,7.917,14.646,3.695,6.686-1.936,14.381-10.381,11.965-6.334,5.278-14.428,1.232-14.252-5.63C570.81,279.956,570.634,272.566,577.5,269.047Z" transform="translate(11.203 -174.708)" fill="url(#ai)"/><path d="M645.052,305.787c0-8.333,10.244-12.668,15.307-4.794,11.437-.837,12.492,9.545,7.919,14.648,3.695,6.686-1.936,14.38-10.382,11.965-6.333,5.278-14.427,1.232-14.252-5.63C638.366,316.7,638.19,309.307,645.052,305.787Z" transform="translate(25.218 -167.085)" fill="url(#aj)"/><path d="M518.755,682.951c0-8.333,10.244-12.669,15.308-4.794,11.436-.837,12.492,9.544,7.917,14.647,3.695,6.686-1.935,14.381-10.381,11.965-6.334,5.278-14.428,1.232-14.253-5.63C512.069,693.859,511.893,686.47,518.755,682.951Z" transform="translate(-0.984 -88.837)" fill="url(#ai)"/><path d="M335.592,593.24c0-13.5,16.6-20.528,24.8-7.768,18.533-1.355,20.243,15.466,12.831,23.734,5.988,10.835-3.136,23.3-16.821,19.388-10.265,8.554-23.379,2-23.094-9.124C324.757,610.917,324.472,598.943,335.592,593.24Z" transform="translate(-39.662 -108.599)" fill="url(#al)"/><path d="M595.875,317.3c0-9.283,11.412-14.113,17.053-5.341,12.74-.932,13.916,10.633,8.82,16.316,4.116,7.449-2.156,16.021-11.565,13.329-7.056,5.88-16.073,1.372-15.877-6.273C588.427,329.456,588.231,321.224,595.875,317.3Z" transform="translate(14.891 -164.907)" fill="url(#am)"/><path d="M679.386,282.616c0-6.4,7.868-9.731,11.757-3.683,8.784-.642,9.595,7.332,6.081,11.25,2.839,5.135-1.486,11.046-7.973,9.19-4.865,4.055-11.082.945-10.947-4.324C674.251,290.995,674.116,285.319,679.386,282.616Z" transform="translate(32.595 -171.463)" fill="url(#an)"/><path d="M508.1,618.442c0-8.389,10.314-12.756,15.413-4.827,11.514-.842,12.578,9.61,7.972,14.748,3.72,6.733-1.949,14.48-10.453,12.047-6.377,5.315-14.527,1.24-14.349-5.669C501.367,629.426,501.189,621.985,508.1,618.442Z" transform="translate(-3.202 -102.233)" fill="url(#ao)"/><path d="M584.236,650.016c0-5.565,6.841-8.46,10.222-3.2,7.637-.559,8.342,6.373,5.287,9.78,2.467,4.465-1.292,9.6-6.932,7.99-4.23,3.525-9.634.822-9.517-3.76C579.772,657.3,579.654,652.366,584.236,650.016Z" transform="translate(12.965 -95.054)" fill="url(#ap)"/></g></svg>